<?xml version="1.0" encoding="us-ascii" standalone="no"?><svg xmlns="http://www.w3.org/2000/svg" xmlns:xlink="http://www.w3.org/1999/xlink" contentStyleType="text/css" height="887px" preserveAspectRatio="none" style="width:955px;height:887px;background:#FFFFFF;" version="1.1" viewBox="0 0 955 887" width="955px" zoomAndPan="magnify"><defs/><g><text fill="#000000" font-family="sans-serif" font-size="14" font-weight="bold" lengthAdjust="spacing" textLength="458" x="241.75" y="25.1074">Class Diagram / As Marketing director, I want to define a new Plan</text><!--class PlansRepositoryBD--><g id="elem_PlansRepositoryBD"><rect codeLine="39" fill="#F1F1F1" height="97.8242" id="PlansRepositoryBD" rx="2.5" ry="2.5" style="stroke:#181818;stroke-width:0.5;" width="343" x="326" y="472.6211"/><text fill="#000000" font-family="sans-serif" font-size="12" font-style="italic" lengthAdjust="spacing" textLength="61" x="467" y="490.5703">&#171;interface&#187;</text><text fill="#000000" font-family="sans-serif" font-size="14" font-style="italic" lengthAdjust="spacing" textLength="122" x="436.5" y="508.6895">PlansRepositoryBD</text><line style="stroke:#181818;stroke-width:0.5;" x1="327" x2="668" y1="517.2031" y2="517.2031"/><line style="stroke:#181818;stroke-width:0.5;" x1="327" x2="668" y1="525.2031" y2="525.2031"/><ellipse cx="337" cy="540.0137" fill="#84BE84" rx="3" ry="3" style="stroke:#038048;stroke-width:1.0;"/><text fill="#000000" font-family="sans-serif" font-size="14" lengthAdjust="spacing" textLength="317" x="346" y="544.3105">findByName_Name(String name): Optional&lt;Plans&gt;</text><ellipse cx="337" cy="558.6348" fill="#84BE84" rx="3" ry="3" style="stroke:#038048;stroke-width:1.0;"/><text fill="#000000" font-family="sans-serif" font-size="14" lengthAdjust="spacing" textLength="216" x="346" y="562.9316">save(S entity) : &lt;S extends Plans&gt;</text></g><!--class Plans--><g id="elem_Plans"><rect codeLine="9" fill="#F1F1F1" height="230.832" id="Plans" rx="2.5" ry="2.5" style="stroke:#181818;stroke-width:0.5;" width="184" x="405.5" y="649.6211"/><text fill="#000000" font-family="sans-serif" font-size="14" lengthAdjust="spacing" textLength="35" x="480" y="669.7285">Plans</text><line style="stroke:#181818;stroke-width:0.5;" x1="406.5" x2="588.5" y1="678.2422" y2="678.2422"/><rect fill="none" height="6" style="stroke:#C82930;stroke-width:1.0;" width="6" x="413.5" y="690.0527"/><text fill="#000000" font-family="sans-serif" font-size="14" lengthAdjust="spacing" textLength="35" x="425.5" y="697.3496">name</text><rect fill="none" height="6" style="stroke:#C82930;stroke-width:1.0;" width="6" x="413.5" y="708.6738"/><text fill="#000000" font-family="sans-serif" font-size="14" lengthAdjust="spacing" textLength="69" x="425.5" y="715.9707">description</text><rect fill="none" height="6" style="stroke:#C82930;stroke-width:1.0;" width="6" x="413.5" y="727.2949"/><text fill="#000000" font-family="sans-serif" font-size="14" lengthAdjust="spacing" textLength="112" x="425.5" y="734.5918">numberOfMinutes</text><rect fill="none" height="6" style="stroke:#C82930;stroke-width:1.0;" width="6" x="413.5" y="745.916"/><text fill="#000000" font-family="sans-serif" font-size="14" lengthAdjust="spacing" textLength="158" x="425.5" y="753.2129">maximumNumberOfUsers</text><rect fill="none" height="6" style="stroke:#C82930;stroke-width:1.0;" width="6" x="413.5" y="764.5371"/><text fill="#000000" font-family="sans-serif" font-size="14" lengthAdjust="spacing" textLength="98" x="425.5" y="771.834">musicCollection</text><rect fill="none" height="6" style="stroke:#C82930;stroke-width:1.0;" width="6" x="413.5" y="783.1582"/><text fill="#000000" font-family="sans-serif" font-size="14" lengthAdjust="spacing" textLength="107" x="425.5" y="790.4551">musicSuggestion</text><rect fill="none" height="6" style="stroke:#C82930;stroke-width:1.0;" width="6" x="413.5" y="801.7793"/><text fill="#000000" font-family="sans-serif" font-size="14" lengthAdjust="spacing" textLength="68" x="425.5" y="809.0762">annualFee</text><rect fill="none" height="6" style="stroke:#C82930;stroke-width:1.0;" width="6" x="413.5" y="820.4004"/><text fill="#000000" font-family="sans-serif" font-size="14" lengthAdjust="spacing" textLength="74" x="425.5" y="827.6973">monthlyFee</text><rect fill="none" height="6" style="stroke:#C82930;stroke-width:1.0;" width="6" x="413.5" y="839.0215"/><text fill="#000000" font-family="sans-serif" font-size="14" lengthAdjust="spacing" textLength="37" x="425.5" y="846.3184">active</text><rect fill="none" height="6" style="stroke:#C82930;stroke-width:1.0;" width="6" x="413.5" y="857.6426"/><text fill="#000000" font-family="sans-serif" font-size="14" lengthAdjust="spacing" textLength="60" x="425.5" y="864.9395">promoted</text><line style="stroke:#181818;stroke-width:0.5;" x1="406.5" x2="588.5" y1="872.4531" y2="872.4531"/></g><!--class PlansViewMapper--><g id="elem_PlansViewMapper"><rect codeLine="21" fill="#F1F1F1" height="63.2422" id="PlansViewMapper" rx="2.5" ry="2.5" style="stroke:#181818;stroke-width:0.5;" width="253" x="69" y="188.6211"/><text fill="#000000" font-family="sans-serif" font-size="14" lengthAdjust="spacing" textLength="112" x="139.5" y="208.7285">PlansViewMapper</text><line style="stroke:#181818;stroke-width:0.5;" x1="70" x2="321" y1="217.2422" y2="217.2422"/><line style="stroke:#181818;stroke-width:0.5;" x1="70" x2="321" y1="225.2422" y2="225.2422"/><ellipse cx="80" cy="240.0527" fill="#84BE84" rx="3" ry="3" style="stroke:#038048;stroke-width:1.0;"/><text fill="#000000" font-family="sans-serif" font-size="14" lengthAdjust="spacing" textLength="227" x="89" y="244.3496">toPlansView(Plans plans):PlansView</text></g><!--class PlansController--><g id="elem_PlansController"><rect codeLine="24" fill="#F1F1F1" height="63.2422" id="PlansController" rx="2.5" ry="2.5" style="stroke:#181818;stroke-width:0.5;" width="459" x="7" y="46.6211"/><text fill="#000000" font-family="sans-serif" font-size="14" lengthAdjust="spacing" textLength="97" x="188" y="66.7285">PlansController</text><line style="stroke:#181818;stroke-width:0.5;" x1="8" x2="465" y1="75.2422" y2="75.2422"/><line style="stroke:#181818;stroke-width:0.5;" x1="8" x2="465" y1="83.2422" y2="83.2422"/><text fill="#000000" font-family="sans-serif" font-size="14" lengthAdjust="spacing" textLength="447" x="13" y="102.3496">create(final CreatePlanRequest resource):ResponseEntity&lt;PlansView&gt;</text></g><!--class PlansService--><g id="elem_PlansService"><rect codeLine="27" fill="#F1F1F1" height="63.2422" id="PlansService" rx="2.5" ry="2.5" style="stroke:#181818;stroke-width:0.5;" width="298" x="357.5" y="188.6211"/><text fill="#000000" font-family="sans-serif" font-size="14" lengthAdjust="spacing" textLength="82" x="465.5" y="208.7285">PlansService</text><line style="stroke:#181818;stroke-width:0.5;" x1="358.5" x2="654.5" y1="217.2422" y2="217.2422"/><line style="stroke:#181818;stroke-width:0.5;" x1="358.5" x2="654.5" y1="225.2422" y2="225.2422"/><ellipse cx="368.5" cy="240.0527" fill="#84BE84" rx="3" ry="3" style="stroke:#038048;stroke-width:1.0;"/><text fill="#000000" font-family="sans-serif" font-size="14" lengthAdjust="spacing" textLength="272" x="377.5" y="244.3496">create(createPlansMapper resource):Plans</text></g><!--class CreatePlansMapper--><g id="elem_CreatePlansMapper"><rect codeLine="31" fill="#F1F1F1" height="63.2422" id="CreatePlansMapper" rx="2.5" ry="2.5" style="stroke:#181818;stroke-width:0.5;" width="291" x="261" y="330.6211"/><text fill="#000000" font-family="sans-serif" font-size="14" lengthAdjust="spacing" textLength="126" x="343.5" y="350.7285">CreatePlansMapper</text><line style="stroke:#181818;stroke-width:0.5;" x1="262" x2="551" y1="359.2422" y2="359.2422"/><line style="stroke:#181818;stroke-width:0.5;" x1="262" x2="551" y1="367.2422" y2="367.2422"/><ellipse cx="272" cy="382.0527" fill="#84BE84" rx="3" ry="3" style="stroke:#038048;stroke-width:1.0;"/><text fill="#000000" font-family="sans-serif" font-size="14" lengthAdjust="spacing" textLength="265" x="281" y="386.3496">create(CreatePlanRequest request):Plans</text></g><!--class PlansRepository--><g id="elem_PlansRepository"><rect codeLine="35" fill="#F1F1F1" height="63.2422" id="PlansRepository" rx="2.5" ry="2.5" style="stroke:#181818;stroke-width:0.5;" width="273" x="587" y="330.6211"/><text fill="#000000" font-family="sans-serif" font-size="14" lengthAdjust="spacing" textLength="103" x="672" y="350.7285">PlansRepository</text><line style="stroke:#181818;stroke-width:0.5;" x1="588" x2="859" y1="359.2422" y2="359.2422"/><line style="stroke:#181818;stroke-width:0.5;" x1="588" x2="859" y1="367.2422" y2="367.2422"/><ellipse cx="598" cy="382.0527" fill="#84BE84" rx="3" ry="3" style="stroke:#038048;stroke-width:1.0;"/><text fill="#000000" font-family="sans-serif" font-size="14" lengthAdjust="spacing" textLength="247" x="607" y="386.3496">findIfNameExists(String name): boolean</text></g><!--class PlansRepositoryExternal--><g id="elem_PlansRepositoryExternal"><rect codeLine="45" fill="#F1F1F1" height="63.2422" id="PlansRepositoryExternal" rx="2.5" ry="2.5" style="stroke:#181818;stroke-width:0.5;" width="244" x="704.5" y="490.1211"/><text fill="#000000" font-family="sans-serif" font-size="14" lengthAdjust="spacing" textLength="154" x="749.5" y="510.2285">PlansRepositoryExternal</text><line style="stroke:#181818;stroke-width:0.5;" x1="705.5" x2="947.5" y1="518.7422" y2="518.7422"/><line style="stroke:#181818;stroke-width:0.5;" x1="705.5" x2="947.5" y1="526.7422" y2="526.7422"/><ellipse cx="715.5" cy="541.5527" fill="#84BE84" rx="3" ry="3" style="stroke:#038048;stroke-width:1.0;"/><text fill="#000000" font-family="sans-serif" font-size="14" lengthAdjust="spacing" textLength="218" x="724.5" y="545.8496">httpExistPlan(String plan): boolean</text></g><!--link PlansController to PlansService--><g id="link_PlansController_PlansService"><path codeLine="50" d="M295.42,109.6711 C340.42,133.0011 396.8332,162.2596 441.9132,185.6296 " fill="none" id="PlansController-to-PlansService" style="stroke:#181818;stroke-width:1.0;stroke-dasharray:7.0,7.0;"/><polygon fill="#181818" points="447.24,188.3911,441.0908,180.6977,442.801,186.0899,437.4089,187.8001,447.24,188.3911" style="stroke:#181818;stroke-width:1.0;"/><polygon fill="#000000" points="396.9388,151.5682,390.2618,144.7955,387.5561,150.0136,396.9388,151.5682" style="stroke:#000000;stroke-width:1.0;"/><text fill="#000000" font-family="sans-serif" font-size="13" lengthAdjust="spacing" textLength="28" x="401.5" y="154.6494">uses</text></g><!--link PlansService to PlansRepository--><g id="link_PlansService_PlansRepository"><path codeLine="51" d="M553.85,251.6711 C590.02,275.0011 634.598,303.7687 670.828,327.1387 " fill="none" id="PlansService-to-PlansRepository" style="stroke:#181818;stroke-width:1.0;stroke-dasharray:7.0,7.0;"/><polygon fill="#181818" points="675.87,330.3911,670.4752,322.1512,671.6683,327.6808,666.1387,328.8739,675.87,330.3911" style="stroke:#181818;stroke-width:1.0;"/><polygon fill="#000000" points="636.7015,293.9772,630.6941,286.6041,627.5077,291.5433,636.7015,293.9772" style="stroke:#000000;stroke-width:1.0;"/><text fill="#000000" font-family="sans-serif" font-size="13" lengthAdjust="spacing" textLength="28" x="641.5" y="296.6494">uses</text></g><!--link PlansRepository to PlansRepositoryBD--><g id="link_PlansRepository_PlansRepositoryBD"><path codeLine="52" d="M679.66,393.6711 C647.57,416.0411 608.3027,443.4008 571.4927,469.0508 " fill="none" id="PlansRepository-to-PlansRepositoryBD" style="stroke:#181818;stroke-width:1.0;stroke-dasharray:7.0,7.0;"/><polygon fill="#181818" points="566.57,472.4811,576.2409,470.6175,570.6723,469.6225,571.6673,464.0539,566.57,472.4811" style="stroke:#181818;stroke-width:1.0;"/><polygon fill="#000000" points="631.3978,436.1253,640.499,433.365,637.1384,428.5427,631.3978,436.1253" style="stroke:#000000;stroke-width:1.0;"/><text fill="#000000" font-family="sans-serif" font-size="13" lengthAdjust="spacing" textLength="28" x="644.5" y="438.6494">uses</text></g><!--link PlansRepository to PlansRepositoryExternal--><g id="link_PlansRepository_PlansRepositoryExternal"><path codeLine="53" d="M743.6,393.8611 C761.75,421.6111 785.0254,457.21 803.1654,484.94 " fill="none" id="PlansRepository-to-PlansRepositoryExternal" style="stroke:#181818;stroke-width:1.0;stroke-dasharray:7.0,7.0;"/><polygon fill="#181818" points="806.45,489.9611,804.8705,480.2397,803.7128,485.7769,798.1757,484.6192,806.45,489.9611" style="stroke:#181818;stroke-width:1.0;"/><polygon fill="#000000" points="782.2367,437.4512,779.7456,428.2726,774.8263,431.4898,782.2367,437.4512" style="stroke:#000000;stroke-width:1.0;"/><text fill="#000000" font-family="sans-serif" font-size="13" lengthAdjust="spacing" textLength="28" x="788.5" y="438.6494">uses</text></g><!--link PlansRepositoryBD to Plans--><g id="link_PlansRepositoryBD_Plans"><path codeLine="54" d="M497.5,570.6211 C497.5,593.3911 497.5,615.6511 497.5,643.4811 " fill="none" id="PlansRepositoryBD-to-Plans" style="stroke:#181818;stroke-width:1.0;stroke-dasharray:7.0,7.0;"/><polygon fill="#181818" points="497.5,649.4811,501.5,640.4811,497.5,644.4811,493.5,640.4811,497.5,649.4811" style="stroke:#181818;stroke-width:1.0;"/><polygon fill="#000000" points="502.5,605.2666,499.5611,614.3117,505.4389,614.3117,502.5,605.2666" style="stroke:#000000;stroke-width:1.0;"/><text fill="#000000" font-family="sans-serif" font-size="13" lengthAdjust="spacing" textLength="36" x="511.5" y="615.6494">record</text></g><!--link PlansService to CreatePlansMapper--><g id="link_PlansService_CreatePlansMapper"><path codeLine="55" d="M484.55,251.8411 C467.88,275.1911 448.5368,302.2583 431.8768,325.5883 " fill="none" id="PlansService-to-CreatePlansMapper" style="stroke:#181818;stroke-width:1.0;stroke-dasharray:7.0,7.0;"/><polygon fill="#181818" points="428.39,330.4711,436.8755,325.4714,431.2957,326.4021,430.365,320.8223,428.39,330.4711" style="stroke:#181818;stroke-width:1.0;"/><polygon fill="#000000" points="463.5939,295.3354,471.2426,289.6831,466.4595,286.2668,463.5939,295.3354" style="stroke:#000000;stroke-width:1.0;"/><text fill="#000000" font-family="sans-serif" font-size="13" lengthAdjust="spacing" textLength="28" x="475.5" y="296.6494">uses</text></g><!--link PlansController to PlansViewMapper--><g id="link_PlansController_PlansViewMapper"><path codeLine="56" d="M227.5,109.8411 C220.67,133.1911 212.9958,159.3828 206.1658,182.7128 " fill="none" id="PlansController-to-PlansViewMapper" style="stroke:#181818;stroke-width:1.0;stroke-dasharray:7.0,7.0;"/><polygon fill="#181818" points="204.48,188.4711,210.8475,180.9575,205.8848,183.6725,203.1698,178.7098,204.48,188.4711" style="stroke:#181818;stroke-width:1.0;"/><polygon fill="#000000" points="222.0951,154.0652,227.4571,146.2102,221.816,144.5587,222.0951,154.0652" style="stroke:#000000;stroke-width:1.0;"/><text fill="#000000" font-family="sans-serif" font-size="13" lengthAdjust="spacing" textLength="28" x="232.5" y="154.6494">uses</text></g><!--SRC=[bLJBZjem5DtxA-wk83gmZr2aygWq2sOgKBkjFCu5h3fswklmq6Z-lJVE0mBCebaayV7nkUS-aY_x40fA9fF2I1lAt8oLooVAIAAdJCkTbxdOwmn1QQyCYhW3FvXCQomSwU3yURQ0wLJRW7uh5QQf4447Wp2Fv4Kj0nFuHh2I_Wy6RNUGQO-AJt-5PpXoR0WECjngYo31uZ464NnTXNmNmDUJbJdMRto2bDT5qCusY2tpD_IlsvMsPK2gqLoUT5xcBytUJqBVxfIarTmPmsPQaGRTbBiTqXKghIsb-OxOifmDUtE-098r3ksYy2vt0JFnSPt2But7bImAz7Koe-0wV13Ve6e53PCExWlCEQYl_3O2ogCCEE32IGFpkAXuQ_nRiddmIAxq2eV96gbmbd1fkJldQIUVHfbUZ0twWrR80KQDlEg4gNP_9HnHqRcStrARH1kbHnRZinNw48-dh97XHBFdxGkFmFAaAT1W4tmrJzLG31DuSyuW3mwhT1DvFw_YNKIXsRaI-btTRdHUuqn9KzSf5IEI1-O0nkeD8O4fBqu1RTOuJJzrlcIQPwqcW-gJYzuhMXksQdhVlhXfDup7QQyz2PI41Acu1Y-iI_m-yO8_uiuM_yDkC_li3FyPkbDSCMwrSZwxDtmtCtt1VX5klgEM-Wy0]--></g></svg>