<?xml version="1.0" encoding="us-ascii" standalone="no"?><svg xmlns="http://www.w3.org/2000/svg" xmlns:xlink="http://www.w3.org/1999/xlink" contentStyleType="text/css" height="1027px" preserveAspectRatio="none" style="width:1248px;height:1027px;background:#FFFFFF;" version="1.1" viewBox="0 0 1248 1027" width="1248px" zoomAndPan="magnify"><defs/><g><text fill="#000000" font-family="sans-serif" font-size="14" font-weight="bold" lengthAdjust="spacing" textLength="492" x="379" y="30.1074">Sequence Diagram - As Marketing director, I want to define a new Plan</text><rect fill="none" height="317.8809" style="stroke:#000000;stroke-width:1.5;" width="783" x="381" y="265.4063"/><rect fill="none" height="98.5039" style="stroke:#000000;stroke-width:1.5;" width="302.5" x="391" y="477.7832"/><rect fill="none" height="286.25" style="stroke:#000000;stroke-width:1.5;" width="1231" x="10" y="641.5781"/><line style="stroke:#181818;stroke-width:0.5;stroke-dasharray:5.0,5.0;" x1="81" x2="81" y1="123.2422" y2="944.8281"/><line style="stroke:#181818;stroke-width:0.5;stroke-dasharray:5.0,5.0;" x1="206" x2="206" y1="123.2422" y2="944.8281"/><line style="stroke:#181818;stroke-width:0.5;stroke-dasharray:5.0,5.0;" x1="451" x2="451" y1="123.2422" y2="944.8281"/><line style="stroke:#181818;stroke-width:0.5;stroke-dasharray:5.0,5.0;" x1="622.5" x2="622.5" y1="123.2422" y2="944.8281"/><line style="stroke:#181818;stroke-width:0.5;stroke-dasharray:5.0,5.0;" x1="809" x2="809" y1="123.2422" y2="944.8281"/><line style="stroke:#181818;stroke-width:0.5;stroke-dasharray:5.0,5.0;" x1="975" x2="975" y1="123.2422" y2="944.8281"/><line style="stroke:#181818;stroke-width:0.5;stroke-dasharray:5.0,5.0;" x1="1159" x2="1159" y1="123.2422" y2="944.8281"/><text fill="#000000" font-family="sans-serif" font-size="14" lengthAdjust="spacing" textLength="116" x="20" y="119.7285">Marketing Director</text><ellipse cx="81" cy="53.1211" fill="#E2E2F0" rx="8" ry="8" style="stroke:#181818;stroke-width:0.5;"/><path d="M81,61.1211 L81,88.1211 M68,69.1211 L94,69.1211 M81,88.1211 L68,103.1211 M81,88.1211 L94,103.1211 " fill="none" style="stroke:#181818;stroke-width:0.5;"/><text fill="#000000" font-family="sans-serif" font-size="14" lengthAdjust="spacing" textLength="116" x="20" y="958.9355">Marketing Director</text><ellipse cx="81" cy="970.9492" fill="#E2E2F0" rx="8" ry="8" style="stroke:#181818;stroke-width:0.5;"/><path d="M81,978.9492 L81,1005.9492 M68,986.9492 L94,986.9492 M81,1005.9492 L68,1020.9492 M81,1005.9492 L94,1020.9492 " fill="none" style="stroke:#181818;stroke-width:0.5;"/><rect fill="#E2E2F0" height="32.6211" rx="2.5" ry="2.5" style="stroke:#181818;stroke-width:0.5;" width="108" x="152" y="89.6211"/><text fill="#000000" font-family="sans-serif" font-size="14" lengthAdjust="spacing" textLength="94" x="159" y="111.7285">:PlanController</text><rect fill="#E2E2F0" height="32.6211" rx="2.5" ry="2.5" style="stroke:#181818;stroke-width:0.5;" width="108" x="152" y="943.8281"/><text fill="#000000" font-family="sans-serif" font-size="14" lengthAdjust="spacing" textLength="94" x="159" y="965.9355">:PlanController</text><rect fill="#E2E2F0" height="32.6211" rx="2.5" ry="2.5" style="stroke:#181818;stroke-width:0.5;" width="100" x="401" y="89.6211"/><text fill="#000000" font-family="sans-serif" font-size="14" lengthAdjust="spacing" textLength="86" x="408" y="111.7285">:PlansService</text><rect fill="#E2E2F0" height="32.6211" rx="2.5" ry="2.5" style="stroke:#181818;stroke-width:0.5;" width="100" x="401" y="943.8281"/><text fill="#000000" font-family="sans-serif" font-size="14" lengthAdjust="spacing" textLength="86" x="408" y="965.9355">:PlansService</text><rect fill="#E2E2F0" height="32.6211" rx="2.5" ry="2.5" style="stroke:#181818;stroke-width:0.5;" width="121" x="562.5" y="89.6211"/><text fill="#000000" font-family="sans-serif" font-size="14" lengthAdjust="spacing" textLength="107" x="569.5" y="111.7285">:PlansRepository</text><rect fill="#E2E2F0" height="32.6211" rx="2.5" ry="2.5" style="stroke:#181818;stroke-width:0.5;" width="121" x="562.5" y="943.8281"/><text fill="#000000" font-family="sans-serif" font-size="14" lengthAdjust="spacing" textLength="107" x="569.5" y="965.9355">:PlansRepository</text><rect fill="#E2E2F0" height="32.6211" rx="2.5" ry="2.5" style="stroke:#181818;stroke-width:0.5;" width="140" x="739" y="89.6211"/><text fill="#000000" font-family="sans-serif" font-size="14" lengthAdjust="spacing" textLength="126" x="746" y="111.7285">:PlansRepositoryBD</text><rect fill="#E2E2F0" height="32.6211" rx="2.5" ry="2.5" style="stroke:#181818;stroke-width:0.5;" width="140" x="739" y="943.8281"/><text fill="#000000" font-family="sans-serif" font-size="14" lengthAdjust="spacing" textLength="126" x="746" y="965.9355">:PlansRepositoryBD</text><rect fill="#E2E2F0" height="32.6211" rx="2.5" ry="2.5" style="stroke:#181818;stroke-width:0.5;" width="172" x="889" y="89.6211"/><text fill="#000000" font-family="sans-serif" font-size="14" lengthAdjust="spacing" textLength="158" x="896" y="111.7285">:PlansRepositoryExternal</text><rect fill="#E2E2F0" height="32.6211" rx="2.5" ry="2.5" style="stroke:#181818;stroke-width:0.5;" width="172" x="889" y="943.8281"/><text fill="#000000" font-family="sans-serif" font-size="14" lengthAdjust="spacing" textLength="158" x="896" y="965.9355">:PlansRepositoryExternal</text><rect fill="#E2E2F0" height="32.6211" rx="2.5" ry="2.5" style="stroke:#181818;stroke-width:0.5;" width="144" x="1087" y="89.6211"/><text fill="#000000" font-family="sans-serif" font-size="14" lengthAdjust="spacing" textLength="130" x="1094" y="111.7285">:CreatePlansMapper</text><rect fill="#E2E2F0" height="32.6211" rx="2.5" ry="2.5" style="stroke:#181818;stroke-width:0.5;" width="144" x="1087" y="943.8281"/><text fill="#000000" font-family="sans-serif" font-size="14" lengthAdjust="spacing" textLength="130" x="1094" y="965.9355">:CreatePlansMapper</text><polygon fill="#181818" points="194,152.5332,204,156.5332,194,160.5332,198,156.5332" style="stroke:#181818;stroke-width:1.0;"/><line style="stroke:#181818;stroke-width:1.0;" x1="81" x2="200" y1="156.5332" y2="156.5332"/><text fill="#000000" font-family="sans-serif" font-size="13" font-weight="bold" lengthAdjust="spacing" textLength="7" x="88" y="151.2705">1</text><text fill="#000000" font-family="sans-serif" font-size="13" lengthAdjust="spacing" textLength="74" x="99" y="151.2705">POST /plans</text><polygon fill="#181818" points="439,183.8242,449,187.8242,439,191.8242,443,187.8242" style="stroke:#181818;stroke-width:1.0;"/><line style="stroke:#181818;stroke-width:1.0;" x1="206" x2="445" y1="187.8242" y2="187.8242"/><text fill="#000000" font-family="sans-serif" font-size="13" font-weight="bold" lengthAdjust="spacing" textLength="7" x="213" y="182.5615">2</text><text fill="#000000" font-family="sans-serif" font-size="13" lengthAdjust="spacing" textLength="210" x="224" y="182.5615">create(CreatePlanRequest resource)</text><polygon fill="#181818" points="611,215.1152,621,219.1152,611,223.1152,615,219.1152" style="stroke:#181818;stroke-width:1.0;"/><line style="stroke:#181818;stroke-width:1.0;" x1="451" x2="617" y1="219.1152" y2="219.1152"/><text fill="#000000" font-family="sans-serif" font-size="13" font-weight="bold" lengthAdjust="spacing" textLength="7" x="458" y="213.8525">3</text><text fill="#000000" font-family="sans-serif" font-size="13" lengthAdjust="spacing" textLength="137" x="469" y="213.8525">findIfNameExists(name)</text><polygon fill="#181818" points="797,246.4063,807,250.4063,797,254.4063,801,250.4063" style="stroke:#181818;stroke-width:1.0;"/><line style="stroke:#181818;stroke-width:1.0;" x1="623" x2="803" y1="250.4063" y2="250.4063"/><text fill="#000000" font-family="sans-serif" font-size="13" font-weight="bold" lengthAdjust="spacing" textLength="7" x="630" y="245.1436">4</text><text fill="#000000" font-family="sans-serif" font-size="13" lengthAdjust="spacing" textLength="151" x="641" y="245.1436">findByName_Name(name)</text><path d="M381,265.4063 L442,265.4063 L442,274.6973 L432,284.6973 L381,284.6973 L381,265.4063 " fill="#EEEEEE" style="stroke:#000000;stroke-width:1.5;"/><rect fill="none" height="317.8809" style="stroke:#000000;stroke-width:1.5;" width="783" x="381" y="265.4063"/><text fill="#000000" font-family="sans-serif" font-size="13" font-weight="bold" lengthAdjust="spacing" textLength="16" x="396" y="280.4346">alt</text><text fill="#000000" font-family="sans-serif" font-size="11" font-weight="bold" lengthAdjust="spacing" textLength="146" x="457" y="279.2764">[Name found in local Repo]</text><polygon fill="#181818" points="634,303.9883,624,307.9883,634,311.9883,630,307.9883" style="stroke:#181818;stroke-width:1.0;"/><line style="stroke:#181818;stroke-width:1.0;stroke-dasharray:2.0,2.0;" x1="628" x2="808" y1="307.9883" y2="307.9883"/><text fill="#000000" font-family="sans-serif" font-size="13" font-weight="bold" lengthAdjust="spacing" textLength="7" x="640" y="302.7256">5</text><text fill="#000000" font-family="sans-serif" font-size="13" lengthAdjust="spacing" textLength="114" x="651" y="302.7256">Name exists locally</text><polygon fill="#181818" points="462,335.2793,452,339.2793,462,343.2793,458,339.2793" style="stroke:#181818;stroke-width:1.0;"/><line style="stroke:#181818;stroke-width:1.0;stroke-dasharray:2.0,2.0;" x1="456" x2="622" y1="339.2793" y2="339.2793"/><text fill="#000000" font-family="sans-serif" font-size="13" font-weight="bold" lengthAdjust="spacing" textLength="7" x="468" y="334.0166">6</text><text fill="#000000" font-family="sans-serif" font-size="13" lengthAdjust="spacing" textLength="22" x="479" y="334.0166">true</text><line style="stroke:#000000;stroke-width:1.0;stroke-dasharray:2.0,2.0;" x1="381" x2="1164" y1="348.2793" y2="348.2793"/><text fill="#000000" font-family="sans-serif" font-size="11" font-weight="bold" lengthAdjust="spacing" textLength="167" x="386" y="360.1494">[Name not found in local Repo]</text><polygon fill="#181818" points="963,383.2012,973,387.2012,963,391.2012,967,387.2012" style="stroke:#181818;stroke-width:1.0;"/><line style="stroke:#181818;stroke-width:1.0;" x1="623" x2="969" y1="387.2012" y2="387.2012"/><text fill="#000000" font-family="sans-serif" font-size="13" font-weight="bold" lengthAdjust="spacing" textLength="7" x="630" y="381.9385">7</text><text fill="#000000" font-family="sans-serif" font-size="13" lengthAdjust="spacing" textLength="118" x="641" y="381.9385">httpExistPlan(name)</text><line style="stroke:#181818;stroke-width:1.0;" x1="975" x2="1017" y1="418.4922" y2="418.4922"/><line style="stroke:#181818;stroke-width:1.0;" x1="1017" x2="1017" y1="418.4922" y2="431.4922"/><line style="stroke:#181818;stroke-width:1.0;" x1="976" x2="1017" y1="431.4922" y2="431.4922"/><polygon fill="#181818" points="986,427.4922,976,431.4922,986,435.4922,982,431.4922" style="stroke:#181818;stroke-width:1.0;"/><text fill="#000000" font-family="sans-serif" font-size="13" font-weight="bold" lengthAdjust="spacing" textLength="7" x="982" y="413.2295">8</text><text fill="#000000" font-family="sans-serif" font-size="13" lengthAdjust="spacing" textLength="159" x="993" y="413.2295">GET /plans/external/{name}</text><polygon fill="#181818" points="634,458.7832,624,462.7832,634,466.7832,630,462.7832" style="stroke:#181818;stroke-width:1.0;"/><line style="stroke:#181818;stroke-width:1.0;stroke-dasharray:2.0,2.0;" x1="628" x2="974" y1="462.7832" y2="462.7832"/><text fill="#000000" font-family="sans-serif" font-size="13" font-weight="bold" lengthAdjust="spacing" textLength="7" x="640" y="457.5205">9</text><text fill="#000000" font-family="sans-serif" font-size="13" lengthAdjust="spacing" textLength="184" x="651" y="457.5205">Response from external system</text><path d="M391,477.7832 L452,477.7832 L452,487.0742 L442,497.0742 L391,497.0742 L391,477.7832 " fill="#EEEEEE" style="stroke:#000000;stroke-width:1.5;"/><rect fill="none" height="98.5039" style="stroke:#000000;stroke-width:1.5;" width="302.5" x="391" y="477.7832"/><text fill="#000000" font-family="sans-serif" font-size="13" font-weight="bold" lengthAdjust="spacing" textLength="16" x="406" y="492.8115">alt</text><text fill="#000000" font-family="sans-serif" font-size="11" font-weight="bold" lengthAdjust="spacing" textLength="166" x="467" y="491.6533">[Name found in external Repo]</text><polygon fill="#181818" points="462,516.3652,452,520.3652,462,524.3652,458,520.3652" style="stroke:#181818;stroke-width:1.0;"/><line style="stroke:#181818;stroke-width:1.0;stroke-dasharray:2.0,2.0;" x1="456" x2="622" y1="520.3652" y2="520.3652"/><text fill="#000000" font-family="sans-serif" font-size="13" font-weight="bold" lengthAdjust="spacing" textLength="14" x="468" y="515.1025">10</text><text fill="#000000" font-family="sans-serif" font-size="13" lengthAdjust="spacing" textLength="22" x="486" y="515.1025">true</text><line style="stroke:#000000;stroke-width:1.0;stroke-dasharray:2.0,2.0;" x1="391" x2="693.5" y1="529.3652" y2="529.3652"/><text fill="#000000" font-family="sans-serif" font-size="11" font-weight="bold" lengthAdjust="spacing" textLength="187" x="396" y="541.2354">[Name not found in external Repo]</text><polygon fill="#181818" points="462,564.2871,452,568.2871,462,572.2871,458,568.2871" style="stroke:#181818;stroke-width:1.0;"/><line style="stroke:#181818;stroke-width:1.0;stroke-dasharray:2.0,2.0;" x1="456" x2="622" y1="568.2871" y2="568.2871"/><text fill="#000000" font-family="sans-serif" font-size="13" font-weight="bold" lengthAdjust="spacing" textLength="14" x="468" y="563.0244">11</text><text fill="#000000" font-family="sans-serif" font-size="13" lengthAdjust="spacing" textLength="27" x="486" y="563.0244">false</text><line style="stroke:#181818;stroke-width:1.0;stroke-dasharray:2.0,2.0;" x1="451" x2="493" y1="613.5781" y2="613.5781"/><line style="stroke:#181818;stroke-width:1.0;stroke-dasharray:2.0,2.0;" x1="493" x2="493" y1="613.5781" y2="626.5781"/><line style="stroke:#181818;stroke-width:1.0;stroke-dasharray:2.0,2.0;" x1="452" x2="493" y1="626.5781" y2="626.5781"/><polygon fill="#181818" points="462,622.5781,452,626.5781,462,630.5781,458,626.5781" style="stroke:#181818;stroke-width:1.0;"/><text fill="#000000" font-family="sans-serif" font-size="13" font-weight="bold" lengthAdjust="spacing" textLength="14" x="458" y="608.3154">12</text><text fill="#000000" font-family="sans-serif" font-size="13" lengthAdjust="spacing" textLength="68" x="476" y="608.3154">true or false</text><path d="M10,641.5781 L71,641.5781 L71,650.8691 L61,660.8691 L10,660.8691 L10,641.5781 " fill="#EEEEEE" style="stroke:#000000;stroke-width:1.5;"/><rect fill="none" height="286.25" style="stroke:#000000;stroke-width:1.5;" width="1231" x="10" y="641.5781"/><text fill="#000000" font-family="sans-serif" font-size="13" font-weight="bold" lengthAdjust="spacing" textLength="16" x="25" y="656.6064">alt</text><text fill="#000000" font-family="sans-serif" font-size="11" font-weight="bold" lengthAdjust="spacing" textLength="105" x="86" y="655.4482">[nameExists - true]</text><polygon fill="#181818" points="217,680.1602,207,684.1602,217,688.1602,213,684.1602" style="stroke:#181818;stroke-width:1.0;"/><line style="stroke:#181818;stroke-width:1.0;" x1="211" x2="450" y1="684.1602" y2="684.1602"/><text fill="#000000" font-family="sans-serif" font-size="13" font-weight="bold" lengthAdjust="spacing" textLength="14" x="223" y="678.8975">13</text><text fill="#000000" font-family="sans-serif" font-size="13" lengthAdjust="spacing" textLength="182" x="241" y="678.8975">throw IllegalArgumentException</text><line style="stroke:#000000;stroke-width:1.0;stroke-dasharray:2.0,2.0;" x1="10" x2="1241" y1="693.1602" y2="693.1602"/><text fill="#000000" font-family="sans-serif" font-size="11" font-weight="bold" lengthAdjust="spacing" textLength="127" x="15" y="705.0303">[nameNotExists - false]</text><polygon fill="#181818" points="1147,728.082,1157,732.082,1147,736.082,1151,732.082" style="stroke:#181818;stroke-width:1.0;"/><line style="stroke:#181818;stroke-width:1.0;" x1="451" x2="1153" y1="732.082" y2="732.082"/><text fill="#000000" font-family="sans-serif" font-size="13" font-weight="bold" lengthAdjust="spacing" textLength="14" x="458" y="726.8193">14</text><text fill="#000000" font-family="sans-serif" font-size="13" lengthAdjust="spacing" textLength="94" x="476" y="726.8193">create(resource)</text><polygon fill="#181818" points="462,759.373,452,763.373,462,767.373,458,763.373" style="stroke:#181818;stroke-width:1.0;"/><line style="stroke:#181818;stroke-width:1.0;stroke-dasharray:2.0,2.0;" x1="456" x2="1158" y1="763.373" y2="763.373"/><text fill="#000000" font-family="sans-serif" font-size="13" font-weight="bold" lengthAdjust="spacing" textLength="14" x="468" y="758.1104">15</text><text fill="#000000" font-family="sans-serif" font-size="13" lengthAdjust="spacing" textLength="17" x="486" y="758.1104">obj</text><polygon fill="#181818" points="611,790.6641,621,794.6641,611,798.6641,615,794.6641" style="stroke:#181818;stroke-width:1.0;"/><line style="stroke:#181818;stroke-width:1.0;" x1="451" x2="617" y1="794.6641" y2="794.6641"/><text fill="#000000" font-family="sans-serif" font-size="13" font-weight="bold" lengthAdjust="spacing" textLength="14" x="458" y="789.4014">16</text><text fill="#000000" font-family="sans-serif" font-size="13" lengthAdjust="spacing" textLength="69" x="476" y="789.4014">saveBD(obj)</text><polygon fill="#181818" points="797,821.9551,807,825.9551,797,829.9551,801,825.9551" style="stroke:#181818;stroke-width:1.0;"/><line style="stroke:#181818;stroke-width:1.0;" x1="623" x2="803" y1="825.9551" y2="825.9551"/><text fill="#000000" font-family="sans-serif" font-size="13" font-weight="bold" lengthAdjust="spacing" textLength="14" x="630" y="820.6924">17</text><text fill="#000000" font-family="sans-serif" font-size="13" lengthAdjust="spacing" textLength="51" x="648" y="820.6924">save(obj)</text><polygon fill="#181818" points="462,853.2461,452,857.2461,462,861.2461,458,857.2461" style="stroke:#181818;stroke-width:1.0;"/><line style="stroke:#181818;stroke-width:1.0;stroke-dasharray:2.0,2.0;" x1="456" x2="808" y1="857.2461" y2="857.2461"/><text fill="#000000" font-family="sans-serif" font-size="13" font-weight="bold" lengthAdjust="spacing" textLength="14" x="468" y="851.9834">18</text><text fill="#000000" font-family="sans-serif" font-size="13" lengthAdjust="spacing" textLength="17" x="486" y="851.9834">obj</text><polygon fill="#181818" points="217,884.5371,207,888.5371,217,892.5371,213,888.5371" style="stroke:#181818;stroke-width:1.0;"/><line style="stroke:#181818;stroke-width:1.0;stroke-dasharray:2.0,2.0;" x1="211" x2="450" y1="888.5371" y2="888.5371"/><text fill="#000000" font-family="sans-serif" font-size="13" font-weight="bold" lengthAdjust="spacing" textLength="14" x="223" y="883.2744">19</text><text fill="#000000" font-family="sans-serif" font-size="13" lengthAdjust="spacing" textLength="24" x="241" y="883.2744">plan</text><polygon fill="#181818" points="92,915.8281,82,919.8281,92,923.8281,88,919.8281" style="stroke:#181818;stroke-width:1.0;"/><line style="stroke:#181818;stroke-width:1.0;" x1="86" x2="205" y1="919.8281" y2="919.8281"/><text fill="#000000" font-family="sans-serif" font-size="13" font-weight="bold" lengthAdjust="spacing" textLength="14" x="98" y="914.5654">20</text><text fill="#000000" font-family="sans-serif" font-size="13" lengthAdjust="spacing" textLength="24" x="116" y="914.5654">plan</text><!--SRC=[ZPJ1Zjem48RlVeeHbu9Kn3s7Ia1GnM6tA-Yzyfe9wzQnKtkoWAg-UprEd8XT5XK9v7Y-Vpmp-SqdsP9JhcuC4eApWfzjMp-Z5u8q6OGz_cxHAeHIowENDSnX6U11-bz8sXxXe3qgSlupRE4aBG4vE62bBO84YoTuCj8A8Pc1oQWhUzq4P82b4etqf9LkECMaOD7QMVBE6EoODNbpWmfxzAzQOM9uVOlPOUE2ZgTT4iQFzx5LEO2hyZwwEHDwAyqWo1jlP6kFaZ297sJJz5rrIo6M2kPVKezGmDEt_NTOD8oAj1L3t5eCgPHbEYRRyVi911w3Qxt2cKXaL70j1SGtSTXMZxB6pLa72bCRbpF1mGojoWvRNHZxmJyz9Gq1FqBbMdi0RS4u9KqtG8YVJWxpuRX4OpgfOyrb01F6rHL0laM19c0di8xk7f4hpQCju8MeIGtn3FfgCvsfjweulg-RFDW5zhkBFwp-UqCzDBN3q3WRYwsygo4B8Lm2OPs4xmSrK4CZ7us1zpyOnNybgMGKTrdiGV2tjy3LCH2lNqTohNRmGxpFGnNPERqDwSMx4spZ3JnAi_J7jaPBcxF2XdJyhqWrSw97HqEkiPYSh7FuQDtHg4prqVdeSFVyyqgVkYqWo5TSbTCOdRspHNHW1ro7UsFUp3jsoMv8WNpJubNiTtcM_m00]--></g></svg>