<?xml version="1.0" encoding="us-ascii" standalone="no"?><svg xmlns="http://www.w3.org/2000/svg" xmlns:xlink="http://www.w3.org/1999/xlink" contentStyleType="text/css" height="538px" preserveAspectRatio="none" style="width:518px;height:538px;background:#FFFFFF;" version="1.1" viewBox="0 0 518 538" width="518px" zoomAndPan="magnify"><defs/><g><text fill="#000000" font-family="sans-serif" font-size="14" font-weight="bold" lengthAdjust="spacing" textLength="329" x="91.5" y="30.1074">Software Design Document - Define a New Plan</text><rect fill="#ADD8E6" height="487.2012" style="stroke:#181818;stroke-width:0.5;" width="258" x="254" y="45.6211"/><text fill="#000000" font-family="sans-serif" font-size="13" font-weight="bold" lengthAdjust="spacing" textLength="46" x="360" y="59.6494">System</text><rect fill="none" height="155.7949" style="stroke:#000000;stroke-width:1.5;" width="468" x="10" y="278.4063"/><line style="stroke:#181818;stroke-width:0.5;stroke-dasharray:5.0,5.0;" x1="81" x2="81" y1="123.2422" y2="451.2012"/><line style="stroke:#181818;stroke-width:0.5;stroke-dasharray:5.0,5.0;" x1="286" x2="286" y1="123.2422" y2="451.2012"/><line style="stroke:#181818;stroke-width:0.5;stroke-dasharray:5.0,5.0;" x1="480" x2="480" y1="123.2422" y2="451.2012"/><text fill="#000000" font-family="sans-serif" font-size="14" lengthAdjust="spacing" textLength="116" x="20" y="119.7285">Marketing Director</text><ellipse cx="81" cy="53.1211" fill="#E2E2F0" rx="8" ry="8" style="stroke:#181818;stroke-width:0.5;"/><path d="M81,61.1211 L81,88.1211 M68,69.1211 L94,69.1211 M81,88.1211 L68,103.1211 M81,88.1211 L94,103.1211 " fill="none" style="stroke:#181818;stroke-width:0.5;"/><text fill="#000000" font-family="sans-serif" font-size="14" lengthAdjust="spacing" textLength="116" x="20" y="465.3086">Marketing Director</text><ellipse cx="81" cy="477.3223" fill="#E2E2F0" rx="8" ry="8" style="stroke:#181818;stroke-width:0.5;"/><path d="M81,485.3223 L81,512.3223 M68,493.3223 L94,493.3223 M81,512.3223 L68,527.3223 M81,512.3223 L94,527.3223 " fill="none" style="stroke:#181818;stroke-width:0.5;"/><rect fill="#E2E2F0" height="32.6211" rx="2.5" ry="2.5" style="stroke:#181818;stroke-width:0.5;" width="56" x="258" y="89.6211"/><text fill="#000000" font-family="sans-serif" font-size="14" lengthAdjust="spacing" textLength="42" x="265" y="111.7285">plans1</text><rect fill="#E2E2F0" height="32.6211" rx="2.5" ry="2.5" style="stroke:#181818;stroke-width:0.5;" width="56" x="258" y="450.2012"/><text fill="#000000" font-family="sans-serif" font-size="14" lengthAdjust="spacing" textLength="42" x="265" y="472.3086">plans1</text><rect fill="#E2E2F0" height="32.6211" rx="2.5" ry="2.5" style="stroke:#181818;stroke-width:0.5;" width="56" x="452" y="89.6211"/><text fill="#000000" font-family="sans-serif" font-size="14" lengthAdjust="spacing" textLength="42" x="459" y="111.7285">plans2</text><rect fill="#E2E2F0" height="32.6211" rx="2.5" ry="2.5" style="stroke:#181818;stroke-width:0.5;" width="56" x="452" y="450.2012"/><text fill="#000000" font-family="sans-serif" font-size="14" lengthAdjust="spacing" textLength="42" x="459" y="472.3086">plans2</text><polygon fill="#181818" points="274,152.5332,284,156.5332,274,160.5332,278,156.5332" style="stroke:#181818;stroke-width:1.0;"/><line style="stroke:#181818;stroke-width:1.0;" x1="81" x2="280" y1="156.5332" y2="156.5332"/><text fill="#000000" font-family="sans-serif" font-size="13" font-weight="bold" lengthAdjust="spacing" textLength="7" x="88" y="151.2705">1</text><text fill="#000000" font-family="sans-serif" font-size="13" lengthAdjust="spacing" textLength="74" x="99" y="151.2705">POST /plans</text><line style="stroke:#181818;stroke-width:1.0;" x1="286" x2="328" y1="187.8242" y2="187.8242"/><line style="stroke:#181818;stroke-width:1.0;" x1="328" x2="328" y1="187.8242" y2="200.8242"/><line style="stroke:#181818;stroke-width:1.0;" x1="287" x2="328" y1="200.8242" y2="200.8242"/><polygon fill="#181818" points="297,196.8242,287,200.8242,297,204.8242,293,200.8242" style="stroke:#181818;stroke-width:1.0;"/><text fill="#000000" font-family="sans-serif" font-size="13" font-weight="bold" lengthAdjust="spacing" textLength="7" x="293" y="182.5615">2</text><text fill="#000000" font-family="sans-serif" font-size="13" lengthAdjust="spacing" textLength="86" x="304" y="182.5615">findPlan(name)</text><polygon fill="#181818" points="468,228.1152,478,232.1152,468,236.1152,472,232.1152" style="stroke:#181818;stroke-width:1.0;"/><line style="stroke:#181818;stroke-width:1.0;" x1="286" x2="474" y1="232.1152" y2="232.1152"/><text fill="#000000" font-family="sans-serif" font-size="13" font-weight="bold" lengthAdjust="spacing" textLength="7" x="293" y="226.8525">3</text><text fill="#000000" font-family="sans-serif" font-size="13" lengthAdjust="spacing" textLength="159" x="304" y="226.8525">GET /plans/external/{name}</text><polygon fill="#181818" points="297,259.4063,287,263.4063,297,267.4063,293,263.4063" style="stroke:#181818;stroke-width:1.0;"/><line style="stroke:#181818;stroke-width:1.0;stroke-dasharray:2.0,2.0;" x1="291" x2="479" y1="263.4063" y2="263.4063"/><text fill="#000000" font-family="sans-serif" font-size="13" font-weight="bold" lengthAdjust="spacing" textLength="7" x="303" y="258.1436">4</text><text fill="#000000" font-family="sans-serif" font-size="13" lengthAdjust="spacing" textLength="68" x="314" y="258.1436">true or false</text><path d="M10,278.4063 L71,278.4063 L71,287.6973 L61,297.6973 L10,297.6973 L10,278.4063 " fill="#EEEEEE" style="stroke:#000000;stroke-width:1.5;"/><rect fill="none" height="155.7949" style="stroke:#000000;stroke-width:1.5;" width="468" x="10" y="278.4063"/><text fill="#000000" font-family="sans-serif" font-size="13" font-weight="bold" lengthAdjust="spacing" textLength="16" x="25" y="293.4346">alt</text><text fill="#000000" font-family="sans-serif" font-size="11" font-weight="bold" lengthAdjust="spacing" textLength="105" x="86" y="292.2764">[nameExists - true]</text><line style="stroke:#181818;stroke-width:1.0;stroke-dasharray:2.0,2.0;" x1="286" x2="328" y1="320.9883" y2="320.9883"/><line style="stroke:#181818;stroke-width:1.0;stroke-dasharray:2.0,2.0;" x1="328" x2="328" y1="320.9883" y2="333.9883"/><line style="stroke:#181818;stroke-width:1.0;stroke-dasharray:2.0,2.0;" x1="287" x2="328" y1="333.9883" y2="333.9883"/><polygon fill="#181818" points="297,329.9883,287,333.9883,297,337.9883,293,333.9883" style="stroke:#181818;stroke-width:1.0;"/><text fill="#000000" font-family="sans-serif" font-size="13" font-weight="bold" lengthAdjust="spacing" textLength="7" x="293" y="315.7256">5</text><text fill="#000000" font-family="sans-serif" font-size="13" lengthAdjust="spacing" textLength="162" x="304" y="315.7256">informs operation insuccess</text><line style="stroke:#000000;stroke-width:1.0;stroke-dasharray:2.0,2.0;" x1="10" x2="478" y1="342.9883" y2="342.9883"/><text fill="#000000" font-family="sans-serif" font-size="11" font-weight="bold" lengthAdjust="spacing" textLength="127" x="15" y="354.8584">[nameNotExists - false]</text><line style="stroke:#181818;stroke-width:1.0;" x1="286" x2="328" y1="381.9102" y2="381.9102"/><line style="stroke:#181818;stroke-width:1.0;" x1="328" x2="328" y1="381.9102" y2="394.9102"/><line style="stroke:#181818;stroke-width:1.0;" x1="287" x2="328" y1="394.9102" y2="394.9102"/><polygon fill="#181818" points="297,390.9102,287,394.9102,297,398.9102,293,394.9102" style="stroke:#181818;stroke-width:1.0;"/><text fill="#000000" font-family="sans-serif" font-size="13" font-weight="bold" lengthAdjust="spacing" textLength="7" x="293" y="376.6475">6</text><text fill="#000000" font-family="sans-serif" font-size="13" lengthAdjust="spacing" textLength="76" x="304" y="376.6475">create(name)</text><polygon fill="#181818" points="92,422.2012,82,426.2012,92,430.2012,88,426.2012" style="stroke:#181818;stroke-width:1.0;"/><line style="stroke:#181818;stroke-width:1.0;stroke-dasharray:2.0,2.0;" x1="86" x2="285" y1="426.2012" y2="426.2012"/><text fill="#000000" font-family="sans-serif" font-size="13" font-weight="bold" lengthAdjust="spacing" textLength="7" x="98" y="420.9385">7</text><text fill="#000000" font-family="sans-serif" font-size="13" lengthAdjust="spacing" textLength="170" x="109" y="420.9385">informs operation (in)success</text><!--SRC=[RP3FRi8m3CRlVWghEmmE28tZ3fEGG3kD8NKlO8BB8bAdIbp1DEtTvtHhnO7SydsVV_xpIBr65ziki396WVANlZrm0b2lWR6EZLueCMuu-vFW9hg-PL5ScD9uOIJSyGNtWGI0dCQ4rHkbCwkN4svyug9LI1dN3WxnYbNzbPNR2X-2Fttg8VGC7INrpdTavAepLduQIYnwnrkDtWfOZcXGWBN3nKlHy1dtx_K7BeSe56KoRE1ZcNGcrFBynbkP-ReTYvPyLKv2OVbTWZym91OJHbDlvqhOKCXiMmV5ajjUVLOZ3ZwWlQ71LEQbYQdD63jEf3wAARbtZdC6Dj80sKMTE7_y2JHoN69I_j_XjetTu5wNcPVvr4UE0F0B]--></g></svg>