<?xml version="1.0" encoding="us-ascii" standalone="no"?><svg xmlns="http://www.w3.org/2000/svg" xmlns:xlink="http://www.w3.org/1999/xlink" contentStyleType="text/css" height="917px" preserveAspectRatio="none" style="width:750px;height:917px;background:#FFFFFF;" version="1.1" viewBox="0 0 750 917" width="750px" zoomAndPan="magnify"><defs/><g><text fill="#000000" font-family="sans-serif" font-size="14" font-weight="bold" lengthAdjust="spacing" textLength="356" x="190" y="25.1074">Class Diagram / As User, I want to log in an account</text><!--class UserRepositoryBD--><g id="elem_UserRepositoryBD"><rect codeLine="33" fill="#F1F1F1" height="97.8242" id="UserRepositoryBD" rx="2.5" ry="2.5" style="stroke:#181818;stroke-width:0.5;" width="347" x="62.5" y="491.6211"/><text fill="#000000" font-family="sans-serif" font-size="12" font-style="italic" lengthAdjust="spacing" textLength="61" x="205.5" y="509.5703">&#171;interface&#187;</text><text fill="#000000" font-family="sans-serif" font-size="14" font-style="italic" lengthAdjust="spacing" textLength="117" x="177.5" y="527.6895">UserRepositoryBD</text><line style="stroke:#181818;stroke-width:0.5;" x1="63.5" x2="408.5" y1="536.2031" y2="536.2031"/><line style="stroke:#181818;stroke-width:0.5;" x1="63.5" x2="408.5" y1="544.2031" y2="544.2031"/><ellipse cx="73.5" cy="559.0137" fill="#84BE84" rx="3" ry="3" style="stroke:#038048;stroke-width:1.0;"/><text fill="#000000" font-family="sans-serif" font-size="14" lengthAdjust="spacing" textLength="321" x="82.5" y="563.3105">findByUsername(String userName): optional&lt;User&gt;</text><ellipse cx="73.5" cy="577.6348" fill="#84BE84" rx="3" ry="3" style="stroke:#038048;stroke-width:1.0;"/><text fill="#000000" font-family="sans-serif" font-size="14" lengthAdjust="spacing" textLength="210" x="82.5" y="581.9316">save(S entity) : &lt;S extends User&gt;</text></g><!--class User--><g id="elem_User"><rect codeLine="9" fill="#F1F1F1" height="100.4844" id="User" rx="2.5" ry="2.5" style="stroke:#181818;stroke-width:0.5;" width="89" x="191.5" y="668.6211"/><text fill="#000000" font-family="sans-serif" font-size="14" lengthAdjust="spacing" textLength="29" x="221.5" y="688.7285">User</text><line style="stroke:#181818;stroke-width:0.5;" x1="192.5" x2="279.5" y1="697.2422" y2="697.2422"/><rect fill="none" height="6" style="stroke:#C82930;stroke-width:1.0;" width="6" x="199.5" y="709.0527"/><text fill="#000000" font-family="sans-serif" font-size="14" lengthAdjust="spacing" textLength="63" x="211.5" y="716.3496">username</text><rect fill="none" height="6" style="stroke:#C82930;stroke-width:1.0;" width="6" x="199.5" y="727.6738"/><text fill="#000000" font-family="sans-serif" font-size="14" lengthAdjust="spacing" textLength="60" x="211.5" y="734.9707">password</text><rect fill="none" height="6" style="stroke:#C82930;stroke-width:1.0;" width="6" x="199.5" y="746.2949"/><text fill="#000000" font-family="sans-serif" font-size="14" lengthAdjust="spacing" textLength="24" x="211.5" y="753.5918">role</text><line style="stroke:#181818;stroke-width:0.5;" x1="192.5" x2="279.5" y1="761.1055" y2="761.1055"/></g><!--class Role--><g id="elem_Role"><rect codeLine="15" fill="#F1F1F1" height="63.2422" id="Role" rx="2.5" ry="2.5" style="stroke:#181818;stroke-width:0.5;" width="50" x="211" y="847.6211"/><text fill="#000000" font-family="sans-serif" font-size="14" lengthAdjust="spacing" textLength="29" x="221.5" y="867.7285">Role</text><line style="stroke:#181818;stroke-width:0.5;" x1="212" x2="260" y1="876.2422" y2="876.2422"/><rect fill="none" height="6" style="stroke:#C82930;stroke-width:1.0;" width="6" x="219" y="888.0527"/><text fill="#000000" font-family="sans-serif" font-size="14" lengthAdjust="spacing" textLength="24" x="231" y="895.3496">role</text><line style="stroke:#181818;stroke-width:0.5;" x1="212" x2="260" y1="902.8633" y2="902.8633"/></g><!--class UserViewMapper--><g id="elem_UserViewMapper"><rect codeLine="18" fill="#F1F1F1" height="63.2422" id="UserViewMapper" rx="2.5" ry="2.5" style="stroke:#181818;stroke-width:0.5;" width="229" x="8.5" y="207.6211"/><text fill="#000000" font-family="sans-serif" font-size="14" lengthAdjust="spacing" textLength="106" x="70" y="227.7285">UserViewMapper</text><line style="stroke:#181818;stroke-width:0.5;" x1="9.5" x2="236.5" y1="236.2422" y2="236.2422"/><line style="stroke:#181818;stroke-width:0.5;" x1="9.5" x2="236.5" y1="244.2422" y2="244.2422"/><ellipse cx="19.5" cy="259.0527" fill="#84BE84" rx="3" ry="3" style="stroke:#038048;stroke-width:1.0;"/><text fill="#000000" font-family="sans-serif" font-size="14" lengthAdjust="spacing" textLength="203" x="28.5" y="263.3496">toUserView(User user):UserView</text></g><!--class UserService--><g id="elem_UserService"><rect codeLine="21" fill="#F1F1F1" height="63.2422" id="UserService" rx="2.5" ry="2.5" style="stroke:#181818;stroke-width:0.5;" width="284" x="273" y="207.6211"/><text fill="#000000" font-family="sans-serif" font-size="14" lengthAdjust="spacing" textLength="76" x="377" y="227.7285">UserService</text><line style="stroke:#181818;stroke-width:0.5;" x1="274" x2="556" y1="236.2422" y2="236.2422"/><line style="stroke:#181818;stroke-width:0.5;" x1="274" x2="556" y1="244.2422" y2="244.2422"/><ellipse cx="284" cy="259.0527" fill="#84BE84" rx="3" ry="3" style="stroke:#038048;stroke-width:1.0;"/><text fill="#000000" font-family="sans-serif" font-size="14" lengthAdjust="spacing" textLength="258" x="293" y="263.3496">loginExternal(AuthRequest authRequest)</text></g><!--class UserController--><g id="elem_UserController"><rect codeLine="24" fill="#F1F1F1" height="81.8633" id="UserController" rx="2.5" ry="2.5" style="stroke:#181818;stroke-width:0.5;" width="314" x="7" y="46.6211"/><text fill="#000000" font-family="sans-serif" font-size="14" lengthAdjust="spacing" textLength="91" x="118.5" y="66.7285">UserController</text><line style="stroke:#181818;stroke-width:0.5;" x1="8" x2="320" y1="75.2422" y2="75.2422"/><line style="stroke:#181818;stroke-width:0.5;" x1="8" x2="320" y1="83.2422" y2="83.2422"/><ellipse cx="18" cy="98.0527" fill="#84BE84" rx="3" ry="3" style="stroke:#038048;stroke-width:1.0;"/><text fill="#000000" font-family="sans-serif" font-size="14" lengthAdjust="spacing" textLength="237" x="27" y="102.3496">login(final AuthRequest request):User</text><ellipse cx="18" cy="116.6738" fill="#84BE84" rx="3" ry="3" style="stroke:#038048;stroke-width:1.0;"/><text fill="#000000" font-family="sans-serif" font-size="14" lengthAdjust="spacing" textLength="288" x="27" y="120.9707">loginExternal(final AuthRequest request):User</text></g><!--class UserRepository--><g id="elem_UserRepository"><rect codeLine="29" fill="#F1F1F1" height="63.2422" id="UserRepository" rx="2.5" ry="2.5" style="stroke:#181818;stroke-width:0.5;" width="320" x="255" y="349.6211"/><text fill="#000000" font-family="sans-serif" font-size="14" lengthAdjust="spacing" textLength="97" x="366.5" y="369.7285">UserRepository</text><line style="stroke:#181818;stroke-width:0.5;" x1="256" x2="574" y1="378.2422" y2="378.2422"/><line style="stroke:#181818;stroke-width:0.5;" x1="256" x2="574" y1="386.2422" y2="386.2422"/><ellipse cx="266" cy="401.0527" fill="#84BE84" rx="3" ry="3" style="stroke:#038048;stroke-width:1.0;"/><text fill="#000000" font-family="sans-serif" font-size="14" lengthAdjust="spacing" textLength="294" x="275" y="405.3496">loginExternal(AuthRequest authRequest): user</text></g><!--class UserRepositoryExternal--><g id="elem_UserRepositoryExternal"><rect codeLine="39" fill="#F1F1F1" height="63.2422" id="UserRepositoryExternal" rx="2.5" ry="2.5" style="stroke:#181818;stroke-width:0.5;" width="298" x="445" y="509.1211"/><text fill="#000000" font-family="sans-serif" font-size="14" lengthAdjust="spacing" textLength="148" x="520" y="529.2285">UserRepositoryExternal</text><line style="stroke:#181818;stroke-width:0.5;" x1="446" x2="742" y1="537.7422" y2="537.7422"/><line style="stroke:#181818;stroke-width:0.5;" x1="446" x2="742" y1="545.7422" y2="545.7422"/><ellipse cx="456" cy="560.5527" fill="#84BE84" rx="3" ry="3" style="stroke:#038048;stroke-width:1.0;"/><text fill="#000000" font-family="sans-serif" font-size="14" lengthAdjust="spacing" textLength="272" x="465" y="564.8496">httpLogin(AuthRequest authRequest): user</text></g><!--link UserController to UserService--><g id="link_UserController_UserService"><path codeLine="44" d="M231.26,128.6811 C272.79,153.4211 320.1054,181.6002 358.3254,204.3702 " fill="none" id="UserController-to-UserService" style="stroke:#181818;stroke-width:1.0;stroke-dasharray:7.0,7.0;"/><polygon fill="#181818" points="363.48,207.4411,357.7954,199.3984,359.1845,204.882,353.7009,206.2711,363.48,207.4411" style="stroke:#181818;stroke-width:1.0;"/><polygon fill="#000000" points="320.2956,170.8254,314.0288,163.6716,311.0207,168.7214,320.2956,170.8254" style="stroke:#000000;stroke-width:1.0;"/><text fill="#000000" font-family="sans-serif" font-size="13" lengthAdjust="spacing" textLength="28" x="325" y="173.6494">uses</text></g><!--link UserService to UserRepository--><g id="link_UserService_UserRepository"><path codeLine="45" d="M415,270.8411 C415,294.1911 415,320.1411 415,343.4711 " fill="none" id="UserService-to-UserRepository" style="stroke:#181818;stroke-width:1.0;stroke-dasharray:7.0,7.0;"/><polygon fill="#181818" points="415,349.4711,419,340.4711,415,344.4711,411,340.4711,415,349.4711" style="stroke:#181818;stroke-width:1.0;"/><polygon fill="#000000" points="420,315.2666,422.9389,306.2215,417.0611,306.2215,420,315.2666" style="stroke:#000000;stroke-width:1.0;"/><text fill="#000000" font-family="sans-serif" font-size="13" lengthAdjust="spacing" textLength="28" x="429" y="315.6494">uses</text></g><!--link UserRepository to UserRepositoryBD--><g id="link_UserRepository_UserRepositoryBD"><path codeLine="46" d="M380.06,412.8611 C354.63,435.2411 324.1849,462.028 295.0849,487.628 " fill="none" id="UserRepository-to-UserRepositoryBD" style="stroke:#181818;stroke-width:1.0;stroke-dasharray:7.0,7.0;"/><polygon fill="#181818" points="290.58,491.5911,299.9794,488.6498,294.3341,488.2885,294.6953,482.6432,290.58,491.5911" style="stroke:#181818;stroke-width:1.0;"/><polygon fill="#000000" points="342.2462,455.5695,350.9783,451.801,347.0955,447.3881,342.2462,455.5695" style="stroke:#000000;stroke-width:1.0;"/><text fill="#000000" font-family="sans-serif" font-size="13" lengthAdjust="spacing" textLength="28" x="355" y="457.6494">uses</text></g><!--link UserRepository to UserRepositoryExternal--><g id="link_UserRepository_UserRepositoryExternal"><path codeLine="47" d="M449.94,412.8611 C481.48,440.6111 523.1358,477.2672 554.6458,504.9972 " fill="none" id="UserRepository-to-UserRepositoryExternal" style="stroke:#181818;stroke-width:1.0;stroke-dasharray:7.0,7.0;"/><polygon fill="#181818" points="559.15,508.9611,555.0363,500.0125,555.3965,505.6579,549.7511,506.0181,559.15,508.9611" style="stroke:#181818;stroke-width:1.0;"/><polygon fill="#000000" points="512.7537,455.5696,507.9047,447.388,504.0218,451.8007,512.7537,455.5696" style="stroke:#000000;stroke-width:1.0;"/><text fill="#000000" font-family="sans-serif" font-size="13" lengthAdjust="spacing" textLength="28" x="518" y="457.6494">uses</text></g><!--link UserRepositoryBD to User--><g id="link_UserRepositoryBD_User"><path codeLine="48" d="M236,589.7111 C236,614.1411 236,637.7711 236,662.3611 " fill="none" id="UserRepositoryBD-to-User" style="stroke:#181818;stroke-width:1.0;stroke-dasharray:7.0,7.0;"/><polygon fill="#181818" points="236,668.3611,240,659.3611,236,663.3611,232,659.3611,236,668.3611" style="stroke:#181818;stroke-width:1.0;"/><polygon fill="#000000" points="241,624.2666,238.0611,633.3117,243.9389,633.3117,241,624.2666" style="stroke:#000000;stroke-width:1.0;"/><text fill="#000000" font-family="sans-serif" font-size="13" lengthAdjust="spacing" textLength="36" x="250" y="634.6494">record</text></g><!--link UserController to UserViewMapper--><g id="link_UserController_UserViewMapper"><path codeLine="49" d="M153.01,128.6811 C146.23,153.4211 139.2458,178.8845 133.0058,201.6545 " fill="none" id="UserController-to-UserViewMapper" style="stroke:#181818;stroke-width:1.0;stroke-dasharray:7.0,7.0;"/><polygon fill="#181818" points="131.42,207.4411,137.6565,199.8183,132.7415,202.6189,129.9409,197.7039,131.42,207.4411" style="stroke:#181818;stroke-width:1.0;"/><polygon fill="#000000" points="148.6781,173.0887,153.9038,165.1424,148.2351,163.5885,148.6781,173.0887" style="stroke:#000000;stroke-width:1.0;"/><text fill="#000000" font-family="sans-serif" font-size="13" lengthAdjust="spacing" textLength="28" x="159" y="173.6494">uses</text></g><!--link User to Role--><g id="link_User_Role"><path codeLine="50" d="M236,768.9011 C236,794.5311 236,819.0611 236,841.3211 " fill="none" id="User-to-Role" style="stroke:#181818;stroke-width:1.0;stroke-dasharray:7.0,7.0;"/><polygon fill="#181818" points="236,847.3211,240,838.3211,236,842.3211,232,838.3211,236,847.3211" style="stroke:#181818;stroke-width:1.0;"/><text fill="#000000" font-family="sans-serif" font-size="13" lengthAdjust="spacing" textLength="21" x="237" y="813.6494">has</text></g><!--SRC=[bLDDRy8m3BtdL_YseWrwhwfAVEmmQTi1nEvH6cYaDkaI5uOG_trksb8wGDkg7cBdlUVdE7d844iNXM6PSurLaK-4AKAHS-V6gU9RomkMgLI2K5RaalaTM3jfbx8qJg6nXza2ubXfb7R3XKmInb1XBc7kiOj61KAODiGdU84z5GCqa9ijA0sSVY5CfP7HrzSuCg1lND5Iyq8sKKcxUsFJ9hA6N9qwqf8YE0vsUhKF9VTll2mxtKSqNJge5r3N6KLTRi1TIRjJGhP4igtqynVMjl9WMc6sb9-LT0YyNuyyzb9aRZIIgzmRQ4I2ZI89k9ImBTqROJ-B_OO_iPip-fVno9z4BNMUwjN8MQj8VjBPOTrEA5YXLNhh-UyKavGfKHcg5jUOf24vlYCeI4qNvJ22268Ao9LE6z_9lJOwwstn-lA- -cFylHKsd01C9idbP3tGGS8kScTCRs00wzCtaBF5tx5TMtSOzC0w3XqL3LpKr_-wd-4b7uXv0Vyw8iYu-mO0]--></g></svg>