<?xml version="1.0" encoding="us-ascii" standalone="no"?><svg xmlns="http://www.w3.org/2000/svg" xmlns:xlink="http://www.w3.org/1999/xlink" contentStyleType="text/css" height="727px" preserveAspectRatio="none" style="width:1220px;height:727px;background:#FFFFFF;" version="1.1" viewBox="0 0 1220 727" width="1220px" zoomAndPan="magnify"><defs/><g><text fill="#000000" font-family="sans-serif" font-size="14" font-weight="bold" lengthAdjust="spacing" textLength="390" x="416" y="30.1074">Sequence Diagram - As User, I want to log in an account</text><rect fill="none" height="456.0449" style="stroke:#000000;stroke-width:1.5;" width="1203" x="10" y="171.5332"/><rect fill="none" height="98.5039" style="stroke:#000000;stroke-width:1.5;" width="235" x="20" y="522.0742"/><line style="stroke:#181818;stroke-width:0.5;stroke-dasharray:5.0,5.0;" x1="47" x2="47" y1="123.2422" y2="644.5781"/><line style="stroke:#181818;stroke-width:0.5;stroke-dasharray:5.0,5.0;" x1="190" x2="190" y1="123.2422" y2="644.5781"/><line style="stroke:#181818;stroke-width:0.5;stroke-dasharray:5.0,5.0;" x1="460.5" x2="460.5" y1="123.2422" y2="644.5781"/><line style="stroke:#181818;stroke-width:0.5;stroke-dasharray:5.0,5.0;" x1="730" x2="730" y1="123.2422" y2="644.5781"/><line style="stroke:#181818;stroke-width:0.5;stroke-dasharray:5.0,5.0;" x1="865" x2="865" y1="123.2422" y2="644.5781"/><line style="stroke:#181818;stroke-width:0.5;stroke-dasharray:5.0,5.0;" x1="1025" x2="1025" y1="123.2422" y2="644.5781"/><text fill="#000000" font-family="sans-serif" font-size="14" lengthAdjust="spacing" textLength="29" x="30" y="119.7285">User</text><ellipse cx="47.5" cy="53.1211" fill="#E2E2F0" rx="8" ry="8" style="stroke:#181818;stroke-width:0.5;"/><path d="M47.5,61.1211 L47.5,88.1211 M34.5,69.1211 L60.5,69.1211 M47.5,88.1211 L34.5,103.1211 M47.5,88.1211 L60.5,103.1211 " fill="none" style="stroke:#181818;stroke-width:0.5;"/><text fill="#000000" font-family="sans-serif" font-size="14" lengthAdjust="spacing" textLength="29" x="30" y="658.6855">User</text><ellipse cx="47.5" cy="670.6992" fill="#E2E2F0" rx="8" ry="8" style="stroke:#181818;stroke-width:0.5;"/><path d="M47.5,678.6992 L47.5,705.6992 M34.5,686.6992 L60.5,686.6992 M47.5,705.6992 L34.5,720.6992 M47.5,705.6992 L60.5,720.6992 " fill="none" style="stroke:#181818;stroke-width:0.5;"/><rect fill="#E2E2F0" height="32.6211" rx="2.5" ry="2.5" style="stroke:#181818;stroke-width:0.5;" width="109" x="136" y="89.6211"/><text fill="#000000" font-family="sans-serif" font-size="14" lengthAdjust="spacing" textLength="95" x="143" y="111.7285">:UserController</text><rect fill="#E2E2F0" height="32.6211" rx="2.5" ry="2.5" style="stroke:#181818;stroke-width:0.5;" width="109" x="136" y="643.5781"/><text fill="#000000" font-family="sans-serif" font-size="14" lengthAdjust="spacing" textLength="95" x="143" y="665.6855">:UserController</text><rect fill="#E2E2F0" height="32.6211" rx="2.5" ry="2.5" style="stroke:#181818;stroke-width:0.5;" width="94" x="413.5" y="89.6211"/><text fill="#000000" font-family="sans-serif" font-size="14" lengthAdjust="spacing" textLength="80" x="420.5" y="111.7285">:UserService</text><rect fill="#E2E2F0" height="32.6211" rx="2.5" ry="2.5" style="stroke:#181818;stroke-width:0.5;" width="94" x="413.5" y="643.5781"/><text fill="#000000" font-family="sans-serif" font-size="14" lengthAdjust="spacing" textLength="80" x="420.5" y="665.6855">:UserService</text><rect fill="#E2E2F0" height="32.6211" rx="2.5" ry="2.5" style="stroke:#181818;stroke-width:0.5;" width="115" x="673" y="89.6211"/><text fill="#000000" font-family="sans-serif" font-size="14" lengthAdjust="spacing" textLength="101" x="680" y="111.7285">:UserRepository</text><rect fill="#E2E2F0" height="32.6211" rx="2.5" ry="2.5" style="stroke:#181818;stroke-width:0.5;" width="115" x="673" y="643.5781"/><text fill="#000000" font-family="sans-serif" font-size="14" lengthAdjust="spacing" textLength="101" x="680" y="665.6855">:UserRepository</text><rect fill="#E2E2F0" height="32.6211" rx="2.5" ry="2.5" style="stroke:#181818;stroke-width:0.5;" width="134" x="798" y="89.6211"/><text fill="#000000" font-family="sans-serif" font-size="14" lengthAdjust="spacing" textLength="120" x="805" y="111.7285">:UserRepositoryBD</text><rect fill="#E2E2F0" height="32.6211" rx="2.5" ry="2.5" style="stroke:#181818;stroke-width:0.5;" width="134" x="798" y="643.5781"/><text fill="#000000" font-family="sans-serif" font-size="14" lengthAdjust="spacing" textLength="120" x="805" y="665.6855">:UserRepositoryBD</text><rect fill="#E2E2F0" height="32.6211" rx="2.5" ry="2.5" style="stroke:#181818;stroke-width:0.5;" width="166" x="942" y="89.6211"/><text fill="#000000" font-family="sans-serif" font-size="14" lengthAdjust="spacing" textLength="152" x="949" y="111.7285">:UserRepositoryExternal</text><rect fill="#E2E2F0" height="32.6211" rx="2.5" ry="2.5" style="stroke:#181818;stroke-width:0.5;" width="166" x="942" y="643.5781"/><text fill="#000000" font-family="sans-serif" font-size="14" lengthAdjust="spacing" textLength="152" x="949" y="665.6855">:UserRepositoryExternal</text><polygon fill="#181818" points="178.5,152.5332,188.5,156.5332,178.5,160.5332,182.5,156.5332" style="stroke:#181818;stroke-width:1.0;"/><line style="stroke:#181818;stroke-width:1.0;" x1="47.5" x2="184.5" y1="156.5332" y2="156.5332"/><text fill="#000000" font-family="sans-serif" font-size="13" font-weight="bold" lengthAdjust="spacing" textLength="7" x="54.5" y="151.2705">1</text><text fill="#000000" font-family="sans-serif" font-size="13" lengthAdjust="spacing" textLength="108" x="65.5" y="151.2705">POST /public/login</text><path d="M10,171.5332 L71,171.5332 L71,180.8242 L61,190.8242 L10,190.8242 L10,171.5332 " fill="#EEEEEE" style="stroke:#000000;stroke-width:1.5;"/><rect fill="none" height="456.0449" style="stroke:#000000;stroke-width:1.5;" width="1203" x="10" y="171.5332"/><text fill="#000000" font-family="sans-serif" font-size="13" font-weight="bold" lengthAdjust="spacing" textLength="16" x="25" y="186.5615">alt</text><text fill="#000000" font-family="sans-serif" font-size="11" font-weight="bold" lengthAdjust="spacing" textLength="110" x="86" y="185.4033">[user found in local]</text><line style="stroke:#181818;stroke-width:1.0;" x1="190.5" x2="232.5" y1="214.1152" y2="214.1152"/><line style="stroke:#181818;stroke-width:1.0;" x1="232.5" x2="232.5" y1="214.1152" y2="227.1152"/><line style="stroke:#181818;stroke-width:1.0;" x1="191.5" x2="232.5" y1="227.1152" y2="227.1152"/><polygon fill="#181818" points="201.5,223.1152,191.5,227.1152,201.5,231.1152,197.5,227.1152" style="stroke:#181818;stroke-width:1.0;"/><text fill="#000000" font-family="sans-serif" font-size="13" font-weight="bold" lengthAdjust="spacing" textLength="7" x="197.5" y="208.8525">2</text><text fill="#000000" font-family="sans-serif" font-size="13" lengthAdjust="spacing" textLength="184" x="208.5" y="208.8525">login(final AuthRequest request)</text><polygon fill="#181818" points="58.5,254.4063,48.5,258.4063,58.5,262.4063,54.5,258.4063" style="stroke:#181818;stroke-width:1.0;"/><line style="stroke:#181818;stroke-width:1.0;stroke-dasharray:2.0,2.0;" x1="52.5" x2="189.5" y1="258.4063" y2="258.4063"/><text fill="#000000" font-family="sans-serif" font-size="13" font-weight="bold" lengthAdjust="spacing" textLength="7" x="64.5" y="253.1436">3</text><text fill="#000000" font-family="sans-serif" font-size="13" lengthAdjust="spacing" textLength="25" x="75.5" y="253.1436">user</text><line style="stroke:#000000;stroke-width:1.0;stroke-dasharray:2.0,2.0;" x1="10" x2="1213" y1="267.4063" y2="267.4063"/><text fill="#000000" font-family="sans-serif" font-size="11" font-weight="bold" lengthAdjust="spacing" textLength="131" x="15" y="279.2764">[user not found in local]</text><polygon fill="#181818" points="448.5,302.3281,458.5,306.3281,448.5,310.3281,452.5,306.3281" style="stroke:#181818;stroke-width:1.0;"/><line style="stroke:#181818;stroke-width:1.0;" x1="190.5" x2="454.5" y1="306.3281" y2="306.3281"/><text fill="#000000" font-family="sans-serif" font-size="13" font-weight="bold" lengthAdjust="spacing" textLength="7" x="197.5" y="301.0654">4</text><text fill="#000000" font-family="sans-serif" font-size="13" lengthAdjust="spacing" textLength="235" x="208.5" y="301.0654">loginExternal(AuthRequest authRequest)</text><polygon fill="#181818" points="718.5,333.6191,728.5,337.6191,718.5,341.6191,722.5,337.6191" style="stroke:#181818;stroke-width:1.0;"/><line style="stroke:#181818;stroke-width:1.0;" x1="460.5" x2="724.5" y1="337.6191" y2="337.6191"/><text fill="#000000" font-family="sans-serif" font-size="13" font-weight="bold" lengthAdjust="spacing" textLength="7" x="467.5" y="332.3564">5</text><text fill="#000000" font-family="sans-serif" font-size="13" lengthAdjust="spacing" textLength="235" x="478.5" y="332.3564">loginExternal(AuthRequest authRequest)</text><polygon fill="#181818" points="1013,364.9102,1023,368.9102,1013,372.9102,1017,368.9102" style="stroke:#181818;stroke-width:1.0;"/><line style="stroke:#181818;stroke-width:1.0;" x1="730.5" x2="1019" y1="368.9102" y2="368.9102"/><text fill="#000000" font-family="sans-serif" font-size="13" font-weight="bold" lengthAdjust="spacing" textLength="7" x="737.5" y="363.6475">6</text><text fill="#000000" font-family="sans-serif" font-size="13" lengthAdjust="spacing" textLength="213" x="748.5" y="363.6475">httpLogin(AuthRequest authRequest)</text><line style="stroke:#181818;stroke-width:1.0;" x1="1025" x2="1067" y1="400.2012" y2="400.2012"/><line style="stroke:#181818;stroke-width:1.0;" x1="1067" x2="1067" y1="400.2012" y2="413.2012"/><line style="stroke:#181818;stroke-width:1.0;" x1="1026" x2="1067" y1="413.2012" y2="413.2012"/><polygon fill="#181818" points="1036,409.2012,1026,413.2012,1036,417.2012,1032,413.2012" style="stroke:#181818;stroke-width:1.0;"/><text fill="#000000" font-family="sans-serif" font-size="13" font-weight="bold" lengthAdjust="spacing" textLength="7" x="1032" y="394.9385">7</text><text fill="#000000" font-family="sans-serif" font-size="13" lengthAdjust="spacing" textLength="158" x="1043" y="394.9385">POST /public/external/login</text><polygon fill="#181818" points="741.5,440.4922,731.5,444.4922,741.5,448.4922,737.5,444.4922" style="stroke:#181818;stroke-width:1.0;"/><line style="stroke:#181818;stroke-width:1.0;stroke-dasharray:2.0,2.0;" x1="735.5" x2="1024" y1="444.4922" y2="444.4922"/><text fill="#000000" font-family="sans-serif" font-size="13" font-weight="bold" lengthAdjust="spacing" textLength="7" x="747.5" y="439.2295">8</text><text fill="#000000" font-family="sans-serif" font-size="13" lengthAdjust="spacing" textLength="25" x="758.5" y="439.2295">user</text><polygon fill="#181818" points="471.5,471.7832,461.5,475.7832,471.5,479.7832,467.5,475.7832" style="stroke:#181818;stroke-width:1.0;"/><line style="stroke:#181818;stroke-width:1.0;stroke-dasharray:2.0,2.0;" x1="465.5" x2="729.5" y1="475.7832" y2="475.7832"/><text fill="#000000" font-family="sans-serif" font-size="13" font-weight="bold" lengthAdjust="spacing" textLength="7" x="477.5" y="470.5205">9</text><text fill="#000000" font-family="sans-serif" font-size="13" lengthAdjust="spacing" textLength="25" x="488.5" y="470.5205">user</text><polygon fill="#181818" points="201.5,503.0742,191.5,507.0742,201.5,511.0742,197.5,507.0742" style="stroke:#181818;stroke-width:1.0;"/><line style="stroke:#181818;stroke-width:1.0;stroke-dasharray:2.0,2.0;" x1="195.5" x2="459.5" y1="507.0742" y2="507.0742"/><text fill="#000000" font-family="sans-serif" font-size="13" font-weight="bold" lengthAdjust="spacing" textLength="14" x="207.5" y="501.8115">10</text><text fill="#000000" font-family="sans-serif" font-size="13" lengthAdjust="spacing" textLength="25" x="225.5" y="501.8115">user</text><path d="M20,522.0742 L81,522.0742 L81,531.3652 L71,541.3652 L20,541.3652 L20,522.0742 " fill="#EEEEEE" style="stroke:#000000;stroke-width:1.5;"/><rect fill="none" height="98.5039" style="stroke:#000000;stroke-width:1.5;" width="235" x="20" y="522.0742"/><text fill="#000000" font-family="sans-serif" font-size="13" font-weight="bold" lengthAdjust="spacing" textLength="16" x="35" y="537.1025">alt</text><text fill="#000000" font-family="sans-serif" font-size="11" font-weight="bold" lengthAdjust="spacing" textLength="117" x="96" y="535.9443">[user found external]</text><polygon fill="#181818" points="58.5,560.6563,48.5,564.6563,58.5,568.6563,54.5,564.6563" style="stroke:#181818;stroke-width:1.0;"/><line style="stroke:#181818;stroke-width:1.0;stroke-dasharray:2.0,2.0;" x1="52.5" x2="189.5" y1="564.6563" y2="564.6563"/><text fill="#000000" font-family="sans-serif" font-size="13" font-weight="bold" lengthAdjust="spacing" textLength="14" x="64.5" y="559.3936">11</text><text fill="#000000" font-family="sans-serif" font-size="13" lengthAdjust="spacing" textLength="25" x="82.5" y="559.3936">user</text><line style="stroke:#000000;stroke-width:1.0;stroke-dasharray:2.0,2.0;" x1="20" x2="255" y1="573.6563" y2="573.6563"/><text fill="#000000" font-family="sans-serif" font-size="11" font-weight="bold" lengthAdjust="spacing" textLength="138" x="25" y="585.5264">[user not found external]</text><polygon fill="#181818" points="58.5,608.5781,48.5,612.5781,58.5,616.5781,54.5,612.5781" style="stroke:#181818;stroke-width:1.0;"/><line style="stroke:#181818;stroke-width:1.0;stroke-dasharray:2.0,2.0;" x1="52.5" x2="189.5" y1="612.5781" y2="612.5781"/><text fill="#000000" font-family="sans-serif" font-size="13" font-weight="bold" lengthAdjust="spacing" textLength="14" x="64.5" y="607.3154">12</text><text fill="#000000" font-family="sans-serif" font-size="13" lengthAdjust="spacing" textLength="51" x="82.5" y="607.3154">error 401</text><!--SRC=[bPFRJiCm38RlynHMRnWIqq3YQXT8tSO54X9eWmV8Cc-Bb2ObTJYyFKvw6j1jechLDFu_E_wjNiX0JhcYD4W8pehuRKEnHYy4QJ88AtmBQ1N2GikTbmMC8Q_WjK9_1G_m8Iq1EJ1k1zg2v5if5om98HKv3rbKPY0ho9KefIUjT1cXR1eZSsV9EsCQpPoy6L2jqBzhXKaIrmEI9PQkqbpnAwdYvqdLRD7fPekJoljFGc-bwVJjXX2vWl5TEZHCuVbfzGAJCgoDLXFsGxERXY1mCjYo9Pjea76AGU0hKJsTWD5MSrx80-sNqVQAmDVlomE68IuyJPa5cWhh6jRHgJhHjxPEsy7ei9BirtMrH30PU_uVcOY6R0dEi2Sg7rEVP-cE-flbXy_Ox3U63_1z0ycl_dYz9rsWxhWVIWgaoAz9jcLJxCXaulRGTCwmw3t_DhVNDtK2kn7n-GO0]--></g></svg>