<?xml version="1.0" encoding="us-ascii" standalone="no"?><svg xmlns="http://www.w3.org/2000/svg" xmlns:xlink="http://www.w3.org/1999/xlink" contentStyleType="text/css" height="981px" preserveAspectRatio="none" style="width:935px;height:981px;background:#FFFFFF;" version="1.1" viewBox="0 0 935 981" width="935px" zoomAndPan="magnify"><defs/><g><text fill="#000000" font-family="sans-serif" font-size="14" font-weight="bold" lengthAdjust="spacing" textLength="454" x="233.75" y="25.1074">Class Diagram / As Marketing director, I want to deactivate a Plan</text><!--class PlansRepositoryBD--><g id="elem_PlansRepositoryBD"><rect codeLine="41" fill="#F1F1F1" height="97.8242" id="PlansRepositoryBD" rx="2.5" ry="2.5" style="stroke:#181818;stroke-width:0.5;" width="343" x="222" y="547.6211"/><text fill="#000000" font-family="sans-serif" font-size="12" font-style="italic" lengthAdjust="spacing" textLength="61" x="363" y="565.5703">&#171;interface&#187;</text><text fill="#000000" font-family="sans-serif" font-size="14" font-style="italic" lengthAdjust="spacing" textLength="122" x="332.5" y="583.6895">PlansRepositoryBD</text><line style="stroke:#181818;stroke-width:0.5;" x1="223" x2="564" y1="592.2031" y2="592.2031"/><line style="stroke:#181818;stroke-width:0.5;" x1="223" x2="564" y1="600.2031" y2="600.2031"/><ellipse cx="233" cy="615.0137" fill="#84BE84" rx="3" ry="3" style="stroke:#038048;stroke-width:1.0;"/><text fill="#000000" font-family="sans-serif" font-size="14" lengthAdjust="spacing" textLength="317" x="242" y="619.3105">findByName_Name(String name): Optional&lt;Plans&gt;</text><ellipse cx="233" cy="633.6348" fill="#84BE84" rx="3" ry="3" style="stroke:#038048;stroke-width:1.0;"/><text fill="#000000" font-family="sans-serif" font-size="14" lengthAdjust="spacing" textLength="216" x="242" y="637.9316">save(S entity) : &lt;S extends Plans&gt;</text></g><!--class Plans--><g id="elem_Plans"><rect codeLine="9" fill="#F1F1F1" height="249.4531" id="Plans" rx="2.5" ry="2.5" style="stroke:#181818;stroke-width:0.5;" width="295" x="246" y="724.6211"/><text fill="#000000" font-family="sans-serif" font-size="14" lengthAdjust="spacing" textLength="35" x="376" y="744.7285">Plans</text><line style="stroke:#181818;stroke-width:0.5;" x1="247" x2="540" y1="753.2422" y2="753.2422"/><rect fill="none" height="6" style="stroke:#C82930;stroke-width:1.0;" width="6" x="254" y="765.0527"/><text fill="#000000" font-family="sans-serif" font-size="14" lengthAdjust="spacing" textLength="35" x="266" y="772.3496">name</text><rect fill="none" height="6" style="stroke:#C82930;stroke-width:1.0;" width="6" x="254" y="783.6738"/><text fill="#000000" font-family="sans-serif" font-size="14" lengthAdjust="spacing" textLength="69" x="266" y="790.9707">description</text><rect fill="none" height="6" style="stroke:#C82930;stroke-width:1.0;" width="6" x="254" y="802.2949"/><text fill="#000000" font-family="sans-serif" font-size="14" lengthAdjust="spacing" textLength="112" x="266" y="809.5918">numberOfMinutes</text><rect fill="none" height="6" style="stroke:#C82930;stroke-width:1.0;" width="6" x="254" y="820.916"/><text fill="#000000" font-family="sans-serif" font-size="14" lengthAdjust="spacing" textLength="158" x="266" y="828.2129">maximumNumberOfUsers</text><rect fill="none" height="6" style="stroke:#C82930;stroke-width:1.0;" width="6" x="254" y="839.5371"/><text fill="#000000" font-family="sans-serif" font-size="14" lengthAdjust="spacing" textLength="98" x="266" y="846.834">musicCollection</text><rect fill="none" height="6" style="stroke:#C82930;stroke-width:1.0;" width="6" x="254" y="858.1582"/><text fill="#000000" font-family="sans-serif" font-size="14" lengthAdjust="spacing" textLength="107" x="266" y="865.4551">musicSuggestion</text><rect fill="none" height="6" style="stroke:#C82930;stroke-width:1.0;" width="6" x="254" y="876.7793"/><text fill="#000000" font-family="sans-serif" font-size="14" lengthAdjust="spacing" textLength="68" x="266" y="884.0762">annualFee</text><rect fill="none" height="6" style="stroke:#C82930;stroke-width:1.0;" width="6" x="254" y="895.4004"/><text fill="#000000" font-family="sans-serif" font-size="14" lengthAdjust="spacing" textLength="74" x="266" y="902.6973">monthlyFee</text><rect fill="none" height="6" style="stroke:#C82930;stroke-width:1.0;" width="6" x="254" y="914.0215"/><text fill="#000000" font-family="sans-serif" font-size="14" lengthAdjust="spacing" textLength="37" x="266" y="921.3184">active</text><rect fill="none" height="6" style="stroke:#C82930;stroke-width:1.0;" width="6" x="254" y="932.6426"/><text fill="#000000" font-family="sans-serif" font-size="14" lengthAdjust="spacing" textLength="60" x="266" y="939.9395">promoted</text><line style="stroke:#181818;stroke-width:0.5;" x1="247" x2="540" y1="947.4531" y2="947.4531"/><ellipse cx="257" cy="962.2637" fill="#84BE84" rx="3" ry="3" style="stroke:#038048;stroke-width:1.0;"/><text fill="#000000" font-family="sans-serif" font-size="14" lengthAdjust="spacing" textLength="269" x="266" y="966.5605">deactivate(final long desiredVersion) : void</text></g><!--class PlansViewMapper--><g id="elem_PlansViewMapper"><rect codeLine="22" fill="#F1F1F1" height="63.2422" id="PlansViewMapper" rx="2.5" ry="2.5" style="stroke:#181818;stroke-width:0.5;" width="253" x="60" y="217.1211"/><text fill="#000000" font-family="sans-serif" font-size="14" lengthAdjust="spacing" textLength="112" x="130.5" y="237.2285">PlansViewMapper</text><line style="stroke:#181818;stroke-width:0.5;" x1="61" x2="312" y1="245.7422" y2="245.7422"/><line style="stroke:#181818;stroke-width:0.5;" x1="61" x2="312" y1="253.7422" y2="253.7422"/><ellipse cx="71" cy="268.5527" fill="#84BE84" rx="3" ry="3" style="stroke:#038048;stroke-width:1.0;"/><text fill="#000000" font-family="sans-serif" font-size="14" lengthAdjust="spacing" textLength="227" x="80" y="272.8496">toPlansView(Plans plans):PlansView</text></g><!--class PlansController--><g id="elem_PlansController"><rect codeLine="25" fill="#F1F1F1" height="81.8633" id="PlansController" rx="2.5" ry="2.5" style="stroke:#181818;stroke-width:0.5;" width="441" x="7" y="46.6211"/><text fill="#000000" font-family="sans-serif" font-size="14" lengthAdjust="spacing" textLength="97" x="179" y="66.7285">PlansController</text><line style="stroke:#181818;stroke-width:0.5;" x1="8" x2="447" y1="75.2422" y2="75.2422"/><line style="stroke:#181818;stroke-width:0.5;" x1="8" x2="447" y1="83.2422" y2="83.2422"/><ellipse cx="18" cy="98.0527" fill="#84BE84" rx="3" ry="3" style="stroke:#038048;stroke-width:1.0;"/><text fill="#000000" font-family="sans-serif" font-size="14" lengthAdjust="spacing" textLength="364" x="27" y="102.3496">deactivate(final String name):ResponseEntity&lt;PlansView&gt;</text><ellipse cx="18" cy="116.6738" fill="#84BE84" rx="3" ry="3" style="stroke:#038048;stroke-width:1.0;"/><text fill="#000000" font-family="sans-serif" font-size="14" lengthAdjust="spacing" textLength="415" x="27" y="120.9707">deactivateExternal(final String name):ResponseEntity&lt;PlansView&gt;</text></g><!--class PlansService--><g id="elem_PlansService"><rect codeLine="29" fill="#F1F1F1" height="81.8633" id="PlansService" rx="2.5" ry="2.5" style="stroke:#181818;stroke-width:0.5;" width="461" x="348" y="207.6211"/><text fill="#000000" font-family="sans-serif" font-size="14" lengthAdjust="spacing" textLength="82" x="537.5" y="227.7285">PlansService</text><line style="stroke:#181818;stroke-width:0.5;" x1="349" x2="808" y1="236.2422" y2="236.2422"/><line style="stroke:#181818;stroke-width:0.5;" x1="349" x2="808" y1="244.2422" y2="244.2422"/><ellipse cx="359" cy="259.0527" fill="#84BE84" rx="3" ry="3" style="stroke:#038048;stroke-width:1.0;"/><text fill="#000000" font-family="sans-serif" font-size="14" lengthAdjust="spacing" textLength="384" x="368" y="263.3496">deactivate(final String name, final long desiredVersion):Plans</text><ellipse cx="359" cy="277.6738" fill="#84BE84" rx="3" ry="3" style="stroke:#038048;stroke-width:1.0;"/><text fill="#000000" font-family="sans-serif" font-size="14" lengthAdjust="spacing" textLength="435" x="368" y="281.9707">deactivateExternal(final String name, final long desiredVersion):Plans</text></g><!--class PlansRepository--><g id="elem_PlansRepository"><rect codeLine="35" fill="#F1F1F1" height="100.4844" id="PlansRepository" rx="2.5" ry="2.5" style="stroke:#181818;stroke-width:0.5;" width="379" x="389" y="368.6211"/><text fill="#000000" font-family="sans-serif" font-size="14" lengthAdjust="spacing" textLength="103" x="527" y="388.7285">PlansRepository</text><line style="stroke:#181818;stroke-width:0.5;" x1="390" x2="767" y1="397.2422" y2="397.2422"/><line style="stroke:#181818;stroke-width:0.5;" x1="390" x2="767" y1="405.2422" y2="405.2422"/><ellipse cx="400" cy="420.0527" fill="#84BE84" rx="3" ry="3" style="stroke:#038048;stroke-width:1.0;"/><text fill="#000000" font-family="sans-serif" font-size="14" lengthAdjust="spacing" textLength="247" x="409" y="424.3496">findIfNameExists(String name): boolean</text><ellipse cx="400" cy="438.6738" fill="#84BE84" rx="3" ry="3" style="stroke:#038048;stroke-width:1.0;"/><text fill="#000000" font-family="sans-serif" font-size="14" lengthAdjust="spacing" textLength="289" x="409" y="442.9707">findByNameBD(String name): optional&lt;Plans&gt;</text><ellipse cx="400" cy="457.2949" fill="#84BE84" rx="3" ry="3" style="stroke:#038048;stroke-width:1.0;"/><text fill="#000000" font-family="sans-serif" font-size="14" lengthAdjust="spacing" textLength="353" x="409" y="461.5918">deactivatePlanExternal(String plan, long version) : plans</text></g><!--class PlansRepositoryExternal--><g id="elem_PlansRepositoryExternal"><rect codeLine="47" fill="#F1F1F1" height="81.8633" id="PlansRepositoryExternal" rx="2.5" ry="2.5" style="stroke:#181818;stroke-width:0.5;" width="328" x="600.5" y="555.6211"/><text fill="#000000" font-family="sans-serif" font-size="14" lengthAdjust="spacing" textLength="154" x="687.5" y="575.7285">PlansRepositoryExternal</text><line style="stroke:#181818;stroke-width:0.5;" x1="601.5" x2="927.5" y1="584.2422" y2="584.2422"/><line style="stroke:#181818;stroke-width:0.5;" x1="601.5" x2="927.5" y1="592.2422" y2="592.2422"/><ellipse cx="611.5" cy="607.0527" fill="#84BE84" rx="3" ry="3" style="stroke:#038048;stroke-width:1.0;"/><text fill="#000000" font-family="sans-serif" font-size="14" lengthAdjust="spacing" textLength="218" x="620.5" y="611.3496">httpExistPlan(String plan): boolean</text><ellipse cx="611.5" cy="625.6738" fill="#84BE84" rx="3" ry="3" style="stroke:#038048;stroke-width:1.0;"/><text fill="#000000" font-family="sans-serif" font-size="14" lengthAdjust="spacing" textLength="302" x="620.5" y="629.9707">deactivatePlan(String plan, long version) : plans</text></g><!--link PlansController to PlansService--><g id="link_PlansController_PlansService"><path codeLine="53" d="M316.07,128.7411 C369.28,152.8511 431.2845,180.9356 484.4945,205.0356 " fill="none" id="PlansController-to-PlansService" style="stroke:#181818;stroke-width:1.0;stroke-dasharray:7.0,7.0;"/><polygon fill="#181818" points="489.96,207.5111,483.412,200.1542,485.4054,205.4482,480.1114,207.4416,489.96,207.5111" style="stroke:#181818;stroke-width:1.0;"/><polygon fill="#000000" points="423.0545,170.3297,416.028,163.9204,413.6027,169.2746,423.0545,170.3297" style="stroke:#000000;stroke-width:1.0;"/><text fill="#000000" font-family="sans-serif" font-size="13" lengthAdjust="spacing" textLength="28" x="427.5" y="173.6494">uses</text></g><!--link PlansService to PlansRepository--><g id="link_PlansService_PlansRepository"><path codeLine="54" d="M578.5,289.8611 C578.5,313.4511 578.5,337.4311 578.5,362.4111 " fill="none" id="PlansService-to-PlansRepository" style="stroke:#181818;stroke-width:1.0;stroke-dasharray:7.0,7.0;"/><polygon fill="#181818" points="578.5,368.4111,582.5,359.4111,578.5,363.4111,574.5,359.4111,578.5,368.4111" style="stroke:#181818;stroke-width:1.0;"/><polygon fill="#000000" points="583.5,334.2666,586.4389,325.2215,580.5611,325.2215,583.5,334.2666" style="stroke:#000000;stroke-width:1.0;"/><text fill="#000000" font-family="sans-serif" font-size="13" lengthAdjust="spacing" textLength="28" x="592.5" y="334.6494">uses</text></g><!--link PlansRepository to PlansRepositoryBD--><g id="link_PlansRepository_PlansRepositoryBD"><path codeLine="55" d="M526.97,468.6511 C501.09,493.2611 474.206,518.8344 448.466,543.3344 " fill="none" id="PlansRepository-to-PlansRepositoryBD" style="stroke:#181818;stroke-width:1.0;stroke-dasharray:7.0,7.0;"/><polygon fill="#181818" points="444.12,547.4711,453.3968,544.1634,447.7417,544.0239,447.8813,538.3687,444.12,547.4711" style="stroke:#181818;stroke-width:1.0;"/><polygon fill="#000000" points="492.8774,511.7129,501.4564,507.6078,497.4051,503.3492,492.8774,511.7129" style="stroke:#000000;stroke-width:1.0;"/><text fill="#000000" font-family="sans-serif" font-size="13" lengthAdjust="spacing" textLength="28" x="505.5" y="513.6494">uses</text></g><!--link PlansRepository to PlansRepositoryExternal--><g id="link_PlansRepository_PlansRepositoryExternal"><path codeLine="56" d="M630.31,468.6511 C659.23,496.0111 690.4414,525.5476 717.6914,551.3276 " fill="none" id="PlansRepository-to-PlansRepositoryExternal" style="stroke:#181818;stroke-width:1.0;stroke-dasharray:7.0,7.0;"/><polygon fill="#181818" points="722.05,555.4511,718.2611,546.3602,718.4179,552.0149,712.7632,552.1716,722.05,555.4511" style="stroke:#181818;stroke-width:1.0;"/><polygon fill="#000000" points="685.132,511.703,680.5816,503.3517,676.5418,507.6213,685.132,511.703" style="stroke:#000000;stroke-width:1.0;"/><text fill="#000000" font-family="sans-serif" font-size="13" lengthAdjust="spacing" textLength="28" x="690.5" y="513.6494">uses</text></g><!--link PlansRepositoryBD to Plans--><g id="link_PlansRepositoryBD_Plans"><path codeLine="57" d="M393.5,645.6211 C393.5,668.2811 393.5,690.4711 393.5,718.5611 " fill="none" id="PlansRepositoryBD-to-Plans" style="stroke:#181818;stroke-width:1.0;stroke-dasharray:7.0,7.0;"/><polygon fill="#181818" points="393.5,724.5611,397.5,715.5611,393.5,719.5611,389.5,715.5611,393.5,724.5611" style="stroke:#181818;stroke-width:1.0;"/><polygon fill="#000000" points="398.5,680.2666,395.5611,689.3117,401.4389,689.3117,398.5,680.2666" style="stroke:#000000;stroke-width:1.0;"/><text fill="#000000" font-family="sans-serif" font-size="13" lengthAdjust="spacing" textLength="36" x="407.5" y="690.6494">record</text></g><!--link PlansController to PlansViewMapper--><g id="link_PlansController_PlansViewMapper"><path codeLine="58" d="M217.15,128.7411 C210.08,156.1611 202.3587,186.1213 195.8787,211.2413 " fill="none" id="PlansController-to-PlansViewMapper" style="stroke:#181818;stroke-width:1.0;stroke-dasharray:7.0,7.0;"/><polygon fill="#181818" points="194.38,217.0511,200.5013,209.3355,195.6289,212.2096,192.7549,207.3372,194.38,217.0511" style="stroke:#181818;stroke-width:1.0;"/><polygon fill="#000000" points="212.2517,173.1083,217.3558,165.0834,211.6641,163.6159,212.2517,173.1083" style="stroke:#000000;stroke-width:1.0;"/><text fill="#000000" font-family="sans-serif" font-size="13" lengthAdjust="spacing" textLength="28" x="222.5" y="173.6494">uses</text></g><!--SRC=[bLHDR-8m4BtxLynjGL2uHoZIyh5I3xIhekrrvJe3MElOaUrGKBN_VSVvJWehcaCKZz-CttipyRUZzvcBvlDCSUtpLCs4IUT2SUSU4iaFbgViA1C48QrGo8eT-4bWzuAPST8RUrckOR6GsgFTSu5np9YNNY6i2l2wB0Dp-EvWo-qVz58V894M1MLFuH7UwMpm1XBamiiJzmYyE8JHqpdoWm4z3vgdM7vHXXDMPbuQNKLqdhwXVTvlfSuzkZAQyhDCy_IfsllbqDOxkPDYPPGYCdMHAhhB3mTqdIZNEkVg1sADCjeVrQKD5EphHMPDQZmcvNBIQXljfUOAb0ake2CVabVYG-UC8OAJaGdxsrNzAl5zoxCCRQb_uaqJ7nLV4Bhdnb4JxXTO4KyR95O5hf3PUHkQ4fmTHo_eCgCTRZJryR9egiQViZTdQZhbVxrAZ-0ExKaA97R_PJQ5sywLsjbzvEueH0vU7_Qg1rGWUTm_KR7DMJhlHZtjy6QCGgvRxF8IiClr06UAqUMgjAUqfYCXH1iPLMRezRIaVch7ffY0GBhv3p__fUo3TRZy3gy1dUS1dOdZ9y805ZqCvoneGOHqKXaJtpIgvbqP5YwQmge0wsePkjLNVwTgDXXqcCtYtcn5a3jq4BDki4MrjFl0DduDkrn_1LqRSYk7hj4cYum6kX-DJQuf6rmBTS5_]--></g></svg>