<?xml version="1.0" encoding="us-ascii" standalone="no"?><svg xmlns="http://www.w3.org/2000/svg" xmlns:xlink="http://www.w3.org/1999/xlink" contentStyleType="text/css" height="1234px" preserveAspectRatio="none" style="width:1474px;height:1234px;background:#FFFFFF;" version="1.1" viewBox="0 0 1474 1234" width="1474px" zoomAndPan="magnify"><defs/><g><text fill="#000000" font-family="sans-serif" font-size="14" font-weight="bold" lengthAdjust="spacing" textLength="266" x="605.25" y="30.1074">Sequence Diagram - Deactivate a Plan</text><rect fill="none" height="317.8809" style="stroke:#000000;stroke-width:1.5;" width="874" x="468" y="265.4063"/><rect fill="none" height="98.5039" style="stroke:#000000;stroke-width:1.5;" width="388.5" x="478" y="477.7832"/><rect fill="none" height="443.0449" style="stroke:#000000;stroke-width:1.5;" width="1240.5" x="227" y="628.5781"/><rect fill="none" height="299.25" style="stroke:#000000;stroke-width:1.5;" width="979.5" x="478" y="765.373"/><line style="stroke:#181818;stroke-width:0.5;stroke-dasharray:5.0,5.0;" x1="66" x2="66" y1="123.2422" y2="1151.2051"/><line style="stroke:#181818;stroke-width:0.5;stroke-dasharray:5.0,5.0;" x1="289" x2="289" y1="123.2422" y2="1151.2051"/><line style="stroke:#181818;stroke-width:0.5;stroke-dasharray:5.0,5.0;" x1="536" x2="536" y1="123.2422" y2="1151.2051"/><line style="stroke:#181818;stroke-width:0.5;stroke-dasharray:5.0,5.0;" x1="797.5" x2="797.5" y1="123.2422" y2="1151.2051"/><line style="stroke:#181818;stroke-width:0.5;stroke-dasharray:5.0,5.0;" x1="991" x2="991" y1="123.2422" y2="1151.2051"/><line style="stroke:#181818;stroke-width:0.5;stroke-dasharray:5.0,5.0;" x1="1153" x2="1153" y1="123.2422" y2="1151.2051"/><line style="stroke:#181818;stroke-width:0.5;stroke-dasharray:5.0,5.0;" x1="1422.5" x2="1422.5" y1="123.2422" y2="1151.2051"/><text fill="#000000" font-family="sans-serif" font-size="14" lengthAdjust="spacing" textLength="116" x="5" y="119.7285">Marketing Director</text><ellipse cx="66" cy="53.1211" fill="#E2E2F0" rx="8" ry="8" style="stroke:#181818;stroke-width:0.5;"/><path d="M66,61.1211 L66,88.1211 M53,69.1211 L79,69.1211 M66,88.1211 L53,103.1211 M66,88.1211 L79,103.1211 " fill="none" style="stroke:#181818;stroke-width:0.5;"/><text fill="#000000" font-family="sans-serif" font-size="14" lengthAdjust="spacing" textLength="116" x="5" y="1165.3125">Marketing Director</text><ellipse cx="66" cy="1177.3262" fill="#E2E2F0" rx="8" ry="8" style="stroke:#181818;stroke-width:0.5;"/><path d="M66,1185.3262 L66,1212.3262 M53,1193.3262 L79,1193.3262 M66,1212.3262 L53,1227.3262 M66,1212.3262 L79,1227.3262 " fill="none" style="stroke:#181818;stroke-width:0.5;"/><rect fill="#E2E2F0" height="32.6211" rx="2.5" ry="2.5" style="stroke:#181818;stroke-width:0.5;" width="104" x="237" y="89.6211"/><text fill="#000000" font-family="sans-serif" font-size="14" lengthAdjust="spacing" textLength="90" x="244" y="111.7285">PlanController</text><rect fill="#E2E2F0" height="32.6211" rx="2.5" ry="2.5" style="stroke:#181818;stroke-width:0.5;" width="104" x="237" y="1150.2051"/><text fill="#000000" font-family="sans-serif" font-size="14" lengthAdjust="spacing" textLength="90" x="244" y="1172.3125">PlanController</text><rect fill="#E2E2F0" height="32.6211" rx="2.5" ry="2.5" style="stroke:#181818;stroke-width:0.5;" width="96" x="488" y="89.6211"/><text fill="#000000" font-family="sans-serif" font-size="14" lengthAdjust="spacing" textLength="82" x="495" y="111.7285">PlansService</text><rect fill="#E2E2F0" height="32.6211" rx="2.5" ry="2.5" style="stroke:#181818;stroke-width:0.5;" width="96" x="488" y="1150.2051"/><text fill="#000000" font-family="sans-serif" font-size="14" lengthAdjust="spacing" textLength="82" x="495" y="1172.3125">PlansService</text><rect fill="#E2E2F0" height="32.6211" rx="2.5" ry="2.5" style="stroke:#181818;stroke-width:0.5;" width="117" x="739.5" y="89.6211"/><text fill="#000000" font-family="sans-serif" font-size="14" lengthAdjust="spacing" textLength="103" x="746.5" y="111.7285">PlansRepository</text><rect fill="#E2E2F0" height="32.6211" rx="2.5" ry="2.5" style="stroke:#181818;stroke-width:0.5;" width="117" x="739.5" y="1150.2051"/><text fill="#000000" font-family="sans-serif" font-size="14" lengthAdjust="spacing" textLength="103" x="746.5" y="1172.3125">PlansRepository</text><rect fill="#E2E2F0" height="32.6211" rx="2.5" ry="2.5" style="stroke:#181818;stroke-width:0.5;" width="136" x="923" y="89.6211"/><text fill="#000000" font-family="sans-serif" font-size="14" lengthAdjust="spacing" textLength="122" x="930" y="111.7285">PlansRepositoryBD</text><rect fill="#E2E2F0" height="32.6211" rx="2.5" ry="2.5" style="stroke:#181818;stroke-width:0.5;" width="136" x="923" y="1150.2051"/><text fill="#000000" font-family="sans-serif" font-size="14" lengthAdjust="spacing" textLength="122" x="930" y="1172.3125">PlansRepositoryBD</text><rect fill="#E2E2F0" height="32.6211" rx="2.5" ry="2.5" style="stroke:#181818;stroke-width:0.5;" width="168" x="1069" y="89.6211"/><text fill="#000000" font-family="sans-serif" font-size="14" lengthAdjust="spacing" textLength="154" x="1076" y="111.7285">PlansRepositoryExternal</text><rect fill="#E2E2F0" height="32.6211" rx="2.5" ry="2.5" style="stroke:#181818;stroke-width:0.5;" width="168" x="1069" y="1150.2051"/><text fill="#000000" font-family="sans-serif" font-size="14" lengthAdjust="spacing" textLength="154" x="1076" y="1172.3125">PlansRepositoryExternal</text><rect fill="#E2E2F0" height="32.6211" rx="2.5" ry="2.5" style="stroke:#181818;stroke-width:0.5;" width="49" x="1398.5" y="89.6211"/><text fill="#000000" font-family="sans-serif" font-size="14" lengthAdjust="spacing" textLength="35" x="1405.5" y="111.7285">Plans</text><rect fill="#E2E2F0" height="32.6211" rx="2.5" ry="2.5" style="stroke:#181818;stroke-width:0.5;" width="49" x="1398.5" y="1150.2051"/><text fill="#000000" font-family="sans-serif" font-size="14" lengthAdjust="spacing" textLength="35" x="1405.5" y="1172.3125">Plans</text><polygon fill="#181818" points="277,152.5332,287,156.5332,277,160.5332,281,156.5332" style="stroke:#181818;stroke-width:1.0;"/><line style="stroke:#181818;stroke-width:1.0;" x1="66" x2="283" y1="156.5332" y2="156.5332"/><text fill="#000000" font-family="sans-serif" font-size="13" font-weight="bold" lengthAdjust="spacing" textLength="7" x="73" y="151.2705">1</text><text fill="#000000" font-family="sans-serif" font-size="13" lengthAdjust="spacing" textLength="188" x="84" y="151.2705">PATCH /plans/deactivate/{name}</text><polygon fill="#181818" points="524,183.8242,534,187.8242,524,191.8242,528,187.8242" style="stroke:#181818;stroke-width:1.0;"/><line style="stroke:#181818;stroke-width:1.0;" x1="289" x2="530" y1="187.8242" y2="187.8242"/><text fill="#000000" font-family="sans-serif" font-size="13" font-weight="bold" lengthAdjust="spacing" textLength="7" x="296" y="182.5615">2</text><text fill="#000000" font-family="sans-serif" font-size="13" lengthAdjust="spacing" textLength="212" x="307" y="182.5615">deactivate(String name, long version)</text><polygon fill="#181818" points="786,215.1152,796,219.1152,786,223.1152,790,219.1152" style="stroke:#181818;stroke-width:1.0;"/><line style="stroke:#181818;stroke-width:1.0;" x1="536" x2="792" y1="219.1152" y2="219.1152"/><text fill="#000000" font-family="sans-serif" font-size="13" font-weight="bold" lengthAdjust="spacing" textLength="7" x="543" y="213.8525">3</text><text fill="#000000" font-family="sans-serif" font-size="13" lengthAdjust="spacing" textLength="137" x="554" y="213.8525">findIfNameExists(name)</text><polygon fill="#181818" points="979,246.4063,989,250.4063,979,254.4063,983,250.4063" style="stroke:#181818;stroke-width:1.0;"/><line style="stroke:#181818;stroke-width:1.0;" x1="798" x2="985" y1="250.4063" y2="250.4063"/><text fill="#000000" font-family="sans-serif" font-size="13" font-weight="bold" lengthAdjust="spacing" textLength="7" x="805" y="245.1436">4</text><text fill="#000000" font-family="sans-serif" font-size="13" lengthAdjust="spacing" textLength="151" x="816" y="245.1436">findByName_Name(name)</text><path d="M468,265.4063 L529,265.4063 L529,274.6973 L519,284.6973 L468,284.6973 L468,265.4063 " fill="#EEEEEE" style="stroke:#000000;stroke-width:1.5;"/><rect fill="none" height="317.8809" style="stroke:#000000;stroke-width:1.5;" width="874" x="468" y="265.4063"/><text fill="#000000" font-family="sans-serif" font-size="13" font-weight="bold" lengthAdjust="spacing" textLength="16" x="483" y="280.4346">alt</text><text fill="#000000" font-family="sans-serif" font-size="11" font-weight="bold" lengthAdjust="spacing" textLength="146" x="544" y="279.2764">[Name found in local Repo]</text><polygon fill="#181818" points="809,303.9883,799,307.9883,809,311.9883,805,307.9883" style="stroke:#181818;stroke-width:1.0;"/><line style="stroke:#181818;stroke-width:1.0;stroke-dasharray:2.0,2.0;" x1="803" x2="990" y1="307.9883" y2="307.9883"/><text fill="#000000" font-family="sans-serif" font-size="13" font-weight="bold" lengthAdjust="spacing" textLength="7" x="815" y="302.7256">5</text><text fill="#000000" font-family="sans-serif" font-size="13" lengthAdjust="spacing" textLength="114" x="826" y="302.7256">Name exists locally</text><polygon fill="#181818" points="547,335.2793,537,339.2793,547,343.2793,543,339.2793" style="stroke:#181818;stroke-width:1.0;"/><line style="stroke:#181818;stroke-width:1.0;stroke-dasharray:2.0,2.0;" x1="541" x2="797" y1="339.2793" y2="339.2793"/><text fill="#000000" font-family="sans-serif" font-size="13" font-weight="bold" lengthAdjust="spacing" textLength="7" x="553" y="334.0166">6</text><text fill="#000000" font-family="sans-serif" font-size="13" lengthAdjust="spacing" textLength="22" x="564" y="334.0166">true</text><line style="stroke:#000000;stroke-width:1.0;stroke-dasharray:2.0,2.0;" x1="468" x2="1342" y1="348.2793" y2="348.2793"/><text fill="#000000" font-family="sans-serif" font-size="11" font-weight="bold" lengthAdjust="spacing" textLength="167" x="473" y="360.1494">[Name not found in local Repo]</text><polygon fill="#181818" points="1141,383.2012,1151,387.2012,1141,391.2012,1145,387.2012" style="stroke:#181818;stroke-width:1.0;"/><line style="stroke:#181818;stroke-width:1.0;" x1="798" x2="1147" y1="387.2012" y2="387.2012"/><text fill="#000000" font-family="sans-serif" font-size="13" font-weight="bold" lengthAdjust="spacing" textLength="7" x="805" y="381.9385">7</text><text fill="#000000" font-family="sans-serif" font-size="13" lengthAdjust="spacing" textLength="118" x="816" y="381.9385">httpExistPlan(name)</text><line style="stroke:#181818;stroke-width:1.0;" x1="1153" x2="1195" y1="418.4922" y2="418.4922"/><line style="stroke:#181818;stroke-width:1.0;" x1="1195" x2="1195" y1="418.4922" y2="431.4922"/><line style="stroke:#181818;stroke-width:1.0;" x1="1154" x2="1195" y1="431.4922" y2="431.4922"/><polygon fill="#181818" points="1164,427.4922,1154,431.4922,1164,435.4922,1160,431.4922" style="stroke:#181818;stroke-width:1.0;"/><text fill="#000000" font-family="sans-serif" font-size="13" font-weight="bold" lengthAdjust="spacing" textLength="7" x="1160" y="413.2295">8</text><text fill="#000000" font-family="sans-serif" font-size="13" lengthAdjust="spacing" textLength="159" x="1171" y="413.2295">GET /plans/external/{name}</text><polygon fill="#181818" points="809,458.7832,799,462.7832,809,466.7832,805,462.7832" style="stroke:#181818;stroke-width:1.0;"/><line style="stroke:#181818;stroke-width:1.0;stroke-dasharray:2.0,2.0;" x1="803" x2="1152" y1="462.7832" y2="462.7832"/><text fill="#000000" font-family="sans-serif" font-size="13" font-weight="bold" lengthAdjust="spacing" textLength="7" x="815" y="457.5205">9</text><text fill="#000000" font-family="sans-serif" font-size="13" lengthAdjust="spacing" textLength="184" x="826" y="457.5205">Response from external system</text><path d="M478,477.7832 L539,477.7832 L539,487.0742 L529,497.0742 L478,497.0742 L478,477.7832 " fill="#EEEEEE" style="stroke:#000000;stroke-width:1.5;"/><rect fill="none" height="98.5039" style="stroke:#000000;stroke-width:1.5;" width="388.5" x="478" y="477.7832"/><text fill="#000000" font-family="sans-serif" font-size="13" font-weight="bold" lengthAdjust="spacing" textLength="16" x="493" y="492.8115">alt</text><text fill="#000000" font-family="sans-serif" font-size="11" font-weight="bold" lengthAdjust="spacing" textLength="166" x="554" y="491.6533">[Name found in external Repo]</text><polygon fill="#181818" points="547,516.3652,537,520.3652,547,524.3652,543,520.3652" style="stroke:#181818;stroke-width:1.0;"/><line style="stroke:#181818;stroke-width:1.0;stroke-dasharray:2.0,2.0;" x1="541" x2="797" y1="520.3652" y2="520.3652"/><text fill="#000000" font-family="sans-serif" font-size="13" font-weight="bold" lengthAdjust="spacing" textLength="14" x="553" y="515.1025">10</text><text fill="#000000" font-family="sans-serif" font-size="13" lengthAdjust="spacing" textLength="22" x="571" y="515.1025">true</text><line style="stroke:#000000;stroke-width:1.0;stroke-dasharray:2.0,2.0;" x1="478" x2="866.5" y1="529.3652" y2="529.3652"/><text fill="#000000" font-family="sans-serif" font-size="11" font-weight="bold" lengthAdjust="spacing" textLength="187" x="483" y="541.2354">[Name not found in external Repo]</text><polygon fill="#181818" points="547,564.2871,537,568.2871,547,572.2871,543,568.2871" style="stroke:#181818;stroke-width:1.0;"/><line style="stroke:#181818;stroke-width:1.0;stroke-dasharray:2.0,2.0;" x1="541" x2="797" y1="568.2871" y2="568.2871"/><text fill="#000000" font-family="sans-serif" font-size="13" font-weight="bold" lengthAdjust="spacing" textLength="14" x="553" y="563.0244">11</text><text fill="#000000" font-family="sans-serif" font-size="13" lengthAdjust="spacing" textLength="27" x="571" y="563.0244">false</text><polygon fill="#181818" points="547,609.5781,537,613.5781,547,617.5781,543,613.5781" style="stroke:#181818;stroke-width:1.0;"/><line style="stroke:#181818;stroke-width:1.0;stroke-dasharray:2.0,2.0;" x1="541" x2="797" y1="613.5781" y2="613.5781"/><text fill="#000000" font-family="sans-serif" font-size="13" font-weight="bold" lengthAdjust="spacing" textLength="14" x="553" y="608.3154">12</text><text fill="#000000" font-family="sans-serif" font-size="13" lengthAdjust="spacing" textLength="68" x="571" y="608.3154">true or false</text><path d="M227,628.5781 L288,628.5781 L288,637.8691 L278,647.8691 L227,647.8691 L227,628.5781 " fill="#EEEEEE" style="stroke:#000000;stroke-width:1.5;"/><rect fill="none" height="443.0449" style="stroke:#000000;stroke-width:1.5;" width="1240.5" x="227" y="628.5781"/><text fill="#000000" font-family="sans-serif" font-size="13" font-weight="bold" lengthAdjust="spacing" textLength="16" x="242" y="643.6064">alt</text><text fill="#000000" font-family="sans-serif" font-size="11" font-weight="bold" lengthAdjust="spacing" textLength="143" x="303" y="642.4482">[Plan doesn't exist - false]</text><polygon fill="#181818" points="300,667.1602,290,671.1602,300,675.1602,296,671.1602" style="stroke:#181818;stroke-width:1.0;"/><line style="stroke:#181818;stroke-width:1.0;stroke-dasharray:2.0,2.0;" x1="294" x2="535" y1="671.1602" y2="671.1602"/><text fill="#000000" font-family="sans-serif" font-size="13" font-weight="bold" lengthAdjust="spacing" textLength="14" x="306" y="665.8975">13</text><text fill="#000000" font-family="sans-serif" font-size="13" lengthAdjust="spacing" textLength="185" x="324" y="665.8975">Throw IllegalArgumentException</text><line style="stroke:#000000;stroke-width:1.0;stroke-dasharray:2.0,2.0;" x1="227" x2="1467.5" y1="680.1602" y2="680.1602"/><text fill="#000000" font-family="sans-serif" font-size="11" font-weight="bold" lengthAdjust="spacing" textLength="101" x="232" y="692.0303">[Plan exists - true]</text><polygon fill="#181818" points="786,715.082,796,719.082,786,723.082,790,719.082" style="stroke:#181818;stroke-width:1.0;"/><line style="stroke:#181818;stroke-width:1.0;" x1="536" x2="792" y1="719.082" y2="719.082"/><text fill="#000000" font-family="sans-serif" font-size="13" font-weight="bold" lengthAdjust="spacing" textLength="14" x="543" y="713.8193">14</text><text fill="#000000" font-family="sans-serif" font-size="13" lengthAdjust="spacing" textLength="128" x="561" y="713.8193">findByNameBD(name)</text><polygon fill="#181818" points="979,746.373,989,750.373,979,754.373,983,750.373" style="stroke:#181818;stroke-width:1.0;"/><line style="stroke:#181818;stroke-width:1.0;" x1="798" x2="985" y1="750.373" y2="750.373"/><text fill="#000000" font-family="sans-serif" font-size="13" font-weight="bold" lengthAdjust="spacing" textLength="14" x="805" y="745.1104">15</text><text fill="#000000" font-family="sans-serif" font-size="13" lengthAdjust="spacing" textLength="151" x="823" y="745.1104">findByName_Name(name)</text><path d="M478,765.373 L539,765.373 L539,774.6641 L529,784.6641 L478,784.6641 L478,765.373 " fill="#EEEEEE" style="stroke:#000000;stroke-width:1.5;"/><rect fill="none" height="299.25" style="stroke:#000000;stroke-width:1.5;" width="979.5" x="478" y="765.373"/><text fill="#000000" font-family="sans-serif" font-size="13" font-weight="bold" lengthAdjust="spacing" textLength="16" x="493" y="780.4014">alt</text><text fill="#000000" font-family="sans-serif" font-size="11" font-weight="bold" lengthAdjust="spacing" textLength="168" x="554" y="779.2432">[Plan found in local repository]</text><polygon fill="#181818" points="1411,803.9551,1421,807.9551,1411,811.9551,1415,807.9551" style="stroke:#181818;stroke-width:1.0;"/><line style="stroke:#181818;stroke-width:1.0;" x1="536" x2="1417" y1="807.9551" y2="807.9551"/><text fill="#000000" font-family="sans-serif" font-size="13" font-weight="bold" lengthAdjust="spacing" textLength="14" x="543" y="802.6924">16</text><text fill="#000000" font-family="sans-serif" font-size="13" lengthAdjust="spacing" textLength="220" x="561" y="802.6924">deactivatePlanExternal(name, version)</text><polygon fill="#181818" points="786,835.2461,796,839.2461,786,843.2461,790,839.2461" style="stroke:#181818;stroke-width:1.0;"/><line style="stroke:#181818;stroke-width:1.0;stroke-dasharray:2.0,2.0;" x1="536" x2="792" y1="839.2461" y2="839.2461"/><text fill="#000000" font-family="sans-serif" font-size="13" font-weight="bold" lengthAdjust="spacing" textLength="14" x="543" y="833.9834">17</text><text fill="#000000" font-family="sans-serif" font-size="13" lengthAdjust="spacing" textLength="76" x="561" y="833.9834">saveBD(plan)</text><polygon fill="#181818" points="547,866.5371,537,870.5371,547,874.5371,543,870.5371" style="stroke:#181818;stroke-width:1.0;"/><line style="stroke:#181818;stroke-width:1.0;stroke-dasharray:2.0,2.0;" x1="541" x2="797" y1="870.5371" y2="870.5371"/><text fill="#000000" font-family="sans-serif" font-size="13" font-weight="bold" lengthAdjust="spacing" textLength="14" x="553" y="865.2744">18</text><text fill="#000000" font-family="sans-serif" font-size="13" lengthAdjust="spacing" textLength="78" x="571" y="865.2744">Updated Plan</text><line style="stroke:#000000;stroke-width:1.0;stroke-dasharray:2.0,2.0;" x1="478" x2="1457.5" y1="879.5371" y2="879.5371"/><text fill="#000000" font-family="sans-serif" font-size="11" font-weight="bold" lengthAdjust="spacing" textLength="189" x="483" y="891.4072">[Plan not found in local repository]</text><polygon fill="#181818" points="786,914.459,796,918.459,786,922.459,790,918.459" style="stroke:#181818;stroke-width:1.0;"/><line style="stroke:#181818;stroke-width:1.0;" x1="536" x2="792" y1="918.459" y2="918.459"/><text fill="#000000" font-family="sans-serif" font-size="13" font-weight="bold" lengthAdjust="spacing" textLength="14" x="543" y="913.1963">19</text><text fill="#000000" font-family="sans-serif" font-size="13" lengthAdjust="spacing" textLength="220" x="561" y="913.1963">deactivatePlanExternal(name, version)</text><polygon fill="#181818" points="1141,945.75,1151,949.75,1141,953.75,1145,949.75" style="stroke:#181818;stroke-width:1.0;"/><line style="stroke:#181818;stroke-width:1.0;" x1="798" x2="1147" y1="949.75" y2="949.75"/><text fill="#000000" font-family="sans-serif" font-size="13" font-weight="bold" lengthAdjust="spacing" textLength="14" x="805" y="944.4873">20</text><text fill="#000000" font-family="sans-serif" font-size="13" lengthAdjust="spacing" textLength="172" x="823" y="944.4873">deactivatePlan(name, version)</text><line style="stroke:#181818;stroke-width:1.0;stroke-dasharray:2.0,2.0;" x1="1153" x2="1195" y1="981.041" y2="981.041"/><line style="stroke:#181818;stroke-width:1.0;stroke-dasharray:2.0,2.0;" x1="1195" x2="1195" y1="981.041" y2="994.041"/><line style="stroke:#181818;stroke-width:1.0;stroke-dasharray:2.0,2.0;" x1="1154" x2="1195" y1="994.041" y2="994.041"/><polygon fill="#181818" points="1164,990.041,1154,994.041,1164,998.041,1160,994.041" style="stroke:#181818;stroke-width:1.0;"/><text fill="#000000" font-family="sans-serif" font-size="13" font-weight="bold" lengthAdjust="spacing" textLength="14" x="1160" y="975.7783">21</text><text fill="#000000" font-family="sans-serif" font-size="13" lengthAdjust="spacing" textLength="238" x="1178" y="975.7783">PATCH /plans/deactivate/external/{name}</text><polygon fill="#181818" points="809,1021.332,799,1025.332,809,1029.332,805,1025.332" style="stroke:#181818;stroke-width:1.0;"/><line style="stroke:#181818;stroke-width:1.0;stroke-dasharray:2.0,2.0;" x1="803" x2="1152" y1="1025.332" y2="1025.332"/><text fill="#000000" font-family="sans-serif" font-size="13" font-weight="bold" lengthAdjust="spacing" textLength="14" x="815" y="1020.0693">22</text><text fill="#000000" font-family="sans-serif" font-size="13" lengthAdjust="spacing" textLength="136" x="833" y="1020.0693">Updated Plan (external)</text><polygon fill="#181818" points="547,1052.623,537,1056.623,547,1060.623,543,1056.623" style="stroke:#181818;stroke-width:1.0;"/><line style="stroke:#181818;stroke-width:1.0;stroke-dasharray:2.0,2.0;" x1="541" x2="797" y1="1056.623" y2="1056.623"/><text fill="#000000" font-family="sans-serif" font-size="13" font-weight="bold" lengthAdjust="spacing" textLength="14" x="553" y="1051.3604">23</text><text fill="#000000" font-family="sans-serif" font-size="13" lengthAdjust="spacing" textLength="78" x="571" y="1051.3604">Updated Plan</text><polygon fill="#181818" points="300,1097.9141,290,1101.9141,300,1105.9141,296,1101.9141" style="stroke:#181818;stroke-width:1.0;"/><line style="stroke:#181818;stroke-width:1.0;stroke-dasharray:2.0,2.0;" x1="294" x2="535" y1="1101.9141" y2="1101.9141"/><text fill="#000000" font-family="sans-serif" font-size="13" font-weight="bold" lengthAdjust="spacing" textLength="14" x="306" y="1096.6514">24</text><text fill="#000000" font-family="sans-serif" font-size="13" lengthAdjust="spacing" textLength="78" x="324" y="1096.6514">Updated Plan</text><polygon fill="#181818" points="77,1129.2051,67,1133.2051,77,1137.2051,73,1133.2051" style="stroke:#181818;stroke-width:1.0;"/><line style="stroke:#181818;stroke-width:1.0;stroke-dasharray:2.0,2.0;" x1="71" x2="288" y1="1133.2051" y2="1133.2051"/><text fill="#000000" font-family="sans-serif" font-size="13" font-weight="bold" lengthAdjust="spacing" textLength="14" x="83" y="1127.9424">25</text><text fill="#000000" font-family="sans-serif" font-size="13" lengthAdjust="spacing" textLength="78" x="101" y="1127.9424">Updated Plan</text><!--SRC=[bPJ1Zjem48RlVeeHbmMfY3k7Ia1GkuTMguMUApSPMAkEdTeE1LLzztfiR1OIibsaeDZ-Vi_uzqmUUEjqgUj6eaFGYj5OjVKFD8mvuIJ21d-rg4g4Gl2zuJLCeK1UEd7WNiBXINB5sA9qsi3e2pS_qGcrzxH1cXi1jx0eMSED4wLek78m8irAAsUqb1YHbJEo2zaDceCeCI3qteCyOwEjyA5EWQBX8BKiChSi1idrqQ5HN6O-JVIe0fEyWEd7SA0vF2ssgyymQmYPLTctsH_5Q_pB22AOZZQ7o_fuumovIDG7aDg_7j1OeTM4CO99H1dDOITKzRZxwi7rKLXdnwIPC5fCqBA8sF94s7VwErDSEg0Xx7IhAX3AnogvZ2Q2_qKvJ7EuG6E855bvoc30ub6SQP6Xj1W5Ihl142dJPF0SNfnhme78qtEsYKvKL_LflKrcutaoMTqLvpCzessqyhdkZAuX2S6UhCCw2Bi-PIgVuvuBD7_7YV_QPCUzEEwYAaOFwma3llqYIRcIQL1fjEh1nTloRNlPA5PGBjBjYz6_uT7tufxBXTctDIgtFfROE5znyHh3ZkTxdruErgt5M6JBukREtgx5v7E8T5Ci9lTaTYb59lnrwz0utV4uzazkdMjjJjlo0oLCTJEvTmlVciflNiKMprSQSkqfxe5yOyZtvTlV8jTx36axDN_PvDu7ggzz1bhejJqmJk9tk9bA-wOqhy3ujVHhY_9cvHy0]--></g></svg>