<?xml version="1.0" encoding="us-ascii" standalone="no"?><svg xmlns="http://www.w3.org/2000/svg" xmlns:xlink="http://www.w3.org/1999/xlink" contentStyleType="text/css" height="842px" preserveAspectRatio="none" style="width:662px;height:842px;background:#FFFFFF;" version="1.1" viewBox="0 0 662 842" width="662px" zoomAndPan="magnify"><defs/><g><text fill="#000000" font-family="sans-serif" font-size="14" font-weight="bold" lengthAdjust="spacing" textLength="375" x="144.75" y="30.1074">Software Design Document - To cancel a Subscription</text><rect fill="none" height="570.627" style="stroke:#000000;stroke-width:1.5;" width="645.5" x="10" y="171.5332"/><rect fill="none" height="382.541" style="stroke:#000000;stroke-width:1.5;" width="625.5" x="20" y="352.6191"/><line style="stroke:#181818;stroke-width:0.5;stroke-dasharray:5.0,5.0;" x1="63" x2="63" y1="123.2422" y2="759.1602"/><line style="stroke:#181818;stroke-width:0.5;stroke-dasharray:5.0,5.0;" x1="303" x2="303" y1="123.2422" y2="759.1602"/><line style="stroke:#181818;stroke-width:0.5;stroke-dasharray:5.0,5.0;" x1="468" x2="468" y1="123.2422" y2="759.1602"/><text fill="#000000" font-family="sans-serif" font-size="14" lengthAdjust="spacing" textLength="61" x="30" y="119.7285">Costumer</text><ellipse cx="63.5" cy="53.1211" fill="#E2E2F0" rx="8" ry="8" style="stroke:#181818;stroke-width:0.5;"/><path d="M63.5,61.1211 L63.5,88.1211 M50.5,69.1211 L76.5,69.1211 M63.5,88.1211 L50.5,103.1211 M63.5,88.1211 L76.5,103.1211 " fill="none" style="stroke:#181818;stroke-width:0.5;"/><text fill="#000000" font-family="sans-serif" font-size="14" lengthAdjust="spacing" textLength="61" x="30" y="773.2676">Costumer</text><ellipse cx="63.5" cy="785.2813" fill="#E2E2F0" rx="8" ry="8" style="stroke:#181818;stroke-width:0.5;"/><path d="M63.5,793.2813 L63.5,820.2813 M50.5,801.2813 L76.5,801.2813 M63.5,820.2813 L50.5,835.2813 M63.5,820.2813 L76.5,835.2813 " fill="none" style="stroke:#181818;stroke-width:0.5;"/><rect fill="#E2E2F0" height="32.6211" rx="2.5" ry="2.5" style="stroke:#181818;stroke-width:0.5;" width="107" x="250" y="89.6211"/><text fill="#000000" font-family="sans-serif" font-size="14" lengthAdjust="spacing" textLength="93" x="257" y="111.7285">Subscriptions1</text><rect fill="#E2E2F0" height="32.6211" rx="2.5" ry="2.5" style="stroke:#181818;stroke-width:0.5;" width="107" x="250" y="758.1602"/><text fill="#000000" font-family="sans-serif" font-size="14" lengthAdjust="spacing" textLength="93" x="257" y="780.2676">Subscriptions1</text><rect fill="#E2E2F0" height="32.6211" rx="2.5" ry="2.5" style="stroke:#181818;stroke-width:0.5;" width="107" x="415" y="89.6211"/><text fill="#000000" font-family="sans-serif" font-size="14" lengthAdjust="spacing" textLength="93" x="422" y="111.7285">Subscriptions2</text><rect fill="#E2E2F0" height="32.6211" rx="2.5" ry="2.5" style="stroke:#181818;stroke-width:0.5;" width="107" x="415" y="758.1602"/><text fill="#000000" font-family="sans-serif" font-size="14" lengthAdjust="spacing" textLength="93" x="422" y="780.2676">Subscriptions2</text><polygon fill="#181818" points="291.5,152.5332,301.5,156.5332,291.5,160.5332,295.5,156.5332" style="stroke:#181818;stroke-width:1.0;"/><line style="stroke:#181818;stroke-width:1.0;" x1="63.5" x2="297.5" y1="156.5332" y2="156.5332"/><text fill="#000000" font-family="sans-serif" font-size="13" font-weight="bold" lengthAdjust="spacing" textLength="7" x="70.5" y="151.2705">1</text><text fill="#000000" font-family="sans-serif" font-size="13" lengthAdjust="spacing" textLength="128" x="81.5" y="151.2705">PATCH /subscriptions</text><path d="M10,171.5332 L71,171.5332 L71,180.8242 L61,190.8242 L10,190.8242 L10,171.5332 " fill="#EEEEEE" style="stroke:#000000;stroke-width:1.5;"/><rect fill="none" height="570.627" style="stroke:#000000;stroke-width:1.5;" width="645.5" x="10" y="171.5332"/><text fill="#000000" font-family="sans-serif" font-size="13" font-weight="bold" lengthAdjust="spacing" textLength="16" x="25" y="186.5615">alt</text><text fill="#000000" font-family="sans-serif" font-size="11" font-weight="bold" lengthAdjust="spacing" textLength="134" x="86" y="185.4033">[subscription not found]</text><line style="stroke:#181818;stroke-width:1.0;" x1="303.5" x2="345.5" y1="214.1152" y2="214.1152"/><line style="stroke:#181818;stroke-width:1.0;" x1="345.5" x2="345.5" y1="214.1152" y2="227.1152"/><line style="stroke:#181818;stroke-width:1.0;" x1="304.5" x2="345.5" y1="227.1152" y2="227.1152"/><polygon fill="#181818" points="314.5,223.1152,304.5,227.1152,314.5,231.1152,310.5,227.1152" style="stroke:#181818;stroke-width:1.0;"/><text fill="#000000" font-family="sans-serif" font-size="13" font-weight="bold" lengthAdjust="spacing" textLength="7" x="310.5" y="208.8525">2</text><text fill="#000000" font-family="sans-serif" font-size="13" lengthAdjust="spacing" textLength="92" x="321.5" y="208.8525">findSubscription</text><polygon fill="#181818" points="456.5,254.4063,466.5,258.4063,456.5,262.4063,460.5,258.4063" style="stroke:#181818;stroke-width:1.0;"/><line style="stroke:#181818;stroke-width:1.0;" x1="303.5" x2="462.5" y1="258.4063" y2="258.4063"/><text fill="#000000" font-family="sans-serif" font-size="13" font-weight="bold" lengthAdjust="spacing" textLength="7" x="310.5" y="253.1436">3</text><text fill="#000000" font-family="sans-serif" font-size="13" lengthAdjust="spacing" textLength="106" x="321.5" y="253.1436">GET /plans/active/</text><polygon fill="#181818" points="314.5,285.6973,304.5,289.6973,314.5,293.6973,310.5,289.6973" style="stroke:#181818;stroke-width:1.0;"/><line style="stroke:#181818;stroke-width:1.0;" x1="308.5" x2="467.5" y1="289.6973" y2="289.6973"/><text fill="#000000" font-family="sans-serif" font-size="13" font-weight="bold" lengthAdjust="spacing" textLength="7" x="320.5" y="284.4346">4</text><text fill="#000000" font-family="sans-serif" font-size="13" lengthAdjust="spacing" textLength="103" x="331.5" y="284.4346">statusCode = 404</text><polygon fill="#181818" points="74.5,316.9883,64.5,320.9883,74.5,324.9883,70.5,320.9883" style="stroke:#181818;stroke-width:1.0;"/><line style="stroke:#181818;stroke-width:1.0;stroke-dasharray:2.0,2.0;" x1="68.5" x2="302.5" y1="320.9883" y2="320.9883"/><text fill="#000000" font-family="sans-serif" font-size="13" font-weight="bold" lengthAdjust="spacing" textLength="7" x="80.5" y="315.7256">5</text><text fill="#000000" font-family="sans-serif" font-size="13" lengthAdjust="spacing" textLength="205" x="91.5" y="315.7256">informs operation wasn't successful</text><line style="stroke:#000000;stroke-width:1.0;stroke-dasharray:2.0,2.0;" x1="10" x2="655.5" y1="329.9883" y2="329.9883"/><text fill="#000000" font-family="sans-serif" font-size="11" font-weight="bold" lengthAdjust="spacing" textLength="113" x="15" y="341.8584">[subscription found]</text><path d="M20,352.6191 L81,352.6191 L81,361.9102 L71,371.9102 L20,371.9102 L20,352.6191 " fill="#EEEEEE" style="stroke:#000000;stroke-width:1.5;"/><rect fill="none" height="382.541" style="stroke:#000000;stroke-width:1.5;" width="625.5" x="20" y="352.6191"/><text fill="#000000" font-family="sans-serif" font-size="13" font-weight="bold" lengthAdjust="spacing" textLength="16" x="35" y="367.6475">alt</text><text fill="#000000" font-family="sans-serif" font-size="11" font-weight="bold" lengthAdjust="spacing" textLength="181" x="96" y="366.4893">[subscription is saved internally]</text><line style="stroke:#181818;stroke-width:1.0;" x1="303.5" x2="345.5" y1="395.2012" y2="395.2012"/><line style="stroke:#181818;stroke-width:1.0;" x1="345.5" x2="345.5" y1="395.2012" y2="408.2012"/><line style="stroke:#181818;stroke-width:1.0;" x1="304.5" x2="345.5" y1="408.2012" y2="408.2012"/><polygon fill="#181818" points="314.5,404.2012,304.5,408.2012,314.5,412.2012,310.5,408.2012" style="stroke:#181818;stroke-width:1.0;"/><text fill="#000000" font-family="sans-serif" font-size="13" font-weight="bold" lengthAdjust="spacing" textLength="7" x="310.5" y="389.9385">6</text><text fill="#000000" font-family="sans-serif" font-size="13" lengthAdjust="spacing" textLength="92" x="321.5" y="389.9385">findSubscription</text><line style="stroke:#181818;stroke-width:1.0;" x1="303.5" x2="345.5" y1="439.4922" y2="439.4922"/><line style="stroke:#181818;stroke-width:1.0;" x1="345.5" x2="345.5" y1="439.4922" y2="452.4922"/><line style="stroke:#181818;stroke-width:1.0;" x1="304.5" x2="345.5" y1="452.4922" y2="452.4922"/><polygon fill="#181818" points="314.5,448.4922,304.5,452.4922,314.5,456.4922,310.5,452.4922" style="stroke:#181818;stroke-width:1.0;"/><text fill="#000000" font-family="sans-serif" font-size="13" font-weight="bold" lengthAdjust="spacing" textLength="7" x="310.5" y="434.2295">7</text><text fill="#000000" font-family="sans-serif" font-size="13" lengthAdjust="spacing" textLength="140" x="321.5" y="434.2295">subscription.deactivate()</text><line style="stroke:#181818;stroke-width:1.0;" x1="303.5" x2="345.5" y1="483.7832" y2="483.7832"/><line style="stroke:#181818;stroke-width:1.0;" x1="345.5" x2="345.5" y1="483.7832" y2="496.7832"/><line style="stroke:#181818;stroke-width:1.0;" x1="304.5" x2="345.5" y1="496.7832" y2="496.7832"/><polygon fill="#181818" points="314.5,492.7832,304.5,496.7832,314.5,500.7832,310.5,496.7832" style="stroke:#181818;stroke-width:1.0;"/><text fill="#000000" font-family="sans-serif" font-size="13" font-weight="bold" lengthAdjust="spacing" textLength="7" x="310.5" y="478.5205">8</text><text fill="#000000" font-family="sans-serif" font-size="13" lengthAdjust="spacing" textLength="26" x="321.5" y="478.5205">save</text><polygon fill="#181818" points="74.5,524.0742,64.5,528.0742,74.5,532.0742,70.5,528.0742" style="stroke:#181818;stroke-width:1.0;"/><line style="stroke:#181818;stroke-width:1.0;stroke-dasharray:2.0,2.0;" x1="68.5" x2="302.5" y1="528.0742" y2="528.0742"/><text fill="#000000" font-family="sans-serif" font-size="13" font-weight="bold" lengthAdjust="spacing" textLength="7" x="80.5" y="522.8115">9</text><text fill="#000000" font-family="sans-serif" font-size="13" lengthAdjust="spacing" textLength="152" x="91.5" y="522.8115">informs operation success</text><line style="stroke:#000000;stroke-width:1.0;stroke-dasharray:2.0,2.0;" x1="20" x2="645.5" y1="537.0742" y2="537.0742"/><text fill="#000000" font-family="sans-serif" font-size="11" font-weight="bold" lengthAdjust="spacing" textLength="202" x="25" y="548.9443">[subscription is not saved internally]</text><polygon fill="#181818" points="456.5,571.9961,466.5,575.9961,456.5,579.9961,460.5,575.9961" style="stroke:#181818;stroke-width:1.0;"/><line style="stroke:#181818;stroke-width:1.0;" x1="303.5" x2="462.5" y1="575.9961" y2="575.9961"/><text fill="#000000" font-family="sans-serif" font-size="13" font-weight="bold" lengthAdjust="spacing" textLength="14" x="310.5" y="570.7334">10</text><text fill="#000000" font-family="sans-serif" font-size="13" lengthAdjust="spacing" textLength="106" x="328.5" y="570.7334">GET /plans/active/</text><line style="stroke:#181818;stroke-width:1.0;" x1="468.5" x2="510.5" y1="607.2871" y2="607.2871"/><line style="stroke:#181818;stroke-width:1.0;" x1="510.5" x2="510.5" y1="607.2871" y2="620.2871"/><line style="stroke:#181818;stroke-width:1.0;" x1="469.5" x2="510.5" y1="620.2871" y2="620.2871"/><polygon fill="#181818" points="479.5,616.2871,469.5,620.2871,479.5,624.2871,475.5,620.2871" style="stroke:#181818;stroke-width:1.0;"/><text fill="#000000" font-family="sans-serif" font-size="13" font-weight="bold" lengthAdjust="spacing" textLength="14" x="475.5" y="602.0244">11</text><text fill="#000000" font-family="sans-serif" font-size="13" lengthAdjust="spacing" textLength="140" x="493.5" y="602.0244">subscription.deactivate()</text><line style="stroke:#181818;stroke-width:1.0;" x1="468.5" x2="510.5" y1="651.5781" y2="651.5781"/><line style="stroke:#181818;stroke-width:1.0;" x1="510.5" x2="510.5" y1="651.5781" y2="664.5781"/><line style="stroke:#181818;stroke-width:1.0;" x1="469.5" x2="510.5" y1="664.5781" y2="664.5781"/><polygon fill="#181818" points="479.5,660.5781,469.5,664.5781,479.5,668.5781,475.5,664.5781" style="stroke:#181818;stroke-width:1.0;"/><text fill="#000000" font-family="sans-serif" font-size="13" font-weight="bold" lengthAdjust="spacing" textLength="14" x="475.5" y="646.3154">12</text><text fill="#000000" font-family="sans-serif" font-size="13" lengthAdjust="spacing" textLength="26" x="493.5" y="646.3154">save</text><polygon fill="#181818" points="314.5,691.8691,304.5,695.8691,314.5,699.8691,310.5,695.8691" style="stroke:#181818;stroke-width:1.0;"/><line style="stroke:#181818;stroke-width:1.0;" x1="308.5" x2="467.5" y1="695.8691" y2="695.8691"/><text fill="#000000" font-family="sans-serif" font-size="13" font-weight="bold" lengthAdjust="spacing" textLength="14" x="320.5" y="690.6064">13</text><text fill="#000000" font-family="sans-serif" font-size="13" lengthAdjust="spacing" textLength="103" x="338.5" y="690.6064">statusCode = 200</text><polygon fill="#181818" points="74.5,723.1602,64.5,727.1602,74.5,731.1602,70.5,727.1602" style="stroke:#181818;stroke-width:1.0;"/><line style="stroke:#181818;stroke-width:1.0;stroke-dasharray:2.0,2.0;" x1="68.5" x2="302.5" y1="727.1602" y2="727.1602"/><text fill="#000000" font-family="sans-serif" font-size="13" font-weight="bold" lengthAdjust="spacing" textLength="14" x="80.5" y="721.8975">14</text><text fill="#000000" font-family="sans-serif" font-size="13" lengthAdjust="spacing" textLength="152" x="98.5" y="721.8975">informs operation success</text><!--SRC=[bP51JiCm44NtFiMecyAY94HTLGAfQX4iaTeBJ9q9ikJOaMVSghV72GrA85388fBZDp_lstECuhMl6qj2u9rgroxM1mfAYH5BiFELd30GR8dDcuEjrx4c9x20lGUDJfC5X5qyi0wc4PDI56hn0MORpvBWC0DaM6lLO12ZJODfV3QSuFiEsPtv5wRecK8fjTQmU6mNi8BNzNxp0XaFuUHW1OQVm7c1oaTNgdRiSxeohXpR3_OBICJpqnwongBZB1KpHyewfEWp4iA24ddZIu87MERBIqO2akWAZAjyg1byGm4xcHEocxU2MXDp5QrIP9d6nX-s4rKC0-EHoXGi51nQUnvfJzOQRG_ZxahgUg7GpUqNBFtbQfTBYQa6IRGzzk-o_plYufhn2EoTVxoW8i_LtrifQY-XU_NFEm00]--></g></svg>