<?xml version="1.0" encoding="us-ascii" standalone="no"?><svg xmlns="http://www.w3.org/2000/svg" xmlns:xlink="http://www.w3.org/1999/xlink" contentStyleType="text/css" height="756px" preserveAspectRatio="none" style="width:599px;height:756px;background:#FFFFFF;" version="1.1" viewBox="0 0 599 756" width="599px" zoomAndPan="magnify"><defs/><g><text fill="#000000" font-family="sans-serif" font-size="14" font-weight="bold" lengthAdjust="spacing" textLength="373" x="106" y="25.1074">Class Diagram / As User, I want to register an account</text><!--class UserRepositoryBD--><g id="elem_UserRepositoryBD"><rect codeLine="28" fill="#F1F1F1" height="97.8242" id="UserRepositoryBD" rx="2.5" ry="2.5" style="stroke:#181818;stroke-width:0.5;" width="347" x="245" y="330.6211"/><text fill="#000000" font-family="sans-serif" font-size="12" font-style="italic" lengthAdjust="spacing" textLength="61" x="388" y="348.5703">&#171;interface&#187;</text><text fill="#000000" font-family="sans-serif" font-size="14" font-style="italic" lengthAdjust="spacing" textLength="117" x="360" y="366.6895">UserRepositoryBD</text><line style="stroke:#181818;stroke-width:0.5;" x1="246" x2="591" y1="375.2031" y2="375.2031"/><line style="stroke:#181818;stroke-width:0.5;" x1="246" x2="591" y1="383.2031" y2="383.2031"/><ellipse cx="256" cy="398.0137" fill="#84BE84" rx="3" ry="3" style="stroke:#038048;stroke-width:1.0;"/><text fill="#000000" font-family="sans-serif" font-size="14" lengthAdjust="spacing" textLength="321" x="265" y="402.3105">findByUsername(String userName): optional&lt;User&gt;</text><ellipse cx="256" cy="416.6348" fill="#84BE84" rx="3" ry="3" style="stroke:#038048;stroke-width:1.0;"/><text fill="#000000" font-family="sans-serif" font-size="14" lengthAdjust="spacing" textLength="210" x="265" y="420.9316">save(S entity) : &lt;S extends User&gt;</text></g><!--class User--><g id="elem_User"><rect codeLine="9" fill="#F1F1F1" height="100.4844" id="User" rx="2.5" ry="2.5" style="stroke:#181818;stroke-width:0.5;" width="89" x="374" y="507.6211"/><text fill="#000000" font-family="sans-serif" font-size="14" lengthAdjust="spacing" textLength="29" x="404" y="527.7285">User</text><line style="stroke:#181818;stroke-width:0.5;" x1="375" x2="462" y1="536.2422" y2="536.2422"/><rect fill="none" height="6" style="stroke:#C82930;stroke-width:1.0;" width="6" x="382" y="548.0527"/><text fill="#000000" font-family="sans-serif" font-size="14" lengthAdjust="spacing" textLength="63" x="394" y="555.3496">username</text><rect fill="none" height="6" style="stroke:#C82930;stroke-width:1.0;" width="6" x="382" y="566.6738"/><text fill="#000000" font-family="sans-serif" font-size="14" lengthAdjust="spacing" textLength="60" x="394" y="573.9707">password</text><rect fill="none" height="6" style="stroke:#C82930;stroke-width:1.0;" width="6" x="382" y="585.2949"/><text fill="#000000" font-family="sans-serif" font-size="14" lengthAdjust="spacing" textLength="24" x="394" y="592.5918">role</text><line style="stroke:#181818;stroke-width:0.5;" x1="375" x2="462" y1="600.1055" y2="600.1055"/></g><!--class Role--><g id="elem_Role"><rect codeLine="15" fill="#F1F1F1" height="63.2422" id="Role" rx="2.5" ry="2.5" style="stroke:#181818;stroke-width:0.5;" width="50" x="393.5" y="686.6211"/><text fill="#000000" font-family="sans-serif" font-size="14" lengthAdjust="spacing" textLength="29" x="404" y="706.7285">Role</text><line style="stroke:#181818;stroke-width:0.5;" x1="394.5" x2="442.5" y1="715.2422" y2="715.2422"/><rect fill="none" height="6" style="stroke:#C82930;stroke-width:1.0;" width="6" x="401.5" y="727.0527"/><text fill="#000000" font-family="sans-serif" font-size="14" lengthAdjust="spacing" textLength="24" x="413.5" y="734.3496">role</text><line style="stroke:#181818;stroke-width:0.5;" x1="394.5" x2="442.5" y1="741.8633" y2="741.8633"/></g><!--class UserViewMapper--><g id="elem_UserViewMapper"><rect codeLine="18" fill="#F1F1F1" height="63.2422" id="UserViewMapper" rx="2.5" ry="2.5" style="stroke:#181818;stroke-width:0.5;" width="229" x="7" y="188.6211"/><text fill="#000000" font-family="sans-serif" font-size="14" lengthAdjust="spacing" textLength="106" x="68.5" y="208.7285">UserViewMapper</text><line style="stroke:#181818;stroke-width:0.5;" x1="8" x2="235" y1="217.2422" y2="217.2422"/><line style="stroke:#181818;stroke-width:0.5;" x1="8" x2="235" y1="225.2422" y2="225.2422"/><ellipse cx="18" cy="240.0527" fill="#84BE84" rx="3" ry="3" style="stroke:#038048;stroke-width:1.0;"/><text fill="#000000" font-family="sans-serif" font-size="14" lengthAdjust="spacing" textLength="203" x="27" y="244.3496">toUserView(User user):UserView</text></g><!--class UserController--><g id="elem_UserController"><rect codeLine="21" fill="#F1F1F1" height="63.2422" id="UserController" rx="2.5" ry="2.5" style="stroke:#181818;stroke-width:0.5;" width="291" x="17" y="46.6211"/><text fill="#000000" font-family="sans-serif" font-size="14" lengthAdjust="spacing" textLength="91" x="117" y="66.7285">UserController</text><line style="stroke:#181818;stroke-width:0.5;" x1="18" x2="307" y1="75.2422" y2="75.2422"/><line style="stroke:#181818;stroke-width:0.5;" x1="18" x2="307" y1="83.2422" y2="83.2422"/><ellipse cx="28" cy="98.0527" fill="#84BE84" rx="3" ry="3" style="stroke:#038048;stroke-width:1.0;"/><text fill="#000000" font-family="sans-serif" font-size="14" lengthAdjust="spacing" textLength="265" x="37" y="102.3496">register(final CreateUserRequest request)</text></g><!--class UserService--><g id="elem_UserService"><rect codeLine="24" fill="#F1F1F1" height="63.2422" id="UserService" rx="2.5" ry="2.5" style="stroke:#181818;stroke-width:0.5;" width="294" x="271.5" y="188.6211"/><text fill="#000000" font-family="sans-serif" font-size="14" lengthAdjust="spacing" textLength="76" x="380.5" y="208.7285">UserService</text><line style="stroke:#181818;stroke-width:0.5;" x1="272.5" x2="564.5" y1="217.2422" y2="217.2422"/><line style="stroke:#181818;stroke-width:0.5;" x1="272.5" x2="564.5" y1="225.2422" y2="225.2422"/><ellipse cx="282.5" cy="240.0527" fill="#84BE84" rx="3" ry="3" style="stroke:#038048;stroke-width:1.0;"/><text fill="#000000" font-family="sans-serif" font-size="14" lengthAdjust="spacing" textLength="268" x="291.5" y="244.3496">register(CreateUserRequest request):User</text></g><!--link UserController to UserService--><g id="link_UserController_UserService"><path codeLine="35" d="M218.36,109.6711 C261.03,133.0011 314.3056,162.1425 357.0456,185.5125 " fill="none" id="UserController-to-UserService" style="stroke:#181818;stroke-width:1.0;stroke-dasharray:7.0,7.0;"/><polygon fill="#181818" points="362.31,188.3911,356.3324,180.5637,357.923,185.9923,352.4944,187.5829,362.31,188.3911" style="stroke:#181818;stroke-width:1.0;"/><polygon fill="#000000" points="314.8869,151.6656,308.361,144.7472,305.5408,149.9043,314.8869,151.6656" style="stroke:#000000;stroke-width:1.0;"/><text fill="#000000" font-family="sans-serif" font-size="13" lengthAdjust="spacing" textLength="28" x="319.5" y="154.6494">uses</text></g><!--link UserService to UserRepositoryBD--><g id="link_UserService_UserRepositoryBD"><path codeLine="36" d="M418.5,251.8611 C418.5,274.2411 418.5,298.9911 418.5,324.5911 " fill="none" id="UserService-to-UserRepositoryBD" style="stroke:#181818;stroke-width:1.0;stroke-dasharray:7.0,7.0;"/><polygon fill="#181818" points="418.5,330.5911,422.5,321.5911,418.5,325.5911,414.5,321.5911,418.5,330.5911" style="stroke:#181818;stroke-width:1.0;"/><polygon fill="#000000" points="423.5,296.2666,426.4389,287.2215,420.5611,287.2215,423.5,296.2666" style="stroke:#000000;stroke-width:1.0;"/><text fill="#000000" font-family="sans-serif" font-size="13" lengthAdjust="spacing" textLength="28" x="432.5" y="296.6494">uses</text></g><!--link UserRepositoryBD to User--><g id="link_UserRepositoryBD_User"><path codeLine="37" d="M418.5,428.7111 C418.5,453.1411 418.5,476.7711 418.5,501.3611 " fill="none" id="UserRepositoryBD-to-User" style="stroke:#181818;stroke-width:1.0;stroke-dasharray:7.0,7.0;"/><polygon fill="#181818" points="418.5,507.3611,422.5,498.3611,418.5,502.3611,414.5,498.3611,418.5,507.3611" style="stroke:#181818;stroke-width:1.0;"/><polygon fill="#000000" points="423.5,463.2666,420.5611,472.3117,426.4389,472.3117,423.5,463.2666" style="stroke:#000000;stroke-width:1.0;"/><text fill="#000000" font-family="sans-serif" font-size="13" lengthAdjust="spacing" textLength="36" x="432.5" y="473.6494">record</text></g><!--link UserController to UserViewMapper--><g id="link_UserController_UserViewMapper"><path codeLine="38" d="M153.5,109.8411 C146.67,133.1911 138.9958,159.3828 132.1658,182.7128 " fill="none" id="UserController-to-UserViewMapper" style="stroke:#181818;stroke-width:1.0;stroke-dasharray:7.0,7.0;"/><polygon fill="#181818" points="130.48,188.4711,136.8475,180.9575,131.8848,183.6725,129.1698,178.7098,130.48,188.4711" style="stroke:#181818;stroke-width:1.0;"/><polygon fill="#000000" points="148.0951,154.0652,153.4571,146.2102,147.816,144.5587,148.0951,154.0652" style="stroke:#000000;stroke-width:1.0;"/><text fill="#000000" font-family="sans-serif" font-size="13" lengthAdjust="spacing" textLength="28" x="158.5" y="154.6494">uses</text></g><!--link User to Role--><g id="link_User_Role"><path codeLine="39" d="M418.5,607.9011 C418.5,633.5311 418.5,658.0611 418.5,680.3211 " fill="none" id="User-to-Role" style="stroke:#181818;stroke-width:1.0;stroke-dasharray:7.0,7.0;"/><polygon fill="#181818" points="418.5,686.3211,422.5,677.3211,418.5,681.3211,414.5,677.3211,418.5,686.3211" style="stroke:#181818;stroke-width:1.0;"/><text fill="#000000" font-family="sans-serif" font-size="13" lengthAdjust="spacing" textLength="21" x="419.5" y="652.6494">has</text></g><!--SRC=[TLBDRi8m3BxdANmRrGQzLrMb3IuxR0SGkqUfWKXjqYKk3A6z-voKGYEqN1ex_dviz-b0rFaYpxj66khRPg5icwj6UZ-ljTmxsOg3hX6KTgf14LzWwz6jiRDUatNdjnMKfJQ4RYSLLfKGfAb1MCRQrS02ERmEm1TuXnEB0LbmkDUUWI0DIALiRqZmkQjS1F2PztmriiKXwlZrP5qzHCwohzyHjEO8BidBdUrBu-b3Tjt8-qnsJC_21O9ELeov1BkqXfYmkM57xxETDhA1fKD9E4pckqTFt5pyPh5yIhL1TzGAcUTEyZyysWaDtaRyC7znjSHEwhVpzZgisOQSDllOr2V7MG6s8stPRHbggW7avP5B0GrlxPn10IK7FuIc7jnMGLka8u35efgsKWGH3vMOv6urKwT9OV8BZTMipwshiDv7pNI92LaaYDilu23z7m00]--></g></svg>