<?xml version="1.0" encoding="us-ascii" standalone="no"?><svg xmlns="http://www.w3.org/2000/svg" xmlns:xlink="http://www.w3.org/1999/xlink" contentStyleType="text/css" height="708px" preserveAspectRatio="none" style="width:871px;height:708px;background:#FFFFFF;" version="1.1" viewBox="0 0 871 708" width="871px" zoomAndPan="magnify"><defs/><g><text fill="#000000" font-family="sans-serif" font-size="14" font-weight="bold" lengthAdjust="spacing" textLength="465" x="202.25" y="30.1074">Software Design Document - As User, I want to register an account</text><rect fill="#FFFFFF" height="106.873" style="stroke:#181818;stroke-width:1.0;" width="10" x="227.5" y="273.6973"/><rect fill="#FFFFFF" height="37.291" style="stroke:#181818;stroke-width:1.0;" width="10" x="349.5" y="411.8613"/><rect fill="#FFFFFF" height="37.291" style="stroke:#181818;stroke-width:1.0;" width="10" x="475" y="487.4434"/><rect fill="#FFFFFF" height="53.291" style="stroke:#181818;stroke-width:1.0;" width="10" x="606" y="563.0254"/><rect fill="#FFFFFF" height="97.5186" style="stroke:#181818;stroke-width:1.0;" width="10" x="800" y="133.2422"/><rect fill="#FFFFFF" height="267.0371" style="stroke:#181818;stroke-width:1.0;" width="10" x="800" y="349.2793"/><line style="stroke:#181818;stroke-width:0.5;stroke-dasharray:5.0,5.0;" x1="22" x2="22" y1="123.2422" y2="625.3164"/><line style="stroke:#181818;stroke-width:0.5;stroke-dasharray:5.0,5.0;" x1="232" x2="232" y1="123.2422" y2="625.3164"/><line style="stroke:#181818;stroke-width:0.5;stroke-dasharray:5.0,5.0;" x1="354" x2="354" y1="123.2422" y2="625.3164"/><line style="stroke:#181818;stroke-width:0.5;stroke-dasharray:5.0,5.0;" x1="480" x2="480" y1="123.2422" y2="625.3164"/><line style="stroke:#181818;stroke-width:0.5;stroke-dasharray:5.0,5.0;" x1="611" x2="611" y1="123.2422" y2="625.3164"/><line style="stroke:#181818;stroke-width:0.5;stroke-dasharray:5.0,5.0;" x1="804.5" x2="804.5" y1="123.2422" y2="625.3164"/><text fill="#000000" font-family="sans-serif" font-size="14" lengthAdjust="spacing" textLength="29" x="5" y="119.7285">User</text><ellipse cx="22.5" cy="53.1211" fill="#E2E2F0" rx="8" ry="8" style="stroke:#181818;stroke-width:0.5;"/><path d="M22.5,61.1211 L22.5,88.1211 M9.5,69.1211 L35.5,69.1211 M22.5,88.1211 L9.5,103.1211 M22.5,88.1211 L35.5,103.1211 " fill="none" style="stroke:#181818;stroke-width:0.5;"/><text fill="#000000" font-family="sans-serif" font-size="14" lengthAdjust="spacing" textLength="29" x="5" y="639.4238">User</text><ellipse cx="22.5" cy="651.4375" fill="#E2E2F0" rx="8" ry="8" style="stroke:#181818;stroke-width:0.5;"/><path d="M22.5,659.4375 L22.5,686.4375 M9.5,667.4375 L35.5,667.4375 M22.5,686.4375 L9.5,701.4375 M22.5,686.4375 L35.5,701.4375 " fill="none" style="stroke:#181818;stroke-width:0.5;"/><rect fill="#E2E2F0" height="32.6211" rx="2.5" ry="2.5" style="stroke:#181818;stroke-width:0.5;" width="111" x="177" y="89.6211"/><text fill="#000000" font-family="sans-serif" font-size="14" lengthAdjust="spacing" textLength="97" x="184" y="111.7285">userC[n]:UserC</text><rect fill="#E2E2F0" height="32.6211" rx="2.5" ry="2.5" style="stroke:#181818;stroke-width:0.5;" width="111" x="177" y="624.3164"/><text fill="#000000" font-family="sans-serif" font-size="14" lengthAdjust="spacing" textLength="97" x="184" y="646.4238">userC[n]:UserC</text><rect fill="#E2E2F0" height="32.6211" rx="2.5" ry="2.5" style="stroke:#181818;stroke-width:0.5;" width="113" x="298" y="89.6211"/><text fill="#000000" font-family="sans-serif" font-size="14" lengthAdjust="spacing" textLength="99" x="305" y="111.7285">userQ[n]:UserQ</text><rect fill="#E2E2F0" height="32.6211" rx="2.5" ry="2.5" style="stroke:#181818;stroke-width:0.5;" width="113" x="298" y="624.3164"/><text fill="#000000" font-family="sans-serif" font-size="14" lengthAdjust="spacing" textLength="99" x="305" y="646.4238">userQ[n]:UserQ</text><rect fill="#E2E2F0" height="32.6211" rx="2.5" ry="2.5" style="stroke:#181818;stroke-width:0.5;" width="118" x="421" y="89.6211"/><text fill="#000000" font-family="sans-serif" font-size="14" lengthAdjust="spacing" textLength="104" x="428" y="111.7285">SubsC[n]:SubsC</text><rect fill="#E2E2F0" height="32.6211" rx="2.5" ry="2.5" style="stroke:#181818;stroke-width:0.5;" width="118" x="421" y="624.3164"/><text fill="#000000" font-family="sans-serif" font-size="14" lengthAdjust="spacing" textLength="104" x="428" y="646.4238">SubsC[n]:SubsC</text><rect fill="#E2E2F0" height="32.6211" rx="2.5" ry="2.5" style="stroke:#181818;stroke-width:0.5;" width="124" x="549" y="89.6211"/><text fill="#000000" font-family="sans-serif" font-size="14" lengthAdjust="spacing" textLength="110" x="556" y="111.7285">SubsQ[n]:SubsQ:</text><rect fill="#E2E2F0" height="32.6211" rx="2.5" ry="2.5" style="stroke:#181818;stroke-width:0.5;" width="124" x="549" y="624.3164"/><text fill="#000000" font-family="sans-serif" font-size="14" lengthAdjust="spacing" textLength="110" x="556" y="646.4238">SubsQ[n]:SubsQ:</text><rect fill="#E2E2F0" height="32.6211" rx="2.5" ry="2.5" style="stroke:#181818;stroke-width:0.5;" width="121" x="744.5" y="89.6211"/><text fill="#000000" font-family="sans-serif" font-size="14" lengthAdjust="spacing" textLength="107" x="751.5" y="111.7285">Message Broker:</text><rect fill="#E2E2F0" height="32.6211" rx="2.5" ry="2.5" style="stroke:#181818;stroke-width:0.5;" width="121" x="744.5" y="624.3164"/><text fill="#000000" font-family="sans-serif" font-size="14" lengthAdjust="spacing" textLength="107" x="751.5" y="646.4238">Message Broker:</text><rect fill="#FFFFFF" height="106.873" style="stroke:#181818;stroke-width:1.0;" width="10" x="227.5" y="273.6973"/><rect fill="#FFFFFF" height="37.291" style="stroke:#181818;stroke-width:1.0;" width="10" x="349.5" y="411.8613"/><rect fill="#FFFFFF" height="37.291" style="stroke:#181818;stroke-width:1.0;" width="10" x="475" y="487.4434"/><rect fill="#FFFFFF" height="53.291" style="stroke:#181818;stroke-width:1.0;" width="10" x="606" y="563.0254"/><rect fill="#FFFFFF" height="97.5186" style="stroke:#181818;stroke-width:1.0;" width="10" x="800" y="133.2422"/><rect fill="#FFFFFF" height="267.0371" style="stroke:#181818;stroke-width:1.0;" width="10" x="800" y="349.2793"/><polygon fill="#181818" points="788,152.5332,798,156.5332,788,160.5332,792,156.5332" style="stroke:#181818;stroke-width:1.0;"/><line style="stroke:#181818;stroke-width:1.0;" x1="354.5" x2="794" y1="156.5332" y2="156.5332"/><text fill="#000000" font-family="sans-serif" font-size="13" font-weight="bold" lengthAdjust="spacing" textLength="7" x="361.5" y="151.2705">1</text><text fill="#000000" font-family="sans-serif" font-size="13" lengthAdjust="spacing" textLength="139" x="372.5" y="151.2705">subscribe(register_user)</text><polygon fill="#181818" points="788,183.8242,798,187.8242,788,191.8242,792,187.8242" style="stroke:#181818;stroke-width:1.0;"/><line style="stroke:#181818;stroke-width:1.0;" x1="480" x2="794" y1="187.8242" y2="187.8242"/><text fill="#000000" font-family="sans-serif" font-size="13" font-weight="bold" lengthAdjust="spacing" textLength="7" x="487" y="182.5615">2</text><text fill="#000000" font-family="sans-serif" font-size="13" lengthAdjust="spacing" textLength="139" x="498" y="182.5615">subscribe(register_user)</text><polygon fill="#181818" points="793,226.7607,803,230.7607,793,234.7607,797,230.7607" style="stroke:#181818;stroke-width:1.0;"/><line style="stroke:#181818;stroke-width:1.0;" x1="611" x2="799" y1="230.7607" y2="230.7607"/><text fill="#000000" font-family="sans-serif" font-size="13" font-weight="bold" lengthAdjust="spacing" textLength="7" x="618" y="225.498">3</text><text fill="#000000" font-family="sans-serif" font-size="13" lengthAdjust="spacing" textLength="139" x="629" y="225.498">subscribe(register_user)</text><path d="M401,200.8242 L401,244.8242 L606,244.8242 L606,210.8242 L596,200.8242 L401,200.8242 " fill="#FEFFDD" style="stroke:#181818;stroke-width:0.5;"/><path d="M596,200.8242 L596,210.8242 L606,210.8242 L596,200.8242 " fill="#FEFFDD" style="stroke:#181818;stroke-width:0.5;"/><text fill="#000000" font-family="sans-serif" font-size="13" lengthAdjust="spacing" textLength="184" x="407" y="219.8525">[n] represents the the instances</text><text fill="#000000" font-family="sans-serif" font-size="13" lengthAdjust="spacing" textLength="121" x="407" y="237.1436">it can be n instances</text><polygon fill="#181818" points="215.5,269.6973,225.5,273.6973,215.5,277.6973,219.5,273.6973" style="stroke:#181818;stroke-width:1.0;"/><line style="stroke:#181818;stroke-width:1.0;" x1="22.5" x2="221.5" y1="273.6973" y2="273.6973"/><text fill="#000000" font-family="sans-serif" font-size="13" font-weight="bold" lengthAdjust="spacing" textLength="7" x="29.5" y="268.4346">4</text><text fill="#000000" font-family="sans-serif" font-size="13" lengthAdjust="spacing" textLength="86" x="40.5" y="268.4346">POST /register</text><line style="stroke:#181818;stroke-width:1.0;" x1="237.5" x2="279.5" y1="304.9883" y2="304.9883"/><line style="stroke:#181818;stroke-width:1.0;" x1="279.5" x2="279.5" y1="304.9883" y2="317.9883"/><line style="stroke:#181818;stroke-width:1.0;" x1="238.5" x2="279.5" y1="317.9883" y2="317.9883"/><polygon fill="#181818" points="248.5,313.9883,238.5,317.9883,248.5,321.9883,244.5,317.9883" style="stroke:#181818;stroke-width:1.0;"/><text fill="#000000" font-family="sans-serif" font-size="13" font-weight="bold" lengthAdjust="spacing" textLength="7" x="244.5" y="299.7256">5</text><text fill="#000000" font-family="sans-serif" font-size="13" lengthAdjust="spacing" textLength="87" x="255.5" y="299.7256">findUser(name)</text><polygon fill="#181818" points="788,345.2793,798,349.2793,788,353.2793,792,349.2793" style="stroke:#181818;stroke-width:1.0;"/><line style="stroke:#181818;stroke-width:1.0;" x1="237.5" x2="794" y1="349.2793" y2="349.2793"/><text fill="#000000" font-family="sans-serif" font-size="13" font-weight="bold" lengthAdjust="spacing" textLength="7" x="244.5" y="344.0166">6</text><text fill="#000000" font-family="sans-serif" font-size="13" lengthAdjust="spacing" textLength="157" x="255.5" y="344.0166">publish(register_user, user)</text><polygon fill="#181818" points="33.5,376.5703,23.5,380.5703,33.5,384.5703,29.5,380.5703" style="stroke:#181818;stroke-width:1.0;"/><line style="stroke:#181818;stroke-width:1.0;stroke-dasharray:2.0,2.0;" x1="27.5" x2="231.5" y1="380.5703" y2="380.5703"/><text fill="#000000" font-family="sans-serif" font-size="13" font-weight="bold" lengthAdjust="spacing" textLength="7" x="39.5" y="375.3076">7</text><text fill="#000000" font-family="sans-serif" font-size="13" lengthAdjust="spacing" textLength="170" x="50.5" y="375.3076">informs operation (in)success</text><polygon fill="#181818" points="370.5,407.8613,360.5,411.8613,370.5,415.8613,366.5,411.8613" style="stroke:#181818;stroke-width:1.0;"/><line style="stroke:#181818;stroke-width:1.0;" x1="364.5" x2="799" y1="411.8613" y2="411.8613"/><text fill="#000000" font-family="sans-serif" font-size="13" font-weight="bold" lengthAdjust="spacing" textLength="7" x="376.5" y="406.5986">8</text><text fill="#000000" font-family="sans-serif" font-size="13" lengthAdjust="spacing" textLength="147" x="387.5" y="406.5986">notify(register_user, user)</text><line style="stroke:#181818;stroke-width:1.0;" x1="359.5" x2="401.5" y1="448.1523" y2="448.1523"/><line style="stroke:#181818;stroke-width:1.0;" x1="401.5" x2="401.5" y1="448.1523" y2="461.1523"/><line style="stroke:#181818;stroke-width:1.0;" x1="354.5" x2="401.5" y1="461.1523" y2="461.1523"/><polygon fill="#181818" points="364.5,457.1523,354.5,461.1523,364.5,465.1523,360.5,461.1523" style="stroke:#181818;stroke-width:1.0;"/><text fill="#000000" font-family="sans-serif" font-size="13" font-weight="bold" lengthAdjust="spacing" textLength="7" x="366.5" y="442.8896">9</text><text fill="#000000" font-family="sans-serif" font-size="13" lengthAdjust="spacing" textLength="58" x="377.5" y="442.8896">save(plan)</text><polygon fill="#181818" points="496,483.4434,486,487.4434,496,491.4434,492,487.4434" style="stroke:#181818;stroke-width:1.0;"/><line style="stroke:#181818;stroke-width:1.0;" x1="490" x2="799" y1="487.4434" y2="487.4434"/><text fill="#000000" font-family="sans-serif" font-size="13" font-weight="bold" lengthAdjust="spacing" textLength="14" x="502" y="482.1807">10</text><text fill="#000000" font-family="sans-serif" font-size="13" lengthAdjust="spacing" textLength="147" x="520" y="482.1807">notify(register_user, user)</text><line style="stroke:#181818;stroke-width:1.0;" x1="485" x2="527" y1="523.7344" y2="523.7344"/><line style="stroke:#181818;stroke-width:1.0;" x1="527" x2="527" y1="523.7344" y2="536.7344"/><line style="stroke:#181818;stroke-width:1.0;" x1="480" x2="527" y1="536.7344" y2="536.7344"/><polygon fill="#181818" points="490,532.7344,480,536.7344,490,540.7344,486,536.7344" style="stroke:#181818;stroke-width:1.0;"/><text fill="#000000" font-family="sans-serif" font-size="13" font-weight="bold" lengthAdjust="spacing" textLength="14" x="492" y="518.4717">11</text><text fill="#000000" font-family="sans-serif" font-size="13" lengthAdjust="spacing" textLength="58" x="510" y="518.4717">save(plan)</text><polygon fill="#181818" points="627,559.0254,617,563.0254,627,567.0254,623,563.0254" style="stroke:#181818;stroke-width:1.0;"/><line style="stroke:#181818;stroke-width:1.0;" x1="621" x2="799" y1="563.0254" y2="563.0254"/><text fill="#000000" font-family="sans-serif" font-size="13" font-weight="bold" lengthAdjust="spacing" textLength="14" x="633" y="557.7627">12</text><text fill="#000000" font-family="sans-serif" font-size="13" lengthAdjust="spacing" textLength="147" x="651" y="557.7627">notify(register_user, user)</text><line style="stroke:#181818;stroke-width:1.0;" x1="616" x2="658" y1="594.3164" y2="594.3164"/><line style="stroke:#181818;stroke-width:1.0;" x1="658" x2="658" y1="594.3164" y2="607.3164"/><line style="stroke:#181818;stroke-width:1.0;" x1="617" x2="658" y1="607.3164" y2="607.3164"/><polygon fill="#181818" points="627,603.3164,617,607.3164,627,611.3164,623,607.3164" style="stroke:#181818;stroke-width:1.0;"/><text fill="#000000" font-family="sans-serif" font-size="13" font-weight="bold" lengthAdjust="spacing" textLength="14" x="623" y="589.0537">13</text><text fill="#000000" font-family="sans-serif" font-size="13" lengthAdjust="spacing" textLength="58" x="641" y="589.0537">save(plan)</text><!--SRC=[ZP5DJyCm38Rl_XNMBco2YViEIAExS41GbPuGGcdcRX6jKyKfY7-FqwuIOvhOeLK-dZn-4r-PFdhhswwXIEWPqfpxjg8045ri20jVnoyJ23SaRiUuyRPlYICkSIrO2eKRVC0leolHOw2TaqW13QEnrlSS0OoDFk0iiJCqWciBdGdHMTUbOxDUDx9NVbib8XkGCZj5yWd9HoG_Heg-ai4o30Qao4wHV4BorSZyqJoIYDaHtWV_GM5asWg6MxXFey-aipB7vPqES8MYAXjSHVFfxkyfx0AAx0Bc0i-MVbS6OA-ZXke8UXDzy2wGQ3y4uvw6px54mvO4N4IhZQW8-TSgyHQJ161jK_aom-jhJV3yLBpWxLGTokomkSBQyJOz_9nDIul3ZgOUZdLzrJZP7yU-mJ5yGfLDXPRAEgvzQ0LzHy54vnddZXVIMyqb0AfC9VDHh1bT_Nt6cn_8GIlca-PTOtWnEOhiVyVOeFG_uxWWnzX0_HyBVW00]--></g></svg>