<?xml version="1.0" encoding="us-ascii" standalone="no"?><svg xmlns="http://www.w3.org/2000/svg" xmlns:xlink="http://www.w3.org/1999/xlink" contentStyleType="text/css" height="764px" preserveAspectRatio="none" style="width:1412px;height:764px;background:#FFFFFF;" version="1.1" viewBox="0 0 1412 764" width="1412px" zoomAndPan="magnify"><defs/><g><text fill="#000000" font-family="sans-serif" font-size="14" font-weight="bold" lengthAdjust="spacing" textLength="407" x="495.5" y="25.1074">Class Diagram / As Marketing director, I want to edit a Plan</text><!--class PlansRepositoryBD--><g id="elem_PlansRepositoryBD"><rect codeLine="33" fill="#F1F1F1" height="97.8242" id="PlansRepositoryBD" rx="2.5" ry="2.5" style="stroke:#181818;stroke-width:0.5;" width="343" x="581.5" y="330.6211"/><text fill="#000000" font-family="sans-serif" font-size="12" font-style="italic" lengthAdjust="spacing" textLength="61" x="722.5" y="348.5703">&#171;interface&#187;</text><text fill="#000000" font-family="sans-serif" font-size="14" font-style="italic" lengthAdjust="spacing" textLength="122" x="692" y="366.6895">PlansRepositoryBD</text><line style="stroke:#181818;stroke-width:0.5;" x1="582.5" x2="923.5" y1="375.2031" y2="375.2031"/><line style="stroke:#181818;stroke-width:0.5;" x1="582.5" x2="923.5" y1="383.2031" y2="383.2031"/><ellipse cx="592.5" cy="398.0137" fill="#84BE84" rx="3" ry="3" style="stroke:#038048;stroke-width:1.0;"/><text fill="#000000" font-family="sans-serif" font-size="14" lengthAdjust="spacing" textLength="317" x="601.5" y="402.3105">findByName_Name(String name): Optional&lt;Plans&gt;</text><ellipse cx="592.5" cy="416.6348" fill="#84BE84" rx="3" ry="3" style="stroke:#038048;stroke-width:1.0;"/><text fill="#000000" font-family="sans-serif" font-size="14" lengthAdjust="spacing" textLength="216" x="601.5" y="420.9316">save(S entity) : &lt;S extends Plans&gt;</text></g><!--class Plans--><g id="elem_Plans"><rect codeLine="9" fill="#F1F1F1" height="249.4531" id="Plans" rx="2.5" ry="2.5" style="stroke:#181818;stroke-width:0.5;" width="1304" x="101" y="507.6211"/><text fill="#000000" font-family="sans-serif" font-size="14" lengthAdjust="spacing" textLength="35" x="735.5" y="527.7285">Plans</text><line style="stroke:#181818;stroke-width:0.5;" x1="102" x2="1404" y1="536.2422" y2="536.2422"/><rect fill="none" height="6" style="stroke:#C82930;stroke-width:1.0;" width="6" x="109" y="548.0527"/><text fill="#000000" font-family="sans-serif" font-size="14" lengthAdjust="spacing" textLength="35" x="121" y="555.3496">name</text><rect fill="none" height="6" style="stroke:#C82930;stroke-width:1.0;" width="6" x="109" y="566.6738"/><text fill="#000000" font-family="sans-serif" font-size="14" lengthAdjust="spacing" textLength="69" x="121" y="573.9707">description</text><rect fill="none" height="6" style="stroke:#C82930;stroke-width:1.0;" width="6" x="109" y="585.2949"/><text fill="#000000" font-family="sans-serif" font-size="14" lengthAdjust="spacing" textLength="112" x="121" y="592.5918">numberOfMinutes</text><rect fill="none" height="6" style="stroke:#C82930;stroke-width:1.0;" width="6" x="109" y="603.916"/><text fill="#000000" font-family="sans-serif" font-size="14" lengthAdjust="spacing" textLength="158" x="121" y="611.2129">maximumNumberOfUsers</text><rect fill="none" height="6" style="stroke:#C82930;stroke-width:1.0;" width="6" x="109" y="622.5371"/><text fill="#000000" font-family="sans-serif" font-size="14" lengthAdjust="spacing" textLength="98" x="121" y="629.834">musicCollection</text><rect fill="none" height="6" style="stroke:#C82930;stroke-width:1.0;" width="6" x="109" y="641.1582"/><text fill="#000000" font-family="sans-serif" font-size="14" lengthAdjust="spacing" textLength="107" x="121" y="648.4551">musicSuggestion</text><rect fill="none" height="6" style="stroke:#C82930;stroke-width:1.0;" width="6" x="109" y="659.7793"/><text fill="#000000" font-family="sans-serif" font-size="14" lengthAdjust="spacing" textLength="68" x="121" y="667.0762">annualFee</text><rect fill="none" height="6" style="stroke:#C82930;stroke-width:1.0;" width="6" x="109" y="678.4004"/><text fill="#000000" font-family="sans-serif" font-size="14" lengthAdjust="spacing" textLength="74" x="121" y="685.6973">monthlyFee</text><rect fill="none" height="6" style="stroke:#C82930;stroke-width:1.0;" width="6" x="109" y="697.0215"/><text fill="#000000" font-family="sans-serif" font-size="14" lengthAdjust="spacing" textLength="37" x="121" y="704.3184">active</text><rect fill="none" height="6" style="stroke:#C82930;stroke-width:1.0;" width="6" x="109" y="715.6426"/><text fill="#000000" font-family="sans-serif" font-size="14" lengthAdjust="spacing" textLength="60" x="121" y="722.9395">promoted</text><line style="stroke:#181818;stroke-width:0.5;" x1="102" x2="1404" y1="730.4531" y2="730.4531"/><ellipse cx="112" cy="745.2637" fill="#84BE84" rx="3" ry="3" style="stroke:#038048;stroke-width:1.0;"/><text fill="#000000" font-family="sans-serif" font-size="14" lengthAdjust="spacing" textLength="1278" x="121" y="749.5605">updateData(long desiredVersion, String description, Integer maximumNumberOfUsers,String numberOfMinutes , Integer musicCollections,String musicSuggestions, Boolean active, Boolean promoted) void</text></g><!--class PlansViewMapper--><g id="elem_PlansViewMapper"><rect codeLine="22" fill="#F1F1F1" height="63.2422" id="PlansViewMapper" rx="2.5" ry="2.5" style="stroke:#181818;stroke-width:0.5;" width="253" x="145.5" y="188.6211"/><text fill="#000000" font-family="sans-serif" font-size="14" lengthAdjust="spacing" textLength="112" x="216" y="208.7285">PlansViewMapper</text><line style="stroke:#181818;stroke-width:0.5;" x1="146.5" x2="397.5" y1="217.2422" y2="217.2422"/><line style="stroke:#181818;stroke-width:0.5;" x1="146.5" x2="397.5" y1="225.2422" y2="225.2422"/><ellipse cx="156.5" cy="240.0527" fill="#84BE84" rx="3" ry="3" style="stroke:#038048;stroke-width:1.0;"/><text fill="#000000" font-family="sans-serif" font-size="14" lengthAdjust="spacing" textLength="227" x="165.5" y="244.3496">toPlansView(Plans plans):PlansView</text></g><!--class PlansController--><g id="elem_PlansController"><rect codeLine="25" fill="#F1F1F1" height="63.2422" id="PlansController" rx="2.5" ry="2.5" style="stroke:#181818;stroke-width:0.5;" width="612" x="7" y="46.6211"/><text fill="#000000" font-family="sans-serif" font-size="14" lengthAdjust="spacing" textLength="97" x="264.5" y="66.7285">PlansController</text><line style="stroke:#181818;stroke-width:0.5;" x1="8" x2="618" y1="75.2422" y2="75.2422"/><line style="stroke:#181818;stroke-width:0.5;" x1="8" x2="618" y1="83.2422" y2="83.2422"/><ellipse cx="18" cy="98.0527" fill="#84BE84" rx="3" ry="3" style="stroke:#038048;stroke-width:1.0;"/><text fill="#000000" font-family="sans-serif" font-size="14" lengthAdjust="spacing" textLength="586" x="27" y="102.3496">partialUpdate(final String name, final EditPlanRequest resource):ResponseEntity&lt;PlansView&gt;</text></g><!--class PlansService--><g id="elem_PlansService"><rect codeLine="28" fill="#F1F1F1" height="63.2422" id="PlansService" rx="2.5" ry="2.5" style="stroke:#181818;stroke-width:0.5;" width="639" x="433.5" y="188.6211"/><text fill="#000000" font-family="sans-serif" font-size="14" lengthAdjust="spacing" textLength="82" x="712" y="208.7285">PlansService</text><line style="stroke:#181818;stroke-width:0.5;" x1="434.5" x2="1071.5" y1="217.2422" y2="217.2422"/><line style="stroke:#181818;stroke-width:0.5;" x1="434.5" x2="1071.5" y1="225.2422" y2="225.2422"/><ellipse cx="444.5" cy="240.0527" fill="#84BE84" rx="3" ry="3" style="stroke:#038048;stroke-width:1.0;"/><text fill="#000000" font-family="sans-serif" font-size="14" lengthAdjust="spacing" textLength="613" x="453.5" y="244.3496">partialUpdate(final String name, final EditPlansRequest resource, final long desiredVersion):Plans</text></g><!--link PlansController to PlansService--><g id="link_PlansController_PlansService"><path codeLine="40" d="M409.02,109.6711 C482.47,133.0411 577.5923,163.3123 651.0923,186.6923 " fill="none" id="PlansController-to-PlansService" style="stroke:#181818;stroke-width:1.0;stroke-dasharray:7.0,7.0;"/><polygon fill="#181818" points="656.81,188.5111,649.446,181.9711,652.0453,186.9955,647.0209,189.5947,656.81,188.5111" style="stroke:#181818;stroke-width:1.0;"/><polygon fill="#000000" points="569.7646,150.7826,562.0364,145.2396,560.2543,150.8407,569.7646,150.7826" style="stroke:#000000;stroke-width:1.0;"/><text fill="#000000" font-family="sans-serif" font-size="13" lengthAdjust="spacing" textLength="28" x="574" y="154.6494">uses</text></g><!--link PlansService to PlansRepositoryBD--><g id="link_PlansService_PlansRepositoryBD"><path codeLine="41" d="M753,251.8611 C753,274.2411 753,298.9911 753,324.5911 " fill="none" id="PlansService-to-PlansRepositoryBD" style="stroke:#181818;stroke-width:1.0;stroke-dasharray:7.0,7.0;"/><polygon fill="#181818" points="753,330.5911,757,321.5911,753,325.5911,749,321.5911,753,330.5911" style="stroke:#181818;stroke-width:1.0;"/><polygon fill="#000000" points="758,296.2666,760.9389,287.2215,755.0611,287.2215,758,296.2666" style="stroke:#000000;stroke-width:1.0;"/><text fill="#000000" font-family="sans-serif" font-size="13" lengthAdjust="spacing" textLength="28" x="767" y="296.6494">uses</text></g><!--link PlansRepositoryBD to Plans--><g id="link_PlansRepositoryBD_Plans"><path codeLine="42" d="M753,428.6211 C753,451.2811 753,473.4711 753,501.5611 " fill="none" id="PlansRepositoryBD-to-Plans" style="stroke:#181818;stroke-width:1.0;stroke-dasharray:7.0,7.0;"/><polygon fill="#181818" points="753,507.5611,757,498.5611,753,502.5611,749,498.5611,753,507.5611" style="stroke:#181818;stroke-width:1.0;"/><polygon fill="#000000" points="758,463.2666,755.0611,472.3117,760.9389,472.3117,758,463.2666" style="stroke:#000000;stroke-width:1.0;"/><text fill="#000000" font-family="sans-serif" font-size="13" lengthAdjust="spacing" textLength="36" x="767" y="473.6494">record</text></g><!--link PlansController to PlansViewMapper--><g id="link_PlansController_PlansViewMapper"><path codeLine="43" d="M304,109.8411 C297.17,133.1911 289.4958,159.3828 282.6658,182.7128 " fill="none" id="PlansController-to-PlansViewMapper" style="stroke:#181818;stroke-width:1.0;stroke-dasharray:7.0,7.0;"/><polygon fill="#181818" points="280.98,188.4711,287.3475,180.9575,282.3848,183.6725,279.6698,178.7098,280.98,188.4711" style="stroke:#181818;stroke-width:1.0;"/><polygon fill="#000000" points="298.5951,154.0652,303.9571,146.2102,298.316,144.5587,298.5951,154.0652" style="stroke:#000000;stroke-width:1.0;"/><text fill="#000000" font-family="sans-serif" font-size="13" lengthAdjust="spacing" textLength="28" x="309" y="154.6494">uses</text></g><!--SRC=[bLDDZzem4BtxLyoj85YuHoXIWQtK0xiLQFTQJUC1h3fswWzsqQh_lPDFaYoN-X1bdiVlpHkFlvn3A7ooN1OQJOYvNcGsNsOQlN-G2ayESt5MaY1JBjCagXtumSb-JuNrAbXtNMzXjL8ca3jYHcagH5114sogv6rD0qluwc67xZS5PKuWbQECJy_XExonDWGB95K0hEW5hvxOXm1U3mPpglz0ai-SAeAofa5Cp7-HUpxkb8c1V8tc-Axoc3yrUo-UNBiJlSesLcikeoLfq4CydSZtK3Gcelv6r6PP4yxwUWEGEIvjK3YRsq2o3cUna1XeYm4dsfREoRDt-SgLiC8S3i6f6cuDSK-ucoToSA_yUNDWv1TwfuRMkXCZStuEQsireO6w_blSMfZ2nIef_lRlubNHsmwBWbnzAxDWEtnI_K4vJNwQTF2GOCFTSsLr3G7C2dH1eNwfEZKvAeEwRKjvvNEeeKUUZv9XJtyYMm17taQNqJJPao_O43qQ7hthgXDEAu61-e7SHMN4qlyhwyUwRSATQstC2tOkkgVn-U683p5Z3hc-Fh7Wp_8pwLKmJU2vcWZKjQTKp3nUE0UeSZg515OSl0SoiZ6ObffYr6bOBDA1_mIYvw59HH-yPVMB7AOEtdsNpsLmMpBhv3tbqToqXFy0]--></g></svg>