<?xml version="1.0" encoding="us-ascii" standalone="no"?><svg xmlns="http://www.w3.org/2000/svg" xmlns:xlink="http://www.w3.org/1999/xlink" contentStyleType="text/css" height="628px" preserveAspectRatio="none" style="width:1345px;height:628px;background:#FFFFFF;" version="1.1" viewBox="0 0 1345 628" width="1345px" zoomAndPan="magnify"><defs/><g><text fill="#000000" font-family="sans-serif" font-size="14" font-weight="bold" lengthAdjust="spacing" textLength="458" x="442.75" y="30.1074">Sequence Diagram/ As Marketing director, I want to update a plan</text><rect fill="#FFFFFF" height="370.7832" style="stroke:#181818;stroke-width:1.0;" width="10" x="261" y="156.5332"/><rect fill="#FFFFFF" height="308.2012" style="stroke:#181818;stroke-width:1.0;" width="10" x="604" y="187.8242"/><rect fill="#FFFFFF" height="60.2275" style="stroke:#181818;stroke-width:1.0;" width="10" x="1025" y="219.1152"/><rect fill="#FFFFFF" height="31.291" style="stroke:#181818;stroke-width:1.0;" width="10" x="1025" y="402.1523"/><rect fill="#FFFFFF" height="31.291" style="stroke:#181818;stroke-width:1.0;" width="10" x="1308" y="339.5703"/><line style="stroke:#181818;stroke-width:0.5;stroke-dasharray:5.0,5.0;" x1="66" x2="66" y1="123.2422" y2="545.3164"/><line style="stroke:#181818;stroke-width:0.5;stroke-dasharray:5.0,5.0;" x1="266" x2="266" y1="123.2422" y2="545.3164"/><line style="stroke:#181818;stroke-width:0.5;stroke-dasharray:5.0,5.0;" x1="609" x2="609" y1="123.2422" y2="545.3164"/><line style="stroke:#181818;stroke-width:0.5;stroke-dasharray:5.0,5.0;" x1="1029.5" x2="1029.5" y1="123.2422" y2="545.3164"/><line style="stroke:#181818;stroke-width:0.5;stroke-dasharray:5.0,5.0;" x1="1188.5" x2="1188.5" y1="123.2422" y2="545.3164"/><line style="stroke:#181818;stroke-width:0.5;stroke-dasharray:5.0,5.0;" x1="1312.5" x2="1312.5" y1="123.2422" y2="545.3164"/><text fill="#000000" font-family="sans-serif" font-size="14" lengthAdjust="spacing" textLength="116" x="5" y="119.7285">Marketing Director</text><ellipse cx="66" cy="53.1211" fill="#E2E2F0" rx="8" ry="8" style="stroke:#181818;stroke-width:0.5;"/><path d="M66,61.1211 L66,88.1211 M53,69.1211 L79,69.1211 M66,88.1211 L53,103.1211 M66,88.1211 L79,103.1211 " fill="none" style="stroke:#181818;stroke-width:0.5;"/><text fill="#000000" font-family="sans-serif" font-size="14" lengthAdjust="spacing" textLength="116" x="5" y="559.4238">Marketing Director</text><ellipse cx="66" cy="571.4375" fill="#E2E2F0" rx="8" ry="8" style="stroke:#181818;stroke-width:0.5;"/><path d="M66,579.4375 L66,606.4375 M53,587.4375 L79,587.4375 M66,606.4375 L53,621.4375 M66,606.4375 L79,621.4375 " fill="none" style="stroke:#181818;stroke-width:0.5;"/><rect fill="#E2E2F0" height="32.6211" rx="2.5" ry="2.5" style="stroke:#181818;stroke-width:0.5;" width="108" x="212" y="89.6211"/><text fill="#000000" font-family="sans-serif" font-size="14" lengthAdjust="spacing" textLength="94" x="219" y="111.7285">:PlanController</text><rect fill="#E2E2F0" height="32.6211" rx="2.5" ry="2.5" style="stroke:#181818;stroke-width:0.5;" width="108" x="212" y="544.3164"/><text fill="#000000" font-family="sans-serif" font-size="14" lengthAdjust="spacing" textLength="94" x="219" y="566.4238">:PlanController</text><rect fill="#E2E2F0" height="32.6211" rx="2.5" ry="2.5" style="stroke:#181818;stroke-width:0.5;" width="100" x="559" y="89.6211"/><text fill="#000000" font-family="sans-serif" font-size="14" lengthAdjust="spacing" textLength="86" x="566" y="111.7285">:PlansService</text><rect fill="#E2E2F0" height="32.6211" rx="2.5" ry="2.5" style="stroke:#181818;stroke-width:0.5;" width="100" x="559" y="544.3164"/><text fill="#000000" font-family="sans-serif" font-size="14" lengthAdjust="spacing" textLength="86" x="566" y="566.4238">:PlansService</text><rect fill="#E2E2F0" height="32.6211" rx="2.5" ry="2.5" style="stroke:#181818;stroke-width:0.5;" width="121" x="969.5" y="89.6211"/><text fill="#000000" font-family="sans-serif" font-size="14" lengthAdjust="spacing" textLength="107" x="976.5" y="111.7285">:PlansRepository</text><rect fill="#E2E2F0" height="32.6211" rx="2.5" ry="2.5" style="stroke:#181818;stroke-width:0.5;" width="121" x="969.5" y="544.3164"/><text fill="#000000" font-family="sans-serif" font-size="14" lengthAdjust="spacing" textLength="107" x="976.5" y="566.4238">:PlansRepository</text><rect fill="#E2E2F0" height="32.6211" rx="2.5" ry="2.5" style="stroke:#181818;stroke-width:0.5;" width="176" x="1100.5" y="89.6211"/><text fill="#000000" font-family="sans-serif" font-size="14" lengthAdjust="spacing" textLength="162" x="1107.5" y="111.7285">:CreatePlanJsonProducer</text><rect fill="#E2E2F0" height="32.6211" rx="2.5" ry="2.5" style="stroke:#181818;stroke-width:0.5;" width="176" x="1100.5" y="544.3164"/><text fill="#000000" font-family="sans-serif" font-size="14" lengthAdjust="spacing" textLength="162" x="1107.5" y="566.4238">:CreatePlanJsonProducer</text><rect fill="#E2E2F0" height="32.6211" rx="2.5" ry="2.5" style="stroke:#181818;stroke-width:0.5;" width="53" x="1286.5" y="89.6211"/><text fill="#000000" font-family="sans-serif" font-size="14" lengthAdjust="spacing" textLength="39" x="1293.5" y="111.7285">:Plans</text><rect fill="#E2E2F0" height="32.6211" rx="2.5" ry="2.5" style="stroke:#181818;stroke-width:0.5;" width="53" x="1286.5" y="544.3164"/><text fill="#000000" font-family="sans-serif" font-size="14" lengthAdjust="spacing" textLength="39" x="1293.5" y="566.4238">:Plans</text><rect fill="#FFFFFF" height="370.7832" style="stroke:#181818;stroke-width:1.0;" width="10" x="261" y="156.5332"/><rect fill="#FFFFFF" height="308.2012" style="stroke:#181818;stroke-width:1.0;" width="10" x="604" y="187.8242"/><rect fill="#FFFFFF" height="60.2275" style="stroke:#181818;stroke-width:1.0;" width="10" x="1025" y="219.1152"/><rect fill="#FFFFFF" height="31.291" style="stroke:#181818;stroke-width:1.0;" width="10" x="1025" y="402.1523"/><rect fill="#FFFFFF" height="31.291" style="stroke:#181818;stroke-width:1.0;" width="10" x="1308" y="339.5703"/><polygon fill="#181818" points="249,152.5332,259,156.5332,249,160.5332,253,156.5332" style="stroke:#181818;stroke-width:1.0;"/><line style="stroke:#181818;stroke-width:1.0;" x1="66" x2="255" y1="156.5332" y2="156.5332"/><text fill="#000000" font-family="sans-serif" font-size="13" font-weight="bold" lengthAdjust="spacing" textLength="7" x="73" y="151.2705">1</text><text fill="#000000" font-family="sans-serif" font-size="13" lengthAdjust="spacing" textLength="165" x="84" y="151.2705">PATCH/plans/update/{name}</text><polygon fill="#181818" points="592,183.8242,602,187.8242,592,191.8242,596,187.8242" style="stroke:#181818;stroke-width:1.0;"/><line style="stroke:#181818;stroke-width:1.0;" x1="271" x2="598" y1="187.8242" y2="187.8242"/><text fill="#000000" font-family="sans-serif" font-size="13" font-weight="bold" lengthAdjust="spacing" textLength="7" x="278" y="182.5615">2</text><text fill="#000000" font-family="sans-serif" font-size="13" lengthAdjust="spacing" textLength="303" x="289" y="182.5615">Plans plans = partialUpdate(name, editPlanRequest)</text><polygon fill="#181818" points="1013,215.1152,1023,219.1152,1013,223.1152,1017,219.1152" style="stroke:#181818;stroke-width:1.0;"/><line style="stroke:#181818;stroke-width:1.0;" x1="614" x2="1019" y1="219.1152" y2="219.1152"/><text fill="#000000" font-family="sans-serif" font-size="13" font-weight="bold" lengthAdjust="spacing" textLength="7" x="621" y="213.8525">3</text><text fill="#000000" font-family="sans-serif" font-size="13" lengthAdjust="spacing" textLength="381" x="632" y="213.8525">Optional&lt;Plans&gt; plans = findByName_Name(resource.getName())</text><polygon fill="#181818" points="625,275.3428,615,279.3428,625,283.3428,621,279.3428" style="stroke:#181818;stroke-width:1.0;"/><line style="stroke:#181818;stroke-width:1.0;stroke-dasharray:2.0,2.0;" x1="619" x2="1029" y1="279.3428" y2="279.3428"/><text fill="#000000" font-family="sans-serif" font-size="13" font-weight="bold" lengthAdjust="spacing" textLength="7" x="631" y="274.0801">4</text><text fill="#000000" font-family="sans-serif" font-size="13" lengthAdjust="spacing" textLength="31" x="642" y="274.0801">plans</text><path d="M335,232.1152 L335,311.1152 L599,311.1152 L599,242.1152 L589,232.1152 L335,232.1152 " fill="#FEFFDD" style="stroke:#181818;stroke-width:0.5;"/><path d="M589,232.1152 L589,242.1152 L599,242.1152 L589,232.1152 " fill="#FEFFDD" style="stroke:#181818;stroke-width:0.5;"/><text fill="#000000" font-family="sans-serif" font-size="13" lengthAdjust="spacing" textLength="195" x="341" y="251.1436">1) Service will check if plan exists</text><text fill="#000000" font-family="sans-serif" font-size="13" lengthAdjust="spacing" textLength="4" x="341" y="268.4346">&#160;</text><text fill="#000000" font-family="sans-serif" font-size="13" lengthAdjust="spacing" textLength="90" x="341" y="285.7256">If 1 comes true,</text><text fill="#000000" font-family="sans-serif" font-size="13" lengthAdjust="spacing" textLength="243" x="341" y="303.0166">Service will trow IllegalArgumentException</text><polygon fill="#181818" points="1296,335.5703,1306,339.5703,1296,343.5703,1300,339.5703" style="stroke:#181818;stroke-width:1.0;"/><line style="stroke:#181818;stroke-width:1.0;" x1="614" x2="1302" y1="339.5703" y2="339.5703"/><text fill="#000000" font-family="sans-serif" font-size="13" font-weight="bold" lengthAdjust="spacing" textLength="7" x="621" y="334.3076">5</text><text fill="#000000" font-family="sans-serif" font-size="13" lengthAdjust="spacing" textLength="170" x="632" y="334.3076">plan.update(editPlanRequest)</text><polygon fill="#181818" points="625,366.8613,615,370.8613,625,374.8613,621,370.8613" style="stroke:#181818;stroke-width:1.0;"/><line style="stroke:#181818;stroke-width:1.0;stroke-dasharray:2.0,2.0;" x1="619" x2="1312" y1="370.8613" y2="370.8613"/><text fill="#000000" font-family="sans-serif" font-size="13" font-weight="bold" lengthAdjust="spacing" textLength="7" x="631" y="365.5986">6</text><text fill="#000000" font-family="sans-serif" font-size="13" lengthAdjust="spacing" textLength="24" x="642" y="365.5986">plan</text><polygon fill="#181818" points="1013,398.1523,1023,402.1523,1013,406.1523,1017,402.1523" style="stroke:#181818;stroke-width:1.0;"/><line style="stroke:#181818;stroke-width:1.0;" x1="614" x2="1019" y1="402.1523" y2="402.1523"/><text fill="#000000" font-family="sans-serif" font-size="13" font-weight="bold" lengthAdjust="spacing" textLength="7" x="621" y="396.8896">7</text><text fill="#000000" font-family="sans-serif" font-size="13" lengthAdjust="spacing" textLength="51" x="632" y="396.8896">save(obj)</text><polygon fill="#181818" points="625,429.4434,615,433.4434,625,437.4434,621,433.4434" style="stroke:#181818;stroke-width:1.0;"/><line style="stroke:#181818;stroke-width:1.0;stroke-dasharray:2.0,2.0;" x1="619" x2="1029" y1="433.4434" y2="433.4434"/><text fill="#000000" font-family="sans-serif" font-size="13" font-weight="bold" lengthAdjust="spacing" textLength="7" x="631" y="428.1807">8</text><text fill="#000000" font-family="sans-serif" font-size="13" lengthAdjust="spacing" textLength="24" x="642" y="428.1807">plan</text><polygon fill="#181818" points="1171.5,460.7344,1181.5,464.7344,1171.5,468.7344,1175.5,464.7344" style="stroke:#181818;stroke-width:1.0;"/><line style="stroke:#181818;stroke-width:1.0;" x1="614" x2="1177.5" y1="464.7344" y2="464.7344"/><text fill="#000000" font-family="sans-serif" font-size="13" font-weight="bold" lengthAdjust="spacing" textLength="7" x="621" y="459.4717">9</text><text fill="#000000" font-family="sans-serif" font-size="13" lengthAdjust="spacing" textLength="106" x="632" y="459.4717">sendMessage(obj)</text><polygon fill="#181818" points="282,492.0254,272,496.0254,282,500.0254,278,496.0254" style="stroke:#181818;stroke-width:1.0;"/><line style="stroke:#181818;stroke-width:1.0;stroke-dasharray:2.0,2.0;" x1="276" x2="608" y1="496.0254" y2="496.0254"/><text fill="#000000" font-family="sans-serif" font-size="13" font-weight="bold" lengthAdjust="spacing" textLength="14" x="288" y="490.7627">10</text><text fill="#000000" font-family="sans-serif" font-size="13" lengthAdjust="spacing" textLength="24" x="306" y="490.7627">plan</text><polygon fill="#181818" points="77,523.3164,67,527.3164,77,531.3164,73,527.3164" style="stroke:#181818;stroke-width:1.0;"/><line style="stroke:#181818;stroke-width:1.0;stroke-dasharray:2.0,2.0;" x1="71" x2="265" y1="527.3164" y2="527.3164"/><text fill="#000000" font-family="sans-serif" font-size="13" font-weight="bold" lengthAdjust="spacing" textLength="14" x="83" y="522.0537">11</text><text fill="#000000" font-family="sans-serif" font-size="13" lengthAdjust="spacing" textLength="24" x="101" y="522.0537">plan</text><!--SRC=[RP9VRziW5CNV-HHNUMaYnR7wQdMLlBJICYbRr6xF5SKtBYi61fUarRJlFi34wxgyM0Rzphb_3XTFHDOtTMqLrnG6jH9cg3t-3AW5LftalUC3uu4C5oGFd12CpcSTXaTqZ2GfXFkYW9jHKKFhOSlTCvBKFNJIeI3Zbh21Oom4P23OBhbnIANPMql64mkpl_gRefy1zz0APhaZAQHDLhDc5mtMHfCpIk78hCcfCvI_HtUG0ZEJ_iynTsYDbx7QQyRIyHssTXXRJ_1dR_JEcIw8KjYMmpdZ36ovjMd6La1rdVk41dRjj_Mdd86lnxtKlpGVy3VBG0HJip3Qv8Lv-02v15VVis2U-2LW9obHToaGJmkMXT4WZG7DLqlIQAwkijFrPBMNkllu-YLQFAJFtA4tmGbSzKZvOh5WsQ6QUXcrJ9iOei8ziSi5bFN2KIe5uWd5CyXz1W5Vf2VFs6OFbn0V6NeW5t39_j7438-mYJ7sNBMk3mDgkdqHcDjcg3j8zQQXncL2aoginiND_zj0WKwTZusp3gS7FMNsTbSDU7x0kNdyyMxoeZ-n9t5SY8_zRT5xtXVTo9IOYoxcVbLLf-3prHy0]--></g></svg>