<?xml version="1.0" encoding="us-ascii" standalone="no"?><svg xmlns="http://www.w3.org/2000/svg" xmlns:xlink="http://www.w3.org/1999/xlink" contentStyleType="text/css" height="690px" preserveAspectRatio="none" style="width:912px;height:690px;background:#FFFFFF;" version="1.1" viewBox="0 0 912 690" width="912px" zoomAndPan="magnify"><defs/><g><text fill="#000000" font-family="sans-serif" font-size="14" font-weight="bold" lengthAdjust="spacing" textLength="299" x="305.75" y="30.1074">Software Design Document - Update a Plan</text><rect fill="#FFFFFF" height="130.1641" style="stroke:#181818;stroke-width:1.0;" width="10" x="271" y="156.5332"/><rect fill="#FFFFFF" height="37.291" style="stroke:#181818;stroke-width:1.0;" width="10" x="271" y="317.9883"/><rect fill="#FFFFFF" height="37.291" style="stroke:#181818;stroke-width:1.0;" width="10" x="390.5" y="393.5703"/><rect fill="#FFFFFF" height="37.291" style="stroke:#181818;stroke-width:1.0;" width="10" x="515" y="469.1523"/><rect fill="#FFFFFF" height="53.291" style="stroke:#181818;stroke-width:1.0;" width="10" x="646" y="544.7344"/><rect fill="#FFFFFF" height="338.2646" style="stroke:#181818;stroke-width:1.0;" width="10" x="841" y="243.7607"/><line style="stroke:#181818;stroke-width:0.5;stroke-dasharray:5.0,5.0;" x1="66" x2="66" y1="123.2422" y2="607.0254"/><line style="stroke:#181818;stroke-width:0.5;stroke-dasharray:5.0,5.0;" x1="276" x2="276" y1="123.2422" y2="607.0254"/><line style="stroke:#181818;stroke-width:0.5;stroke-dasharray:5.0,5.0;" x1="395" x2="395" y1="123.2422" y2="607.0254"/><line style="stroke:#181818;stroke-width:0.5;stroke-dasharray:5.0,5.0;" x1="520" x2="520" y1="123.2422" y2="607.0254"/><line style="stroke:#181818;stroke-width:0.5;stroke-dasharray:5.0,5.0;" x1="651" x2="651" y1="123.2422" y2="607.0254"/><line style="stroke:#181818;stroke-width:0.5;stroke-dasharray:5.0,5.0;" x1="845.5" x2="845.5" y1="123.2422" y2="607.0254"/><text fill="#000000" font-family="sans-serif" font-size="14" lengthAdjust="spacing" textLength="116" x="5" y="119.7285">Marketing Director</text><ellipse cx="66" cy="53.1211" fill="#E2E2F0" rx="8" ry="8" style="stroke:#181818;stroke-width:0.5;"/><path d="M66,61.1211 L66,88.1211 M53,69.1211 L79,69.1211 M66,88.1211 L53,103.1211 M66,88.1211 L79,103.1211 " fill="none" style="stroke:#181818;stroke-width:0.5;"/><text fill="#000000" font-family="sans-serif" font-size="14" lengthAdjust="spacing" textLength="116" x="5" y="621.1328">Marketing Director</text><ellipse cx="66" cy="633.1465" fill="#E2E2F0" rx="8" ry="8" style="stroke:#181818;stroke-width:0.5;"/><path d="M66,641.1465 L66,668.1465 M53,649.1465 L79,649.1465 M66,668.1465 L53,683.1465 M66,668.1465 L79,683.1465 " fill="none" style="stroke:#181818;stroke-width:0.5;"/><rect fill="#E2E2F0" height="32.6211" rx="2.5" ry="2.5" style="stroke:#181818;stroke-width:0.5;" width="108" x="222" y="89.6211"/><text fill="#000000" font-family="sans-serif" font-size="14" lengthAdjust="spacing" textLength="94" x="229" y="111.7285">planC[n]:planC</text><rect fill="#E2E2F0" height="32.6211" rx="2.5" ry="2.5" style="stroke:#181818;stroke-width:0.5;" width="108" x="222" y="606.0254"/><text fill="#000000" font-family="sans-serif" font-size="14" lengthAdjust="spacing" textLength="94" x="229" y="628.1328">planC[n]:planC</text><rect fill="#E2E2F0" height="32.6211" rx="2.5" ry="2.5" style="stroke:#181818;stroke-width:0.5;" width="111" x="340" y="89.6211"/><text fill="#000000" font-family="sans-serif" font-size="14" lengthAdjust="spacing" textLength="97" x="347" y="111.7285">PlanQ[n]:planQ</text><rect fill="#E2E2F0" height="32.6211" rx="2.5" ry="2.5" style="stroke:#181818;stroke-width:0.5;" width="111" x="340" y="606.0254"/><text fill="#000000" font-family="sans-serif" font-size="14" lengthAdjust="spacing" textLength="97" x="347" y="628.1328">PlanQ[n]:planQ</text><rect fill="#E2E2F0" height="32.6211" rx="2.5" ry="2.5" style="stroke:#181818;stroke-width:0.5;" width="118" x="461" y="89.6211"/><text fill="#000000" font-family="sans-serif" font-size="14" lengthAdjust="spacing" textLength="104" x="468" y="111.7285">SubsC[n]:SubsC</text><rect fill="#E2E2F0" height="32.6211" rx="2.5" ry="2.5" style="stroke:#181818;stroke-width:0.5;" width="118" x="461" y="606.0254"/><text fill="#000000" font-family="sans-serif" font-size="14" lengthAdjust="spacing" textLength="104" x="468" y="628.1328">SubsC[n]:SubsC</text><rect fill="#E2E2F0" height="32.6211" rx="2.5" ry="2.5" style="stroke:#181818;stroke-width:0.5;" width="124" x="589" y="89.6211"/><text fill="#000000" font-family="sans-serif" font-size="14" lengthAdjust="spacing" textLength="110" x="596" y="111.7285">SubsQ[n]:SubsQ:</text><rect fill="#E2E2F0" height="32.6211" rx="2.5" ry="2.5" style="stroke:#181818;stroke-width:0.5;" width="124" x="589" y="606.0254"/><text fill="#000000" font-family="sans-serif" font-size="14" lengthAdjust="spacing" textLength="110" x="596" y="628.1328">SubsQ[n]:SubsQ:</text><rect fill="#E2E2F0" height="32.6211" rx="2.5" ry="2.5" style="stroke:#181818;stroke-width:0.5;" width="121" x="785.5" y="89.6211"/><text fill="#000000" font-family="sans-serif" font-size="14" lengthAdjust="spacing" textLength="107" x="792.5" y="111.7285">Message Broker:</text><rect fill="#E2E2F0" height="32.6211" rx="2.5" ry="2.5" style="stroke:#181818;stroke-width:0.5;" width="121" x="785.5" y="606.0254"/><text fill="#000000" font-family="sans-serif" font-size="14" lengthAdjust="spacing" textLength="107" x="792.5" y="628.1328">Message Broker:</text><rect fill="#FFFFFF" height="130.1641" style="stroke:#181818;stroke-width:1.0;" width="10" x="271" y="156.5332"/><rect fill="#FFFFFF" height="37.291" style="stroke:#181818;stroke-width:1.0;" width="10" x="271" y="317.9883"/><rect fill="#FFFFFF" height="37.291" style="stroke:#181818;stroke-width:1.0;" width="10" x="390.5" y="393.5703"/><rect fill="#FFFFFF" height="37.291" style="stroke:#181818;stroke-width:1.0;" width="10" x="515" y="469.1523"/><rect fill="#FFFFFF" height="53.291" style="stroke:#181818;stroke-width:1.0;" width="10" x="646" y="544.7344"/><rect fill="#FFFFFF" height="338.2646" style="stroke:#181818;stroke-width:1.0;" width="10" x="841" y="243.7607"/><polygon fill="#181818" points="259,152.5332,269,156.5332,259,160.5332,263,156.5332" style="stroke:#181818;stroke-width:1.0;"/><line style="stroke:#181818;stroke-width:1.0;" x1="66" x2="265" y1="156.5332" y2="156.5332"/><text fill="#000000" font-family="sans-serif" font-size="13" font-weight="bold" lengthAdjust="spacing" textLength="7" x="73" y="151.2705">1</text><text fill="#000000" font-family="sans-serif" font-size="13" lengthAdjust="spacing" textLength="169" x="84" y="151.2705">PATCH /plans/update/{name}</text><line style="stroke:#181818;stroke-width:1.0;" x1="281" x2="323" y1="187.8242" y2="187.8242"/><line style="stroke:#181818;stroke-width:1.0;" x1="323" x2="323" y1="187.8242" y2="200.8242"/><line style="stroke:#181818;stroke-width:1.0;" x1="282" x2="323" y1="200.8242" y2="200.8242"/><polygon fill="#181818" points="292,196.8242,282,200.8242,292,204.8242,288,200.8242" style="stroke:#181818;stroke-width:1.0;"/><text fill="#000000" font-family="sans-serif" font-size="13" font-weight="bold" lengthAdjust="spacing" textLength="7" x="288" y="182.5615">2</text><text fill="#000000" font-family="sans-serif" font-size="13" lengthAdjust="spacing" textLength="58" x="299" y="182.5615">save(plan)</text><polygon fill="#181818" points="829,239.7607,839,243.7607,829,247.7607,833,243.7607" style="stroke:#181818;stroke-width:1.0;"/><line style="stroke:#181818;stroke-width:1.0;" x1="281" x2="835" y1="243.7607" y2="243.7607"/><text fill="#000000" font-family="sans-serif" font-size="13" font-weight="bold" lengthAdjust="spacing" textLength="7" x="288" y="238.498">3</text><text fill="#000000" font-family="sans-serif" font-size="13" lengthAdjust="spacing" textLength="158" x="299" y="238.498">publish(updated_plan, plan)</text><path d="M83,213.8242 L83,257.8242 L266,257.8242 L266,223.8242 L256,213.8242 L83,213.8242 " fill="#FEFFDD" style="stroke:#181818;stroke-width:0.5;"/><path d="M256,213.8242 L256,223.8242 L266,223.8242 L256,213.8242 " fill="#FEFFDD" style="stroke:#181818;stroke-width:0.5;"/><text fill="#000000" font-family="sans-serif" font-size="13" lengthAdjust="spacing" textLength="162" x="89" y="232.8525">[n] represents the instances</text><text fill="#000000" font-family="sans-serif" font-size="13" lengthAdjust="spacing" textLength="121" x="89" y="250.1436">it can be n instances</text><polygon fill="#181818" points="77,282.6973,67,286.6973,77,290.6973,73,286.6973" style="stroke:#181818;stroke-width:1.0;"/><line style="stroke:#181818;stroke-width:1.0;stroke-dasharray:2.0,2.0;" x1="71" x2="275" y1="286.6973" y2="286.6973"/><text fill="#000000" font-family="sans-serif" font-size="13" font-weight="bold" lengthAdjust="spacing" textLength="7" x="83" y="281.4346">4</text><text fill="#000000" font-family="sans-serif" font-size="13" lengthAdjust="spacing" textLength="170" x="94" y="281.4346">informs operation (in)success</text><polygon fill="#181818" points="292,313.9883,282,317.9883,292,321.9883,288,317.9883" style="stroke:#181818;stroke-width:1.0;"/><line style="stroke:#181818;stroke-width:1.0;" x1="286" x2="840" y1="317.9883" y2="317.9883"/><text fill="#000000" font-family="sans-serif" font-size="13" font-weight="bold" lengthAdjust="spacing" textLength="7" x="298" y="312.7256">5</text><text fill="#000000" font-family="sans-serif" font-size="13" lengthAdjust="spacing" textLength="148" x="309" y="312.7256">notify(updated_plan, plan)</text><line style="stroke:#181818;stroke-width:1.0;" x1="281" x2="323" y1="354.2793" y2="354.2793"/><line style="stroke:#181818;stroke-width:1.0;" x1="323" x2="323" y1="354.2793" y2="367.2793"/><line style="stroke:#181818;stroke-width:1.0;" x1="276" x2="323" y1="367.2793" y2="367.2793"/><polygon fill="#181818" points="286,363.2793,276,367.2793,286,371.2793,282,367.2793" style="stroke:#181818;stroke-width:1.0;"/><text fill="#000000" font-family="sans-serif" font-size="13" font-weight="bold" lengthAdjust="spacing" textLength="7" x="288" y="349.0166">6</text><text fill="#000000" font-family="sans-serif" font-size="13" lengthAdjust="spacing" textLength="58" x="299" y="349.0166">save(plan)</text><polygon fill="#181818" points="411.5,389.5703,401.5,393.5703,411.5,397.5703,407.5,393.5703" style="stroke:#181818;stroke-width:1.0;"/><line style="stroke:#181818;stroke-width:1.0;" x1="405.5" x2="840" y1="393.5703" y2="393.5703"/><text fill="#000000" font-family="sans-serif" font-size="13" font-weight="bold" lengthAdjust="spacing" textLength="7" x="417.5" y="388.3076">7</text><text fill="#000000" font-family="sans-serif" font-size="13" lengthAdjust="spacing" textLength="148" x="428.5" y="388.3076">notify(updated_plan, plan)</text><line style="stroke:#181818;stroke-width:1.0;" x1="400.5" x2="442.5" y1="429.8613" y2="429.8613"/><line style="stroke:#181818;stroke-width:1.0;" x1="442.5" x2="442.5" y1="429.8613" y2="442.8613"/><line style="stroke:#181818;stroke-width:1.0;" x1="395.5" x2="442.5" y1="442.8613" y2="442.8613"/><polygon fill="#181818" points="405.5,438.8613,395.5,442.8613,405.5,446.8613,401.5,442.8613" style="stroke:#181818;stroke-width:1.0;"/><text fill="#000000" font-family="sans-serif" font-size="13" font-weight="bold" lengthAdjust="spacing" textLength="7" x="407.5" y="424.5986">8</text><text fill="#000000" font-family="sans-serif" font-size="13" lengthAdjust="spacing" textLength="58" x="418.5" y="424.5986">save(plan)</text><polygon fill="#181818" points="536,465.1523,526,469.1523,536,473.1523,532,469.1523" style="stroke:#181818;stroke-width:1.0;"/><line style="stroke:#181818;stroke-width:1.0;" x1="530" x2="840" y1="469.1523" y2="469.1523"/><text fill="#000000" font-family="sans-serif" font-size="13" font-weight="bold" lengthAdjust="spacing" textLength="7" x="542" y="463.8896">9</text><text fill="#000000" font-family="sans-serif" font-size="13" lengthAdjust="spacing" textLength="148" x="553" y="463.8896">notify(updated_plan, plan)</text><line style="stroke:#181818;stroke-width:1.0;" x1="525" x2="567" y1="505.4434" y2="505.4434"/><line style="stroke:#181818;stroke-width:1.0;" x1="567" x2="567" y1="505.4434" y2="518.4434"/><line style="stroke:#181818;stroke-width:1.0;" x1="520" x2="567" y1="518.4434" y2="518.4434"/><polygon fill="#181818" points="530,514.4434,520,518.4434,530,522.4434,526,518.4434" style="stroke:#181818;stroke-width:1.0;"/><text fill="#000000" font-family="sans-serif" font-size="13" font-weight="bold" lengthAdjust="spacing" textLength="14" x="532" y="500.1807">10</text><text fill="#000000" font-family="sans-serif" font-size="13" lengthAdjust="spacing" textLength="58" x="550" y="500.1807">save(plan)</text><polygon fill="#181818" points="667,540.7344,657,544.7344,667,548.7344,663,544.7344" style="stroke:#181818;stroke-width:1.0;"/><line style="stroke:#181818;stroke-width:1.0;" x1="661" x2="840" y1="544.7344" y2="544.7344"/><text fill="#000000" font-family="sans-serif" font-size="13" font-weight="bold" lengthAdjust="spacing" textLength="14" x="673" y="539.4717">11</text><text fill="#000000" font-family="sans-serif" font-size="13" lengthAdjust="spacing" textLength="148" x="691" y="539.4717">notify(updated_plan, plan)</text><line style="stroke:#181818;stroke-width:1.0;" x1="656" x2="698" y1="581.0254" y2="581.0254"/><line style="stroke:#181818;stroke-width:1.0;" x1="698" x2="698" y1="581.0254" y2="594.0254"/><line style="stroke:#181818;stroke-width:1.0;" x1="651" x2="698" y1="594.0254" y2="594.0254"/><polygon fill="#181818" points="661,590.0254,651,594.0254,661,598.0254,657,594.0254" style="stroke:#181818;stroke-width:1.0;"/><text fill="#000000" font-family="sans-serif" font-size="13" font-weight="bold" lengthAdjust="spacing" textLength="14" x="663" y="575.7627">12</text><text fill="#000000" font-family="sans-serif" font-size="13" lengthAdjust="spacing" textLength="58" x="681" y="575.7627">save(plan)</text><!--SRC=[XP8nJyCm48Lt_ufJ5rf1rJq3Kaa7bagr0XD2wE9SMgl9ERAT8eJuxzXEYbgWwcQVllVktTats7kZJDirv0aCYtZdlYt92k6rRmWAK_jtj0GhSdhBi3AgRuazpE6vgp3843ODiX2elB4mMQFTazUyXPMs56iJG0TB9JgqNYlTOL1Fkg39N_WrIuU4RF9p9DhA8o87H9uZHL-wv98E2IdoluWy8Z8Rc5ysQt8EjmGFrkp93anR2h5KCByFkU3s5ZBOB9_oHrZ4D6xHf-4NdumjVOc036063WyqZSnihBRb8E_wij5kDnsKrLjaxc0WsOH5DbHx4PA2fSwI2qjsu7S4cfr7LkI4zg2GeIJWaofn1T4WzGiDO-fvQAYvDhPrO3gowBLXc6gUkLu5aHCYv3ePBXZe-kFVS3_39TUJ-OuMyhg57C4B5iNr54K-WfSihgSev0YUwoiANrSVubyEZ_uD]--></g></svg>