<?xml version="1.0" encoding="us-ascii" standalone="no"?><svg xmlns="http://www.w3.org/2000/svg" xmlns:xlink="http://www.w3.org/1999/xlink" contentStyleType="text/css" height="764px" preserveAspectRatio="none" style="width:740px;height:764px;background:#FFFFFF;" version="1.1" viewBox="0 0 740 764" width="740px" zoomAndPan="magnify"><defs/><g><text fill="#000000" font-family="sans-serif" font-size="14" font-weight="bold" lengthAdjust="spacing" textLength="454" x="136" y="25.1074">Class Diagram / As Marketing director, I want to deactivate a Plan</text><!--class PlansRepositoryBD--><g id="elem_PlansRepositoryBD"><rect codeLine="33" fill="#F1F1F1" height="97.8242" id="PlansRepositoryBD" rx="2.5" ry="2.5" style="stroke:#181818;stroke-width:0.5;" width="343" x="356.5" y="330.6211"/><text fill="#000000" font-family="sans-serif" font-size="12" font-style="italic" lengthAdjust="spacing" textLength="61" x="497.5" y="348.5703">&#171;interface&#187;</text><text fill="#000000" font-family="sans-serif" font-size="14" font-style="italic" lengthAdjust="spacing" textLength="122" x="467" y="366.6895">PlansRepositoryBD</text><line style="stroke:#181818;stroke-width:0.5;" x1="357.5" x2="698.5" y1="375.2031" y2="375.2031"/><line style="stroke:#181818;stroke-width:0.5;" x1="357.5" x2="698.5" y1="383.2031" y2="383.2031"/><ellipse cx="367.5" cy="398.0137" fill="#84BE84" rx="3" ry="3" style="stroke:#038048;stroke-width:1.0;"/><text fill="#000000" font-family="sans-serif" font-size="14" lengthAdjust="spacing" textLength="317" x="376.5" y="402.3105">findByName_Name(String name): Optional&lt;Plans&gt;</text><ellipse cx="367.5" cy="416.6348" fill="#84BE84" rx="3" ry="3" style="stroke:#038048;stroke-width:1.0;"/><text fill="#000000" font-family="sans-serif" font-size="14" lengthAdjust="spacing" textLength="216" x="376.5" y="420.9316">save(S entity) : &lt;S extends Plans&gt;</text></g><!--class Plans--><g id="elem_Plans"><rect codeLine="9" fill="#F1F1F1" height="249.4531" id="Plans" rx="2.5" ry="2.5" style="stroke:#181818;stroke-width:0.5;" width="295" x="380.5" y="507.6211"/><text fill="#000000" font-family="sans-serif" font-size="14" lengthAdjust="spacing" textLength="35" x="510.5" y="527.7285">Plans</text><line style="stroke:#181818;stroke-width:0.5;" x1="381.5" x2="674.5" y1="536.2422" y2="536.2422"/><rect fill="none" height="6" style="stroke:#C82930;stroke-width:1.0;" width="6" x="388.5" y="548.0527"/><text fill="#000000" font-family="sans-serif" font-size="14" lengthAdjust="spacing" textLength="35" x="400.5" y="555.3496">name</text><rect fill="none" height="6" style="stroke:#C82930;stroke-width:1.0;" width="6" x="388.5" y="566.6738"/><text fill="#000000" font-family="sans-serif" font-size="14" lengthAdjust="spacing" textLength="69" x="400.5" y="573.9707">description</text><rect fill="none" height="6" style="stroke:#C82930;stroke-width:1.0;" width="6" x="388.5" y="585.2949"/><text fill="#000000" font-family="sans-serif" font-size="14" lengthAdjust="spacing" textLength="112" x="400.5" y="592.5918">numberOfMinutes</text><rect fill="none" height="6" style="stroke:#C82930;stroke-width:1.0;" width="6" x="388.5" y="603.916"/><text fill="#000000" font-family="sans-serif" font-size="14" lengthAdjust="spacing" textLength="158" x="400.5" y="611.2129">maximumNumberOfUsers</text><rect fill="none" height="6" style="stroke:#C82930;stroke-width:1.0;" width="6" x="388.5" y="622.5371"/><text fill="#000000" font-family="sans-serif" font-size="14" lengthAdjust="spacing" textLength="98" x="400.5" y="629.834">musicCollection</text><rect fill="none" height="6" style="stroke:#C82930;stroke-width:1.0;" width="6" x="388.5" y="641.1582"/><text fill="#000000" font-family="sans-serif" font-size="14" lengthAdjust="spacing" textLength="107" x="400.5" y="648.4551">musicSuggestion</text><rect fill="none" height="6" style="stroke:#C82930;stroke-width:1.0;" width="6" x="388.5" y="659.7793"/><text fill="#000000" font-family="sans-serif" font-size="14" lengthAdjust="spacing" textLength="68" x="400.5" y="667.0762">annualFee</text><rect fill="none" height="6" style="stroke:#C82930;stroke-width:1.0;" width="6" x="388.5" y="678.4004"/><text fill="#000000" font-family="sans-serif" font-size="14" lengthAdjust="spacing" textLength="74" x="400.5" y="685.6973">monthlyFee</text><rect fill="none" height="6" style="stroke:#C82930;stroke-width:1.0;" width="6" x="388.5" y="697.0215"/><text fill="#000000" font-family="sans-serif" font-size="14" lengthAdjust="spacing" textLength="37" x="400.5" y="704.3184">active</text><rect fill="none" height="6" style="stroke:#C82930;stroke-width:1.0;" width="6" x="388.5" y="715.6426"/><text fill="#000000" font-family="sans-serif" font-size="14" lengthAdjust="spacing" textLength="60" x="400.5" y="722.9395">promoted</text><line style="stroke:#181818;stroke-width:0.5;" x1="381.5" x2="674.5" y1="730.4531" y2="730.4531"/><ellipse cx="391.5" cy="745.2637" fill="#84BE84" rx="3" ry="3" style="stroke:#038048;stroke-width:1.0;"/><text fill="#000000" font-family="sans-serif" font-size="14" lengthAdjust="spacing" textLength="269" x="400.5" y="749.5605">deactivate(final long desiredVersion) : void</text></g><!--class PlansViewMapper--><g id="elem_PlansViewMapper"><rect codeLine="22" fill="#F1F1F1" height="63.2422" id="PlansViewMapper" rx="2.5" ry="2.5" style="stroke:#181818;stroke-width:0.5;" width="253" x="34.5" y="188.6211"/><text fill="#000000" font-family="sans-serif" font-size="14" lengthAdjust="spacing" textLength="112" x="105" y="208.7285">PlansViewMapper</text><line style="stroke:#181818;stroke-width:0.5;" x1="35.5" x2="286.5" y1="217.2422" y2="217.2422"/><line style="stroke:#181818;stroke-width:0.5;" x1="35.5" x2="286.5" y1="225.2422" y2="225.2422"/><ellipse cx="45.5" cy="240.0527" fill="#84BE84" rx="3" ry="3" style="stroke:#038048;stroke-width:1.0;"/><text fill="#000000" font-family="sans-serif" font-size="14" lengthAdjust="spacing" textLength="227" x="54.5" y="244.3496">toPlansView(Plans plans):PlansView</text></g><!--class PlansController--><g id="elem_PlansController"><rect codeLine="25" fill="#F1F1F1" height="63.2422" id="PlansController" rx="2.5" ry="2.5" style="stroke:#181818;stroke-width:0.5;" width="390" x="7" y="46.6211"/><text fill="#000000" font-family="sans-serif" font-size="14" lengthAdjust="spacing" textLength="97" x="153.5" y="66.7285">PlansController</text><line style="stroke:#181818;stroke-width:0.5;" x1="8" x2="396" y1="75.2422" y2="75.2422"/><line style="stroke:#181818;stroke-width:0.5;" x1="8" x2="396" y1="83.2422" y2="83.2422"/><ellipse cx="18" cy="98.0527" fill="#84BE84" rx="3" ry="3" style="stroke:#038048;stroke-width:1.0;"/><text fill="#000000" font-family="sans-serif" font-size="14" lengthAdjust="spacing" textLength="364" x="27" y="102.3496">deactivate(final String name):ResponseEntity&lt;PlansView&gt;</text></g><!--class PlansService--><g id="elem_PlansService"><rect codeLine="28" fill="#F1F1F1" height="63.2422" id="PlansService" rx="2.5" ry="2.5" style="stroke:#181818;stroke-width:0.5;" width="410" x="323" y="188.6211"/><text fill="#000000" font-family="sans-serif" font-size="14" lengthAdjust="spacing" textLength="82" x="487" y="208.7285">PlansService</text><line style="stroke:#181818;stroke-width:0.5;" x1="324" x2="732" y1="217.2422" y2="217.2422"/><line style="stroke:#181818;stroke-width:0.5;" x1="324" x2="732" y1="225.2422" y2="225.2422"/><ellipse cx="334" cy="240.0527" fill="#84BE84" rx="3" ry="3" style="stroke:#038048;stroke-width:1.0;"/><text fill="#000000" font-family="sans-serif" font-size="14" lengthAdjust="spacing" textLength="384" x="343" y="244.3496">deactivate(final String name, final long desiredVersion):Plans</text></g><!--link PlansController to PlansService--><g id="link_PlansController_PlansService"><path codeLine="40" d="M273.14,109.6711 C327.56,133.0411 396.7566,162.7642 451.2166,186.1442 " fill="none" id="PlansController-to-PlansService" style="stroke:#181818;stroke-width:1.0;stroke-dasharray:7.0,7.0;"/><polygon fill="#181818" points="456.73,188.5111,450.0379,181.2851,452.1355,186.5386,446.8819,188.6363,456.73,188.5111" style="stroke:#181818;stroke-width:1.0;"/><polygon fill="#000000" points="393.5943,151.2396,386.4428,144.97,384.1235,150.3709,393.5943,151.2396" style="stroke:#000000;stroke-width:1.0;"/><text fill="#000000" font-family="sans-serif" font-size="13" lengthAdjust="spacing" textLength="28" x="398" y="154.6494">uses</text></g><!--link PlansService to PlansRepositoryBD--><g id="link_PlansService_PlansRepositoryBD"><path codeLine="41" d="M528,251.8611 C528,274.2411 528,298.9911 528,324.5911 " fill="none" id="PlansService-to-PlansRepositoryBD" style="stroke:#181818;stroke-width:1.0;stroke-dasharray:7.0,7.0;"/><polygon fill="#181818" points="528,330.5911,532,321.5911,528,325.5911,524,321.5911,528,330.5911" style="stroke:#181818;stroke-width:1.0;"/><polygon fill="#000000" points="533,296.2666,535.9389,287.2215,530.0611,287.2215,533,296.2666" style="stroke:#000000;stroke-width:1.0;"/><text fill="#000000" font-family="sans-serif" font-size="13" lengthAdjust="spacing" textLength="28" x="542" y="296.6494">uses</text></g><!--link PlansRepositoryBD to Plans--><g id="link_PlansRepositoryBD_Plans"><path codeLine="42" d="M528,428.6211 C528,451.2811 528,473.4711 528,501.5611 " fill="none" id="PlansRepositoryBD-to-Plans" style="stroke:#181818;stroke-width:1.0;stroke-dasharray:7.0,7.0;"/><polygon fill="#181818" points="528,507.5611,532,498.5611,528,502.5611,524,498.5611,528,507.5611" style="stroke:#181818;stroke-width:1.0;"/><polygon fill="#000000" points="533,463.2666,530.0611,472.3117,535.9389,472.3117,533,463.2666" style="stroke:#000000;stroke-width:1.0;"/><text fill="#000000" font-family="sans-serif" font-size="13" lengthAdjust="spacing" textLength="36" x="542" y="473.6494">record</text></g><!--link PlansController to PlansViewMapper--><g id="link_PlansController_PlansViewMapper"><path codeLine="43" d="M193,109.8411 C186.17,133.1911 178.4958,159.3828 171.6658,182.7128 " fill="none" id="PlansController-to-PlansViewMapper" style="stroke:#181818;stroke-width:1.0;stroke-dasharray:7.0,7.0;"/><polygon fill="#181818" points="169.98,188.4711,176.3475,180.9575,171.3848,183.6725,168.6698,178.7098,169.98,188.4711" style="stroke:#181818;stroke-width:1.0;"/><polygon fill="#000000" points="187.5951,154.0652,192.9571,146.2102,187.316,144.5587,187.5951,154.0652" style="stroke:#000000;stroke-width:1.0;"/><text fill="#000000" font-family="sans-serif" font-size="13" lengthAdjust="spacing" textLength="28" x="198" y="154.6494">uses</text></g><!--SRC=[VLFBRjim4BppA_PM6qxiks08Q9mKwC594QEv5YovjXUXI85SEJ62_djNJqj9MXu4SZYSdNteov6vJDbgLJhjkIhSqeHYPPnEwTgIFaHTg2DP14FHE5JD3VmGSdh4CYJY4Cytjx1UasUCUsqmpvLYOeUmQSYthGoiu6k2hOxFoEGFO2cYaTTNy1rU93Pm08lQC9qq8-WcY98r2lccGDQrrmMsEtcHJAIIAVWEyLNn6-F3Vak-OamjMkXNAghYlhlxcJ3sDrKYimdEYPbUf4DtrU60QOHgxoljlY7shE3vwCuNe77V7yeOYi1es-FYajjiJruxSA6k0YQfWtqIFn9d3XcS0bdrPvpr4-7BLfSbnZR_1OS1dpKxgBkNvja0JmKsuZFMANO2dvZPSQoRKbTsdZrYAeDFUEUbZ-Vre9ethoVIEumdCYYw_zMyWd_dtBfMObaDC_HnmjIRMeY6lJdVYzwl-ZERc8Q7PWgqQ_tcQf7qIJY0JHPrQTToU6NqjZEVrp7LknB1SfbFSikWIfWWLsFmmXgRd58dFyZ05niWan-Y_IpokuRtWdy1]--></g></svg>