<?xml version="1.0" encoding="us-ascii" standalone="no"?><svg xmlns="http://www.w3.org/2000/svg" xmlns:xlink="http://www.w3.org/1999/xlink" contentStyleType="text/css" height="284px" preserveAspectRatio="none" style="width:700px;height:284px;background:#FFFFFF;" version="1.1" viewBox="0 0 700 284" width="700px" zoomAndPan="magnify"><defs/><g><text fill="#000000" font-family="sans-serif" font-size="14" font-weight="bold" lengthAdjust="spacing" textLength="324" x="187.25" y="30.1074">Software Design Document - Deactivate a Plan</text><rect fill="#FFFFFF" height="128.8096" style="stroke:#181818;stroke-width:1.0;" width="10" x="629" y="88.2422"/><line style="stroke:#181818;stroke-width:0.5;stroke-dasharray:5.0,5.0;" x1="59" x2="59" y1="78.2422" y2="246.6973"/><line style="stroke:#181818;stroke-width:0.5;stroke-dasharray:5.0,5.0;" x1="178" x2="178" y1="78.2422" y2="246.6973"/><line style="stroke:#181818;stroke-width:0.5;stroke-dasharray:5.0,5.0;" x1="303" x2="303" y1="78.2422" y2="246.6973"/><line style="stroke:#181818;stroke-width:0.5;stroke-dasharray:5.0,5.0;" x1="434" x2="434" y1="78.2422" y2="246.6973"/><line style="stroke:#181818;stroke-width:0.5;stroke-dasharray:5.0,5.0;" x1="633.5" x2="633.5" y1="78.2422" y2="246.6973"/><rect fill="#E2E2F0" height="32.6211" rx="2.5" ry="2.5" style="stroke:#181818;stroke-width:0.5;" width="108" x="5" y="44.6211"/><text fill="#000000" font-family="sans-serif" font-size="14" lengthAdjust="spacing" textLength="94" x="12" y="66.7285">planC[n]:planC</text><rect fill="#E2E2F0" height="32.6211" rx="2.5" ry="2.5" style="stroke:#181818;stroke-width:0.5;" width="108" x="5" y="245.6973"/><text fill="#000000" font-family="sans-serif" font-size="14" lengthAdjust="spacing" textLength="94" x="12" y="267.8047">planC[n]:planC</text><rect fill="#E2E2F0" height="32.6211" rx="2.5" ry="2.5" style="stroke:#181818;stroke-width:0.5;" width="111" x="123" y="44.6211"/><text fill="#000000" font-family="sans-serif" font-size="14" lengthAdjust="spacing" textLength="97" x="130" y="66.7285">PlanQ[n]:planQ</text><rect fill="#E2E2F0" height="32.6211" rx="2.5" ry="2.5" style="stroke:#181818;stroke-width:0.5;" width="111" x="123" y="245.6973"/><text fill="#000000" font-family="sans-serif" font-size="14" lengthAdjust="spacing" textLength="97" x="130" y="267.8047">PlanQ[n]:planQ</text><rect fill="#E2E2F0" height="32.6211" rx="2.5" ry="2.5" style="stroke:#181818;stroke-width:0.5;" width="118" x="244" y="44.6211"/><text fill="#000000" font-family="sans-serif" font-size="14" lengthAdjust="spacing" textLength="104" x="251" y="66.7285">SubsC[n]:SubsC</text><rect fill="#E2E2F0" height="32.6211" rx="2.5" ry="2.5" style="stroke:#181818;stroke-width:0.5;" width="118" x="244" y="245.6973"/><text fill="#000000" font-family="sans-serif" font-size="14" lengthAdjust="spacing" textLength="104" x="251" y="267.8047">SubsC[n]:SubsC</text><rect fill="#E2E2F0" height="32.6211" rx="2.5" ry="2.5" style="stroke:#181818;stroke-width:0.5;" width="124" x="372" y="44.6211"/><text fill="#000000" font-family="sans-serif" font-size="14" lengthAdjust="spacing" textLength="110" x="379" y="66.7285">SubsQ[n]:SubsQ:</text><rect fill="#E2E2F0" height="32.6211" rx="2.5" ry="2.5" style="stroke:#181818;stroke-width:0.5;" width="124" x="372" y="245.6973"/><text fill="#000000" font-family="sans-serif" font-size="14" lengthAdjust="spacing" textLength="110" x="379" y="267.8047">SubsQ[n]:SubsQ:</text><rect fill="#E2E2F0" height="32.6211" rx="2.5" ry="2.5" style="stroke:#181818;stroke-width:0.5;" width="121" x="573.5" y="44.6211"/><text fill="#000000" font-family="sans-serif" font-size="14" lengthAdjust="spacing" textLength="107" x="580.5" y="66.7285">Message Broker:</text><rect fill="#E2E2F0" height="32.6211" rx="2.5" ry="2.5" style="stroke:#181818;stroke-width:0.5;" width="121" x="573.5" y="245.6973"/><text fill="#000000" font-family="sans-serif" font-size="14" lengthAdjust="spacing" textLength="107" x="580.5" y="267.8047">Message Broker:</text><rect fill="#FFFFFF" height="128.8096" style="stroke:#181818;stroke-width:1.0;" width="10" x="629" y="88.2422"/><polygon fill="#181818" points="617,107.5332,627,111.5332,617,115.5332,621,111.5332" style="stroke:#181818;stroke-width:1.0;"/><line style="stroke:#181818;stroke-width:1.0;" x1="59" x2="623" y1="111.5332" y2="111.5332"/><text fill="#000000" font-family="sans-serif" font-size="13" font-weight="bold" lengthAdjust="spacing" textLength="7" x="66" y="106.2705">1</text><text fill="#000000" font-family="sans-serif" font-size="13" lengthAdjust="spacing" textLength="160" x="77" y="106.2705">subscribe(deactivated_plan)</text><polygon fill="#181818" points="617,138.8242,627,142.8242,617,146.8242,621,142.8242" style="stroke:#181818;stroke-width:1.0;"/><line style="stroke:#181818;stroke-width:1.0;" x1="178.5" x2="623" y1="142.8242" y2="142.8242"/><text fill="#000000" font-family="sans-serif" font-size="13" font-weight="bold" lengthAdjust="spacing" textLength="7" x="185.5" y="137.5615">2</text><text fill="#000000" font-family="sans-serif" font-size="13" lengthAdjust="spacing" textLength="160" x="196.5" y="137.5615">subscribe(deactivated_plan)</text><polygon fill="#181818" points="617,170.1152,627,174.1152,617,178.1152,621,174.1152" style="stroke:#181818;stroke-width:1.0;"/><line style="stroke:#181818;stroke-width:1.0;" x1="303" x2="623" y1="174.1152" y2="174.1152"/><text fill="#000000" font-family="sans-serif" font-size="13" font-weight="bold" lengthAdjust="spacing" textLength="7" x="310" y="168.8525">3</text><text fill="#000000" font-family="sans-serif" font-size="13" lengthAdjust="spacing" textLength="160" x="321" y="168.8525">subscribe(deactivated_plan)</text><polygon fill="#181818" points="622,213.0518,632,217.0518,622,221.0518,626,217.0518" style="stroke:#181818;stroke-width:1.0;"/><line style="stroke:#181818;stroke-width:1.0;" x1="434" x2="628" y1="217.0518" y2="217.0518"/><text fill="#000000" font-family="sans-serif" font-size="13" font-weight="bold" lengthAdjust="spacing" textLength="7" x="441" y="211.7891">4</text><text fill="#000000" font-family="sans-serif" font-size="13" lengthAdjust="spacing" textLength="160" x="452" y="211.7891">subscribe(deactivated_plan)</text><path d="M246,187.1152 L246,231.1152 L429,231.1152 L429,197.1152 L419,187.1152 L246,187.1152 " fill="#FEFFDD" style="stroke:#181818;stroke-width:0.5;"/><path d="M419,187.1152 L419,197.1152 L429,197.1152 L419,187.1152 " fill="#FEFFDD" style="stroke:#181818;stroke-width:0.5;"/><text fill="#000000" font-family="sans-serif" font-size="13" lengthAdjust="spacing" textLength="162" x="252" y="206.1436">[n] represents the instances</text><text fill="#000000" font-family="sans-serif" font-size="13" lengthAdjust="spacing" textLength="121" x="252" y="223.4346">it can be n instances</text><!--SRC=[ZP6nRiCm34HtVWMHfUsG7_3GeSvQm8B6eYWecKc5sfGWqStlHxQHj6aNRyV3uu47Fj2aqSSn3QoCKM2UPHeTPm0DEZ3QUDGpPSO3bt0IF4G_ZIoA- -gGr_1DTPMm6qW04cKDFYIgm2vLgtsJzsOHEwI2NNkFp5lcYfWLCVU8dLnPKXQn8BRzZvWhOfgL-HFpogNGYV4bno_EApCwW5k5EdGjxf-hm0PBJV8vE7xiRotxZ_dA9-ZC9inkIxFRqdwSvMo9LGnyLAYzCNFANEfN2kedOv2Y99uB14LFWevHVhaiFSu1S040]--></g></svg>