<?xml version="1.0" encoding="us-ascii" standalone="no"?><svg xmlns="http://www.w3.org/2000/svg" xmlns:xlink="http://www.w3.org/1999/xlink" contentStyleType="text/css" height="628px" preserveAspectRatio="none" style="width:1243px;height:628px;background:#FFFFFF;" version="1.1" viewBox="0 0 1243 628" width="1243px" zoomAndPan="magnify"><defs/><g><text fill="#000000" font-family="sans-serif" font-size="14" font-weight="bold" lengthAdjust="spacing" textLength="483" x="379.25" y="30.1074">Sequence Diagram/ As Marketing director, I want to deactivate a plan</text><rect fill="#FFFFFF" height="370.7832" style="stroke:#181818;stroke-width:1.0;" width="10" x="280" y="156.5332"/><rect fill="#FFFFFF" height="308.2012" style="stroke:#181818;stroke-width:1.0;" width="10" x="502" y="187.8242"/><rect fill="#FFFFFF" height="60.2275" style="stroke:#181818;stroke-width:1.0;" width="10" x="923" y="219.1152"/><rect fill="#FFFFFF" height="31.291" style="stroke:#181818;stroke-width:1.0;" width="10" x="923" y="402.1523"/><rect fill="#FFFFFF" height="31.291" style="stroke:#181818;stroke-width:1.0;" width="10" x="1206" y="339.5703"/><line style="stroke:#181818;stroke-width:0.5;stroke-dasharray:5.0,5.0;" x1="66" x2="66" y1="123.2422" y2="545.3164"/><line style="stroke:#181818;stroke-width:0.5;stroke-dasharray:5.0,5.0;" x1="285" x2="285" y1="123.2422" y2="545.3164"/><line style="stroke:#181818;stroke-width:0.5;stroke-dasharray:5.0,5.0;" x1="507" x2="507" y1="123.2422" y2="545.3164"/><line style="stroke:#181818;stroke-width:0.5;stroke-dasharray:5.0,5.0;" x1="927.5" x2="927.5" y1="123.2422" y2="545.3164"/><line style="stroke:#181818;stroke-width:0.5;stroke-dasharray:5.0,5.0;" x1="1086.5" x2="1086.5" y1="123.2422" y2="545.3164"/><line style="stroke:#181818;stroke-width:0.5;stroke-dasharray:5.0,5.0;" x1="1210.5" x2="1210.5" y1="123.2422" y2="545.3164"/><text fill="#000000" font-family="sans-serif" font-size="14" lengthAdjust="spacing" textLength="116" x="5" y="119.7285">Marketing Director</text><ellipse cx="66" cy="53.1211" fill="#E2E2F0" rx="8" ry="8" style="stroke:#181818;stroke-width:0.5;"/><path d="M66,61.1211 L66,88.1211 M53,69.1211 L79,69.1211 M66,88.1211 L53,103.1211 M66,88.1211 L79,103.1211 " fill="none" style="stroke:#181818;stroke-width:0.5;"/><text fill="#000000" font-family="sans-serif" font-size="14" lengthAdjust="spacing" textLength="116" x="5" y="559.4238">Marketing Director</text><ellipse cx="66" cy="571.4375" fill="#E2E2F0" rx="8" ry="8" style="stroke:#181818;stroke-width:0.5;"/><path d="M66,579.4375 L66,606.4375 M53,587.4375 L79,587.4375 M66,606.4375 L53,621.4375 M66,606.4375 L79,621.4375 " fill="none" style="stroke:#181818;stroke-width:0.5;"/><rect fill="#E2E2F0" height="32.6211" rx="2.5" ry="2.5" style="stroke:#181818;stroke-width:0.5;" width="108" x="231" y="89.6211"/><text fill="#000000" font-family="sans-serif" font-size="14" lengthAdjust="spacing" textLength="94" x="238" y="111.7285">:PlanController</text><rect fill="#E2E2F0" height="32.6211" rx="2.5" ry="2.5" style="stroke:#181818;stroke-width:0.5;" width="108" x="231" y="544.3164"/><text fill="#000000" font-family="sans-serif" font-size="14" lengthAdjust="spacing" textLength="94" x="238" y="566.4238">:PlanController</text><rect fill="#E2E2F0" height="32.6211" rx="2.5" ry="2.5" style="stroke:#181818;stroke-width:0.5;" width="100" x="457" y="89.6211"/><text fill="#000000" font-family="sans-serif" font-size="14" lengthAdjust="spacing" textLength="86" x="464" y="111.7285">:PlansService</text><rect fill="#E2E2F0" height="32.6211" rx="2.5" ry="2.5" style="stroke:#181818;stroke-width:0.5;" width="100" x="457" y="544.3164"/><text fill="#000000" font-family="sans-serif" font-size="14" lengthAdjust="spacing" textLength="86" x="464" y="566.4238">:PlansService</text><rect fill="#E2E2F0" height="32.6211" rx="2.5" ry="2.5" style="stroke:#181818;stroke-width:0.5;" width="121" x="867.5" y="89.6211"/><text fill="#000000" font-family="sans-serif" font-size="14" lengthAdjust="spacing" textLength="107" x="874.5" y="111.7285">:PlansRepository</text><rect fill="#E2E2F0" height="32.6211" rx="2.5" ry="2.5" style="stroke:#181818;stroke-width:0.5;" width="121" x="867.5" y="544.3164"/><text fill="#000000" font-family="sans-serif" font-size="14" lengthAdjust="spacing" textLength="107" x="874.5" y="566.4238">:PlansRepository</text><rect fill="#E2E2F0" height="32.6211" rx="2.5" ry="2.5" style="stroke:#181818;stroke-width:0.5;" width="176" x="998.5" y="89.6211"/><text fill="#000000" font-family="sans-serif" font-size="14" lengthAdjust="spacing" textLength="162" x="1005.5" y="111.7285">:CreatePlanJsonProducer</text><rect fill="#E2E2F0" height="32.6211" rx="2.5" ry="2.5" style="stroke:#181818;stroke-width:0.5;" width="176" x="998.5" y="544.3164"/><text fill="#000000" font-family="sans-serif" font-size="14" lengthAdjust="spacing" textLength="162" x="1005.5" y="566.4238">:CreatePlanJsonProducer</text><rect fill="#E2E2F0" height="32.6211" rx="2.5" ry="2.5" style="stroke:#181818;stroke-width:0.5;" width="53" x="1184.5" y="89.6211"/><text fill="#000000" font-family="sans-serif" font-size="14" lengthAdjust="spacing" textLength="39" x="1191.5" y="111.7285">:Plans</text><rect fill="#E2E2F0" height="32.6211" rx="2.5" ry="2.5" style="stroke:#181818;stroke-width:0.5;" width="53" x="1184.5" y="544.3164"/><text fill="#000000" font-family="sans-serif" font-size="14" lengthAdjust="spacing" textLength="39" x="1191.5" y="566.4238">:Plans</text><rect fill="#FFFFFF" height="370.7832" style="stroke:#181818;stroke-width:1.0;" width="10" x="280" y="156.5332"/><rect fill="#FFFFFF" height="308.2012" style="stroke:#181818;stroke-width:1.0;" width="10" x="502" y="187.8242"/><rect fill="#FFFFFF" height="60.2275" style="stroke:#181818;stroke-width:1.0;" width="10" x="923" y="219.1152"/><rect fill="#FFFFFF" height="31.291" style="stroke:#181818;stroke-width:1.0;" width="10" x="923" y="402.1523"/><rect fill="#FFFFFF" height="31.291" style="stroke:#181818;stroke-width:1.0;" width="10" x="1206" y="339.5703"/><polygon fill="#181818" points="268,152.5332,278,156.5332,268,160.5332,272,156.5332" style="stroke:#181818;stroke-width:1.0;"/><line style="stroke:#181818;stroke-width:1.0;" x1="66" x2="274" y1="156.5332" y2="156.5332"/><text fill="#000000" font-family="sans-serif" font-size="13" font-weight="bold" lengthAdjust="spacing" textLength="7" x="73" y="151.2705">1</text><text fill="#000000" font-family="sans-serif" font-size="13" lengthAdjust="spacing" textLength="184" x="84" y="151.2705">PATCH/plans/deactivate/{name}</text><polygon fill="#181818" points="490,183.8242,500,187.8242,490,191.8242,494,187.8242" style="stroke:#181818;stroke-width:1.0;"/><line style="stroke:#181818;stroke-width:1.0;" x1="290" x2="496" y1="187.8242" y2="187.8242"/><text fill="#000000" font-family="sans-serif" font-size="13" font-weight="bold" lengthAdjust="spacing" textLength="7" x="297" y="182.5615">2</text><text fill="#000000" font-family="sans-serif" font-size="13" lengthAdjust="spacing" textLength="182" x="308" y="182.5615">Plans plans = deactivate(name)</text><polygon fill="#181818" points="911,215.1152,921,219.1152,911,223.1152,915,219.1152" style="stroke:#181818;stroke-width:1.0;"/><line style="stroke:#181818;stroke-width:1.0;" x1="512" x2="917" y1="219.1152" y2="219.1152"/><text fill="#000000" font-family="sans-serif" font-size="13" font-weight="bold" lengthAdjust="spacing" textLength="7" x="519" y="213.8525">3</text><text fill="#000000" font-family="sans-serif" font-size="13" lengthAdjust="spacing" textLength="381" x="530" y="213.8525">Optional&lt;Plans&gt; plans = findByName_Name(resource.getName())</text><polygon fill="#181818" points="523,275.3428,513,279.3428,523,283.3428,519,279.3428" style="stroke:#181818;stroke-width:1.0;"/><line style="stroke:#181818;stroke-width:1.0;stroke-dasharray:2.0,2.0;" x1="517" x2="927" y1="279.3428" y2="279.3428"/><text fill="#000000" font-family="sans-serif" font-size="13" font-weight="bold" lengthAdjust="spacing" textLength="7" x="529" y="274.0801">4</text><text fill="#000000" font-family="sans-serif" font-size="13" lengthAdjust="spacing" textLength="31" x="540" y="274.0801">plans</text><path d="M233,232.1152 L233,311.1152 L497,311.1152 L497,242.1152 L487,232.1152 L233,232.1152 " fill="#FEFFDD" style="stroke:#181818;stroke-width:0.5;"/><path d="M487,232.1152 L487,242.1152 L497,242.1152 L487,232.1152 " fill="#FEFFDD" style="stroke:#181818;stroke-width:0.5;"/><text fill="#000000" font-family="sans-serif" font-size="13" lengthAdjust="spacing" textLength="195" x="239" y="251.1436">1) Service will check if plan exists</text><text fill="#000000" font-family="sans-serif" font-size="13" lengthAdjust="spacing" textLength="4" x="239" y="268.4346">&#160;</text><text fill="#000000" font-family="sans-serif" font-size="13" lengthAdjust="spacing" textLength="90" x="239" y="285.7256">If 1 comes true,</text><text fill="#000000" font-family="sans-serif" font-size="13" lengthAdjust="spacing" textLength="243" x="239" y="303.0166">Service will trow IllegalArgumentException</text><polygon fill="#181818" points="1194,335.5703,1204,339.5703,1194,343.5703,1198,339.5703" style="stroke:#181818;stroke-width:1.0;"/><line style="stroke:#181818;stroke-width:1.0;" x1="512" x2="1200" y1="339.5703" y2="339.5703"/><text fill="#000000" font-family="sans-serif" font-size="13" font-weight="bold" lengthAdjust="spacing" textLength="7" x="519" y="334.3076">5</text><text fill="#000000" font-family="sans-serif" font-size="13" lengthAdjust="spacing" textLength="94" x="530" y="334.3076">plan.deactivate()</text><polygon fill="#181818" points="523,366.8613,513,370.8613,523,374.8613,519,370.8613" style="stroke:#181818;stroke-width:1.0;"/><line style="stroke:#181818;stroke-width:1.0;stroke-dasharray:2.0,2.0;" x1="517" x2="1210" y1="370.8613" y2="370.8613"/><text fill="#000000" font-family="sans-serif" font-size="13" font-weight="bold" lengthAdjust="spacing" textLength="7" x="529" y="365.5986">6</text><text fill="#000000" font-family="sans-serif" font-size="13" lengthAdjust="spacing" textLength="24" x="540" y="365.5986">plan</text><polygon fill="#181818" points="911,398.1523,921,402.1523,911,406.1523,915,402.1523" style="stroke:#181818;stroke-width:1.0;"/><line style="stroke:#181818;stroke-width:1.0;" x1="512" x2="917" y1="402.1523" y2="402.1523"/><text fill="#000000" font-family="sans-serif" font-size="13" font-weight="bold" lengthAdjust="spacing" textLength="7" x="519" y="396.8896">7</text><text fill="#000000" font-family="sans-serif" font-size="13" lengthAdjust="spacing" textLength="51" x="530" y="396.8896">save(obj)</text><polygon fill="#181818" points="523,429.4434,513,433.4434,523,437.4434,519,433.4434" style="stroke:#181818;stroke-width:1.0;"/><line style="stroke:#181818;stroke-width:1.0;stroke-dasharray:2.0,2.0;" x1="517" x2="927" y1="433.4434" y2="433.4434"/><text fill="#000000" font-family="sans-serif" font-size="13" font-weight="bold" lengthAdjust="spacing" textLength="7" x="529" y="428.1807">8</text><text fill="#000000" font-family="sans-serif" font-size="13" lengthAdjust="spacing" textLength="24" x="540" y="428.1807">plan</text><polygon fill="#181818" points="1069.5,460.7344,1079.5,464.7344,1069.5,468.7344,1073.5,464.7344" style="stroke:#181818;stroke-width:1.0;"/><line style="stroke:#181818;stroke-width:1.0;" x1="512" x2="1075.5" y1="464.7344" y2="464.7344"/><text fill="#000000" font-family="sans-serif" font-size="13" font-weight="bold" lengthAdjust="spacing" textLength="7" x="519" y="459.4717">9</text><text fill="#000000" font-family="sans-serif" font-size="13" lengthAdjust="spacing" textLength="106" x="530" y="459.4717">sendMessage(obj)</text><polygon fill="#181818" points="301,492.0254,291,496.0254,301,500.0254,297,496.0254" style="stroke:#181818;stroke-width:1.0;"/><line style="stroke:#181818;stroke-width:1.0;stroke-dasharray:2.0,2.0;" x1="295" x2="506" y1="496.0254" y2="496.0254"/><text fill="#000000" font-family="sans-serif" font-size="13" font-weight="bold" lengthAdjust="spacing" textLength="14" x="307" y="490.7627">10</text><text fill="#000000" font-family="sans-serif" font-size="13" lengthAdjust="spacing" textLength="24" x="325" y="490.7627">plan</text><polygon fill="#181818" points="77,523.3164,67,527.3164,77,531.3164,73,527.3164" style="stroke:#181818;stroke-width:1.0;"/><line style="stroke:#181818;stroke-width:1.0;stroke-dasharray:2.0,2.0;" x1="71" x2="284" y1="527.3164" y2="527.3164"/><text fill="#000000" font-family="sans-serif" font-size="13" font-weight="bold" lengthAdjust="spacing" textLength="14" x="83" y="522.0537">11</text><text fill="#000000" font-family="sans-serif" font-size="13" lengthAdjust="spacing" textLength="24" x="101" y="522.0537">plan</text><!--SRC=[RP91Rzim38Nl-XL4Bes1EaQlHbV0JGSq1R85w-w3AZEkLbdI93ffCUo_Jv8LroroCIpvUu-Ff2-UYQolgyeghcderKgOllBuPq0ji6mbxnpl6H_8S47om0d1w7JMG_-4Zf4aXV2O5N0tAYfeF6ovUq6IkeDMEXHat2Liu1WA0HbeSNBa4CkpkItZaOV5kyTTzbW0zz08PhaZAQIDTejw5mpMHfCpIk78hCcfCvH_H7UG0XCJtyynFz0QBqErjuJ5uoTixJ14Z_23DthdJ3k8NDZcmpdZ16ovjR77Ha1vat923Rlcv_e-xS5NxxEf_chUup-Me037m31QfQ5v-3ARv3B21KjGW6DigBzRaaPpTPrKDvDiBtLx-_OjA7x5nzAXDuCJkEgGqaLHiEHGJdL7BTCcB4tXdjXL0NcSS9HAWNX6yG9odq30L-d9CxRPmnM47miza1lmadtGX9qTOHFMrd7Lk6xeKTFNLu4fDaFTGgmtDJKE3-fOOJLhlM3voodkc9RD_hDfCVC1rU3v0PVcwVUdThD-Wa_gC0OVKctHUzvbOORoDhCohFUwB4_xJLV_0G00]--></g></svg>