<?xml version="1.0" encoding="us-ascii" standalone="no"?><svg xmlns="http://www.w3.org/2000/svg" xmlns:xlink="http://www.w3.org/1999/xlink" contentStyleType="text/css" height="690px" preserveAspectRatio="none" style="width:944px;height:690px;background:#FFFFFF;" version="1.1" viewBox="0 0 944 690" width="944px" zoomAndPan="magnify"><defs/><g><text fill="#000000" font-family="sans-serif" font-size="14" font-weight="bold" lengthAdjust="spacing" textLength="324" x="309.25" y="30.1074">Software Design Document - Deactivate a Plan</text><rect fill="#FFFFFF" height="130.1641" style="stroke:#181818;stroke-width:1.0;" width="10" x="284" y="156.5332"/><rect fill="#FFFFFF" height="37.291" style="stroke:#181818;stroke-width:1.0;" width="10" x="284" y="317.9883"/><rect fill="#FFFFFF" height="37.291" style="stroke:#181818;stroke-width:1.0;" width="10" x="403.5" y="393.5703"/><rect fill="#FFFFFF" height="37.291" style="stroke:#181818;stroke-width:1.0;" width="10" x="528" y="469.1523"/><rect fill="#FFFFFF" height="53.291" style="stroke:#181818;stroke-width:1.0;" width="10" x="659" y="544.7344"/><rect fill="#FFFFFF" height="338.2646" style="stroke:#181818;stroke-width:1.0;" width="10" x="873" y="243.7607"/><line style="stroke:#181818;stroke-width:0.5;stroke-dasharray:5.0,5.0;" x1="66" x2="66" y1="123.2422" y2="607.0254"/><line style="stroke:#181818;stroke-width:0.5;stroke-dasharray:5.0,5.0;" x1="289" x2="289" y1="123.2422" y2="607.0254"/><line style="stroke:#181818;stroke-width:0.5;stroke-dasharray:5.0,5.0;" x1="408" x2="408" y1="123.2422" y2="607.0254"/><line style="stroke:#181818;stroke-width:0.5;stroke-dasharray:5.0,5.0;" x1="533" x2="533" y1="123.2422" y2="607.0254"/><line style="stroke:#181818;stroke-width:0.5;stroke-dasharray:5.0,5.0;" x1="664" x2="664" y1="123.2422" y2="607.0254"/><line style="stroke:#181818;stroke-width:0.5;stroke-dasharray:5.0,5.0;" x1="877.5" x2="877.5" y1="123.2422" y2="607.0254"/><text fill="#000000" font-family="sans-serif" font-size="14" lengthAdjust="spacing" textLength="116" x="5" y="119.7285">Marketing Director</text><ellipse cx="66" cy="53.1211" fill="#E2E2F0" rx="8" ry="8" style="stroke:#181818;stroke-width:0.5;"/><path d="M66,61.1211 L66,88.1211 M53,69.1211 L79,69.1211 M66,88.1211 L53,103.1211 M66,88.1211 L79,103.1211 " fill="none" style="stroke:#181818;stroke-width:0.5;"/><text fill="#000000" font-family="sans-serif" font-size="14" lengthAdjust="spacing" textLength="116" x="5" y="621.1328">Marketing Director</text><ellipse cx="66" cy="633.1465" fill="#E2E2F0" rx="8" ry="8" style="stroke:#181818;stroke-width:0.5;"/><path d="M66,641.1465 L66,668.1465 M53,649.1465 L79,649.1465 M66,668.1465 L53,683.1465 M66,668.1465 L79,683.1465 " fill="none" style="stroke:#181818;stroke-width:0.5;"/><rect fill="#E2E2F0" height="32.6211" rx="2.5" ry="2.5" style="stroke:#181818;stroke-width:0.5;" width="108" x="235" y="89.6211"/><text fill="#000000" font-family="sans-serif" font-size="14" lengthAdjust="spacing" textLength="94" x="242" y="111.7285">planC[n]:planC</text><rect fill="#E2E2F0" height="32.6211" rx="2.5" ry="2.5" style="stroke:#181818;stroke-width:0.5;" width="108" x="235" y="606.0254"/><text fill="#000000" font-family="sans-serif" font-size="14" lengthAdjust="spacing" textLength="94" x="242" y="628.1328">planC[n]:planC</text><rect fill="#E2E2F0" height="32.6211" rx="2.5" ry="2.5" style="stroke:#181818;stroke-width:0.5;" width="111" x="353" y="89.6211"/><text fill="#000000" font-family="sans-serif" font-size="14" lengthAdjust="spacing" textLength="97" x="360" y="111.7285">PlanQ[n]:planQ</text><rect fill="#E2E2F0" height="32.6211" rx="2.5" ry="2.5" style="stroke:#181818;stroke-width:0.5;" width="111" x="353" y="606.0254"/><text fill="#000000" font-family="sans-serif" font-size="14" lengthAdjust="spacing" textLength="97" x="360" y="628.1328">PlanQ[n]:planQ</text><rect fill="#E2E2F0" height="32.6211" rx="2.5" ry="2.5" style="stroke:#181818;stroke-width:0.5;" width="118" x="474" y="89.6211"/><text fill="#000000" font-family="sans-serif" font-size="14" lengthAdjust="spacing" textLength="104" x="481" y="111.7285">SubsC[n]:SubsC</text><rect fill="#E2E2F0" height="32.6211" rx="2.5" ry="2.5" style="stroke:#181818;stroke-width:0.5;" width="118" x="474" y="606.0254"/><text fill="#000000" font-family="sans-serif" font-size="14" lengthAdjust="spacing" textLength="104" x="481" y="628.1328">SubsC[n]:SubsC</text><rect fill="#E2E2F0" height="32.6211" rx="2.5" ry="2.5" style="stroke:#181818;stroke-width:0.5;" width="124" x="602" y="89.6211"/><text fill="#000000" font-family="sans-serif" font-size="14" lengthAdjust="spacing" textLength="110" x="609" y="111.7285">SubsQ[n]:SubsQ:</text><rect fill="#E2E2F0" height="32.6211" rx="2.5" ry="2.5" style="stroke:#181818;stroke-width:0.5;" width="124" x="602" y="606.0254"/><text fill="#000000" font-family="sans-serif" font-size="14" lengthAdjust="spacing" textLength="110" x="609" y="628.1328">SubsQ[n]:SubsQ:</text><rect fill="#E2E2F0" height="32.6211" rx="2.5" ry="2.5" style="stroke:#181818;stroke-width:0.5;" width="121" x="817.5" y="89.6211"/><text fill="#000000" font-family="sans-serif" font-size="14" lengthAdjust="spacing" textLength="107" x="824.5" y="111.7285">Message Broker:</text><rect fill="#E2E2F0" height="32.6211" rx="2.5" ry="2.5" style="stroke:#181818;stroke-width:0.5;" width="121" x="817.5" y="606.0254"/><text fill="#000000" font-family="sans-serif" font-size="14" lengthAdjust="spacing" textLength="107" x="824.5" y="628.1328">Message Broker:</text><rect fill="#FFFFFF" height="130.1641" style="stroke:#181818;stroke-width:1.0;" width="10" x="284" y="156.5332"/><rect fill="#FFFFFF" height="37.291" style="stroke:#181818;stroke-width:1.0;" width="10" x="284" y="317.9883"/><rect fill="#FFFFFF" height="37.291" style="stroke:#181818;stroke-width:1.0;" width="10" x="403.5" y="393.5703"/><rect fill="#FFFFFF" height="37.291" style="stroke:#181818;stroke-width:1.0;" width="10" x="528" y="469.1523"/><rect fill="#FFFFFF" height="53.291" style="stroke:#181818;stroke-width:1.0;" width="10" x="659" y="544.7344"/><rect fill="#FFFFFF" height="338.2646" style="stroke:#181818;stroke-width:1.0;" width="10" x="873" y="243.7607"/><polygon fill="#181818" points="272,152.5332,282,156.5332,272,160.5332,276,156.5332" style="stroke:#181818;stroke-width:1.0;"/><line style="stroke:#181818;stroke-width:1.0;" x1="66" x2="278" y1="156.5332" y2="156.5332"/><text fill="#000000" font-family="sans-serif" font-size="13" font-weight="bold" lengthAdjust="spacing" textLength="7" x="73" y="151.2705">1</text><text fill="#000000" font-family="sans-serif" font-size="13" lengthAdjust="spacing" textLength="188" x="84" y="151.2705">PATCH /plans/deactivate/{name}</text><line style="stroke:#181818;stroke-width:1.0;" x1="294" x2="336" y1="187.8242" y2="187.8242"/><line style="stroke:#181818;stroke-width:1.0;" x1="336" x2="336" y1="187.8242" y2="200.8242"/><line style="stroke:#181818;stroke-width:1.0;" x1="295" x2="336" y1="200.8242" y2="200.8242"/><polygon fill="#181818" points="305,196.8242,295,200.8242,305,204.8242,301,200.8242" style="stroke:#181818;stroke-width:1.0;"/><text fill="#000000" font-family="sans-serif" font-size="13" font-weight="bold" lengthAdjust="spacing" textLength="7" x="301" y="182.5615">2</text><text fill="#000000" font-family="sans-serif" font-size="13" lengthAdjust="spacing" textLength="58" x="312" y="182.5615">save(plan)</text><polygon fill="#181818" points="861,239.7607,871,243.7607,861,247.7607,865,243.7607" style="stroke:#181818;stroke-width:1.0;"/><line style="stroke:#181818;stroke-width:1.0;" x1="294" x2="867" y1="243.7607" y2="243.7607"/><text fill="#000000" font-family="sans-serif" font-size="13" font-weight="bold" lengthAdjust="spacing" textLength="7" x="301" y="238.498">3</text><text fill="#000000" font-family="sans-serif" font-size="13" lengthAdjust="spacing" textLength="177" x="312" y="238.498">publish(deactivated_plan, plan)</text><path d="M96,213.8242 L96,257.8242 L279,257.8242 L279,223.8242 L269,213.8242 L96,213.8242 " fill="#FEFFDD" style="stroke:#181818;stroke-width:0.5;"/><path d="M269,213.8242 L269,223.8242 L279,223.8242 L269,213.8242 " fill="#FEFFDD" style="stroke:#181818;stroke-width:0.5;"/><text fill="#000000" font-family="sans-serif" font-size="13" lengthAdjust="spacing" textLength="162" x="102" y="232.8525">[n] represents the instances</text><text fill="#000000" font-family="sans-serif" font-size="13" lengthAdjust="spacing" textLength="121" x="102" y="250.1436">it can be n instances</text><polygon fill="#181818" points="77,282.6973,67,286.6973,77,290.6973,73,286.6973" style="stroke:#181818;stroke-width:1.0;"/><line style="stroke:#181818;stroke-width:1.0;stroke-dasharray:2.0,2.0;" x1="71" x2="288" y1="286.6973" y2="286.6973"/><text fill="#000000" font-family="sans-serif" font-size="13" font-weight="bold" lengthAdjust="spacing" textLength="7" x="83" y="281.4346">4</text><text fill="#000000" font-family="sans-serif" font-size="13" lengthAdjust="spacing" textLength="170" x="94" y="281.4346">informs operation (in)success</text><polygon fill="#181818" points="305,313.9883,295,317.9883,305,321.9883,301,317.9883" style="stroke:#181818;stroke-width:1.0;"/><line style="stroke:#181818;stroke-width:1.0;" x1="299" x2="872" y1="317.9883" y2="317.9883"/><text fill="#000000" font-family="sans-serif" font-size="13" font-weight="bold" lengthAdjust="spacing" textLength="7" x="311" y="312.7256">5</text><text fill="#000000" font-family="sans-serif" font-size="13" lengthAdjust="spacing" textLength="167" x="322" y="312.7256">notify(deactivated_plan, plan)</text><line style="stroke:#181818;stroke-width:1.0;" x1="294" x2="336" y1="354.2793" y2="354.2793"/><line style="stroke:#181818;stroke-width:1.0;" x1="336" x2="336" y1="354.2793" y2="367.2793"/><line style="stroke:#181818;stroke-width:1.0;" x1="289" x2="336" y1="367.2793" y2="367.2793"/><polygon fill="#181818" points="299,363.2793,289,367.2793,299,371.2793,295,367.2793" style="stroke:#181818;stroke-width:1.0;"/><text fill="#000000" font-family="sans-serif" font-size="13" font-weight="bold" lengthAdjust="spacing" textLength="7" x="301" y="349.0166">6</text><text fill="#000000" font-family="sans-serif" font-size="13" lengthAdjust="spacing" textLength="58" x="312" y="349.0166">save(plan)</text><polygon fill="#181818" points="424.5,389.5703,414.5,393.5703,424.5,397.5703,420.5,393.5703" style="stroke:#181818;stroke-width:1.0;"/><line style="stroke:#181818;stroke-width:1.0;" x1="418.5" x2="872" y1="393.5703" y2="393.5703"/><text fill="#000000" font-family="sans-serif" font-size="13" font-weight="bold" lengthAdjust="spacing" textLength="7" x="430.5" y="388.3076">7</text><text fill="#000000" font-family="sans-serif" font-size="13" lengthAdjust="spacing" textLength="167" x="441.5" y="388.3076">notify(deactivated_plan, plan)</text><line style="stroke:#181818;stroke-width:1.0;" x1="413.5" x2="455.5" y1="429.8613" y2="429.8613"/><line style="stroke:#181818;stroke-width:1.0;" x1="455.5" x2="455.5" y1="429.8613" y2="442.8613"/><line style="stroke:#181818;stroke-width:1.0;" x1="408.5" x2="455.5" y1="442.8613" y2="442.8613"/><polygon fill="#181818" points="418.5,438.8613,408.5,442.8613,418.5,446.8613,414.5,442.8613" style="stroke:#181818;stroke-width:1.0;"/><text fill="#000000" font-family="sans-serif" font-size="13" font-weight="bold" lengthAdjust="spacing" textLength="7" x="420.5" y="424.5986">8</text><text fill="#000000" font-family="sans-serif" font-size="13" lengthAdjust="spacing" textLength="58" x="431.5" y="424.5986">save(plan)</text><polygon fill="#181818" points="549,465.1523,539,469.1523,549,473.1523,545,469.1523" style="stroke:#181818;stroke-width:1.0;"/><line style="stroke:#181818;stroke-width:1.0;" x1="543" x2="872" y1="469.1523" y2="469.1523"/><text fill="#000000" font-family="sans-serif" font-size="13" font-weight="bold" lengthAdjust="spacing" textLength="7" x="555" y="463.8896">9</text><text fill="#000000" font-family="sans-serif" font-size="13" lengthAdjust="spacing" textLength="167" x="566" y="463.8896">notify(deactivated_plan, plan)</text><line style="stroke:#181818;stroke-width:1.0;" x1="538" x2="580" y1="505.4434" y2="505.4434"/><line style="stroke:#181818;stroke-width:1.0;" x1="580" x2="580" y1="505.4434" y2="518.4434"/><line style="stroke:#181818;stroke-width:1.0;" x1="533" x2="580" y1="518.4434" y2="518.4434"/><polygon fill="#181818" points="543,514.4434,533,518.4434,543,522.4434,539,518.4434" style="stroke:#181818;stroke-width:1.0;"/><text fill="#000000" font-family="sans-serif" font-size="13" font-weight="bold" lengthAdjust="spacing" textLength="14" x="545" y="500.1807">10</text><text fill="#000000" font-family="sans-serif" font-size="13" lengthAdjust="spacing" textLength="58" x="563" y="500.1807">save(plan)</text><polygon fill="#181818" points="680,540.7344,670,544.7344,680,548.7344,676,544.7344" style="stroke:#181818;stroke-width:1.0;"/><line style="stroke:#181818;stroke-width:1.0;" x1="674" x2="872" y1="544.7344" y2="544.7344"/><text fill="#000000" font-family="sans-serif" font-size="13" font-weight="bold" lengthAdjust="spacing" textLength="14" x="686" y="539.4717">11</text><text fill="#000000" font-family="sans-serif" font-size="13" lengthAdjust="spacing" textLength="167" x="704" y="539.4717">notify(deactivated_plan, plan)</text><line style="stroke:#181818;stroke-width:1.0;" x1="669" x2="711" y1="581.0254" y2="581.0254"/><line style="stroke:#181818;stroke-width:1.0;" x1="711" x2="711" y1="581.0254" y2="594.0254"/><line style="stroke:#181818;stroke-width:1.0;" x1="664" x2="711" y1="594.0254" y2="594.0254"/><polygon fill="#181818" points="674,590.0254,664,594.0254,674,598.0254,670,594.0254" style="stroke:#181818;stroke-width:1.0;"/><text fill="#000000" font-family="sans-serif" font-size="13" font-weight="bold" lengthAdjust="spacing" textLength="14" x="676" y="575.7627">12</text><text fill="#000000" font-family="sans-serif" font-size="13" lengthAdjust="spacing" textLength="58" x="694" y="575.7627">save(plan)</text><!--SRC=[ZP9DQyCm38Rl_XMYbxLqfVSS1brwsALGazt668ghjAQ9R6odOupzzzb9-hLHwCqHZnwz4dd0DXXb6bjJ830iqZUtJKbEYA13JL2OAdoY8rYIrrk6fL5jGnnW5YkeWZvWR4LOryX2n89nC5gXsrFGl8MbTfHg8q0F2oKikg2LjXWD8njxyZT-pxf7XwppQoHfvH6HFIAlaQ8jVMVf7XrIvFyHUKHarZD_D2lo7hS4pyxioVLCKmgnK31xYhbWEeKCrelN_0NcAOsVRqu7c7ypDlGZ8jR36NWyq3Xnaw7QbBt2jcMj_Mvyxjvy9EuHUffDF6XDLH0nCJYoZdmyk8Um8z3i0x8YBtG0XGmb0LzKYJUG1DtCE3IbdyMXcYlZ6W_6aiEW3SDOyyItAZPv8MAsYoMZG5TVDmEUbkpC5tiUDV8-ZHpW6vhYlZH5Fi2tDFUbAUG0NplEUFePVW40]--></g></svg>