<?xml version="1.0" encoding="us-ascii" standalone="no"?><svg xmlns="http://www.w3.org/2000/svg" xmlns:xlink="http://www.w3.org/1999/xlink" contentStyleType="text/css" height="981px" preserveAspectRatio="none" style="width:1429px;height:981px;background:#FFFFFF;" version="1.1" viewBox="0 0 1429 981" width="1429px" zoomAndPan="magnify"><defs/><g><text fill="#000000" font-family="sans-serif" font-size="14" font-weight="bold" lengthAdjust="spacing" textLength="407" x="504.25" y="25.1074">Class Diagram / As Marketing director, I want to edit a Plan</text><!--class PlansRepositoryBD--><g id="elem_PlansRepositoryBD"><rect codeLine="41" fill="#F1F1F1" height="97.8242" id="PlansRepositoryBD" rx="2.5" ry="2.5" style="stroke:#181818;stroke-width:0.5;" width="343" x="487.5" y="547.6211"/><text fill="#000000" font-family="sans-serif" font-size="12" font-style="italic" lengthAdjust="spacing" textLength="61" x="628.5" y="565.5703">&#171;interface&#187;</text><text fill="#000000" font-family="sans-serif" font-size="14" font-style="italic" lengthAdjust="spacing" textLength="122" x="598" y="583.6895">PlansRepositoryBD</text><line style="stroke:#181818;stroke-width:0.5;" x1="488.5" x2="829.5" y1="592.2031" y2="592.2031"/><line style="stroke:#181818;stroke-width:0.5;" x1="488.5" x2="829.5" y1="600.2031" y2="600.2031"/><ellipse cx="498.5" cy="615.0137" fill="#84BE84" rx="3" ry="3" style="stroke:#038048;stroke-width:1.0;"/><text fill="#000000" font-family="sans-serif" font-size="14" lengthAdjust="spacing" textLength="317" x="507.5" y="619.3105">findByName_Name(String name): Optional&lt;Plans&gt;</text><ellipse cx="498.5" cy="633.6348" fill="#84BE84" rx="3" ry="3" style="stroke:#038048;stroke-width:1.0;"/><text fill="#000000" font-family="sans-serif" font-size="14" lengthAdjust="spacing" textLength="216" x="507.5" y="637.9316">save(S entity) : &lt;S extends Plans&gt;</text></g><!--class Plans--><g id="elem_Plans"><rect codeLine="9" fill="#F1F1F1" height="249.4531" id="Plans" rx="2.5" ry="2.5" style="stroke:#181818;stroke-width:0.5;" width="1304" x="7" y="724.6211"/><text fill="#000000" font-family="sans-serif" font-size="14" lengthAdjust="spacing" textLength="35" x="641.5" y="744.7285">Plans</text><line style="stroke:#181818;stroke-width:0.5;" x1="8" x2="1310" y1="753.2422" y2="753.2422"/><rect fill="none" height="6" style="stroke:#C82930;stroke-width:1.0;" width="6" x="15" y="765.0527"/><text fill="#000000" font-family="sans-serif" font-size="14" lengthAdjust="spacing" textLength="35" x="27" y="772.3496">name</text><rect fill="none" height="6" style="stroke:#C82930;stroke-width:1.0;" width="6" x="15" y="783.6738"/><text fill="#000000" font-family="sans-serif" font-size="14" lengthAdjust="spacing" textLength="69" x="27" y="790.9707">description</text><rect fill="none" height="6" style="stroke:#C82930;stroke-width:1.0;" width="6" x="15" y="802.2949"/><text fill="#000000" font-family="sans-serif" font-size="14" lengthAdjust="spacing" textLength="112" x="27" y="809.5918">numberOfMinutes</text><rect fill="none" height="6" style="stroke:#C82930;stroke-width:1.0;" width="6" x="15" y="820.916"/><text fill="#000000" font-family="sans-serif" font-size="14" lengthAdjust="spacing" textLength="158" x="27" y="828.2129">maximumNumberOfUsers</text><rect fill="none" height="6" style="stroke:#C82930;stroke-width:1.0;" width="6" x="15" y="839.5371"/><text fill="#000000" font-family="sans-serif" font-size="14" lengthAdjust="spacing" textLength="98" x="27" y="846.834">musicCollection</text><rect fill="none" height="6" style="stroke:#C82930;stroke-width:1.0;" width="6" x="15" y="858.1582"/><text fill="#000000" font-family="sans-serif" font-size="14" lengthAdjust="spacing" textLength="107" x="27" y="865.4551">musicSuggestion</text><rect fill="none" height="6" style="stroke:#C82930;stroke-width:1.0;" width="6" x="15" y="876.7793"/><text fill="#000000" font-family="sans-serif" font-size="14" lengthAdjust="spacing" textLength="68" x="27" y="884.0762">annualFee</text><rect fill="none" height="6" style="stroke:#C82930;stroke-width:1.0;" width="6" x="15" y="895.4004"/><text fill="#000000" font-family="sans-serif" font-size="14" lengthAdjust="spacing" textLength="74" x="27" y="902.6973">monthlyFee</text><rect fill="none" height="6" style="stroke:#C82930;stroke-width:1.0;" width="6" x="15" y="914.0215"/><text fill="#000000" font-family="sans-serif" font-size="14" lengthAdjust="spacing" textLength="37" x="27" y="921.3184">active</text><rect fill="none" height="6" style="stroke:#C82930;stroke-width:1.0;" width="6" x="15" y="932.6426"/><text fill="#000000" font-family="sans-serif" font-size="14" lengthAdjust="spacing" textLength="60" x="27" y="939.9395">promoted</text><line style="stroke:#181818;stroke-width:0.5;" x1="8" x2="1310" y1="947.4531" y2="947.4531"/><ellipse cx="18" cy="962.2637" fill="#84BE84" rx="3" ry="3" style="stroke:#038048;stroke-width:1.0;"/><text fill="#000000" font-family="sans-serif" font-size="14" lengthAdjust="spacing" textLength="1278" x="27" y="966.5605">updateData(long desiredVersion, String description, Integer maximumNumberOfUsers,String numberOfMinutes , Integer musicCollections,String musicSuggestions, Boolean active, Boolean promoted) void</text></g><!--class PlansViewMapper--><g id="elem_PlansViewMapper"><rect codeLine="22" fill="#F1F1F1" height="63.2422" id="PlansViewMapper" rx="2.5" ry="2.5" style="stroke:#181818;stroke-width:0.5;" width="253" x="267.5" y="217.1211"/><text fill="#000000" font-family="sans-serif" font-size="14" lengthAdjust="spacing" textLength="112" x="338" y="237.2285">PlansViewMapper</text><line style="stroke:#181818;stroke-width:0.5;" x1="268.5" x2="519.5" y1="245.7422" y2="245.7422"/><line style="stroke:#181818;stroke-width:0.5;" x1="268.5" x2="519.5" y1="253.7422" y2="253.7422"/><ellipse cx="278.5" cy="268.5527" fill="#84BE84" rx="3" ry="3" style="stroke:#038048;stroke-width:1.0;"/><text fill="#000000" font-family="sans-serif" font-size="14" lengthAdjust="spacing" textLength="227" x="287.5" y="272.8496">toPlansView(Plans plans):PlansView</text></g><!--class PlansController--><g id="elem_PlansController"><rect codeLine="25" fill="#F1F1F1" height="81.8633" id="PlansController" rx="2.5" ry="2.5" style="stroke:#181818;stroke-width:0.5;" width="663" x="103.5" y="46.6211"/><text fill="#000000" font-family="sans-serif" font-size="14" lengthAdjust="spacing" textLength="97" x="386.5" y="66.7285">PlansController</text><line style="stroke:#181818;stroke-width:0.5;" x1="104.5" x2="765.5" y1="75.2422" y2="75.2422"/><line style="stroke:#181818;stroke-width:0.5;" x1="104.5" x2="765.5" y1="83.2422" y2="83.2422"/><ellipse cx="114.5" cy="98.0527" fill="#84BE84" rx="3" ry="3" style="stroke:#038048;stroke-width:1.0;"/><text fill="#000000" font-family="sans-serif" font-size="14" lengthAdjust="spacing" textLength="586" x="123.5" y="102.3496">partialUpdate(final String name, final EditPlanRequest resource):ResponseEntity&lt;PlansView&gt;</text><ellipse cx="114.5" cy="116.6738" fill="#84BE84" rx="3" ry="3" style="stroke:#038048;stroke-width:1.0;"/><text fill="#000000" font-family="sans-serif" font-size="14" lengthAdjust="spacing" textLength="637" x="123.5" y="120.9707">partialUpdateExternal(final String name, final EditPlanRequest resource):ResponseEntity&lt;PlansView&gt;</text></g><!--class PlansService--><g id="elem_PlansService"><rect codeLine="29" fill="#F1F1F1" height="81.8633" id="PlansService" rx="2.5" ry="2.5" style="stroke:#181818;stroke-width:0.5;" width="690" x="556" y="207.6211"/><text fill="#000000" font-family="sans-serif" font-size="14" lengthAdjust="spacing" textLength="82" x="860" y="227.7285">PlansService</text><line style="stroke:#181818;stroke-width:0.5;" x1="557" x2="1245" y1="236.2422" y2="236.2422"/><line style="stroke:#181818;stroke-width:0.5;" x1="557" x2="1245" y1="244.2422" y2="244.2422"/><ellipse cx="567" cy="259.0527" fill="#84BE84" rx="3" ry="3" style="stroke:#038048;stroke-width:1.0;"/><text fill="#000000" font-family="sans-serif" font-size="14" lengthAdjust="spacing" textLength="613" x="576" y="263.3496">partialUpdate(final String name, final EditPlansRequest resource, final long desiredVersion):Plans</text><ellipse cx="567" cy="277.6738" fill="#84BE84" rx="3" ry="3" style="stroke:#038048;stroke-width:1.0;"/><text fill="#000000" font-family="sans-serif" font-size="14" lengthAdjust="spacing" textLength="664" x="576" y="281.9707">partialUpdateExternal(final String name, final EditPlansRequest resource, final long desiredVersion):Plans</text></g><!--class PlansRepository--><g id="elem_PlansRepository"><rect codeLine="35" fill="#F1F1F1" height="100.4844" id="PlansRepository" rx="2.5" ry="2.5" style="stroke:#181818;stroke-width:0.5;" width="608" x="597" y="368.6211"/><text fill="#000000" font-family="sans-serif" font-size="14" lengthAdjust="spacing" textLength="103" x="849.5" y="388.7285">PlansRepository</text><line style="stroke:#181818;stroke-width:0.5;" x1="598" x2="1204" y1="397.2422" y2="397.2422"/><line style="stroke:#181818;stroke-width:0.5;" x1="598" x2="1204" y1="405.2422" y2="405.2422"/><ellipse cx="608" cy="420.0527" fill="#84BE84" rx="3" ry="3" style="stroke:#038048;stroke-width:1.0;"/><text fill="#000000" font-family="sans-serif" font-size="14" lengthAdjust="spacing" textLength="247" x="617" y="424.3496">findIfNameExists(String name): boolean</text><ellipse cx="608" cy="438.6738" fill="#84BE84" rx="3" ry="3" style="stroke:#038048;stroke-width:1.0;"/><text fill="#000000" font-family="sans-serif" font-size="14" lengthAdjust="spacing" textLength="289" x="617" y="442.9707">findByNameBD(String name): optional&lt;Plans&gt;</text><ellipse cx="608" cy="457.2949" fill="#84BE84" rx="3" ry="3" style="stroke:#038048;stroke-width:1.0;"/><text fill="#000000" font-family="sans-serif" font-size="14" lengthAdjust="spacing" textLength="582" x="617" y="461.5918">changePlanDetailsExternal(String plan, EditPlansRequest requestBody, long version) : plans</text></g><!--class PlansRepositoryExternal--><g id="elem_PlansRepositoryExternal"><rect codeLine="47" fill="#F1F1F1" height="81.8633" id="PlansRepositoryExternal" rx="2.5" ry="2.5" style="stroke:#181818;stroke-width:0.5;" width="557" x="865.5" y="555.6211"/><text fill="#000000" font-family="sans-serif" font-size="14" lengthAdjust="spacing" textLength="154" x="1067" y="575.7285">PlansRepositoryExternal</text><line style="stroke:#181818;stroke-width:0.5;" x1="866.5" x2="1421.5" y1="584.2422" y2="584.2422"/><line style="stroke:#181818;stroke-width:0.5;" x1="866.5" x2="1421.5" y1="592.2422" y2="592.2422"/><ellipse cx="876.5" cy="607.0527" fill="#84BE84" rx="3" ry="3" style="stroke:#038048;stroke-width:1.0;"/><text fill="#000000" font-family="sans-serif" font-size="14" lengthAdjust="spacing" textLength="218" x="885.5" y="611.3496">httpExistPlan(String plan): boolean</text><ellipse cx="876.5" cy="625.6738" fill="#84BE84" rx="3" ry="3" style="stroke:#038048;stroke-width:1.0;"/><text fill="#000000" font-family="sans-serif" font-size="14" lengthAdjust="spacing" textLength="531" x="885.5" y="629.9707">changePlanDetails(String plan, EditPlansRequest requestBody, long version) : plans</text></g><!--link PlansController to PlansService--><g id="link_PlansController_PlansService"><path codeLine="53" d="M552.29,128.6411 C623.06,152.7911 707.2515,181.5133 778.0215,205.6633 " fill="none" id="PlansController-to-PlansService" style="stroke:#181818;stroke-width:1.0;stroke-dasharray:7.0,7.0;"/><polygon fill="#181818" points="783.7,207.6011,776.4741,200.9088,778.9679,205.9863,773.8904,208.4801,783.7,207.6011" style="stroke:#181818;stroke-width:1.0;"/><polygon fill="#000000" points="690.7321,169.8813,683.1207,164.1789,681.2226,169.7418,690.7321,169.8813" style="stroke:#000000;stroke-width:1.0;"/><text fill="#000000" font-family="sans-serif" font-size="13" lengthAdjust="spacing" textLength="28" x="695" y="173.6494">uses</text></g><!--link PlansService to PlansRepository--><g id="link_PlansService_PlansRepository"><path codeLine="54" d="M901,289.8611 C901,313.4511 901,337.4311 901,362.4111 " fill="none" id="PlansService-to-PlansRepository" style="stroke:#181818;stroke-width:1.0;stroke-dasharray:7.0,7.0;"/><polygon fill="#181818" points="901,368.4111,905,359.4111,901,363.4111,897,359.4111,901,368.4111" style="stroke:#181818;stroke-width:1.0;"/><polygon fill="#000000" points="906,334.2666,908.9389,325.2215,903.0611,325.2215,906,334.2666" style="stroke:#000000;stroke-width:1.0;"/><text fill="#000000" font-family="sans-serif" font-size="13" lengthAdjust="spacing" textLength="28" x="915" y="334.6494">uses</text></g><!--link PlansRepository to PlansRepositoryBD--><g id="link_PlansRepository_PlansRepositoryBD"><path codeLine="55" d="M833.59,468.6511 C799.74,493.2611 763.742,519.4415 730.062,543.9415 " fill="none" id="PlansRepository-to-PlansRepositoryBD" style="stroke:#181818;stroke-width:1.0;stroke-dasharray:7.0,7.0;"/><polygon fill="#181818" points="725.21,547.4711,734.8411,545.4115,729.2534,544.5298,730.135,538.9421,725.21,547.4711" style="stroke:#181818;stroke-width:1.0;"/><polygon fill="#000000" points="787.9563,511.2074,797,508.2643,793.5429,503.5106,787.9563,511.2074" style="stroke:#000000;stroke-width:1.0;"/><text fill="#000000" font-family="sans-serif" font-size="13" lengthAdjust="spacing" textLength="28" x="801" y="513.6494">uses</text></g><!--link PlansRepository to PlansRepositoryExternal--><g id="link_PlansRepository_PlansRepositoryExternal"><path codeLine="56" d="M968.69,468.6511 C1006.47,496.0111 1048.0804,526.152 1083.6804,551.932 " fill="none" id="PlansRepository-to-PlansRepositoryExternal" style="stroke:#181818;stroke-width:1.0;stroke-dasharray:7.0,7.0;"/><polygon fill="#181818" points="1088.54,555.4511,1083.5967,546.9327,1084.4903,552.5185,1078.9045,553.4122,1088.54,555.4511" style="stroke:#181818;stroke-width:1.0;"/><polygon fill="#000000" points="1038.0495,511.1994,1032.4477,503.5137,1029,508.2741,1038.0495,511.1994" style="stroke:#000000;stroke-width:1.0;"/><text fill="#000000" font-family="sans-serif" font-size="13" lengthAdjust="spacing" textLength="28" x="1043" y="513.6494">uses</text></g><!--link PlansRepositoryBD to Plans--><g id="link_PlansRepositoryBD_Plans"><path codeLine="57" d="M659,645.6211 C659,668.2811 659,690.4711 659,718.5611 " fill="none" id="PlansRepositoryBD-to-Plans" style="stroke:#181818;stroke-width:1.0;stroke-dasharray:7.0,7.0;"/><polygon fill="#181818" points="659,724.5611,663,715.5611,659,719.5611,655,715.5611,659,724.5611" style="stroke:#181818;stroke-width:1.0;"/><polygon fill="#000000" points="664,680.2666,661.0611,689.3117,666.9389,689.3117,664,680.2666" style="stroke:#000000;stroke-width:1.0;"/><text fill="#000000" font-family="sans-serif" font-size="13" lengthAdjust="spacing" textLength="36" x="673" y="690.6494">record</text></g><!--link PlansController to PlansViewMapper--><g id="link_PlansController_PlansViewMapper"><path codeLine="58" d="M424.65,128.7411 C417.58,156.1611 409.8587,186.1213 403.3787,211.2413 " fill="none" id="PlansController-to-PlansViewMapper" style="stroke:#181818;stroke-width:1.0;stroke-dasharray:7.0,7.0;"/><polygon fill="#181818" points="401.88,217.0511,408.0013,209.3355,403.1289,212.2096,400.2549,207.3372,401.88,217.0511" style="stroke:#181818;stroke-width:1.0;"/><polygon fill="#000000" points="419.7517,173.1083,424.8558,165.0834,419.1641,163.6159,419.7517,173.1083" style="stroke:#000000;stroke-width:1.0;"/><text fill="#000000" font-family="sans-serif" font-size="13" lengthAdjust="spacing" textLength="28" x="430" y="173.6494">uses</text></g><!--SRC=[hLLDRwCm4BtpA-QsYKAJEugGDXyhzP1sbQgzhbmyIQmQcxLDcgZQ_xvZ38HGUcXL3Wb-lFbupuFvSN2kiCbiLaYcN9dBQQRpMIQPjJTSiBrXUNGG724J9fCOLK_WDv7j5WjjXTFcl5Z1V2wKGxDZ6QPf53dX9CAo8gz26fZ1JmiRPbxG2RK7BWnc51t3BRnIRN0Qa0i7h4eVqTKfzXO1NJUAvHZkWAFDZ2YSqAf6L9a_exdVROGg7Tg0vkmayZA_gvyzMZJDazAARAcbf3QQ93NwKExtQ3ieKwfayXTYmzBA7UJv0Z3ASMmMXT6vTiZ3Sb8Md3bSCST6KdlbQ4axVw9Eg48C3yw803U2o1DoSuy6XjgFwu2UNkX4NKjh8thYR0mBhIKo1Q7_oxgHC8QZ5ZpwrzsB9u6l6rOKQCAkJ9nkyL5r1twQx3XfuUi4ItBF-Exg130fc762oSVAgT5EA2ORM_oMnn2WDSs7px35loL908DMboR3SR95Mv0WN2iQlVEyBPmE5LYVQ5Gft_SNkfBvWEOeCYIDdzLd-tKRmi3yr2v7NzRubMAqdyD7GJqHb83VxkwesleahBEZJlrn0izXoYxSnTbp5wiUJrTl0vF1vc3n93imjKUFhD0n8MqhjGxsmnSFoQl-5vgVuw3jM8k290oiLzKUO-yFkUWjwZJxn__q-htlzJknx4WSm6fOV9qvBQXTnMldqW-TR5JLZlfpklBIqxfA-tQ-i-TRR8bwBovCf-dLb2TGMZg3qgWBNbWNNTV42px4NQm-msuS-oY6FbDj5Eq4AS-quKFAUiTSa_0_]--></g></svg>