<?xml version="1.0" encoding="us-ascii" standalone="no"?><svg xmlns="http://www.w3.org/2000/svg" xmlns:xlink="http://www.w3.org/1999/xlink" contentStyleType="text/css" height="1203px" preserveAspectRatio="none" style="width:1709px;height:1203px;background:#FFFFFF;" version="1.1" viewBox="0 0 1709 1203" width="1709px" zoomAndPan="magnify"><defs/><g><text fill="#000000" font-family="sans-serif" font-size="14" font-weight="bold" lengthAdjust="spacing" textLength="441" x="635.25" y="30.1074">Sequence Diagram - As Marketing director, I want to edit a Plan</text><rect fill="none" height="317.8809" style="stroke:#000000;stroke-width:1.5;" width="1008" x="588" y="265.4063"/><rect fill="none" height="98.5039" style="stroke:#000000;stroke-width:1.5;" width="520.5" x="598" y="477.7832"/><rect fill="none" height="411.7539" style="stroke:#000000;stroke-width:1.5;" width="1539.5" x="163" y="628.5781"/><rect fill="none" height="267.959" style="stroke:#000000;stroke-width:1.5;" width="1094.5" x="598" y="765.373"/><line style="stroke:#181818;stroke-width:0.5;stroke-dasharray:5.0,5.0;" x1="66" x2="66" y1="123.2422" y2="1119.9141"/><line style="stroke:#181818;stroke-width:0.5;stroke-dasharray:5.0,5.0;" x1="227" x2="227" y1="123.2422" y2="1119.9141"/><line style="stroke:#181818;stroke-width:0.5;stroke-dasharray:5.0,5.0;" x1="658" x2="658" y1="123.2422" y2="1119.9141"/><line style="stroke:#181818;stroke-width:0.5;stroke-dasharray:5.0,5.0;" x1="1047.5" x2="1047.5" y1="123.2422" y2="1119.9141"/><line style="stroke:#181818;stroke-width:0.5;stroke-dasharray:5.0,5.0;" x1="1241" x2="1241" y1="123.2422" y2="1119.9141"/><line style="stroke:#181818;stroke-width:0.5;stroke-dasharray:5.0,5.0;" x1="1407" x2="1407" y1="123.2422" y2="1119.9141"/><line style="stroke:#181818;stroke-width:0.5;stroke-dasharray:5.0,5.0;" x1="1657.5" x2="1657.5" y1="123.2422" y2="1119.9141"/><text fill="#000000" font-family="sans-serif" font-size="14" lengthAdjust="spacing" textLength="116" x="5" y="119.7285">Marketing Director</text><ellipse cx="66" cy="53.1211" fill="#E2E2F0" rx="8" ry="8" style="stroke:#181818;stroke-width:0.5;"/><path d="M66,61.1211 L66,88.1211 M53,69.1211 L79,69.1211 M66,88.1211 L53,103.1211 M66,88.1211 L79,103.1211 " fill="none" style="stroke:#181818;stroke-width:0.5;"/><text fill="#000000" font-family="sans-serif" font-size="14" lengthAdjust="spacing" textLength="116" x="5" y="1134.0215">Marketing Director</text><ellipse cx="66" cy="1146.0352" fill="#E2E2F0" rx="8" ry="8" style="stroke:#181818;stroke-width:0.5;"/><path d="M66,1154.0352 L66,1181.0352 M53,1162.0352 L79,1162.0352 M66,1181.0352 L53,1196.0352 M66,1181.0352 L79,1196.0352 " fill="none" style="stroke:#181818;stroke-width:0.5;"/><rect fill="#E2E2F0" height="32.6211" rx="2.5" ry="2.5" style="stroke:#181818;stroke-width:0.5;" width="108" x="173" y="89.6211"/><text fill="#000000" font-family="sans-serif" font-size="14" lengthAdjust="spacing" textLength="94" x="180" y="111.7285">:PlanController</text><rect fill="#E2E2F0" height="32.6211" rx="2.5" ry="2.5" style="stroke:#181818;stroke-width:0.5;" width="108" x="173" y="1118.9141"/><text fill="#000000" font-family="sans-serif" font-size="14" lengthAdjust="spacing" textLength="94" x="180" y="1141.0215">:PlanController</text><rect fill="#E2E2F0" height="32.6211" rx="2.5" ry="2.5" style="stroke:#181818;stroke-width:0.5;" width="100" x="608" y="89.6211"/><text fill="#000000" font-family="sans-serif" font-size="14" lengthAdjust="spacing" textLength="86" x="615" y="111.7285">:PlansService</text><rect fill="#E2E2F0" height="32.6211" rx="2.5" ry="2.5" style="stroke:#181818;stroke-width:0.5;" width="100" x="608" y="1118.9141"/><text fill="#000000" font-family="sans-serif" font-size="14" lengthAdjust="spacing" textLength="86" x="615" y="1141.0215">:PlansService</text><rect fill="#E2E2F0" height="32.6211" rx="2.5" ry="2.5" style="stroke:#181818;stroke-width:0.5;" width="121" x="987.5" y="89.6211"/><text fill="#000000" font-family="sans-serif" font-size="14" lengthAdjust="spacing" textLength="107" x="994.5" y="111.7285">:PlansRepository</text><rect fill="#E2E2F0" height="32.6211" rx="2.5" ry="2.5" style="stroke:#181818;stroke-width:0.5;" width="121" x="987.5" y="1118.9141"/><text fill="#000000" font-family="sans-serif" font-size="14" lengthAdjust="spacing" textLength="107" x="994.5" y="1141.0215">:PlansRepository</text><rect fill="#E2E2F0" height="32.6211" rx="2.5" ry="2.5" style="stroke:#181818;stroke-width:0.5;" width="140" x="1171" y="89.6211"/><text fill="#000000" font-family="sans-serif" font-size="14" lengthAdjust="spacing" textLength="126" x="1178" y="111.7285">:PlansRepositoryBD</text><rect fill="#E2E2F0" height="32.6211" rx="2.5" ry="2.5" style="stroke:#181818;stroke-width:0.5;" width="140" x="1171" y="1118.9141"/><text fill="#000000" font-family="sans-serif" font-size="14" lengthAdjust="spacing" textLength="126" x="1178" y="1141.0215">:PlansRepositoryBD</text><rect fill="#E2E2F0" height="32.6211" rx="2.5" ry="2.5" style="stroke:#181818;stroke-width:0.5;" width="172" x="1321" y="89.6211"/><text fill="#000000" font-family="sans-serif" font-size="14" lengthAdjust="spacing" textLength="158" x="1328" y="111.7285">:PlansRepositoryExternal</text><rect fill="#E2E2F0" height="32.6211" rx="2.5" ry="2.5" style="stroke:#181818;stroke-width:0.5;" width="172" x="1321" y="1118.9141"/><text fill="#000000" font-family="sans-serif" font-size="14" lengthAdjust="spacing" textLength="158" x="1328" y="1141.0215">:PlansRepositoryExternal</text><rect fill="#E2E2F0" height="32.6211" rx="2.5" ry="2.5" style="stroke:#181818;stroke-width:0.5;" width="49" x="1633.5" y="89.6211"/><text fill="#000000" font-family="sans-serif" font-size="14" lengthAdjust="spacing" textLength="35" x="1640.5" y="111.7285">Plans</text><rect fill="#E2E2F0" height="32.6211" rx="2.5" ry="2.5" style="stroke:#181818;stroke-width:0.5;" width="49" x="1633.5" y="1118.9141"/><text fill="#000000" font-family="sans-serif" font-size="14" lengthAdjust="spacing" textLength="35" x="1640.5" y="1141.0215">Plans</text><polygon fill="#181818" points="215,152.5332,225,156.5332,215,160.5332,219,156.5332" style="stroke:#181818;stroke-width:1.0;"/><line style="stroke:#181818;stroke-width:1.0;" x1="66" x2="221" y1="156.5332" y2="156.5332"/><text fill="#000000" font-family="sans-serif" font-size="13" font-weight="bold" lengthAdjust="spacing" textLength="7" x="73" y="151.2705">1</text><text fill="#000000" font-family="sans-serif" font-size="13" lengthAdjust="spacing" textLength="126" x="84" y="151.2705">PATCH /plans/{name}</text><polygon fill="#181818" points="646,183.8242,656,187.8242,646,191.8242,650,187.8242" style="stroke:#181818;stroke-width:1.0;"/><line style="stroke:#181818;stroke-width:1.0;" x1="227" x2="652" y1="187.8242" y2="187.8242"/><text fill="#000000" font-family="sans-serif" font-size="13" font-weight="bold" lengthAdjust="spacing" textLength="7" x="234" y="182.5615">2</text><text fill="#000000" font-family="sans-serif" font-size="13" lengthAdjust="spacing" textLength="396" x="245" y="182.5615">partialUpdate(String name, EditPlansRequest resource, long version)</text><polygon fill="#181818" points="1036,215.1152,1046,219.1152,1036,223.1152,1040,219.1152" style="stroke:#181818;stroke-width:1.0;"/><line style="stroke:#181818;stroke-width:1.0;" x1="658" x2="1042" y1="219.1152" y2="219.1152"/><text fill="#000000" font-family="sans-serif" font-size="13" font-weight="bold" lengthAdjust="spacing" textLength="7" x="665" y="213.8525">3</text><text fill="#000000" font-family="sans-serif" font-size="13" lengthAdjust="spacing" textLength="137" x="676" y="213.8525">findIfNameExists(name)</text><polygon fill="#181818" points="1229,246.4063,1239,250.4063,1229,254.4063,1233,250.4063" style="stroke:#181818;stroke-width:1.0;"/><line style="stroke:#181818;stroke-width:1.0;" x1="1048" x2="1235" y1="250.4063" y2="250.4063"/><text fill="#000000" font-family="sans-serif" font-size="13" font-weight="bold" lengthAdjust="spacing" textLength="7" x="1055" y="245.1436">4</text><text fill="#000000" font-family="sans-serif" font-size="13" lengthAdjust="spacing" textLength="151" x="1066" y="245.1436">findByName_Name(name)</text><path d="M588,265.4063 L649,265.4063 L649,274.6973 L639,284.6973 L588,284.6973 L588,265.4063 " fill="#EEEEEE" style="stroke:#000000;stroke-width:1.5;"/><rect fill="none" height="317.8809" style="stroke:#000000;stroke-width:1.5;" width="1008" x="588" y="265.4063"/><text fill="#000000" font-family="sans-serif" font-size="13" font-weight="bold" lengthAdjust="spacing" textLength="16" x="603" y="280.4346">alt</text><text fill="#000000" font-family="sans-serif" font-size="11" font-weight="bold" lengthAdjust="spacing" textLength="146" x="664" y="279.2764">[Name found in local Repo]</text><polygon fill="#181818" points="1059,303.9883,1049,307.9883,1059,311.9883,1055,307.9883" style="stroke:#181818;stroke-width:1.0;"/><line style="stroke:#181818;stroke-width:1.0;stroke-dasharray:2.0,2.0;" x1="1053" x2="1240" y1="307.9883" y2="307.9883"/><text fill="#000000" font-family="sans-serif" font-size="13" font-weight="bold" lengthAdjust="spacing" textLength="7" x="1065" y="302.7256">5</text><text fill="#000000" font-family="sans-serif" font-size="13" lengthAdjust="spacing" textLength="114" x="1076" y="302.7256">Name exists locally</text><polygon fill="#181818" points="669,335.2793,659,339.2793,669,343.2793,665,339.2793" style="stroke:#181818;stroke-width:1.0;"/><line style="stroke:#181818;stroke-width:1.0;stroke-dasharray:2.0,2.0;" x1="663" x2="1047" y1="339.2793" y2="339.2793"/><text fill="#000000" font-family="sans-serif" font-size="13" font-weight="bold" lengthAdjust="spacing" textLength="7" x="675" y="334.0166">6</text><text fill="#000000" font-family="sans-serif" font-size="13" lengthAdjust="spacing" textLength="22" x="686" y="334.0166">true</text><line style="stroke:#000000;stroke-width:1.0;stroke-dasharray:2.0,2.0;" x1="588" x2="1596" y1="348.2793" y2="348.2793"/><text fill="#000000" font-family="sans-serif" font-size="11" font-weight="bold" lengthAdjust="spacing" textLength="167" x="593" y="360.1494">[Name not found in local Repo]</text><polygon fill="#181818" points="1395,383.2012,1405,387.2012,1395,391.2012,1399,387.2012" style="stroke:#181818;stroke-width:1.0;"/><line style="stroke:#181818;stroke-width:1.0;" x1="1048" x2="1401" y1="387.2012" y2="387.2012"/><text fill="#000000" font-family="sans-serif" font-size="13" font-weight="bold" lengthAdjust="spacing" textLength="7" x="1055" y="381.9385">7</text><text fill="#000000" font-family="sans-serif" font-size="13" lengthAdjust="spacing" textLength="118" x="1066" y="381.9385">httpExistPlan(name)</text><line style="stroke:#181818;stroke-width:1.0;" x1="1407" x2="1449" y1="418.4922" y2="418.4922"/><line style="stroke:#181818;stroke-width:1.0;" x1="1449" x2="1449" y1="418.4922" y2="431.4922"/><line style="stroke:#181818;stroke-width:1.0;" x1="1408" x2="1449" y1="431.4922" y2="431.4922"/><polygon fill="#181818" points="1418,427.4922,1408,431.4922,1418,435.4922,1414,431.4922" style="stroke:#181818;stroke-width:1.0;"/><text fill="#000000" font-family="sans-serif" font-size="13" font-weight="bold" lengthAdjust="spacing" textLength="7" x="1414" y="413.2295">8</text><text fill="#000000" font-family="sans-serif" font-size="13" lengthAdjust="spacing" textLength="159" x="1425" y="413.2295">GET /plans/external/{name}</text><polygon fill="#181818" points="1059,458.7832,1049,462.7832,1059,466.7832,1055,462.7832" style="stroke:#181818;stroke-width:1.0;"/><line style="stroke:#181818;stroke-width:1.0;stroke-dasharray:2.0,2.0;" x1="1053" x2="1406" y1="462.7832" y2="462.7832"/><text fill="#000000" font-family="sans-serif" font-size="13" font-weight="bold" lengthAdjust="spacing" textLength="7" x="1065" y="457.5205">9</text><text fill="#000000" font-family="sans-serif" font-size="13" lengthAdjust="spacing" textLength="184" x="1076" y="457.5205">Response from external system</text><path d="M598,477.7832 L659,477.7832 L659,487.0742 L649,497.0742 L598,497.0742 L598,477.7832 " fill="#EEEEEE" style="stroke:#000000;stroke-width:1.5;"/><rect fill="none" height="98.5039" style="stroke:#000000;stroke-width:1.5;" width="520.5" x="598" y="477.7832"/><text fill="#000000" font-family="sans-serif" font-size="13" font-weight="bold" lengthAdjust="spacing" textLength="16" x="613" y="492.8115">alt</text><text fill="#000000" font-family="sans-serif" font-size="11" font-weight="bold" lengthAdjust="spacing" textLength="166" x="674" y="491.6533">[Name found in external Repo]</text><polygon fill="#181818" points="669,516.3652,659,520.3652,669,524.3652,665,520.3652" style="stroke:#181818;stroke-width:1.0;"/><line style="stroke:#181818;stroke-width:1.0;stroke-dasharray:2.0,2.0;" x1="663" x2="1047" y1="520.3652" y2="520.3652"/><text fill="#000000" font-family="sans-serif" font-size="13" font-weight="bold" lengthAdjust="spacing" textLength="14" x="675" y="515.1025">10</text><text fill="#000000" font-family="sans-serif" font-size="13" lengthAdjust="spacing" textLength="22" x="693" y="515.1025">true</text><line style="stroke:#000000;stroke-width:1.0;stroke-dasharray:2.0,2.0;" x1="598" x2="1118.5" y1="529.3652" y2="529.3652"/><text fill="#000000" font-family="sans-serif" font-size="11" font-weight="bold" lengthAdjust="spacing" textLength="187" x="603" y="541.2354">[Name not found in external Repo]</text><polygon fill="#181818" points="669,564.2871,659,568.2871,669,572.2871,665,568.2871" style="stroke:#181818;stroke-width:1.0;"/><line style="stroke:#181818;stroke-width:1.0;stroke-dasharray:2.0,2.0;" x1="663" x2="1047" y1="568.2871" y2="568.2871"/><text fill="#000000" font-family="sans-serif" font-size="13" font-weight="bold" lengthAdjust="spacing" textLength="14" x="675" y="563.0244">11</text><text fill="#000000" font-family="sans-serif" font-size="13" lengthAdjust="spacing" textLength="27" x="693" y="563.0244">false</text><polygon fill="#181818" points="669,609.5781,659,613.5781,669,617.5781,665,613.5781" style="stroke:#181818;stroke-width:1.0;"/><line style="stroke:#181818;stroke-width:1.0;stroke-dasharray:2.0,2.0;" x1="663" x2="1047" y1="613.5781" y2="613.5781"/><text fill="#000000" font-family="sans-serif" font-size="13" font-weight="bold" lengthAdjust="spacing" textLength="14" x="675" y="608.3154">12</text><text fill="#000000" font-family="sans-serif" font-size="13" lengthAdjust="spacing" textLength="68" x="693" y="608.3154">true or false</text><path d="M163,628.5781 L224,628.5781 L224,637.8691 L214,647.8691 L163,647.8691 L163,628.5781 " fill="#EEEEEE" style="stroke:#000000;stroke-width:1.5;"/><rect fill="none" height="411.7539" style="stroke:#000000;stroke-width:1.5;" width="1539.5" x="163" y="628.5781"/><text fill="#000000" font-family="sans-serif" font-size="13" font-weight="bold" lengthAdjust="spacing" textLength="16" x="178" y="643.6064">alt</text><text fill="#000000" font-family="sans-serif" font-size="11" font-weight="bold" lengthAdjust="spacing" textLength="143" x="239" y="642.4482">[Plan doesn't exist - false]</text><polygon fill="#181818" points="238,667.1602,228,671.1602,238,675.1602,234,671.1602" style="stroke:#181818;stroke-width:1.0;"/><line style="stroke:#181818;stroke-width:1.0;stroke-dasharray:2.0,2.0;" x1="232" x2="657" y1="671.1602" y2="671.1602"/><text fill="#000000" font-family="sans-serif" font-size="13" font-weight="bold" lengthAdjust="spacing" textLength="14" x="244" y="665.8975">13</text><text fill="#000000" font-family="sans-serif" font-size="13" lengthAdjust="spacing" textLength="185" x="262" y="665.8975">Throw IllegalArgumentException</text><line style="stroke:#000000;stroke-width:1.0;stroke-dasharray:2.0,2.0;" x1="163" x2="1702.5" y1="680.1602" y2="680.1602"/><text fill="#000000" font-family="sans-serif" font-size="11" font-weight="bold" lengthAdjust="spacing" textLength="101" x="168" y="692.0303">[Plan exists - true]</text><polygon fill="#181818" points="1036,715.082,1046,719.082,1036,723.082,1040,719.082" style="stroke:#181818;stroke-width:1.0;"/><line style="stroke:#181818;stroke-width:1.0;" x1="658" x2="1042" y1="719.082" y2="719.082"/><text fill="#000000" font-family="sans-serif" font-size="13" font-weight="bold" lengthAdjust="spacing" textLength="14" x="665" y="713.8193">14</text><text fill="#000000" font-family="sans-serif" font-size="13" lengthAdjust="spacing" textLength="128" x="683" y="713.8193">findByNameBD(name)</text><polygon fill="#181818" points="1229,746.373,1239,750.373,1229,754.373,1233,750.373" style="stroke:#181818;stroke-width:1.0;"/><line style="stroke:#181818;stroke-width:1.0;" x1="1048" x2="1235" y1="750.373" y2="750.373"/><text fill="#000000" font-family="sans-serif" font-size="13" font-weight="bold" lengthAdjust="spacing" textLength="14" x="1055" y="745.1104">15</text><text fill="#000000" font-family="sans-serif" font-size="13" lengthAdjust="spacing" textLength="151" x="1073" y="745.1104">findByName_Name(name)</text><path d="M598,765.373 L659,765.373 L659,774.6641 L649,784.6641 L598,784.6641 L598,765.373 " fill="#EEEEEE" style="stroke:#000000;stroke-width:1.5;"/><rect fill="none" height="267.959" style="stroke:#000000;stroke-width:1.5;" width="1094.5" x="598" y="765.373"/><text fill="#000000" font-family="sans-serif" font-size="13" font-weight="bold" lengthAdjust="spacing" textLength="16" x="613" y="780.4014">alt</text><text fill="#000000" font-family="sans-serif" font-size="11" font-weight="bold" lengthAdjust="spacing" textLength="168" x="674" y="779.2432">[Plan found in local repository]</text><polygon fill="#181818" points="1646,803.9551,1656,807.9551,1646,811.9551,1650,807.9551" style="stroke:#181818;stroke-width:1.0;"/><line style="stroke:#181818;stroke-width:1.0;" x1="658" x2="1652" y1="807.9551" y2="807.9551"/><text fill="#000000" font-family="sans-serif" font-size="13" font-weight="bold" lengthAdjust="spacing" textLength="14" x="665" y="802.6924">16</text><text fill="#000000" font-family="sans-serif" font-size="13" lengthAdjust="spacing" textLength="663" x="683" y="802.6924">updateData(desiredVersion, description, maxUsers, minutes, musicCollection, musicSuggestion, active, promoted)</text><polygon fill="#181818" points="1646,835.2461,1656,839.2461,1646,843.2461,1650,839.2461" style="stroke:#181818;stroke-width:1.0;"/><line style="stroke:#181818;stroke-width:1.0;stroke-dasharray:2.0,2.0;" x1="658" x2="1652" y1="839.2461" y2="839.2461"/><text fill="#000000" font-family="sans-serif" font-size="13" font-weight="bold" lengthAdjust="spacing" textLength="14" x="665" y="833.9834">17</text><text fill="#000000" font-family="sans-serif" font-size="13" lengthAdjust="spacing" textLength="106" x="683" y="833.9834">Save updated plan</text><line style="stroke:#000000;stroke-width:1.0;stroke-dasharray:2.0,2.0;" x1="598" x2="1692.5" y1="848.2461" y2="848.2461"/><text fill="#000000" font-family="sans-serif" font-size="11" font-weight="bold" lengthAdjust="spacing" textLength="189" x="603" y="860.1162">[Plan not found in local repository]</text><polygon fill="#181818" points="1036,883.168,1046,887.168,1036,891.168,1040,887.168" style="stroke:#181818;stroke-width:1.0;"/><line style="stroke:#181818;stroke-width:1.0;" x1="658" x2="1042" y1="887.168" y2="887.168"/><text fill="#000000" font-family="sans-serif" font-size="13" font-weight="bold" lengthAdjust="spacing" textLength="14" x="665" y="881.9053">18</text><text fill="#000000" font-family="sans-serif" font-size="13" lengthAdjust="spacing" textLength="348" x="683" y="881.9053">changePlanDetailsExternal(name, resource, desiredVersion)</text><polygon fill="#181818" points="1395,914.459,1405,918.459,1395,922.459,1399,918.459" style="stroke:#181818;stroke-width:1.0;"/><line style="stroke:#181818;stroke-width:1.0;" x1="1048" x2="1401" y1="918.459" y2="918.459"/><text fill="#000000" font-family="sans-serif" font-size="13" font-weight="bold" lengthAdjust="spacing" textLength="14" x="1055" y="913.1963">19</text><text fill="#000000" font-family="sans-serif" font-size="13" lengthAdjust="spacing" textLength="300" x="1073" y="913.1963">changePlanDetails(name, resource, desiredVersion)</text><line style="stroke:#181818;stroke-width:1.0;stroke-dasharray:2.0,2.0;" x1="1407" x2="1449" y1="949.75" y2="949.75"/><line style="stroke:#181818;stroke-width:1.0;stroke-dasharray:2.0,2.0;" x1="1449" x2="1449" y1="949.75" y2="962.75"/><line style="stroke:#181818;stroke-width:1.0;stroke-dasharray:2.0,2.0;" x1="1408" x2="1449" y1="962.75" y2="962.75"/><polygon fill="#181818" points="1418,958.75,1408,962.75,1418,966.75,1414,962.75" style="stroke:#181818;stroke-width:1.0;"/><text fill="#000000" font-family="sans-serif" font-size="13" font-weight="bold" lengthAdjust="spacing" textLength="14" x="1414" y="944.4873">20</text><text fill="#000000" font-family="sans-serif" font-size="13" lengthAdjust="spacing" textLength="219" x="1432" y="944.4873">PATCH /plans/update/external/{name}</text><polygon fill="#181818" points="1059,990.041,1049,994.041,1059,998.041,1055,994.041" style="stroke:#181818;stroke-width:1.0;"/><line style="stroke:#181818;stroke-width:1.0;stroke-dasharray:2.0,2.0;" x1="1053" x2="1406" y1="994.041" y2="994.041"/><text fill="#000000" font-family="sans-serif" font-size="13" font-weight="bold" lengthAdjust="spacing" textLength="14" x="1065" y="988.7783">21</text><text fill="#000000" font-family="sans-serif" font-size="13" lengthAdjust="spacing" textLength="136" x="1083" y="988.7783">Updated Plan (external)</text><polygon fill="#181818" points="669,1021.332,659,1025.332,669,1029.332,665,1025.332" style="stroke:#181818;stroke-width:1.0;"/><line style="stroke:#181818;stroke-width:1.0;stroke-dasharray:2.0,2.0;" x1="663" x2="1047" y1="1025.332" y2="1025.332"/><text fill="#000000" font-family="sans-serif" font-size="13" font-weight="bold" lengthAdjust="spacing" textLength="14" x="675" y="1020.0693">22</text><text fill="#000000" font-family="sans-serif" font-size="13" lengthAdjust="spacing" textLength="78" x="693" y="1020.0693">Updated Plan</text><polygon fill="#181818" points="238,1066.623,228,1070.623,238,1074.623,234,1070.623" style="stroke:#181818;stroke-width:1.0;"/><line style="stroke:#181818;stroke-width:1.0;stroke-dasharray:2.0,2.0;" x1="232" x2="657" y1="1070.623" y2="1070.623"/><text fill="#000000" font-family="sans-serif" font-size="13" font-weight="bold" lengthAdjust="spacing" textLength="14" x="244" y="1065.3604">23</text><text fill="#000000" font-family="sans-serif" font-size="13" lengthAdjust="spacing" textLength="78" x="262" y="1065.3604">Updated Plan</text><polygon fill="#181818" points="77,1097.9141,67,1101.9141,77,1105.9141,73,1101.9141" style="stroke:#181818;stroke-width:1.0;"/><line style="stroke:#181818;stroke-width:1.0;stroke-dasharray:2.0,2.0;" x1="71" x2="226" y1="1101.9141" y2="1101.9141"/><text fill="#000000" font-family="sans-serif" font-size="13" font-weight="bold" lengthAdjust="spacing" textLength="14" x="83" y="1096.6514">24</text><text fill="#000000" font-family="sans-serif" font-size="13" lengthAdjust="spacing" textLength="78" x="101" y="1096.6514">Updated Plan</text><!--SRC=[bLHDRzim3BthLn2zD04IzEx3W2GEjXus54sxww3PZ2jCbZo9pX8C- - -Z9Djfd0zi1L9OukFN4n_lPKksi7MZaH2i4U5islexEY58aKROuCyMJO6GAravMSCS5Xu-I_S3IPaAIkMm8Ejcy0Y_f24W2rWg0WbFMXeXPB32tT4ZxppkG7fO5AAHZbIXck1ybmMdbJNahDQOC2jo-WBARz3jL84H4xulOPwniLvnjaE4XUDjs38VWClyDdIz9tH6wi6Xln1YKS3yGomSCdXQlAm-mKCJl1z-6rdZ7n5D30brCoJcaVgrAINXP4Ck41MGCrWpcLrYVWbFuD3RrXLiqfPHEtHUMJCL8iRYcA6K3BRAb8_RBnnZlLUU_2I4cufWx47BFC6MXm3x5lvrAAa9mX6sjZKbACEv2gaJVy1_oHtcGxg8nfWfOVLX04POg2u3SYqAr1wJWx5qCqLVQSzi1cz4JMmeSD9LswDxrDYB2VwuVkbV0BlR_YdElOUcdj4trd2nMsThw1t17pnX7HtFYHfGGoFNQ0ZtLwZufo1RoSufYYb5-8aJ1AGymF9Bq51ie0rAYzxSKtelLlGnKfgXRdOpU7bpzXSyiXGhgHUkQciqjDuNs13FN7h86B5x-Vcni_DfJ6Esp4UlTfn6k3QEFTCnrMXUtA37WQS-TPHD1crKLIv9Jahql7tAhqapC-1puLHiPWQrtBzwjl2NCYrX-6YzAbPX5HKT9bnisgfY9SOBNczgnrfiU48iOJaTLN4iOoDtsDLIGXZ5um34lYveuKPlYTRYJPeAWtkE99Ns_H1Fql8uxehJpgUZcJhJordW_mfu9gLtaK-sOQBZeYHloFAr8p7IDkcTfzTqyXv-8fVHi9_WkWtDHjxb8zjV]--></g></svg>