<?xml version="1.0" encoding="us-ascii" standalone="no"?><svg xmlns="http://www.w3.org/2000/svg" xmlns:xlink="http://www.w3.org/1999/xlink" contentStyleType="text/css" height="682px" preserveAspectRatio="none" style="width:612px;height:682px;background:#FFFFFF;" version="1.1" viewBox="0 0 612 682" width="612px" zoomAndPan="magnify"><defs/><g><text fill="#000000" font-family="sans-serif" font-size="14" font-weight="bold" lengthAdjust="spacing" textLength="276" x="169" y="30.1074">Software Design Document - Edit a Plan</text><rect fill="#ADD8E6" height="630.9961" style="stroke:#181818;stroke-width:0.5;" width="318" x="271" y="45.6211"/><text fill="#000000" font-family="sans-serif" font-size="13" font-weight="bold" lengthAdjust="spacing" textLength="46" x="407" y="59.6494">System</text><rect fill="none" height="299.5898" style="stroke:#000000;stroke-width:1.5;" width="595" x="10" y="278.4063"/><rect fill="none" height="205.377" style="stroke:#000000;stroke-width:1.5;" width="575" x="20" y="365.6191"/><line style="stroke:#181818;stroke-width:0.5;stroke-dasharray:5.0,5.0;" x1="91" x2="91" y1="123.2422" y2="594.9961"/><line style="stroke:#181818;stroke-width:0.5;stroke-dasharray:5.0,5.0;" x1="303" x2="303" y1="123.2422" y2="594.9961"/><line style="stroke:#181818;stroke-width:0.5;stroke-dasharray:5.0,5.0;" x1="557" x2="557" y1="123.2422" y2="594.9961"/><text fill="#000000" font-family="sans-serif" font-size="14" lengthAdjust="spacing" textLength="116" x="30" y="119.7285">Marketing Director</text><ellipse cx="91" cy="53.1211" fill="#E2E2F0" rx="8" ry="8" style="stroke:#181818;stroke-width:0.5;"/><path d="M91,61.1211 L91,88.1211 M78,69.1211 L104,69.1211 M91,88.1211 L78,103.1211 M91,88.1211 L104,103.1211 " fill="none" style="stroke:#181818;stroke-width:0.5;"/><text fill="#000000" font-family="sans-serif" font-size="14" lengthAdjust="spacing" textLength="116" x="30" y="609.1035">Marketing Director</text><ellipse cx="91" cy="621.1172" fill="#E2E2F0" rx="8" ry="8" style="stroke:#181818;stroke-width:0.5;"/><path d="M91,629.1172 L91,656.1172 M78,637.1172 L104,637.1172 M91,656.1172 L78,671.1172 M91,656.1172 L104,671.1172 " fill="none" style="stroke:#181818;stroke-width:0.5;"/><rect fill="#E2E2F0" height="32.6211" rx="2.5" ry="2.5" style="stroke:#181818;stroke-width:0.5;" width="56" x="275" y="89.6211"/><text fill="#000000" font-family="sans-serif" font-size="14" lengthAdjust="spacing" textLength="42" x="282" y="111.7285">plans1</text><rect fill="#E2E2F0" height="32.6211" rx="2.5" ry="2.5" style="stroke:#181818;stroke-width:0.5;" width="56" x="275" y="593.9961"/><text fill="#000000" font-family="sans-serif" font-size="14" lengthAdjust="spacing" textLength="42" x="282" y="616.1035">plans1</text><rect fill="#E2E2F0" height="32.6211" rx="2.5" ry="2.5" style="stroke:#181818;stroke-width:0.5;" width="56" x="529" y="89.6211"/><text fill="#000000" font-family="sans-serif" font-size="14" lengthAdjust="spacing" textLength="42" x="536" y="111.7285">plans2</text><rect fill="#E2E2F0" height="32.6211" rx="2.5" ry="2.5" style="stroke:#181818;stroke-width:0.5;" width="56" x="529" y="593.9961"/><text fill="#000000" font-family="sans-serif" font-size="14" lengthAdjust="spacing" textLength="42" x="536" y="616.1035">plans2</text><polygon fill="#181818" points="291,152.5332,301,156.5332,291,160.5332,295,156.5332" style="stroke:#181818;stroke-width:1.0;"/><line style="stroke:#181818;stroke-width:1.0;" x1="91" x2="297" y1="156.5332" y2="156.5332"/><text fill="#000000" font-family="sans-serif" font-size="13" font-weight="bold" lengthAdjust="spacing" textLength="7" x="98" y="151.2705">1</text><text fill="#000000" font-family="sans-serif" font-size="13" lengthAdjust="spacing" textLength="126" x="109" y="151.2705">PATCH /plans/{name}</text><line style="stroke:#181818;stroke-width:1.0;" x1="303" x2="345" y1="187.8242" y2="187.8242"/><line style="stroke:#181818;stroke-width:1.0;" x1="345" x2="345" y1="187.8242" y2="200.8242"/><line style="stroke:#181818;stroke-width:1.0;" x1="304" x2="345" y1="200.8242" y2="200.8242"/><polygon fill="#181818" points="314,196.8242,304,200.8242,314,204.8242,310,200.8242" style="stroke:#181818;stroke-width:1.0;"/><text fill="#000000" font-family="sans-serif" font-size="13" font-weight="bold" lengthAdjust="spacing" textLength="7" x="310" y="182.5615">2</text><text fill="#000000" font-family="sans-serif" font-size="13" lengthAdjust="spacing" textLength="86" x="321" y="182.5615">findPlan(name)</text><polygon fill="#181818" points="545,228.1152,555,232.1152,545,236.1152,549,232.1152" style="stroke:#181818;stroke-width:1.0;"/><line style="stroke:#181818;stroke-width:1.0;" x1="303" x2="551" y1="232.1152" y2="232.1152"/><text fill="#000000" font-family="sans-serif" font-size="13" font-weight="bold" lengthAdjust="spacing" textLength="7" x="310" y="226.8525">3</text><text fill="#000000" font-family="sans-serif" font-size="13" lengthAdjust="spacing" textLength="159" x="321" y="226.8525">GET /plans/external/{name}</text><polygon fill="#181818" points="314,259.4063,304,263.4063,314,267.4063,310,263.4063" style="stroke:#181818;stroke-width:1.0;"/><line style="stroke:#181818;stroke-width:1.0;stroke-dasharray:2.0,2.0;" x1="308" x2="556" y1="263.4063" y2="263.4063"/><text fill="#000000" font-family="sans-serif" font-size="13" font-weight="bold" lengthAdjust="spacing" textLength="7" x="320" y="258.1436">4</text><text fill="#000000" font-family="sans-serif" font-size="13" lengthAdjust="spacing" textLength="68" x="331" y="258.1436">true or false</text><path d="M10,278.4063 L71,278.4063 L71,287.6973 L61,297.6973 L10,297.6973 L10,278.4063 " fill="#EEEEEE" style="stroke:#000000;stroke-width:1.5;"/><rect fill="none" height="299.5898" style="stroke:#000000;stroke-width:1.5;" width="595" x="10" y="278.4063"/><text fill="#000000" font-family="sans-serif" font-size="13" font-weight="bold" lengthAdjust="spacing" textLength="16" x="25" y="293.4346">alt</text><text fill="#000000" font-family="sans-serif" font-size="11" font-weight="bold" lengthAdjust="spacing" textLength="127" x="86" y="292.2764">[nameNotExists - false]</text><line style="stroke:#181818;stroke-width:1.0;stroke-dasharray:2.0,2.0;" x1="303" x2="345" y1="320.9883" y2="320.9883"/><line style="stroke:#181818;stroke-width:1.0;stroke-dasharray:2.0,2.0;" x1="345" x2="345" y1="320.9883" y2="333.9883"/><line style="stroke:#181818;stroke-width:1.0;stroke-dasharray:2.0,2.0;" x1="304" x2="345" y1="333.9883" y2="333.9883"/><polygon fill="#181818" points="314,329.9883,304,333.9883,314,337.9883,310,333.9883" style="stroke:#181818;stroke-width:1.0;"/><text fill="#000000" font-family="sans-serif" font-size="13" font-weight="bold" lengthAdjust="spacing" textLength="7" x="310" y="315.7256">5</text><text fill="#000000" font-family="sans-serif" font-size="13" lengthAdjust="spacing" textLength="162" x="321" y="315.7256">informs operation insuccess</text><line style="stroke:#000000;stroke-width:1.0;stroke-dasharray:2.0,2.0;" x1="10" x2="605" y1="342.9883" y2="342.9883"/><text fill="#000000" font-family="sans-serif" font-size="11" font-weight="bold" lengthAdjust="spacing" textLength="105" x="15" y="354.8584">[nameExists - true]</text><path d="M20,365.6191 L81,365.6191 L81,374.9102 L71,384.9102 L20,384.9102 L20,365.6191 " fill="#EEEEEE" style="stroke:#000000;stroke-width:1.5;"/><rect fill="none" height="205.377" style="stroke:#000000;stroke-width:1.5;" width="575" x="20" y="365.6191"/><text fill="#000000" font-family="sans-serif" font-size="13" font-weight="bold" lengthAdjust="spacing" textLength="16" x="35" y="380.6475">alt</text><text fill="#000000" font-family="sans-serif" font-size="11" font-weight="bold" lengthAdjust="spacing" textLength="168" x="96" y="379.4893">[Plan found in local repository]</text><line style="stroke:#181818;stroke-width:1.0;" x1="303" x2="345" y1="408.2012" y2="408.2012"/><line style="stroke:#181818;stroke-width:1.0;" x1="345" x2="345" y1="408.2012" y2="421.2012"/><line style="stroke:#181818;stroke-width:1.0;" x1="304" x2="345" y1="421.2012" y2="421.2012"/><polygon fill="#181818" points="314,417.2012,304,421.2012,314,425.2012,310,421.2012" style="stroke:#181818;stroke-width:1.0;"/><text fill="#000000" font-family="sans-serif" font-size="13" font-weight="bold" lengthAdjust="spacing" textLength="7" x="310" y="402.9385">6</text><text fill="#000000" font-family="sans-serif" font-size="13" lengthAdjust="spacing" textLength="137" x="321" y="402.9385">update(name, resource)</text><polygon fill="#181818" points="102,448.4922,92,452.4922,102,456.4922,98,452.4922" style="stroke:#181818;stroke-width:1.0;"/><line style="stroke:#181818;stroke-width:1.0;stroke-dasharray:2.0,2.0;" x1="96" x2="302" y1="452.4922" y2="452.4922"/><text fill="#000000" font-family="sans-serif" font-size="13" font-weight="bold" lengthAdjust="spacing" textLength="7" x="108" y="447.2295">7</text><text fill="#000000" font-family="sans-serif" font-size="13" lengthAdjust="spacing" textLength="170" x="119" y="447.2295">informs operation (in)success</text><line style="stroke:#000000;stroke-width:1.0;stroke-dasharray:2.0,2.0;" x1="20" x2="595" y1="461.4922" y2="461.4922"/><text fill="#000000" font-family="sans-serif" font-size="11" font-weight="bold" lengthAdjust="spacing" textLength="189" x="25" y="473.3623">[Plan not found in local repository]</text><polygon fill="#181818" points="545,496.4141,555,500.4141,545,504.4141,549,500.4141" style="stroke:#181818;stroke-width:1.0;"/><line style="stroke:#181818;stroke-width:1.0;" x1="303" x2="551" y1="500.4141" y2="500.4141"/><text fill="#000000" font-family="sans-serif" font-size="13" font-weight="bold" lengthAdjust="spacing" textLength="7" x="310" y="495.1514">8</text><text fill="#000000" font-family="sans-serif" font-size="13" lengthAdjust="spacing" textLength="219" x="321" y="495.1514">PATCH /plans/update/external/{name}</text><polygon fill="#181818" points="314,527.7051,304,531.7051,314,535.7051,310,531.7051" style="stroke:#181818;stroke-width:1.0;"/><line style="stroke:#181818;stroke-width:1.0;stroke-dasharray:2.0,2.0;" x1="308" x2="556" y1="531.7051" y2="531.7051"/><text fill="#000000" font-family="sans-serif" font-size="13" font-weight="bold" lengthAdjust="spacing" textLength="7" x="320" y="526.4424">9</text><text fill="#000000" font-family="sans-serif" font-size="13" lengthAdjust="spacing" textLength="170" x="331" y="526.4424">informs operation (in)success</text><polygon fill="#181818" points="102,558.9961,92,562.9961,102,566.9961,98,562.9961" style="stroke:#181818;stroke-width:1.0;"/><line style="stroke:#181818;stroke-width:1.0;stroke-dasharray:2.0,2.0;" x1="96" x2="302" y1="562.9961" y2="562.9961"/><text fill="#000000" font-family="sans-serif" font-size="13" font-weight="bold" lengthAdjust="spacing" textLength="14" x="108" y="557.7334">10</text><text fill="#000000" font-family="sans-serif" font-size="13" lengthAdjust="spacing" textLength="170" x="126" y="557.7334">informs operation (in)success</text><!--SRC=[dL5DImCn4BtFhnZMWorOYdlq81HRzA8KsZ-GPcThC9iioGHRnF_k9DgbrYBe7XPstiUyUNkf4dljkzuI4te7-TkbRaC1W0rRmfLl-LK5mZb5itKuzpfrv1Wdk6WCeyAbLGv0QVO1gqSLNeYDs-BS1Cgp2bN4cOQDts6rsaUchi8BQxRFlB69e5U1ZJQz4i-g5wzuNIH2FOFL1wm6SWsAAS1Cu-Gsp_06bxFrtGDE2tVwvbH7xv2HWT0Qr-J4euoDZx1QmFl5-g2b7LDmoXwPr3WPR3WaAInWgsmakTuoPjwJvyNEH1RJBmZbAKi6gN6j3rr4trDGRBoJIKnQKun08Yb6WqjU1CKbxyZ9iVL9JZSEhTVAOg3UHoDDxmjjM7ZOb_f6CPLxhuGSVGfQBl_65RAqU2xRoBZn8LscbuGbXlFyfoZrwU_v3FQZwIDb_Mjjfz7-Surh0CeBFW00]--></g></svg>