<?xml version="1.0" encoding="us-ascii" standalone="no"?><svg xmlns="http://www.w3.org/2000/svg" xmlns:xlink="http://www.w3.org/1999/xlink" contentStyleType="text/css" height="745px" preserveAspectRatio="none" style="width:767px;height:745px;background:#FFFFFF;" version="1.1" viewBox="0 0 767 745" width="767px" zoomAndPan="magnify"><defs/><g><text fill="#000000" font-family="sans-serif" font-size="14" font-weight="bold" lengthAdjust="spacing" textLength="458" x="147.5" y="25.1074">Class Diagram / As Marketing director, I want to define a new Plan</text><!--class PlansRepositoryBD--><g id="elem_PlansRepositoryBD"><rect codeLine="35" fill="#F1F1F1" height="97.8242" id="PlansRepositoryBD" rx="2.5" ry="2.5" style="stroke:#181818;stroke-width:0.5;" width="343" x="91" y="330.6211"/><text fill="#000000" font-family="sans-serif" font-size="12" font-style="italic" lengthAdjust="spacing" textLength="61" x="232" y="348.5703">&#171;interface&#187;</text><text fill="#000000" font-family="sans-serif" font-size="14" font-style="italic" lengthAdjust="spacing" textLength="122" x="201.5" y="366.6895">PlansRepositoryBD</text><line style="stroke:#181818;stroke-width:0.5;" x1="92" x2="433" y1="375.2031" y2="375.2031"/><line style="stroke:#181818;stroke-width:0.5;" x1="92" x2="433" y1="383.2031" y2="383.2031"/><ellipse cx="102" cy="398.0137" fill="#84BE84" rx="3" ry="3" style="stroke:#038048;stroke-width:1.0;"/><text fill="#000000" font-family="sans-serif" font-size="14" lengthAdjust="spacing" textLength="317" x="111" y="402.3105">findByName_Name(String name): Optional&lt;Plans&gt;</text><ellipse cx="102" cy="416.6348" fill="#84BE84" rx="3" ry="3" style="stroke:#038048;stroke-width:1.0;"/><text fill="#000000" font-family="sans-serif" font-size="14" lengthAdjust="spacing" textLength="216" x="111" y="420.9316">save(S entity) : &lt;S extends Plans&gt;</text></g><!--class Plans--><g id="elem_Plans"><rect codeLine="9" fill="#F1F1F1" height="230.832" id="Plans" rx="2.5" ry="2.5" style="stroke:#181818;stroke-width:0.5;" width="184" x="170.5" y="507.6211"/><text fill="#000000" font-family="sans-serif" font-size="14" lengthAdjust="spacing" textLength="35" x="245" y="527.7285">Plans</text><line style="stroke:#181818;stroke-width:0.5;" x1="171.5" x2="353.5" y1="536.2422" y2="536.2422"/><rect fill="none" height="6" style="stroke:#C82930;stroke-width:1.0;" width="6" x="178.5" y="548.0527"/><text fill="#000000" font-family="sans-serif" font-size="14" lengthAdjust="spacing" textLength="35" x="190.5" y="555.3496">name</text><rect fill="none" height="6" style="stroke:#C82930;stroke-width:1.0;" width="6" x="178.5" y="566.6738"/><text fill="#000000" font-family="sans-serif" font-size="14" lengthAdjust="spacing" textLength="69" x="190.5" y="573.9707">description</text><rect fill="none" height="6" style="stroke:#C82930;stroke-width:1.0;" width="6" x="178.5" y="585.2949"/><text fill="#000000" font-family="sans-serif" font-size="14" lengthAdjust="spacing" textLength="112" x="190.5" y="592.5918">numberOfMinutes</text><rect fill="none" height="6" style="stroke:#C82930;stroke-width:1.0;" width="6" x="178.5" y="603.916"/><text fill="#000000" font-family="sans-serif" font-size="14" lengthAdjust="spacing" textLength="158" x="190.5" y="611.2129">maximumNumberOfUsers</text><rect fill="none" height="6" style="stroke:#C82930;stroke-width:1.0;" width="6" x="178.5" y="622.5371"/><text fill="#000000" font-family="sans-serif" font-size="14" lengthAdjust="spacing" textLength="98" x="190.5" y="629.834">musicCollection</text><rect fill="none" height="6" style="stroke:#C82930;stroke-width:1.0;" width="6" x="178.5" y="641.1582"/><text fill="#000000" font-family="sans-serif" font-size="14" lengthAdjust="spacing" textLength="107" x="190.5" y="648.4551">musicSuggestion</text><rect fill="none" height="6" style="stroke:#C82930;stroke-width:1.0;" width="6" x="178.5" y="659.7793"/><text fill="#000000" font-family="sans-serif" font-size="14" lengthAdjust="spacing" textLength="68" x="190.5" y="667.0762">annualFee</text><rect fill="none" height="6" style="stroke:#C82930;stroke-width:1.0;" width="6" x="178.5" y="678.4004"/><text fill="#000000" font-family="sans-serif" font-size="14" lengthAdjust="spacing" textLength="74" x="190.5" y="685.6973">monthlyFee</text><rect fill="none" height="6" style="stroke:#C82930;stroke-width:1.0;" width="6" x="178.5" y="697.0215"/><text fill="#000000" font-family="sans-serif" font-size="14" lengthAdjust="spacing" textLength="37" x="190.5" y="704.3184">active</text><rect fill="none" height="6" style="stroke:#C82930;stroke-width:1.0;" width="6" x="178.5" y="715.6426"/><text fill="#000000" font-family="sans-serif" font-size="14" lengthAdjust="spacing" textLength="60" x="190.5" y="722.9395">promoted</text><line style="stroke:#181818;stroke-width:0.5;" x1="171.5" x2="353.5" y1="730.4531" y2="730.4531"/></g><!--class PlansViewMapper--><g id="elem_PlansViewMapper"><rect codeLine="21" fill="#F1F1F1" height="63.2422" id="PlansViewMapper" rx="2.5" ry="2.5" style="stroke:#181818;stroke-width:0.5;" width="253" x="69" y="188.6211"/><text fill="#000000" font-family="sans-serif" font-size="14" lengthAdjust="spacing" textLength="112" x="139.5" y="208.7285">PlansViewMapper</text><line style="stroke:#181818;stroke-width:0.5;" x1="70" x2="321" y1="217.2422" y2="217.2422"/><line style="stroke:#181818;stroke-width:0.5;" x1="70" x2="321" y1="225.2422" y2="225.2422"/><ellipse cx="80" cy="240.0527" fill="#84BE84" rx="3" ry="3" style="stroke:#038048;stroke-width:1.0;"/><text fill="#000000" font-family="sans-serif" font-size="14" lengthAdjust="spacing" textLength="227" x="89" y="244.3496">toPlansView(Plans plans):PlansView</text></g><!--class PlansController--><g id="elem_PlansController"><rect codeLine="24" fill="#F1F1F1" height="63.2422" id="PlansController" rx="2.5" ry="2.5" style="stroke:#181818;stroke-width:0.5;" width="459" x="7" y="46.6211"/><text fill="#000000" font-family="sans-serif" font-size="14" lengthAdjust="spacing" textLength="97" x="188" y="66.7285">PlansController</text><line style="stroke:#181818;stroke-width:0.5;" x1="8" x2="465" y1="75.2422" y2="75.2422"/><line style="stroke:#181818;stroke-width:0.5;" x1="8" x2="465" y1="83.2422" y2="83.2422"/><text fill="#000000" font-family="sans-serif" font-size="14" lengthAdjust="spacing" textLength="447" x="13" y="102.3496">create(final CreatePlanRequest resource):ResponseEntity&lt;PlansView&gt;</text></g><!--class PlansService--><g id="elem_PlansService"><rect codeLine="27" fill="#F1F1F1" height="63.2422" id="PlansService" rx="2.5" ry="2.5" style="stroke:#181818;stroke-width:0.5;" width="298" x="357.5" y="188.6211"/><text fill="#000000" font-family="sans-serif" font-size="14" lengthAdjust="spacing" textLength="82" x="465.5" y="208.7285">PlansService</text><line style="stroke:#181818;stroke-width:0.5;" x1="358.5" x2="654.5" y1="217.2422" y2="217.2422"/><line style="stroke:#181818;stroke-width:0.5;" x1="358.5" x2="654.5" y1="225.2422" y2="225.2422"/><ellipse cx="368.5" cy="240.0527" fill="#84BE84" rx="3" ry="3" style="stroke:#038048;stroke-width:1.0;"/><text fill="#000000" font-family="sans-serif" font-size="14" lengthAdjust="spacing" textLength="272" x="377.5" y="244.3496">create(createPlansMapper resource):Plans</text></g><!--class CreatePlansMapper--><g id="elem_CreatePlansMapper"><rect codeLine="31" fill="#F1F1F1" height="63.2422" id="CreatePlansMapper" rx="2.5" ry="2.5" style="stroke:#181818;stroke-width:0.5;" width="291" x="469" y="348.1211"/><text fill="#000000" font-family="sans-serif" font-size="14" lengthAdjust="spacing" textLength="126" x="551.5" y="368.2285">CreatePlansMapper</text><line style="stroke:#181818;stroke-width:0.5;" x1="470" x2="759" y1="376.7422" y2="376.7422"/><line style="stroke:#181818;stroke-width:0.5;" x1="470" x2="759" y1="384.7422" y2="384.7422"/><ellipse cx="480" cy="399.5527" fill="#84BE84" rx="3" ry="3" style="stroke:#038048;stroke-width:1.0;"/><text fill="#000000" font-family="sans-serif" font-size="14" lengthAdjust="spacing" textLength="265" x="489" y="403.8496">create(CreatePlanRequest request):Plans</text></g><!--link PlansController to PlansService--><g id="link_PlansController_PlansService"><path codeLine="42" d="M295.42,109.6711 C340.42,133.0011 396.8332,162.2596 441.9132,185.6296 " fill="none" id="PlansController-to-PlansService" style="stroke:#181818;stroke-width:1.0;stroke-dasharray:7.0,7.0;"/><polygon fill="#181818" points="447.24,188.3911,441.0908,180.6977,442.801,186.0899,437.4089,187.8001,447.24,188.3911" style="stroke:#181818;stroke-width:1.0;"/><polygon fill="#000000" points="396.9388,151.5682,390.2618,144.7955,387.5561,150.0136,396.9388,151.5682" style="stroke:#000000;stroke-width:1.0;"/><text fill="#000000" font-family="sans-serif" font-size="13" lengthAdjust="spacing" textLength="28" x="401.5" y="154.6494">uses</text></g><!--link PlansService to PlansRepositoryBD--><g id="link_PlansService_PlansRepositoryBD"><path codeLine="43" d="M459.17,251.6711 C424.52,274.0411 381.8615,301.5779 342.1115,327.2279 " fill="none" id="PlansService-to-PlansRepositoryBD" style="stroke:#181818;stroke-width:1.0;stroke-dasharray:7.0,7.0;"/><polygon fill="#181818" points="337.07,330.4811,346.801,328.9623,341.2713,327.7701,342.4635,322.2403,337.07,330.4811" style="stroke:#181818;stroke-width:1.0;"/><polygon fill="#000000" points="406.2991,293.9781,415.4924,291.5422,412.3048,286.6037,406.2991,293.9781" style="stroke:#000000;stroke-width:1.0;"/><text fill="#000000" font-family="sans-serif" font-size="13" lengthAdjust="spacing" textLength="28" x="419.5" y="296.6494">uses</text></g><!--link PlansRepositoryBD to Plans--><g id="link_PlansRepositoryBD_Plans"><path codeLine="44" d="M262.5,428.6211 C262.5,451.3911 262.5,473.6511 262.5,501.4811 " fill="none" id="PlansRepositoryBD-to-Plans" style="stroke:#181818;stroke-width:1.0;stroke-dasharray:7.0,7.0;"/><polygon fill="#181818" points="262.5,507.4811,266.5,498.4811,262.5,502.4811,258.5,498.4811,262.5,507.4811" style="stroke:#181818;stroke-width:1.0;"/><polygon fill="#000000" points="267.5,463.2666,264.5611,472.3117,270.4389,472.3117,267.5,463.2666" style="stroke:#000000;stroke-width:1.0;"/><text fill="#000000" font-family="sans-serif" font-size="13" lengthAdjust="spacing" textLength="36" x="276.5" y="473.6494">record</text></g><!--link PlansService to CreatePlansMapper--><g id="link_PlansService_CreatePlansMapper"><path codeLine="45" d="M527.58,251.8611 C546.61,279.6111 571.0674,315.2823 590.0774,343.0123 " fill="none" id="PlansService-to-CreatePlansMapper" style="stroke:#181818;stroke-width:1.0;stroke-dasharray:7.0,7.0;"/><polygon fill="#181818" points="593.47,347.9611,591.6803,338.2762,590.6428,343.8371,585.0819,342.7996,593.47,347.9611" style="stroke:#181818;stroke-width:1.0;"/><polygon fill="#000000" points="568.3274,295.3904,565.6364,286.2685,560.7887,289.5923,568.3274,295.3904" style="stroke:#000000;stroke-width:1.0;"/><text fill="#000000" font-family="sans-serif" font-size="13" lengthAdjust="spacing" textLength="28" x="574.5" y="296.6494">uses</text></g><!--link PlansController to PlansViewMapper--><g id="link_PlansController_PlansViewMapper"><path codeLine="46" d="M227.5,109.8411 C220.67,133.1911 212.9958,159.3828 206.1658,182.7128 " fill="none" id="PlansController-to-PlansViewMapper" style="stroke:#181818;stroke-width:1.0;stroke-dasharray:7.0,7.0;"/><polygon fill="#181818" points="204.48,188.4711,210.8475,180.9575,205.8848,183.6725,203.1698,178.7098,204.48,188.4711" style="stroke:#181818;stroke-width:1.0;"/><polygon fill="#000000" points="222.0951,154.0652,227.4571,146.2102,221.816,144.5587,222.0951,154.0652" style="stroke:#000000;stroke-width:1.0;"/><text fill="#000000" font-family="sans-serif" font-size="13" lengthAdjust="spacing" textLength="28" x="232.5" y="154.6494">uses</text></g><!--SRC=[RLFBRjim4BppA_PM6sxiks08Q9G6oC59OQEz5YorjebIfCebxHX1_hqhwX79ZWuIEHpEpf2hBySGQifMgzf86s9bbifLAsKaqLsfvS7BIXnrYQ2qLmP5Me4VJAOjrevqSFvo_m3hjRO1_Lugp7CXWWu6eKZaXrO6Ll2DO2FzNmpQ7g3K7XNl_WfFSERQ41oKkDSMGOB5SoeY-1cLV1F0pvsL5ROZta7AwpfePpl4nkeF-fVzHjiOa5gqag-wYjLpj_QJqFShaRGgd35ifXVfq5qy7916gBGsIlE8sBES3KTp-G0aQvpwIUrTvGAMudqSuPV6yqRMDVesp2Au0P-b4JHNGVDiWAS21HVrZTzEG7cK0MTySD90aIODRul_8fi7Z-IYLpZFjaYriuJVBT_EPJt8vqbcKcE7_gGLSe559wy6OMhTZuGJAWQNnJMr2zefVMOnVNkXTo66NhhjDF4c5forlByySnVyRbwpNV1DHpLjCS_W9NM3D6t2N2n8dfW3c7BF8OCrJru3shABcpSrnTNfmdAPJquZWqX8a8in-C4QcvnI9p_Am6SRd5mvNzuAtXpXL71gyggjUkf_]--></g></svg>