<?xml version="1.0" encoding="us-ascii" standalone="no"?><svg xmlns="http://www.w3.org/2000/svg" xmlns:xlink="http://www.w3.org/1999/xlink" contentStyleType="text/css" height="284px" preserveAspectRatio="none" style="width:678px;height:284px;background:#FFFFFF;" version="1.1" viewBox="0 0 678 284" width="678px" zoomAndPan="magnify"><defs/><g><text fill="#000000" font-family="sans-serif" font-size="14" font-weight="bold" lengthAdjust="spacing" textLength="329" x="173.75" y="30.1074">Software Design Document - Define a New Plan</text><rect fill="#FFFFFF" height="128.8096" style="stroke:#181818;stroke-width:1.0;" width="10" x="607" y="88.2422"/><line style="stroke:#181818;stroke-width:0.5;stroke-dasharray:5.0,5.0;" x1="59" x2="59" y1="78.2422" y2="246.6973"/><line style="stroke:#181818;stroke-width:0.5;stroke-dasharray:5.0,5.0;" x1="178" x2="178" y1="78.2422" y2="246.6973"/><line style="stroke:#181818;stroke-width:0.5;stroke-dasharray:5.0,5.0;" x1="303" x2="303" y1="78.2422" y2="246.6973"/><line style="stroke:#181818;stroke-width:0.5;stroke-dasharray:5.0,5.0;" x1="434" x2="434" y1="78.2422" y2="246.6973"/><line style="stroke:#181818;stroke-width:0.5;stroke-dasharray:5.0,5.0;" x1="611.5" x2="611.5" y1="78.2422" y2="246.6973"/><rect fill="#E2E2F0" height="32.6211" rx="2.5" ry="2.5" style="stroke:#181818;stroke-width:0.5;" width="108" x="5" y="44.6211"/><text fill="#000000" font-family="sans-serif" font-size="14" lengthAdjust="spacing" textLength="94" x="12" y="66.7285">planC[n]:planC</text><rect fill="#E2E2F0" height="32.6211" rx="2.5" ry="2.5" style="stroke:#181818;stroke-width:0.5;" width="108" x="5" y="245.6973"/><text fill="#000000" font-family="sans-serif" font-size="14" lengthAdjust="spacing" textLength="94" x="12" y="267.8047">planC[n]:planC</text><rect fill="#E2E2F0" height="32.6211" rx="2.5" ry="2.5" style="stroke:#181818;stroke-width:0.5;" width="111" x="123" y="44.6211"/><text fill="#000000" font-family="sans-serif" font-size="14" lengthAdjust="spacing" textLength="97" x="130" y="66.7285">PlanQ[n]:planQ</text><rect fill="#E2E2F0" height="32.6211" rx="2.5" ry="2.5" style="stroke:#181818;stroke-width:0.5;" width="111" x="123" y="245.6973"/><text fill="#000000" font-family="sans-serif" font-size="14" lengthAdjust="spacing" textLength="97" x="130" y="267.8047">PlanQ[n]:planQ</text><rect fill="#E2E2F0" height="32.6211" rx="2.5" ry="2.5" style="stroke:#181818;stroke-width:0.5;" width="118" x="244" y="44.6211"/><text fill="#000000" font-family="sans-serif" font-size="14" lengthAdjust="spacing" textLength="104" x="251" y="66.7285">SubsC[n]:SubsC</text><rect fill="#E2E2F0" height="32.6211" rx="2.5" ry="2.5" style="stroke:#181818;stroke-width:0.5;" width="118" x="244" y="245.6973"/><text fill="#000000" font-family="sans-serif" font-size="14" lengthAdjust="spacing" textLength="104" x="251" y="267.8047">SubsC[n]:SubsC</text><rect fill="#E2E2F0" height="32.6211" rx="2.5" ry="2.5" style="stroke:#181818;stroke-width:0.5;" width="124" x="372" y="44.6211"/><text fill="#000000" font-family="sans-serif" font-size="14" lengthAdjust="spacing" textLength="110" x="379" y="66.7285">SubsQ[n]:SubsQ:</text><rect fill="#E2E2F0" height="32.6211" rx="2.5" ry="2.5" style="stroke:#181818;stroke-width:0.5;" width="124" x="372" y="245.6973"/><text fill="#000000" font-family="sans-serif" font-size="14" lengthAdjust="spacing" textLength="110" x="379" y="267.8047">SubsQ[n]:SubsQ:</text><rect fill="#E2E2F0" height="32.6211" rx="2.5" ry="2.5" style="stroke:#181818;stroke-width:0.5;" width="121" x="551.5" y="44.6211"/><text fill="#000000" font-family="sans-serif" font-size="14" lengthAdjust="spacing" textLength="107" x="558.5" y="66.7285">Message Broker:</text><rect fill="#E2E2F0" height="32.6211" rx="2.5" ry="2.5" style="stroke:#181818;stroke-width:0.5;" width="121" x="551.5" y="245.6973"/><text fill="#000000" font-family="sans-serif" font-size="14" lengthAdjust="spacing" textLength="107" x="558.5" y="267.8047">Message Broker:</text><rect fill="#FFFFFF" height="128.8096" style="stroke:#181818;stroke-width:1.0;" width="10" x="607" y="88.2422"/><polygon fill="#181818" points="595,107.5332,605,111.5332,595,115.5332,599,111.5332" style="stroke:#181818;stroke-width:1.0;"/><line style="stroke:#181818;stroke-width:1.0;" x1="59" x2="601" y1="111.5332" y2="111.5332"/><text fill="#000000" font-family="sans-serif" font-size="13" font-weight="bold" lengthAdjust="spacing" textLength="7" x="66" y="106.2705">1</text><text fill="#000000" font-family="sans-serif" font-size="13" lengthAdjust="spacing" textLength="138" x="77" y="106.2705">subscribe(created_plan)</text><polygon fill="#181818" points="595,138.8242,605,142.8242,595,146.8242,599,142.8242" style="stroke:#181818;stroke-width:1.0;"/><line style="stroke:#181818;stroke-width:1.0;" x1="178.5" x2="601" y1="142.8242" y2="142.8242"/><text fill="#000000" font-family="sans-serif" font-size="13" font-weight="bold" lengthAdjust="spacing" textLength="7" x="185.5" y="137.5615">2</text><text fill="#000000" font-family="sans-serif" font-size="13" lengthAdjust="spacing" textLength="138" x="196.5" y="137.5615">subscribe(created_plan)</text><polygon fill="#181818" points="595,170.1152,605,174.1152,595,178.1152,599,174.1152" style="stroke:#181818;stroke-width:1.0;"/><line style="stroke:#181818;stroke-width:1.0;" x1="303" x2="601" y1="174.1152" y2="174.1152"/><text fill="#000000" font-family="sans-serif" font-size="13" font-weight="bold" lengthAdjust="spacing" textLength="7" x="310" y="168.8525">3</text><text fill="#000000" font-family="sans-serif" font-size="13" lengthAdjust="spacing" textLength="138" x="321" y="168.8525">subscribe(created_plan)</text><polygon fill="#181818" points="600,213.0518,610,217.0518,600,221.0518,604,217.0518" style="stroke:#181818;stroke-width:1.0;"/><line style="stroke:#181818;stroke-width:1.0;" x1="434" x2="606" y1="217.0518" y2="217.0518"/><text fill="#000000" font-family="sans-serif" font-size="13" font-weight="bold" lengthAdjust="spacing" textLength="7" x="441" y="211.7891">4</text><text fill="#000000" font-family="sans-serif" font-size="13" lengthAdjust="spacing" textLength="138" x="452" y="211.7891">subscribe(created_plan)</text><path d="M224,187.1152 L224,231.1152 L429,231.1152 L429,197.1152 L419,187.1152 L224,187.1152 " fill="#FEFFDD" style="stroke:#181818;stroke-width:0.5;"/><path d="M419,187.1152 L419,197.1152 L429,197.1152 L419,187.1152 " fill="#FEFFDD" style="stroke:#181818;stroke-width:0.5;"/><text fill="#000000" font-family="sans-serif" font-size="13" lengthAdjust="spacing" textLength="184" x="230" y="206.1436">[n] represents the the instances</text><text fill="#000000" font-family="sans-serif" font-size="13" lengthAdjust="spacing" textLength="121" x="230" y="223.4346">it can be n instances</text><!--SRC=[XP6nJiGm38PtFuLr2p3S2tHWeBU26cL42BcfUqIqJfMutElZjZhf3eOEaNuxNpxPoWFDca8Qfu6LCGaijSnZonb0emwCFlLweSnuuXBFWgSKvf55yMYTFWeZuHjVi1b802RA6aESo833PAtwNJwgDHoG2ZRrFRAySbV4ROYxH_pSbjMoXXNnzN_4NH5NRSmVpIkNGcV6bvo-EM_Cs09GqFX3jhqLJOt7PmjOOJ5JoB7bnv3PhhlFPS8dQDmkulSjVj_IyUra8Cd2mBs2xOcPfyp5Vg6WVl5weXGb2LmWAWOIR1dbfilIuIA1Nm00]--></g></svg>