<?xml version="1.0" encoding="us-ascii" standalone="no"?><svg xmlns="http://www.w3.org/2000/svg" xmlns:xlink="http://www.w3.org/1999/xlink" contentStyleType="text/css" height="610px" preserveAspectRatio="none" style="width:1276px;height:610px;background:#FFFFFF;" version="1.1" viewBox="0 0 1276 610" width="1276px" zoomAndPan="magnify"><defs/><g><text fill="#000000" font-family="sans-serif" font-size="14" font-weight="bold" lengthAdjust="spacing" textLength="1248" x="10" y="30.1074">Sequence Diagram/ As Marketing director, I want to define a new Plan detailing the monthly and annual cost, the maximum number of devices and other characteristics of the plan</text><rect fill="#FFFFFF" height="352.4922" style="stroke:#181818;stroke-width:1.0;" width="10" x="221.75" y="156.5332"/><rect fill="#FFFFFF" height="258.6191" style="stroke:#181818;stroke-width:1.0;" width="10" x="555.75" y="187.8242"/><rect fill="#FFFFFF" height="60.2275" style="stroke:#181818;stroke-width:1.0;" width="10" x="976.75" y="219.1152"/><rect fill="#FFFFFF" height="31.291" style="stroke:#181818;stroke-width:1.0;" width="10" x="976.75" y="383.8613"/><line style="stroke:#181818;stroke-width:0.5;stroke-dasharray:5.0,5.0;" x1="101.75" x2="101.75" y1="123.2422" y2="527.0254"/><line style="stroke:#181818;stroke-width:0.5;stroke-dasharray:5.0,5.0;" x1="226.75" x2="226.75" y1="123.2422" y2="527.0254"/><line style="stroke:#181818;stroke-width:0.5;stroke-dasharray:5.0,5.0;" x1="560.75" x2="560.75" y1="123.2422" y2="527.0254"/><line style="stroke:#181818;stroke-width:0.5;stroke-dasharray:5.0,5.0;" x1="981.25" x2="981.25" y1="123.2422" y2="527.0254"/><line style="stroke:#181818;stroke-width:0.5;stroke-dasharray:5.0,5.0;" x1="1140.25" x2="1140.25" y1="123.2422" y2="527.0254"/><text fill="#000000" font-family="sans-serif" font-size="14" lengthAdjust="spacing" textLength="116" x="40.75" y="119.7285">Marketing Director</text><ellipse cx="101.75" cy="53.1211" fill="#E2E2F0" rx="8" ry="8" style="stroke:#181818;stroke-width:0.5;"/><path d="M101.75,61.1211 L101.75,88.1211 M88.75,69.1211 L114.75,69.1211 M101.75,88.1211 L88.75,103.1211 M101.75,88.1211 L114.75,103.1211 " fill="none" style="stroke:#181818;stroke-width:0.5;"/><text fill="#000000" font-family="sans-serif" font-size="14" lengthAdjust="spacing" textLength="116" x="40.75" y="541.1328">Marketing Director</text><ellipse cx="101.75" cy="553.1465" fill="#E2E2F0" rx="8" ry="8" style="stroke:#181818;stroke-width:0.5;"/><path d="M101.75,561.1465 L101.75,588.1465 M88.75,569.1465 L114.75,569.1465 M101.75,588.1465 L88.75,603.1465 M101.75,588.1465 L114.75,603.1465 " fill="none" style="stroke:#181818;stroke-width:0.5;"/><rect fill="#E2E2F0" height="32.6211" rx="2.5" ry="2.5" style="stroke:#181818;stroke-width:0.5;" width="108" x="172.75" y="89.6211"/><text fill="#000000" font-family="sans-serif" font-size="14" lengthAdjust="spacing" textLength="94" x="179.75" y="111.7285">:PlanController</text><rect fill="#E2E2F0" height="32.6211" rx="2.5" ry="2.5" style="stroke:#181818;stroke-width:0.5;" width="108" x="172.75" y="526.0254"/><text fill="#000000" font-family="sans-serif" font-size="14" lengthAdjust="spacing" textLength="94" x="179.75" y="548.1328">:PlanController</text><rect fill="#E2E2F0" height="32.6211" rx="2.5" ry="2.5" style="stroke:#181818;stroke-width:0.5;" width="100" x="510.75" y="89.6211"/><text fill="#000000" font-family="sans-serif" font-size="14" lengthAdjust="spacing" textLength="86" x="517.75" y="111.7285">:PlansService</text><rect fill="#E2E2F0" height="32.6211" rx="2.5" ry="2.5" style="stroke:#181818;stroke-width:0.5;" width="100" x="510.75" y="526.0254"/><text fill="#000000" font-family="sans-serif" font-size="14" lengthAdjust="spacing" textLength="86" x="517.75" y="548.1328">:PlansService</text><rect fill="#E2E2F0" height="32.6211" rx="2.5" ry="2.5" style="stroke:#181818;stroke-width:0.5;" width="121" x="921.25" y="89.6211"/><text fill="#000000" font-family="sans-serif" font-size="14" lengthAdjust="spacing" textLength="107" x="928.25" y="111.7285">:PlansRepository</text><rect fill="#E2E2F0" height="32.6211" rx="2.5" ry="2.5" style="stroke:#181818;stroke-width:0.5;" width="121" x="921.25" y="526.0254"/><text fill="#000000" font-family="sans-serif" font-size="14" lengthAdjust="spacing" textLength="107" x="928.25" y="548.1328">:PlansRepository</text><rect fill="#E2E2F0" height="32.6211" rx="2.5" ry="2.5" style="stroke:#181818;stroke-width:0.5;" width="176" x="1052.25" y="89.6211"/><text fill="#000000" font-family="sans-serif" font-size="14" lengthAdjust="spacing" textLength="162" x="1059.25" y="111.7285">:CreatePlanJsonProducer</text><rect fill="#E2E2F0" height="32.6211" rx="2.5" ry="2.5" style="stroke:#181818;stroke-width:0.5;" width="176" x="1052.25" y="526.0254"/><text fill="#000000" font-family="sans-serif" font-size="14" lengthAdjust="spacing" textLength="162" x="1059.25" y="548.1328">:CreatePlanJsonProducer</text><rect fill="#FFFFFF" height="352.4922" style="stroke:#181818;stroke-width:1.0;" width="10" x="221.75" y="156.5332"/><rect fill="#FFFFFF" height="258.6191" style="stroke:#181818;stroke-width:1.0;" width="10" x="555.75" y="187.8242"/><rect fill="#FFFFFF" height="60.2275" style="stroke:#181818;stroke-width:1.0;" width="10" x="976.75" y="219.1152"/><rect fill="#FFFFFF" height="31.291" style="stroke:#181818;stroke-width:1.0;" width="10" x="976.75" y="383.8613"/><polygon fill="#181818" points="209.75,152.5332,219.75,156.5332,209.75,160.5332,213.75,156.5332" style="stroke:#181818;stroke-width:1.0;"/><line style="stroke:#181818;stroke-width:1.0;" x1="101.75" x2="215.75" y1="156.5332" y2="156.5332"/><text fill="#000000" font-family="sans-serif" font-size="13" font-weight="bold" lengthAdjust="spacing" textLength="7" x="108.75" y="151.2705">1</text><text fill="#000000" font-family="sans-serif" font-size="13" lengthAdjust="spacing" textLength="74" x="119.75" y="151.2705">POST /plans</text><polygon fill="#181818" points="543.75,183.8242,553.75,187.8242,543.75,191.8242,547.75,187.8242" style="stroke:#181818;stroke-width:1.0;"/><line style="stroke:#181818;stroke-width:1.0;" x1="231.75" x2="549.75" y1="187.8242" y2="187.8242"/><text fill="#000000" font-family="sans-serif" font-size="13" font-weight="bold" lengthAdjust="spacing" textLength="7" x="238.75" y="182.5615">2</text><text fill="#000000" font-family="sans-serif" font-size="13" lengthAdjust="spacing" textLength="294" x="249.75" y="182.5615">Plans plans = create(CreatePlanRequest resource)</text><polygon fill="#181818" points="964.75,215.1152,974.75,219.1152,964.75,223.1152,968.75,219.1152" style="stroke:#181818;stroke-width:1.0;"/><line style="stroke:#181818;stroke-width:1.0;" x1="565.75" x2="970.75" y1="219.1152" y2="219.1152"/><text fill="#000000" font-family="sans-serif" font-size="13" font-weight="bold" lengthAdjust="spacing" textLength="7" x="572.75" y="213.8525">3</text><text fill="#000000" font-family="sans-serif" font-size="13" lengthAdjust="spacing" textLength="381" x="583.75" y="213.8525">Optional&lt;Plans&gt; plans = findByName_Name(resource.getName())</text><polygon fill="#181818" points="576.75,275.3428,566.75,279.3428,576.75,283.3428,572.75,279.3428" style="stroke:#181818;stroke-width:1.0;"/><line style="stroke:#181818;stroke-width:1.0;stroke-dasharray:2.0,2.0;" x1="570.75" x2="980.75" y1="279.3428" y2="279.3428"/><text fill="#000000" font-family="sans-serif" font-size="13" font-weight="bold" lengthAdjust="spacing" textLength="7" x="582.75" y="274.0801">4</text><text fill="#000000" font-family="sans-serif" font-size="13" lengthAdjust="spacing" textLength="31" x="593.75" y="274.0801">plans</text><path d="M286.75,232.1152 L286.75,311.1152 L550.75,311.1152 L550.75,242.1152 L540.75,232.1152 L286.75,232.1152 " fill="#FEFFDD" style="stroke:#181818;stroke-width:0.5;"/><path d="M540.75,232.1152 L540.75,242.1152 L550.75,242.1152 L540.75,232.1152 " fill="#FEFFDD" style="stroke:#181818;stroke-width:0.5;"/><text fill="#000000" font-family="sans-serif" font-size="13" lengthAdjust="spacing" textLength="195" x="292.75" y="251.1436">1) Service will check if plan exists</text><text fill="#000000" font-family="sans-serif" font-size="13" lengthAdjust="spacing" textLength="4" x="292.75" y="268.4346">&#160;</text><text fill="#000000" font-family="sans-serif" font-size="13" lengthAdjust="spacing" textLength="90" x="292.75" y="285.7256">If 1 comes true,</text><text fill="#000000" font-family="sans-serif" font-size="13" lengthAdjust="spacing" textLength="243" x="292.75" y="303.0166">Service will trow IllegalArgumentException</text><line style="stroke:#181818;stroke-width:1.0;" x1="565.75" x2="607.75" y1="339.5703" y2="339.5703"/><line style="stroke:#181818;stroke-width:1.0;" x1="607.75" x2="607.75" y1="339.5703" y2="352.5703"/><line style="stroke:#181818;stroke-width:1.0;" x1="566.75" x2="607.75" y1="352.5703" y2="352.5703"/><polygon fill="#181818" points="576.75,348.5703,566.75,352.5703,576.75,356.5703,572.75,352.5703" style="stroke:#181818;stroke-width:1.0;"/><text fill="#000000" font-family="sans-serif" font-size="13" font-weight="bold" lengthAdjust="spacing" textLength="7" x="572.75" y="334.3076">5</text><text fill="#000000" font-family="sans-serif" font-size="13" lengthAdjust="spacing" textLength="168" x="583.75" y="334.3076">Plans obj  = create(resource)</text><polygon fill="#181818" points="964.75,379.8613,974.75,383.8613,964.75,387.8613,968.75,383.8613" style="stroke:#181818;stroke-width:1.0;"/><line style="stroke:#181818;stroke-width:1.0;" x1="565.75" x2="970.75" y1="383.8613" y2="383.8613"/><text fill="#000000" font-family="sans-serif" font-size="13" font-weight="bold" lengthAdjust="spacing" textLength="7" x="572.75" y="378.5986">6</text><text fill="#000000" font-family="sans-serif" font-size="13" lengthAdjust="spacing" textLength="51" x="583.75" y="378.5986">save(obj)</text><polygon fill="#181818" points="576.75,411.1523,566.75,415.1523,576.75,419.1523,572.75,415.1523" style="stroke:#181818;stroke-width:1.0;"/><line style="stroke:#181818;stroke-width:1.0;stroke-dasharray:2.0,2.0;" x1="570.75" x2="980.75" y1="415.1523" y2="415.1523"/><text fill="#000000" font-family="sans-serif" font-size="13" font-weight="bold" lengthAdjust="spacing" textLength="7" x="582.75" y="409.8896">7</text><text fill="#000000" font-family="sans-serif" font-size="13" lengthAdjust="spacing" textLength="17" x="593.75" y="409.8896">obj</text><polygon fill="#181818" points="1128.25,442.4434,1138.25,446.4434,1128.25,450.4434,1132.25,446.4434" style="stroke:#181818;stroke-width:1.0;"/><line style="stroke:#181818;stroke-width:1.0;" x1="560.75" x2="1134.25" y1="446.4434" y2="446.4434"/><text fill="#000000" font-family="sans-serif" font-size="13" font-weight="bold" lengthAdjust="spacing" textLength="7" x="567.75" y="441.1807">8</text><text fill="#000000" font-family="sans-serif" font-size="13" lengthAdjust="spacing" textLength="106" x="578.75" y="441.1807">sendMessage(obj)</text><polygon fill="#181818" points="242.75,473.7344,232.75,477.7344,242.75,481.7344,238.75,477.7344" style="stroke:#181818;stroke-width:1.0;"/><line style="stroke:#181818;stroke-width:1.0;stroke-dasharray:2.0,2.0;" x1="236.75" x2="559.75" y1="477.7344" y2="477.7344"/><text fill="#000000" font-family="sans-serif" font-size="13" font-weight="bold" lengthAdjust="spacing" textLength="7" x="248.75" y="472.4717">9</text><text fill="#000000" font-family="sans-serif" font-size="13" lengthAdjust="spacing" textLength="17" x="259.75" y="472.4717">obj</text><polygon fill="#181818" points="112.75,505.0254,102.75,509.0254,112.75,513.0254,108.75,509.0254" style="stroke:#181818;stroke-width:1.0;"/><line style="stroke:#181818;stroke-width:1.0;stroke-dasharray:2.0,2.0;" x1="106.75" x2="225.75" y1="509.0254" y2="509.0254"/><text fill="#000000" font-family="sans-serif" font-size="13" font-weight="bold" lengthAdjust="spacing" textLength="14" x="118.75" y="503.7627">10</text><text fill="#000000" font-family="sans-serif" font-size="13" lengthAdjust="spacing" textLength="17" x="136.75" y="503.7627">obj</text><!--SRC=[RLBBRjim4BppAnQ-r4Ri6BaAQG3NwS45qXXnxyM6MajiA58bLtxyVPUK72Lf3dgGd9sPtU6NchcDnNBPMdJSDVPQ-sOPwMz7JjEYD5W5R1Hsx5tNF5DGRDWIx0O4tFU89QmYF61u8JQkWj84qkp373Pm569W3oNjZID0S7I4hSZ93gEn2SyrGUCTr_OCw4fvN8SMj8yyxm_nP9gkWTu4-BqK7uoccE5U805qZG4rKp2HZOu9b4fJP-fj1mgJDPYCTky7knF022kjMWp2ODhaV58ahsin5xorr6FM7EmdgBYZa5nbJFh_3FD4hOz6rCuPbfOVOEj0o9J0Fw9ts-3BJW_2xR1GQgLXSPUDmDKL5B1ztFs276DKULTEauLyceNp929y1PtvfwFCKqepCWIAlWkQPYfN2aDobnaUMpRUeRtDL7UlN99f-Uty4nlwdLxJ2yLrHPmtPZELIHONFuk5kErzEiy4blQiRcOmp0wEnahoDUaNCFiC13f9f56fpHvkv58q4Zk7ZkRgNOq4T8IDP5IXNOMgQyZnzvEcx5oHt9EafrvxozzXDFxv3uoJ6UVmSH05H3pGLE3_jrKabh7Y4bNVS1Jz1ueHgw6w9Bc6vY1oRq8TcFfSUpx9-LOO-aWJKzhy1m00]--></g></svg>