<?xml version="1.0" encoding="us-ascii" standalone="no"?><svg xmlns="http://www.w3.org/2000/svg" xmlns:xlink="http://www.w3.org/1999/xlink" contentStyleType="text/css" height="718px" preserveAspectRatio="none" style="width:909px;height:718px;background:#FFFFFF;" version="1.1" viewBox="0 0 909 718" width="909px" zoomAndPan="magnify"><defs/><g><text fill="#000000" font-family="sans-serif" font-size="14" font-weight="bold" lengthAdjust="spacing" textLength="329" x="289.25" y="30.1074">Software Design Document - Define a New Plan</text><rect fill="#FFFFFF" height="130.1641" style="stroke:#181818;stroke-width:1.0;" width="10" x="271" y="156.5332"/><rect fill="#FFFFFF" height="37.291" style="stroke:#181818;stroke-width:1.0;" width="10" x="271" y="345.9883"/><rect fill="#FFFFFF" height="37.291" style="stroke:#181818;stroke-width:1.0;" width="10" x="390.5" y="421.5703"/><rect fill="#FFFFFF" height="37.291" style="stroke:#181818;stroke-width:1.0;" width="10" x="515" y="497.1523"/><rect fill="#FFFFFF" height="53.291" style="stroke:#181818;stroke-width:1.0;" width="10" x="646" y="572.7344"/><rect fill="#FFFFFF" height="50.9365" style="stroke:#FFFFFF;stroke-width:1.0;" width="10" x="838" y="243.7607"/><line style="stroke:#181818;stroke-width:1.0;" x1="838" x2="838" y1="243.7607" y2="294.6973"/><line style="stroke:#181818;stroke-width:1.0;" x1="848" x2="848" y1="243.7607" y2="294.6973"/><line style="stroke:#181818;stroke-width:1.0;" x1="838" x2="848" y1="243.7607" y2="243.7607"/><rect fill="#FFFFFF" height="287.3281" style="stroke:#FFFFFF;stroke-width:1.0;" width="10" x="838" y="322.6973"/><line style="stroke:#181818;stroke-width:1.0;" x1="838" x2="838" y1="322.6973" y2="610.0254"/><line style="stroke:#181818;stroke-width:1.0;" x1="848" x2="848" y1="322.6973" y2="610.0254"/><line style="stroke:#181818;stroke-width:1.0;" x1="838" x2="848" y1="610.0254" y2="610.0254"/><line style="stroke:#181818;stroke-width:0.5;stroke-dasharray:5.0,5.0;" x1="66" x2="66" y1="123.2422" y2="294.6973"/><line style="stroke:#A80036;stroke-width:1.0;stroke-dasharray:1.0,4.0;" x1="66" x2="66" y1="294.6973" y2="322.6973"/><line style="stroke:#181818;stroke-width:0.5;stroke-dasharray:5.0,5.0;" x1="66" x2="66" y1="322.6973" y2="635.0254"/><line style="stroke:#181818;stroke-width:0.5;stroke-dasharray:5.0,5.0;" x1="276" x2="276" y1="123.2422" y2="294.6973"/><line style="stroke:#A80036;stroke-width:1.0;stroke-dasharray:1.0,4.0;" x1="276" x2="276" y1="294.6973" y2="322.6973"/><line style="stroke:#181818;stroke-width:0.5;stroke-dasharray:5.0,5.0;" x1="276" x2="276" y1="322.6973" y2="635.0254"/><line style="stroke:#181818;stroke-width:0.5;stroke-dasharray:5.0,5.0;" x1="395" x2="395" y1="123.2422" y2="294.6973"/><line style="stroke:#A80036;stroke-width:1.0;stroke-dasharray:1.0,4.0;" x1="395" x2="395" y1="294.6973" y2="322.6973"/><line style="stroke:#181818;stroke-width:0.5;stroke-dasharray:5.0,5.0;" x1="395" x2="395" y1="322.6973" y2="635.0254"/><line style="stroke:#181818;stroke-width:0.5;stroke-dasharray:5.0,5.0;" x1="520" x2="520" y1="123.2422" y2="294.6973"/><line style="stroke:#A80036;stroke-width:1.0;stroke-dasharray:1.0,4.0;" x1="520" x2="520" y1="294.6973" y2="322.6973"/><line style="stroke:#181818;stroke-width:0.5;stroke-dasharray:5.0,5.0;" x1="520" x2="520" y1="322.6973" y2="635.0254"/><line style="stroke:#181818;stroke-width:0.5;stroke-dasharray:5.0,5.0;" x1="651" x2="651" y1="123.2422" y2="294.6973"/><line style="stroke:#A80036;stroke-width:1.0;stroke-dasharray:1.0,4.0;" x1="651" x2="651" y1="294.6973" y2="322.6973"/><line style="stroke:#181818;stroke-width:0.5;stroke-dasharray:5.0,5.0;" x1="651" x2="651" y1="322.6973" y2="635.0254"/><line style="stroke:#181818;stroke-width:0.5;stroke-dasharray:5.0,5.0;" x1="842.5" x2="842.5" y1="123.2422" y2="294.6973"/><line style="stroke:#A80036;stroke-width:1.0;stroke-dasharray:1.0,4.0;" x1="842.5" x2="842.5" y1="294.6973" y2="322.6973"/><line style="stroke:#181818;stroke-width:0.5;stroke-dasharray:5.0,5.0;" x1="842.5" x2="842.5" y1="322.6973" y2="635.0254"/><text fill="#000000" font-family="sans-serif" font-size="14" lengthAdjust="spacing" textLength="116" x="5" y="119.7285">Marketing Director</text><ellipse cx="66" cy="53.1211" fill="#E2E2F0" rx="8" ry="8" style="stroke:#181818;stroke-width:0.5;"/><path d="M66,61.1211 L66,88.1211 M53,69.1211 L79,69.1211 M66,88.1211 L53,103.1211 M66,88.1211 L79,103.1211 " fill="none" style="stroke:#181818;stroke-width:0.5;"/><text fill="#000000" font-family="sans-serif" font-size="14" lengthAdjust="spacing" textLength="116" x="5" y="649.1328">Marketing Director</text><ellipse cx="66" cy="661.1465" fill="#E2E2F0" rx="8" ry="8" style="stroke:#181818;stroke-width:0.5;"/><path d="M66,669.1465 L66,696.1465 M53,677.1465 L79,677.1465 M66,696.1465 L53,711.1465 M66,696.1465 L79,711.1465 " fill="none" style="stroke:#181818;stroke-width:0.5;"/><rect fill="#E2E2F0" height="32.6211" rx="2.5" ry="2.5" style="stroke:#181818;stroke-width:0.5;" width="108" x="222" y="89.6211"/><text fill="#000000" font-family="sans-serif" font-size="14" lengthAdjust="spacing" textLength="94" x="229" y="111.7285">planC[n]:planC</text><rect fill="#E2E2F0" height="32.6211" rx="2.5" ry="2.5" style="stroke:#181818;stroke-width:0.5;" width="108" x="222" y="634.0254"/><text fill="#000000" font-family="sans-serif" font-size="14" lengthAdjust="spacing" textLength="94" x="229" y="656.1328">planC[n]:planC</text><rect fill="#E2E2F0" height="32.6211" rx="2.5" ry="2.5" style="stroke:#181818;stroke-width:0.5;" width="111" x="340" y="89.6211"/><text fill="#000000" font-family="sans-serif" font-size="14" lengthAdjust="spacing" textLength="97" x="347" y="111.7285">PlanQ[n]:planQ</text><rect fill="#E2E2F0" height="32.6211" rx="2.5" ry="2.5" style="stroke:#181818;stroke-width:0.5;" width="111" x="340" y="634.0254"/><text fill="#000000" font-family="sans-serif" font-size="14" lengthAdjust="spacing" textLength="97" x="347" y="656.1328">PlanQ[n]:planQ</text><rect fill="#E2E2F0" height="32.6211" rx="2.5" ry="2.5" style="stroke:#181818;stroke-width:0.5;" width="118" x="461" y="89.6211"/><text fill="#000000" font-family="sans-serif" font-size="14" lengthAdjust="spacing" textLength="104" x="468" y="111.7285">SubsC[n]:SubsC</text><rect fill="#E2E2F0" height="32.6211" rx="2.5" ry="2.5" style="stroke:#181818;stroke-width:0.5;" width="118" x="461" y="634.0254"/><text fill="#000000" font-family="sans-serif" font-size="14" lengthAdjust="spacing" textLength="104" x="468" y="656.1328">SubsC[n]:SubsC</text><rect fill="#E2E2F0" height="32.6211" rx="2.5" ry="2.5" style="stroke:#181818;stroke-width:0.5;" width="124" x="589" y="89.6211"/><text fill="#000000" font-family="sans-serif" font-size="14" lengthAdjust="spacing" textLength="110" x="596" y="111.7285">SubsQ[n]:SubsQ:</text><rect fill="#E2E2F0" height="32.6211" rx="2.5" ry="2.5" style="stroke:#181818;stroke-width:0.5;" width="124" x="589" y="634.0254"/><text fill="#000000" font-family="sans-serif" font-size="14" lengthAdjust="spacing" textLength="110" x="596" y="656.1328">SubsQ[n]:SubsQ:</text><rect fill="#E2E2F0" height="32.6211" rx="2.5" ry="2.5" style="stroke:#181818;stroke-width:0.5;" width="121" x="782.5" y="89.6211"/><text fill="#000000" font-family="sans-serif" font-size="14" lengthAdjust="spacing" textLength="107" x="789.5" y="111.7285">Message Broker:</text><rect fill="#E2E2F0" height="32.6211" rx="2.5" ry="2.5" style="stroke:#181818;stroke-width:0.5;" width="121" x="782.5" y="634.0254"/><text fill="#000000" font-family="sans-serif" font-size="14" lengthAdjust="spacing" textLength="107" x="789.5" y="656.1328">Message Broker:</text><rect fill="#FFFFFF" height="130.1641" style="stroke:#181818;stroke-width:1.0;" width="10" x="271" y="156.5332"/><rect fill="#FFFFFF" height="37.291" style="stroke:#181818;stroke-width:1.0;" width="10" x="271" y="345.9883"/><rect fill="#FFFFFF" height="37.291" style="stroke:#181818;stroke-width:1.0;" width="10" x="390.5" y="421.5703"/><rect fill="#FFFFFF" height="37.291" style="stroke:#181818;stroke-width:1.0;" width="10" x="515" y="497.1523"/><rect fill="#FFFFFF" height="53.291" style="stroke:#181818;stroke-width:1.0;" width="10" x="646" y="572.7344"/><rect fill="#FFFFFF" height="50.9365" style="stroke:#FFFFFF;stroke-width:1.0;" width="10" x="838" y="243.7607"/><line style="stroke:#181818;stroke-width:1.0;" x1="838" x2="838" y1="243.7607" y2="294.6973"/><line style="stroke:#181818;stroke-width:1.0;" x1="848" x2="848" y1="243.7607" y2="294.6973"/><line style="stroke:#181818;stroke-width:1.0;" x1="838" x2="848" y1="243.7607" y2="243.7607"/><rect fill="#FFFFFF" height="287.3281" style="stroke:#FFFFFF;stroke-width:1.0;" width="10" x="838" y="322.6973"/><line style="stroke:#181818;stroke-width:1.0;" x1="838" x2="838" y1="322.6973" y2="610.0254"/><line style="stroke:#181818;stroke-width:1.0;" x1="848" x2="848" y1="322.6973" y2="610.0254"/><line style="stroke:#181818;stroke-width:1.0;" x1="838" x2="848" y1="610.0254" y2="610.0254"/><polygon fill="#181818" points="259,152.5332,269,156.5332,259,160.5332,263,156.5332" style="stroke:#181818;stroke-width:1.0;"/><line style="stroke:#181818;stroke-width:1.0;" x1="66" x2="265" y1="156.5332" y2="156.5332"/><text fill="#000000" font-family="sans-serif" font-size="13" font-weight="bold" lengthAdjust="spacing" textLength="7" x="73" y="151.2705">1</text><text fill="#000000" font-family="sans-serif" font-size="13" lengthAdjust="spacing" textLength="74" x="84" y="151.2705">POST /plans</text><line style="stroke:#181818;stroke-width:1.0;" x1="281" x2="323" y1="187.8242" y2="187.8242"/><line style="stroke:#181818;stroke-width:1.0;" x1="323" x2="323" y1="187.8242" y2="200.8242"/><line style="stroke:#181818;stroke-width:1.0;" x1="282" x2="323" y1="200.8242" y2="200.8242"/><polygon fill="#181818" points="292,196.8242,282,200.8242,292,204.8242,288,200.8242" style="stroke:#181818;stroke-width:1.0;"/><text fill="#000000" font-family="sans-serif" font-size="13" font-weight="bold" lengthAdjust="spacing" textLength="7" x="288" y="182.5615">2</text><text fill="#000000" font-family="sans-serif" font-size="13" lengthAdjust="spacing" textLength="58" x="299" y="182.5615">save(plan)</text><polygon fill="#181818" points="826,239.7607,836,243.7607,826,247.7607,830,243.7607" style="stroke:#181818;stroke-width:1.0;"/><line style="stroke:#181818;stroke-width:1.0;" x1="281" x2="832" y1="243.7607" y2="243.7607"/><text fill="#000000" font-family="sans-serif" font-size="13" font-weight="bold" lengthAdjust="spacing" textLength="7" x="288" y="238.498">3</text><text fill="#000000" font-family="sans-serif" font-size="13" lengthAdjust="spacing" textLength="155" x="299" y="238.498">publish(created_plan, plan)</text><path d="M83,213.8242 L83,257.8242 L266,257.8242 L266,223.8242 L256,213.8242 L83,213.8242 " fill="#FEFFDD" style="stroke:#181818;stroke-width:0.5;"/><path d="M256,213.8242 L256,223.8242 L266,223.8242 L256,213.8242 " fill="#FEFFDD" style="stroke:#181818;stroke-width:0.5;"/><text fill="#000000" font-family="sans-serif" font-size="13" lengthAdjust="spacing" textLength="162" x="89" y="232.8525">[n] represents the instances</text><text fill="#000000" font-family="sans-serif" font-size="13" lengthAdjust="spacing" textLength="121" x="89" y="250.1436">it can be n instances</text><polygon fill="#181818" points="77,282.6973,67,286.6973,77,290.6973,73,286.6973" style="stroke:#181818;stroke-width:1.0;"/><line style="stroke:#181818;stroke-width:1.0;stroke-dasharray:2.0,2.0;" x1="71" x2="275" y1="286.6973" y2="286.6973"/><text fill="#000000" font-family="sans-serif" font-size="13" font-weight="bold" lengthAdjust="spacing" textLength="7" x="83" y="281.4346">4</text><text fill="#000000" font-family="sans-serif" font-size="13" lengthAdjust="spacing" textLength="170" x="94" y="281.4346">informs operation (in)success</text><polygon fill="#181818" points="292,341.9883,282,345.9883,292,349.9883,288,345.9883" style="stroke:#181818;stroke-width:1.0;"/><line style="stroke:#181818;stroke-width:1.0;" x1="286" x2="837" y1="345.9883" y2="345.9883"/><text fill="#000000" font-family="sans-serif" font-size="13" font-weight="bold" lengthAdjust="spacing" textLength="7" x="298" y="340.7256">5</text><text fill="#000000" font-family="sans-serif" font-size="13" lengthAdjust="spacing" textLength="145" x="309" y="340.7256">notify(created_plan, plan)</text><line style="stroke:#181818;stroke-width:1.0;" x1="281" x2="323" y1="382.2793" y2="382.2793"/><line style="stroke:#181818;stroke-width:1.0;" x1="323" x2="323" y1="382.2793" y2="395.2793"/><line style="stroke:#181818;stroke-width:1.0;" x1="276" x2="323" y1="395.2793" y2="395.2793"/><polygon fill="#181818" points="286,391.2793,276,395.2793,286,399.2793,282,395.2793" style="stroke:#181818;stroke-width:1.0;"/><text fill="#000000" font-family="sans-serif" font-size="13" font-weight="bold" lengthAdjust="spacing" textLength="7" x="288" y="377.0166">6</text><text fill="#000000" font-family="sans-serif" font-size="13" lengthAdjust="spacing" textLength="58" x="299" y="377.0166">save(plan)</text><polygon fill="#181818" points="411.5,417.5703,401.5,421.5703,411.5,425.5703,407.5,421.5703" style="stroke:#181818;stroke-width:1.0;"/><line style="stroke:#181818;stroke-width:1.0;" x1="405.5" x2="837" y1="421.5703" y2="421.5703"/><text fill="#000000" font-family="sans-serif" font-size="13" font-weight="bold" lengthAdjust="spacing" textLength="7" x="417.5" y="416.3076">7</text><text fill="#000000" font-family="sans-serif" font-size="13" lengthAdjust="spacing" textLength="145" x="428.5" y="416.3076">notify(created_plan, plan)</text><line style="stroke:#181818;stroke-width:1.0;" x1="400.5" x2="442.5" y1="457.8613" y2="457.8613"/><line style="stroke:#181818;stroke-width:1.0;" x1="442.5" x2="442.5" y1="457.8613" y2="470.8613"/><line style="stroke:#181818;stroke-width:1.0;" x1="395.5" x2="442.5" y1="470.8613" y2="470.8613"/><polygon fill="#181818" points="405.5,466.8613,395.5,470.8613,405.5,474.8613,401.5,470.8613" style="stroke:#181818;stroke-width:1.0;"/><text fill="#000000" font-family="sans-serif" font-size="13" font-weight="bold" lengthAdjust="spacing" textLength="7" x="407.5" y="452.5986">8</text><text fill="#000000" font-family="sans-serif" font-size="13" lengthAdjust="spacing" textLength="58" x="418.5" y="452.5986">save(plan)</text><polygon fill="#181818" points="536,493.1523,526,497.1523,536,501.1523,532,497.1523" style="stroke:#181818;stroke-width:1.0;"/><line style="stroke:#181818;stroke-width:1.0;" x1="530" x2="837" y1="497.1523" y2="497.1523"/><text fill="#000000" font-family="sans-serif" font-size="13" font-weight="bold" lengthAdjust="spacing" textLength="7" x="542" y="491.8896">9</text><text fill="#000000" font-family="sans-serif" font-size="13" lengthAdjust="spacing" textLength="145" x="553" y="491.8896">notify(created_plan, plan)</text><line style="stroke:#181818;stroke-width:1.0;" x1="525" x2="567" y1="533.4434" y2="533.4434"/><line style="stroke:#181818;stroke-width:1.0;" x1="567" x2="567" y1="533.4434" y2="546.4434"/><line style="stroke:#181818;stroke-width:1.0;" x1="520" x2="567" y1="546.4434" y2="546.4434"/><polygon fill="#181818" points="530,542.4434,520,546.4434,530,550.4434,526,546.4434" style="stroke:#181818;stroke-width:1.0;"/><text fill="#000000" font-family="sans-serif" font-size="13" font-weight="bold" lengthAdjust="spacing" textLength="14" x="532" y="528.1807">10</text><text fill="#000000" font-family="sans-serif" font-size="13" lengthAdjust="spacing" textLength="58" x="550" y="528.1807">save(plan)</text><polygon fill="#181818" points="667,568.7344,657,572.7344,667,576.7344,663,572.7344" style="stroke:#181818;stroke-width:1.0;"/><line style="stroke:#181818;stroke-width:1.0;" x1="661" x2="837" y1="572.7344" y2="572.7344"/><text fill="#000000" font-family="sans-serif" font-size="13" font-weight="bold" lengthAdjust="spacing" textLength="14" x="673" y="567.4717">11</text><text fill="#000000" font-family="sans-serif" font-size="13" lengthAdjust="spacing" textLength="145" x="691" y="567.4717">notify(created_plan, plan)</text><line style="stroke:#181818;stroke-width:1.0;" x1="656" x2="698" y1="609.0254" y2="609.0254"/><line style="stroke:#181818;stroke-width:1.0;" x1="698" x2="698" y1="609.0254" y2="622.0254"/><line style="stroke:#181818;stroke-width:1.0;" x1="651" x2="698" y1="622.0254" y2="622.0254"/><polygon fill="#181818" points="661,618.0254,651,622.0254,661,626.0254,657,622.0254" style="stroke:#181818;stroke-width:1.0;"/><text fill="#000000" font-family="sans-serif" font-size="13" font-weight="bold" lengthAdjust="spacing" textLength="14" x="663" y="603.7627">12</text><text fill="#000000" font-family="sans-serif" font-size="13" lengthAdjust="spacing" textLength="58" x="681" y="603.7627">save(plan)</text><!--SRC=[XPB1Ri8m38RlVWgBoq0RxDx395QkR4JTRPgcDBWGqJfLaeBszdDQc60RufQwdp__Jdkdk-YCQzgQ8g5ZIC_SDILvW6XZJLYuAXwq9rnGi1l6XJDTGnnnAfNACg765phWgjOCe4rq7aTBxNSKBMzmOJsbsWXrmBc1LljeZMsr64QjzEJl_97rXnvPvPT8qgeJeWP4NI95LuRUqXzwfCZ_8kg4g6nWVccM58BU43vxjoC_C4q907E3qoS9XlVtcE7gjNZ3nvGcWDI6Dna6lQTngawErQOS-BOhQnksO-D9Hrf_9kO11vATt7fDLGJ9XfvQJq6kDc3S4beEKREX03QYqOmb8PzLYTUO1Fqy6PXYJcMWvShv9g1hoUje7UFOyYHqHfe2m6ms0v1mPok9nLPV_oRysR1NdorvKgZR2dK4hoYAsocA_0XUKznEKQWZUDc_9lbZxLxmzAs_0G00]--></g></svg>