<?xml version="1.0" encoding="us-ascii" standalone="no"?><svg xmlns="http://www.w3.org/2000/svg" xmlns:xlink="http://www.w3.org/1999/xlink" contentStyleType="text/css" height="708px" preserveAspectRatio="none" style="width:909px;height:708px;background:#FFFFFF;" version="1.1" viewBox="0 0 909 708" width="909px" zoomAndPan="magnify"><defs/><g><text fill="#000000" font-family="sans-serif" font-size="14" font-weight="bold" lengthAdjust="spacing" textLength="329" x="289.25" y="30.1074">Software Design Document - Define a New Plan</text><rect fill="#FFFFFF" height="106.873" style="stroke:#181818;stroke-width:1.0;" width="10" x="271" y="273.6973"/><rect fill="#FFFFFF" height="37.291" style="stroke:#181818;stroke-width:1.0;" width="10" x="390.5" y="411.8613"/><rect fill="#FFFFFF" height="37.291" style="stroke:#181818;stroke-width:1.0;" width="10" x="515" y="487.4434"/><rect fill="#FFFFFF" height="53.291" style="stroke:#181818;stroke-width:1.0;" width="10" x="646" y="563.0254"/><rect fill="#FFFFFF" height="97.5186" style="stroke:#181818;stroke-width:1.0;" width="10" x="838" y="133.2422"/><rect fill="#FFFFFF" height="251.0371" style="stroke:#181818;stroke-width:1.0;" width="10" x="838" y="349.2793"/><line style="stroke:#181818;stroke-width:0.5;stroke-dasharray:5.0,5.0;" x1="66" x2="66" y1="123.2422" y2="625.3164"/><line style="stroke:#181818;stroke-width:0.5;stroke-dasharray:5.0,5.0;" x1="276" x2="276" y1="123.2422" y2="625.3164"/><line style="stroke:#181818;stroke-width:0.5;stroke-dasharray:5.0,5.0;" x1="395" x2="395" y1="123.2422" y2="625.3164"/><line style="stroke:#181818;stroke-width:0.5;stroke-dasharray:5.0,5.0;" x1="520" x2="520" y1="123.2422" y2="625.3164"/><line style="stroke:#181818;stroke-width:0.5;stroke-dasharray:5.0,5.0;" x1="651" x2="651" y1="123.2422" y2="625.3164"/><line style="stroke:#181818;stroke-width:0.5;stroke-dasharray:5.0,5.0;" x1="842.5" x2="842.5" y1="123.2422" y2="625.3164"/><text fill="#000000" font-family="sans-serif" font-size="14" lengthAdjust="spacing" textLength="116" x="5" y="119.7285">Marketing Director</text><ellipse cx="66" cy="53.1211" fill="#E2E2F0" rx="8" ry="8" style="stroke:#181818;stroke-width:0.5;"/><path d="M66,61.1211 L66,88.1211 M53,69.1211 L79,69.1211 M66,88.1211 L53,103.1211 M66,88.1211 L79,103.1211 " fill="none" style="stroke:#181818;stroke-width:0.5;"/><text fill="#000000" font-family="sans-serif" font-size="14" lengthAdjust="spacing" textLength="116" x="5" y="639.4238">Marketing Director</text><ellipse cx="66" cy="651.4375" fill="#E2E2F0" rx="8" ry="8" style="stroke:#181818;stroke-width:0.5;"/><path d="M66,659.4375 L66,686.4375 M53,667.4375 L79,667.4375 M66,686.4375 L53,701.4375 M66,686.4375 L79,701.4375 " fill="none" style="stroke:#181818;stroke-width:0.5;"/><rect fill="#E2E2F0" height="32.6211" rx="2.5" ry="2.5" style="stroke:#181818;stroke-width:0.5;" width="108" x="222" y="89.6211"/><text fill="#000000" font-family="sans-serif" font-size="14" lengthAdjust="spacing" textLength="94" x="229" y="111.7285">planC[n]:planC</text><rect fill="#E2E2F0" height="32.6211" rx="2.5" ry="2.5" style="stroke:#181818;stroke-width:0.5;" width="108" x="222" y="624.3164"/><text fill="#000000" font-family="sans-serif" font-size="14" lengthAdjust="spacing" textLength="94" x="229" y="646.4238">planC[n]:planC</text><rect fill="#E2E2F0" height="32.6211" rx="2.5" ry="2.5" style="stroke:#181818;stroke-width:0.5;" width="111" x="340" y="89.6211"/><text fill="#000000" font-family="sans-serif" font-size="14" lengthAdjust="spacing" textLength="97" x="347" y="111.7285">PlanQ[n]:planQ</text><rect fill="#E2E2F0" height="32.6211" rx="2.5" ry="2.5" style="stroke:#181818;stroke-width:0.5;" width="111" x="340" y="624.3164"/><text fill="#000000" font-family="sans-serif" font-size="14" lengthAdjust="spacing" textLength="97" x="347" y="646.4238">PlanQ[n]:planQ</text><rect fill="#E2E2F0" height="32.6211" rx="2.5" ry="2.5" style="stroke:#181818;stroke-width:0.5;" width="118" x="461" y="89.6211"/><text fill="#000000" font-family="sans-serif" font-size="14" lengthAdjust="spacing" textLength="104" x="468" y="111.7285">SubsC[n]:SubsC</text><rect fill="#E2E2F0" height="32.6211" rx="2.5" ry="2.5" style="stroke:#181818;stroke-width:0.5;" width="118" x="461" y="624.3164"/><text fill="#000000" font-family="sans-serif" font-size="14" lengthAdjust="spacing" textLength="104" x="468" y="646.4238">SubsC[n]:SubsC</text><rect fill="#E2E2F0" height="32.6211" rx="2.5" ry="2.5" style="stroke:#181818;stroke-width:0.5;" width="124" x="589" y="89.6211"/><text fill="#000000" font-family="sans-serif" font-size="14" lengthAdjust="spacing" textLength="110" x="596" y="111.7285">SubsQ[n]:SubsQ:</text><rect fill="#E2E2F0" height="32.6211" rx="2.5" ry="2.5" style="stroke:#181818;stroke-width:0.5;" width="124" x="589" y="624.3164"/><text fill="#000000" font-family="sans-serif" font-size="14" lengthAdjust="spacing" textLength="110" x="596" y="646.4238">SubsQ[n]:SubsQ:</text><rect fill="#E2E2F0" height="32.6211" rx="2.5" ry="2.5" style="stroke:#181818;stroke-width:0.5;" width="121" x="782.5" y="89.6211"/><text fill="#000000" font-family="sans-serif" font-size="14" lengthAdjust="spacing" textLength="107" x="789.5" y="111.7285">Message Broker:</text><rect fill="#E2E2F0" height="32.6211" rx="2.5" ry="2.5" style="stroke:#181818;stroke-width:0.5;" width="121" x="782.5" y="624.3164"/><text fill="#000000" font-family="sans-serif" font-size="14" lengthAdjust="spacing" textLength="107" x="789.5" y="646.4238">Message Broker:</text><rect fill="#FFFFFF" height="106.873" style="stroke:#181818;stroke-width:1.0;" width="10" x="271" y="273.6973"/><rect fill="#FFFFFF" height="37.291" style="stroke:#181818;stroke-width:1.0;" width="10" x="390.5" y="411.8613"/><rect fill="#FFFFFF" height="37.291" style="stroke:#181818;stroke-width:1.0;" width="10" x="515" y="487.4434"/><rect fill="#FFFFFF" height="53.291" style="stroke:#181818;stroke-width:1.0;" width="10" x="646" y="563.0254"/><rect fill="#FFFFFF" height="97.5186" style="stroke:#181818;stroke-width:1.0;" width="10" x="838" y="133.2422"/><rect fill="#FFFFFF" height="251.0371" style="stroke:#181818;stroke-width:1.0;" width="10" x="838" y="349.2793"/><polygon fill="#181818" points="826,152.5332,836,156.5332,826,160.5332,830,156.5332" style="stroke:#181818;stroke-width:1.0;"/><line style="stroke:#181818;stroke-width:1.0;" x1="395.5" x2="832" y1="156.5332" y2="156.5332"/><text fill="#000000" font-family="sans-serif" font-size="13" font-weight="bold" lengthAdjust="spacing" textLength="7" x="402.5" y="151.2705">1</text><text fill="#000000" font-family="sans-serif" font-size="13" lengthAdjust="spacing" textLength="138" x="413.5" y="151.2705">subscribe(created_plan)</text><polygon fill="#181818" points="826,183.8242,836,187.8242,826,191.8242,830,187.8242" style="stroke:#181818;stroke-width:1.0;"/><line style="stroke:#181818;stroke-width:1.0;" x1="520" x2="832" y1="187.8242" y2="187.8242"/><text fill="#000000" font-family="sans-serif" font-size="13" font-weight="bold" lengthAdjust="spacing" textLength="7" x="527" y="182.5615">2</text><text fill="#000000" font-family="sans-serif" font-size="13" lengthAdjust="spacing" textLength="138" x="538" y="182.5615">subscribe(created_plan)</text><polygon fill="#181818" points="831,226.7607,841,230.7607,831,234.7607,835,230.7607" style="stroke:#181818;stroke-width:1.0;"/><line style="stroke:#181818;stroke-width:1.0;" x1="651" x2="837" y1="230.7607" y2="230.7607"/><text fill="#000000" font-family="sans-serif" font-size="13" font-weight="bold" lengthAdjust="spacing" textLength="7" x="658" y="225.498">3</text><text fill="#000000" font-family="sans-serif" font-size="13" lengthAdjust="spacing" textLength="138" x="669" y="225.498">subscribe(created_plan)</text><path d="M441,200.8242 L441,244.8242 L646,244.8242 L646,210.8242 L636,200.8242 L441,200.8242 " fill="#FEFFDD" style="stroke:#181818;stroke-width:0.5;"/><path d="M636,200.8242 L636,210.8242 L646,210.8242 L636,200.8242 " fill="#FEFFDD" style="stroke:#181818;stroke-width:0.5;"/><text fill="#000000" font-family="sans-serif" font-size="13" lengthAdjust="spacing" textLength="184" x="447" y="219.8525">[n] represents the the instances</text><text fill="#000000" font-family="sans-serif" font-size="13" lengthAdjust="spacing" textLength="121" x="447" y="237.1436">it can be n instances</text><polygon fill="#181818" points="259,269.6973,269,273.6973,259,277.6973,263,273.6973" style="stroke:#181818;stroke-width:1.0;"/><line style="stroke:#181818;stroke-width:1.0;" x1="66" x2="265" y1="273.6973" y2="273.6973"/><text fill="#000000" font-family="sans-serif" font-size="13" font-weight="bold" lengthAdjust="spacing" textLength="7" x="73" y="268.4346">4</text><text fill="#000000" font-family="sans-serif" font-size="13" lengthAdjust="spacing" textLength="74" x="84" y="268.4346">POST /plans</text><line style="stroke:#181818;stroke-width:1.0;" x1="281" x2="323" y1="304.9883" y2="304.9883"/><line style="stroke:#181818;stroke-width:1.0;" x1="323" x2="323" y1="304.9883" y2="317.9883"/><line style="stroke:#181818;stroke-width:1.0;" x1="282" x2="323" y1="317.9883" y2="317.9883"/><polygon fill="#181818" points="292,313.9883,282,317.9883,292,321.9883,288,317.9883" style="stroke:#181818;stroke-width:1.0;"/><text fill="#000000" font-family="sans-serif" font-size="13" font-weight="bold" lengthAdjust="spacing" textLength="7" x="288" y="299.7256">5</text><text fill="#000000" font-family="sans-serif" font-size="13" lengthAdjust="spacing" textLength="58" x="299" y="299.7256">save(plan)</text><polygon fill="#181818" points="826,345.2793,836,349.2793,826,353.2793,830,349.2793" style="stroke:#181818;stroke-width:1.0;"/><line style="stroke:#181818;stroke-width:1.0;" x1="281" x2="832" y1="349.2793" y2="349.2793"/><text fill="#000000" font-family="sans-serif" font-size="13" font-weight="bold" lengthAdjust="spacing" textLength="7" x="288" y="344.0166">6</text><text fill="#000000" font-family="sans-serif" font-size="13" lengthAdjust="spacing" textLength="155" x="299" y="344.0166">publish(created_plan, plan)</text><polygon fill="#181818" points="77,376.5703,67,380.5703,77,384.5703,73,380.5703" style="stroke:#181818;stroke-width:1.0;"/><line style="stroke:#181818;stroke-width:1.0;stroke-dasharray:2.0,2.0;" x1="71" x2="275" y1="380.5703" y2="380.5703"/><text fill="#000000" font-family="sans-serif" font-size="13" font-weight="bold" lengthAdjust="spacing" textLength="7" x="83" y="375.3076">7</text><text fill="#000000" font-family="sans-serif" font-size="13" lengthAdjust="spacing" textLength="170" x="94" y="375.3076">informs operation (in)success</text><polygon fill="#181818" points="411.5,407.8613,401.5,411.8613,411.5,415.8613,407.5,411.8613" style="stroke:#181818;stroke-width:1.0;"/><line style="stroke:#181818;stroke-width:1.0;" x1="405.5" x2="837" y1="411.8613" y2="411.8613"/><text fill="#000000" font-family="sans-serif" font-size="13" font-weight="bold" lengthAdjust="spacing" textLength="7" x="417.5" y="406.5986">8</text><text fill="#000000" font-family="sans-serif" font-size="13" lengthAdjust="spacing" textLength="145" x="428.5" y="406.5986">notify(created_plan, plan)</text><line style="stroke:#181818;stroke-width:1.0;" x1="400.5" x2="442.5" y1="448.1523" y2="448.1523"/><line style="stroke:#181818;stroke-width:1.0;" x1="442.5" x2="442.5" y1="448.1523" y2="461.1523"/><line style="stroke:#181818;stroke-width:1.0;" x1="395.5" x2="442.5" y1="461.1523" y2="461.1523"/><polygon fill="#181818" points="405.5,457.1523,395.5,461.1523,405.5,465.1523,401.5,461.1523" style="stroke:#181818;stroke-width:1.0;"/><text fill="#000000" font-family="sans-serif" font-size="13" font-weight="bold" lengthAdjust="spacing" textLength="7" x="407.5" y="442.8896">9</text><text fill="#000000" font-family="sans-serif" font-size="13" lengthAdjust="spacing" textLength="58" x="418.5" y="442.8896">save(plan)</text><polygon fill="#181818" points="536,483.4434,526,487.4434,536,491.4434,532,487.4434" style="stroke:#181818;stroke-width:1.0;"/><line style="stroke:#181818;stroke-width:1.0;" x1="530" x2="837" y1="487.4434" y2="487.4434"/><text fill="#000000" font-family="sans-serif" font-size="13" font-weight="bold" lengthAdjust="spacing" textLength="14" x="542" y="482.1807">10</text><text fill="#000000" font-family="sans-serif" font-size="13" lengthAdjust="spacing" textLength="145" x="560" y="482.1807">notify(created_plan, plan)</text><line style="stroke:#181818;stroke-width:1.0;" x1="525" x2="567" y1="523.7344" y2="523.7344"/><line style="stroke:#181818;stroke-width:1.0;" x1="567" x2="567" y1="523.7344" y2="536.7344"/><line style="stroke:#181818;stroke-width:1.0;" x1="520" x2="567" y1="536.7344" y2="536.7344"/><polygon fill="#181818" points="530,532.7344,520,536.7344,530,540.7344,526,536.7344" style="stroke:#181818;stroke-width:1.0;"/><text fill="#000000" font-family="sans-serif" font-size="13" font-weight="bold" lengthAdjust="spacing" textLength="14" x="532" y="518.4717">11</text><text fill="#000000" font-family="sans-serif" font-size="13" lengthAdjust="spacing" textLength="58" x="550" y="518.4717">save(plan)</text><polygon fill="#181818" points="667,559.0254,657,563.0254,667,567.0254,663,563.0254" style="stroke:#181818;stroke-width:1.0;"/><line style="stroke:#181818;stroke-width:1.0;" x1="661" x2="837" y1="563.0254" y2="563.0254"/><text fill="#000000" font-family="sans-serif" font-size="13" font-weight="bold" lengthAdjust="spacing" textLength="14" x="673" y="557.7627">12</text><text fill="#000000" font-family="sans-serif" font-size="13" lengthAdjust="spacing" textLength="145" x="691" y="557.7627">notify(created_plan, plan)</text><line style="stroke:#181818;stroke-width:1.0;" x1="656" x2="698" y1="599.3164" y2="599.3164"/><line style="stroke:#181818;stroke-width:1.0;" x1="698" x2="698" y1="599.3164" y2="612.3164"/><line style="stroke:#181818;stroke-width:1.0;" x1="651" x2="698" y1="612.3164" y2="612.3164"/><polygon fill="#181818" points="661,608.3164,651,612.3164,661,616.3164,657,612.3164" style="stroke:#181818;stroke-width:1.0;"/><text fill="#000000" font-family="sans-serif" font-size="13" font-weight="bold" lengthAdjust="spacing" textLength="14" x="663" y="594.0537">13</text><text fill="#000000" font-family="sans-serif" font-size="13" lengthAdjust="spacing" textLength="58" x="681" y="594.0537">save(plan)</text><!--SRC=[XP5DRy8m38Rl-HKMbu4Osft395QkRAswspHDQN31edMg90Njtyz9GQFx48T6JlBayPlcJlV16jjs3GO4oohEkMyhT4e52Wr2QUjmqWvXZPvs36jh-XOvm49MQc843SzuWhpHh9GsmJgORBGxO23UmPeSnhK9Q0yhephj0Xdgj1WcdPp9tlXzcOg4vDaOYThYWXG3KeoHigzyigGY8MNs6oakIB4Sc1-Q3NglTmXFpXxG3KnRfIlHKSllaKbUmE9H2bY25vDnLE7KE9JjxKTCE5DbTXkvRTdYTLl5Lee6ww3a4k2mS-Zb3Jo4FQQFs0VD1hsY04OpL0XyjOgyXIXHQcLYypo3-Lpwvo_bApp4dbxbsNb7OkaZJeSa-UK-YU_wgY6_7wMzXszIqDXW8IXnRLthmNReT23BC2MU-Tv87g-K66EtOl1ADge__zOMPp1PhvAT5MLsKp6yIHp_KTnECRoPZEFputVw0W00]--></g></svg>