<?xml version="1.0" encoding="us-ascii" standalone="no"?><svg xmlns="http://www.w3.org/2000/svg" xmlns:xlink="http://www.w3.org/1999/xlink" contentStyleType="text/css" height="726px" preserveAspectRatio="none" style="width:580px;height:726px;background:#FFFFFF;" version="1.1" viewBox="0 0 580 726" width="580px" zoomAndPan="magnify"><defs/><g><text fill="#000000" font-family="sans-serif" font-size="14" font-weight="bold" lengthAdjust="spacing" textLength="369" x="98.75" y="25.1074">Class Diagram / As User, I want to list all known Plans</text><!--class PlansRepositoryBD--><g id="elem_PlansRepositoryBD"><rect codeLine="32" fill="#F1F1F1" height="79.2031" id="PlansRepositoryBD" rx="2.5" ry="2.5" style="stroke:#181818;stroke-width:0.5;" width="230" x="343.5" y="330.6211"/><text fill="#000000" font-family="sans-serif" font-size="12" font-style="italic" lengthAdjust="spacing" textLength="61" x="428" y="348.5703">&#171;interface&#187;</text><text fill="#000000" font-family="sans-serif" font-size="14" font-style="italic" lengthAdjust="spacing" textLength="122" x="397.5" y="366.6895">PlansRepositoryBD</text><line style="stroke:#181818;stroke-width:0.5;" x1="344.5" x2="572.5" y1="375.2031" y2="375.2031"/><ellipse cx="354.5" cy="390.0137" fill="none" rx="3" ry="3" style="stroke:#038048;stroke-width:1.0;"/><text fill="#000000" font-family="sans-serif" font-size="14" lengthAdjust="spacing" textLength="204" x="363.5" y="394.3105">findByActive_Active: List&lt;Plans&gt;</text><line style="stroke:#181818;stroke-width:0.5;" x1="344.5" x2="572.5" y1="401.8242" y2="401.8242"/></g><!--class Plans--><g id="elem_Plans"><rect codeLine="9" fill="#F1F1F1" height="230.832" id="Plans" rx="2.5" ry="2.5" style="stroke:#181818;stroke-width:0.5;" width="184" x="366.5" y="488.6211"/><text fill="#000000" font-family="sans-serif" font-size="14" lengthAdjust="spacing" textLength="35" x="441" y="508.7285">Plans</text><line style="stroke:#181818;stroke-width:0.5;" x1="367.5" x2="549.5" y1="517.2422" y2="517.2422"/><rect fill="none" height="6" style="stroke:#C82930;stroke-width:1.0;" width="6" x="374.5" y="529.0527"/><text fill="#000000" font-family="sans-serif" font-size="14" lengthAdjust="spacing" textLength="35" x="386.5" y="536.3496">name</text><rect fill="none" height="6" style="stroke:#C82930;stroke-width:1.0;" width="6" x="374.5" y="547.6738"/><text fill="#000000" font-family="sans-serif" font-size="14" lengthAdjust="spacing" textLength="69" x="386.5" y="554.9707">description</text><rect fill="none" height="6" style="stroke:#C82930;stroke-width:1.0;" width="6" x="374.5" y="566.2949"/><text fill="#000000" font-family="sans-serif" font-size="14" lengthAdjust="spacing" textLength="112" x="386.5" y="573.5918">numberOfMinutes</text><rect fill="none" height="6" style="stroke:#C82930;stroke-width:1.0;" width="6" x="374.5" y="584.916"/><text fill="#000000" font-family="sans-serif" font-size="14" lengthAdjust="spacing" textLength="158" x="386.5" y="592.2129">maximumNumberOfUsers</text><rect fill="none" height="6" style="stroke:#C82930;stroke-width:1.0;" width="6" x="374.5" y="603.5371"/><text fill="#000000" font-family="sans-serif" font-size="14" lengthAdjust="spacing" textLength="98" x="386.5" y="610.834">musicCollection</text><rect fill="none" height="6" style="stroke:#C82930;stroke-width:1.0;" width="6" x="374.5" y="622.1582"/><text fill="#000000" font-family="sans-serif" font-size="14" lengthAdjust="spacing" textLength="107" x="386.5" y="629.4551">musicSuggestion</text><rect fill="none" height="6" style="stroke:#C82930;stroke-width:1.0;" width="6" x="374.5" y="640.7793"/><text fill="#000000" font-family="sans-serif" font-size="14" lengthAdjust="spacing" textLength="68" x="386.5" y="648.0762">annualFee</text><rect fill="none" height="6" style="stroke:#C82930;stroke-width:1.0;" width="6" x="374.5" y="659.4004"/><text fill="#000000" font-family="sans-serif" font-size="14" lengthAdjust="spacing" textLength="74" x="386.5" y="666.6973">monthlyFee</text><rect fill="none" height="6" style="stroke:#C82930;stroke-width:1.0;" width="6" x="374.5" y="678.0215"/><text fill="#000000" font-family="sans-serif" font-size="14" lengthAdjust="spacing" textLength="37" x="386.5" y="685.3184">active</text><rect fill="none" height="6" style="stroke:#C82930;stroke-width:1.0;" width="6" x="374.5" y="696.6426"/><text fill="#000000" font-family="sans-serif" font-size="14" lengthAdjust="spacing" textLength="60" x="386.5" y="703.9395">promoted</text><line style="stroke:#181818;stroke-width:0.5;" x1="367.5" x2="549.5" y1="711.4531" y2="711.4531"/></g><!--class PlansViewMapper--><g id="elem_PlansViewMapper"><rect codeLine="21" fill="#F1F1F1" height="63.2422" id="PlansViewMapper" rx="2.5" ry="2.5" style="stroke:#181818;stroke-width:0.5;" width="329" x="7" y="188.6211"/><text fill="#000000" font-family="sans-serif" font-size="14" lengthAdjust="spacing" textLength="112" x="115.5" y="208.7285">PlansViewMapper</text><line style="stroke:#181818;stroke-width:0.5;" x1="8" x2="335" y1="217.2422" y2="217.2422"/><line style="stroke:#181818;stroke-width:0.5;" x1="8" x2="335" y1="225.2422" y2="225.2422"/><ellipse cx="18" cy="240.0527" fill="#84BE84" rx="3" ry="3" style="stroke:#038048;stroke-width:1.0;"/><text fill="#000000" font-family="sans-serif" font-size="14" lengthAdjust="spacing" textLength="303" x="27" y="244.3496">toPlansView(List&lt;Plans&gt; plans):List&lt;PlansView&gt;</text></g><!--class PlansController--><g id="elem_PlansController"><rect codeLine="24" fill="#F1F1F1" height="63.2422" id="PlansController" rx="2.5" ry="2.5" style="stroke:#181818;stroke-width:0.5;" width="318" x="53.5" y="46.6211"/><text fill="#000000" font-family="sans-serif" font-size="14" lengthAdjust="spacing" textLength="97" x="164" y="66.7285">PlansController</text><line style="stroke:#181818;stroke-width:0.5;" x1="54.5" x2="370.5" y1="75.2422" y2="75.2422"/><line style="stroke:#181818;stroke-width:0.5;" x1="54.5" x2="370.5" y1="83.2422" y2="83.2422"/><ellipse cx="64.5" cy="98.0527" fill="#84BE84" rx="3" ry="3" style="stroke:#038048;stroke-width:1.0;"/><text fill="#000000" font-family="sans-serif" font-size="14" lengthAdjust="spacing" textLength="292" x="73.5" y="102.3496">findActive():ResponseEntity&lt;List&lt;PlansView&gt;&gt;</text></g><!--class PlansService--><g id="elem_PlansService"><rect codeLine="27" fill="#F1F1F1" height="63.2422" id="PlansService" rx="2.5" ry="2.5" style="stroke:#181818;stroke-width:0.5;" width="174" x="371.5" y="188.6211"/><text fill="#000000" font-family="sans-serif" font-size="14" lengthAdjust="spacing" textLength="82" x="417.5" y="208.7285">PlansService</text><line style="stroke:#181818;stroke-width:0.5;" x1="372.5" x2="544.5" y1="217.2422" y2="217.2422"/><line style="stroke:#181818;stroke-width:0.5;" x1="372.5" x2="544.5" y1="225.2422" y2="225.2422"/><ellipse cx="382.5" cy="240.0527" fill="#84BE84" rx="3" ry="3" style="stroke:#038048;stroke-width:1.0;"/><text fill="#000000" font-family="sans-serif" font-size="14" lengthAdjust="spacing" textLength="148" x="391.5" y="244.3496">findActive():List&lt;Plans&gt;</text></g><!--link PlansController to PlansService--><g id="link_PlansController_PlansService"><path codeLine="37" d="M266.18,109.6711 C307.18,133.0011 358.2148,162.0542 399.2948,185.4242 " fill="none" id="PlansController-to-PlansService" style="stroke:#181818;stroke-width:1.0;stroke-dasharray:7.0,7.0;"/><polygon fill="#181818" points="404.51,188.3911,398.6652,180.4641,400.164,185.9187,394.7094,187.4176,404.51,188.3911" style="stroke:#181818;stroke-width:1.0;"/><polygon fill="#000000" points="358.8456,151.7396,352.4379,144.7116,349.5307,149.8202,358.8456,151.7396" style="stroke:#000000;stroke-width:1.0;"/><text fill="#000000" font-family="sans-serif" font-size="13" lengthAdjust="spacing" textLength="28" x="363.5" y="154.6494">uses</text></g><!--link PlansService to PlansRepositoryBD--><g id="link_PlansService_PlansRepositoryBD"><path codeLine="38" d="M458.5,251.7911 C458.5,274.6511 458.5,300.0311 458.5,324.5811 " fill="none" id="PlansService-to-PlansRepositoryBD" style="stroke:#181818;stroke-width:1.0;stroke-dasharray:7.0,7.0;"/><polygon fill="#181818" points="458.5,330.5811,462.5,321.5811,458.5,325.5811,454.5,321.5811,458.5,330.5811" style="stroke:#181818;stroke-width:1.0;"/><polygon fill="#000000" points="463.5,296.2666,466.4389,287.2215,460.5611,287.2215,463.5,296.2666" style="stroke:#000000;stroke-width:1.0;"/><text fill="#000000" font-family="sans-serif" font-size="13" lengthAdjust="spacing" textLength="28" x="472.5" y="296.6494">uses</text></g><!--link PlansRepositoryBD to Plans--><g id="link_PlansRepositoryBD_Plans"><path codeLine="39" d="M458.5,409.6911 C458.5,431.5311 458.5,454.1111 458.5,482.5711 " fill="none" id="PlansRepositoryBD-to-Plans" style="stroke:#181818;stroke-width:1.0;stroke-dasharray:7.0,7.0;"/><polygon fill="#181818" points="458.5,488.5711,462.5,479.5711,458.5,483.5711,454.5,479.5711,458.5,488.5711" style="stroke:#181818;stroke-width:1.0;"/><polygon fill="#000000" points="463.5,444.2666,460.5611,453.3117,466.4389,453.3117,463.5,444.2666" style="stroke:#000000;stroke-width:1.0;"/><text fill="#000000" font-family="sans-serif" font-size="13" lengthAdjust="spacing" textLength="36" x="472.5" y="454.6494">record</text></g><!--link PlansController to PlansViewMapper--><g id="link_PlansController_PlansViewMapper"><path codeLine="40" d="M203.5,109.8411 C196.67,133.1911 188.9958,159.3828 182.1658,182.7128 " fill="none" id="PlansController-to-PlansViewMapper" style="stroke:#181818;stroke-width:1.0;stroke-dasharray:7.0,7.0;"/><polygon fill="#181818" points="180.48,188.4711,186.8475,180.9575,181.8848,183.6725,179.1698,178.7098,180.48,188.4711" style="stroke:#181818;stroke-width:1.0;"/><polygon fill="#000000" points="198.0951,154.0652,203.4571,146.2102,197.816,144.5587,198.0951,154.0652" style="stroke:#000000;stroke-width:1.0;"/><text fill="#000000" font-family="sans-serif" font-size="13" lengthAdjust="spacing" textLength="28" x="208.5" y="154.6494">uses</text></g><!--SRC=[RP9TJy8m58Rl-olEdH24tI_B4WHDJ4GDH6zDxGxGs8-bfmCNud-t-u8DxStMj-zvpjkTtUozpocEebnnumkjPiBgI2XEDCqatpcksLvc248weP3L9_0QpBJ6t9BqrfLtIqWIQJowBHUOfenvwHN2eZOl6mn4C2Tu8tIty0Z7q0sy1IN90rSAlemzcWRCmkhrEJ48QsgunkODCYJXPEwbDQrY2ls9xcMxagRmI8sg-RVKXNvkpwhMtKb1KYoiKYZEa5RT5BiTKa_bnXHSFI1sBclyNfKNWGV6eTlapchhCMC__IkyIpokU9wZQoupyVQiZvx29qZgRGhL56WSNwJAaGvXYn30LTbR64osqcJpEiLe7A-HSci8xqqOGfbSeTAwPC3Re3j8WG4s1FLoiP20dGVyT_pinEhQkxAf_cWUCVGP0N6L7sQpT90XXeAG86LzyUBgjnnQ1__YsHz30Ww5TTb_dQycqm5_0G00]--></g></svg>