<?xml version="1.0" encoding="us-ascii" standalone="no"?><svg xmlns="http://www.w3.org/2000/svg" xmlns:xlink="http://www.w3.org/1999/xlink" contentStyleType="text/css" height="253px" preserveAspectRatio="none" style="width:459px;height:253px;background:#FFFFFF;" version="1.1" viewBox="0 0 459 253" width="459px" zoomAndPan="magnify"><defs/><g><text fill="#000000" font-family="sans-serif" font-size="14" font-weight="bold" lengthAdjust="spacing" textLength="290" x="83.5" y="30.1074">Software Design Document - Get all plans</text><rect fill="#FFFFFF" height="97.5186" style="stroke:#181818;stroke-width:1.0;" width="10" x="387.5" y="88.2422"/><line style="stroke:#181818;stroke-width:0.5;stroke-dasharray:5.0,5.0;" x1="192" x2="192" y1="78.2422" y2="215.4063"/><line style="stroke:#181818;stroke-width:0.5;stroke-dasharray:5.0,5.0;" x1="392" x2="392" y1="78.2422" y2="215.4063"/><rect fill="#E2E2F0" height="32.6211" rx="2.5" ry="2.5" style="stroke:#181818;stroke-width:0.5;" width="111" x="137" y="44.6211"/><text fill="#000000" font-family="sans-serif" font-size="14" lengthAdjust="spacing" textLength="97" x="144" y="66.7285">PlanQ[n]:planQ</text><rect fill="#E2E2F0" height="32.6211" rx="2.5" ry="2.5" style="stroke:#181818;stroke-width:0.5;" width="111" x="137" y="214.4063"/><text fill="#000000" font-family="sans-serif" font-size="14" lengthAdjust="spacing" textLength="97" x="144" y="236.5137">PlanQ[n]:planQ</text><rect fill="#E2E2F0" height="32.6211" rx="2.5" ry="2.5" style="stroke:#181818;stroke-width:0.5;" width="121" x="332" y="44.6211"/><text fill="#000000" font-family="sans-serif" font-size="14" lengthAdjust="spacing" textLength="107" x="339" y="66.7285">Message Broker:</text><rect fill="#E2E2F0" height="32.6211" rx="2.5" ry="2.5" style="stroke:#181818;stroke-width:0.5;" width="121" x="332" y="214.4063"/><text fill="#000000" font-family="sans-serif" font-size="14" lengthAdjust="spacing" textLength="107" x="339" y="236.5137">Message Broker:</text><rect fill="#FFFFFF" height="97.5186" style="stroke:#181818;stroke-width:1.0;" width="10" x="387.5" y="88.2422"/><polygon fill="#181818" points="375.5,107.5332,385.5,111.5332,375.5,115.5332,379.5,111.5332" style="stroke:#181818;stroke-width:1.0;"/><line style="stroke:#181818;stroke-width:1.0;" x1="192.5" x2="381.5" y1="111.5332" y2="111.5332"/><text fill="#000000" font-family="sans-serif" font-size="13" font-weight="bold" lengthAdjust="spacing" textLength="7" x="199.5" y="106.2705">1</text><text fill="#000000" font-family="sans-serif" font-size="13" lengthAdjust="spacing" textLength="138" x="210.5" y="106.2705">subscribe(created_plan)</text><polygon fill="#181818" points="375.5,138.8242,385.5,142.8242,375.5,146.8242,379.5,142.8242" style="stroke:#181818;stroke-width:1.0;"/><line style="stroke:#181818;stroke-width:1.0;" x1="192.5" x2="381.5" y1="142.8242" y2="142.8242"/><text fill="#000000" font-family="sans-serif" font-size="13" font-weight="bold" lengthAdjust="spacing" textLength="7" x="199.5" y="137.5615">2</text><text fill="#000000" font-family="sans-serif" font-size="13" lengthAdjust="spacing" textLength="141" x="210.5" y="137.5615">subscribe(updated_plan)</text><polygon fill="#181818" points="380.5,181.7607,390.5,185.7607,380.5,189.7607,384.5,185.7607" style="stroke:#181818;stroke-width:1.0;"/><line style="stroke:#181818;stroke-width:1.0;" x1="192.5" x2="386.5" y1="185.7607" y2="185.7607"/><text fill="#000000" font-family="sans-serif" font-size="13" font-weight="bold" lengthAdjust="spacing" textLength="7" x="199.5" y="180.498">3</text><text fill="#000000" font-family="sans-serif" font-size="13" lengthAdjust="spacing" textLength="160" x="210.5" y="180.498">subscribe(deactivated_plan)</text><path d="M5,155.8242 L5,199.8242 L188,199.8242 L188,165.8242 L178,155.8242 L5,155.8242 " fill="#FEFFDD" style="stroke:#181818;stroke-width:0.5;"/><path d="M178,155.8242 L178,165.8242 L188,165.8242 L178,155.8242 " fill="#FEFFDD" style="stroke:#181818;stroke-width:0.5;"/><text fill="#000000" font-family="sans-serif" font-size="13" lengthAdjust="spacing" textLength="162" x="11" y="174.8525">[n] represents the instances</text><text fill="#000000" font-family="sans-serif" font-size="13" lengthAdjust="spacing" textLength="121" x="11" y="192.1436">it can be n instances</text><!--SRC=[XO_1IWH134Jl-OfYB-fXVs0E7cJ1ap337aKatPDT6tlIJIUZls_FmgA2u2sfUbGgDxnwYMMfMLnGbBPTroL88_BaMN0i9__a9ZY8fRFYKEAwY3hsU1G7vuoQMOseSlCKK-LkxiQkJS_wCcpcj0CRnkatyYHcV1OyjF8kRRWmIo3YwEc3Uv- -Z1Fsztt005k3nPQ2tCOctPvVj-Yxlv6rplyXirmFNR5lvT93In-od9pw7sXIcrX_tE1lWgJch56CaYEo8WZqXoewOmiW-W80]--></g></svg>