<?xml version="1.0" encoding="us-ascii" standalone="no"?><svg xmlns="http://www.w3.org/2000/svg" xmlns:xlink="http://www.w3.org/1999/xlink" contentStyleType="text/css" height="925px" preserveAspectRatio="none" style="width:769px;height:925px;background:#FFFFFF;" version="1.1" viewBox="0 0 769 925" width="769px" zoomAndPan="magnify"><defs/><g><text fill="#000000" font-family="sans-serif" font-size="14" font-weight="bold" lengthAdjust="spacing" textLength="369" x="193.25" y="25.1074">Class Diagram / As User, I want to list all known Plans</text><!--class PlansRepositoryBD--><g id="elem_PlansRepositoryBD"><rect codeLine="39" fill="#F1F1F1" height="79.2031" id="PlansRepositoryBD" rx="2.5" ry="2.5" style="stroke:#181818;stroke-width:0.5;" width="230" x="245.5" y="529.6211"/><text fill="#000000" font-family="sans-serif" font-size="12" font-style="italic" lengthAdjust="spacing" textLength="61" x="330" y="547.5703">&#171;interface&#187;</text><text fill="#000000" font-family="sans-serif" font-size="14" font-style="italic" lengthAdjust="spacing" textLength="122" x="299.5" y="565.6895">PlansRepositoryBD</text><line style="stroke:#181818;stroke-width:0.5;" x1="246.5" x2="474.5" y1="574.2031" y2="574.2031"/><ellipse cx="256.5" cy="589.0137" fill="none" rx="3" ry="3" style="stroke:#038048;stroke-width:1.0;"/><text fill="#000000" font-family="sans-serif" font-size="14" lengthAdjust="spacing" textLength="204" x="265.5" y="593.3105">findByActive_Active: List&lt;Plans&gt;</text><line style="stroke:#181818;stroke-width:0.5;" x1="246.5" x2="474.5" y1="600.8242" y2="600.8242"/></g><!--class Plans--><g id="elem_Plans"><rect codeLine="9" fill="#F1F1F1" height="230.832" id="Plans" rx="2.5" ry="2.5" style="stroke:#181818;stroke-width:0.5;" width="184" x="268.5" y="687.6211"/><text fill="#000000" font-family="sans-serif" font-size="14" lengthAdjust="spacing" textLength="35" x="343" y="707.7285">Plans</text><line style="stroke:#181818;stroke-width:0.5;" x1="269.5" x2="451.5" y1="716.2422" y2="716.2422"/><rect fill="none" height="6" style="stroke:#C82930;stroke-width:1.0;" width="6" x="276.5" y="728.0527"/><text fill="#000000" font-family="sans-serif" font-size="14" lengthAdjust="spacing" textLength="35" x="288.5" y="735.3496">name</text><rect fill="none" height="6" style="stroke:#C82930;stroke-width:1.0;" width="6" x="276.5" y="746.6738"/><text fill="#000000" font-family="sans-serif" font-size="14" lengthAdjust="spacing" textLength="69" x="288.5" y="753.9707">description</text><rect fill="none" height="6" style="stroke:#C82930;stroke-width:1.0;" width="6" x="276.5" y="765.2949"/><text fill="#000000" font-family="sans-serif" font-size="14" lengthAdjust="spacing" textLength="112" x="288.5" y="772.5918">numberOfMinutes</text><rect fill="none" height="6" style="stroke:#C82930;stroke-width:1.0;" width="6" x="276.5" y="783.916"/><text fill="#000000" font-family="sans-serif" font-size="14" lengthAdjust="spacing" textLength="158" x="288.5" y="791.2129">maximumNumberOfUsers</text><rect fill="none" height="6" style="stroke:#C82930;stroke-width:1.0;" width="6" x="276.5" y="802.5371"/><text fill="#000000" font-family="sans-serif" font-size="14" lengthAdjust="spacing" textLength="98" x="288.5" y="809.834">musicCollection</text><rect fill="none" height="6" style="stroke:#C82930;stroke-width:1.0;" width="6" x="276.5" y="821.1582"/><text fill="#000000" font-family="sans-serif" font-size="14" lengthAdjust="spacing" textLength="107" x="288.5" y="828.4551">musicSuggestion</text><rect fill="none" height="6" style="stroke:#C82930;stroke-width:1.0;" width="6" x="276.5" y="839.7793"/><text fill="#000000" font-family="sans-serif" font-size="14" lengthAdjust="spacing" textLength="68" x="288.5" y="847.0762">annualFee</text><rect fill="none" height="6" style="stroke:#C82930;stroke-width:1.0;" width="6" x="276.5" y="858.4004"/><text fill="#000000" font-family="sans-serif" font-size="14" lengthAdjust="spacing" textLength="74" x="288.5" y="865.6973">monthlyFee</text><rect fill="none" height="6" style="stroke:#C82930;stroke-width:1.0;" width="6" x="276.5" y="877.0215"/><text fill="#000000" font-family="sans-serif" font-size="14" lengthAdjust="spacing" textLength="37" x="288.5" y="884.3184">active</text><rect fill="none" height="6" style="stroke:#C82930;stroke-width:1.0;" width="6" x="276.5" y="895.6426"/><text fill="#000000" font-family="sans-serif" font-size="14" lengthAdjust="spacing" textLength="60" x="288.5" y="902.9395">promoted</text><line style="stroke:#181818;stroke-width:0.5;" x1="269.5" x2="451.5" y1="910.4531" y2="910.4531"/></g><!--class PlansViewMapper--><g id="elem_PlansViewMapper"><rect codeLine="21" fill="#F1F1F1" height="63.2422" id="PlansViewMapper" rx="2.5" ry="2.5" style="stroke:#181818;stroke-width:0.5;" width="329" x="22" y="217.1211"/><text fill="#000000" font-family="sans-serif" font-size="14" lengthAdjust="spacing" textLength="112" x="130.5" y="237.2285">PlansViewMapper</text><line style="stroke:#181818;stroke-width:0.5;" x1="23" x2="350" y1="245.7422" y2="245.7422"/><line style="stroke:#181818;stroke-width:0.5;" x1="23" x2="350" y1="253.7422" y2="253.7422"/><ellipse cx="33" cy="268.5527" fill="#84BE84" rx="3" ry="3" style="stroke:#038048;stroke-width:1.0;"/><text fill="#000000" font-family="sans-serif" font-size="14" lengthAdjust="spacing" textLength="303" x="42" y="272.8496">toPlansView(List&lt;Plans&gt; plans):List&lt;PlansView&gt;</text></g><!--class PlansController--><g id="elem_PlansController"><rect codeLine="24" fill="#F1F1F1" height="81.8633" id="PlansController" rx="2.5" ry="2.5" style="stroke:#181818;stroke-width:0.5;" width="441" x="7" y="46.6211"/><text fill="#000000" font-family="sans-serif" font-size="14" lengthAdjust="spacing" textLength="97" x="179" y="66.7285">PlansController</text><line style="stroke:#181818;stroke-width:0.5;" x1="8" x2="447" y1="75.2422" y2="75.2422"/><line style="stroke:#181818;stroke-width:0.5;" x1="8" x2="447" y1="83.2422" y2="83.2422"/><ellipse cx="18" cy="98.0527" fill="#84BE84" rx="3" ry="3" style="stroke:#038048;stroke-width:1.0;"/><text fill="#000000" font-family="sans-serif" font-size="14" lengthAdjust="spacing" textLength="364" x="27" y="102.3496">deactivate(final String name):ResponseEntity&lt;PlansView&gt;</text><ellipse cx="18" cy="116.6738" fill="#84BE84" rx="3" ry="3" style="stroke:#038048;stroke-width:1.0;"/><text fill="#000000" font-family="sans-serif" font-size="14" lengthAdjust="spacing" textLength="415" x="27" y="120.9707">deactivateExternal(final String name):ResponseEntity&lt;PlansView&gt;</text></g><!--class PlansService--><g id="elem_PlansService"><rect codeLine="28" fill="#F1F1F1" height="81.8633" id="PlansService" rx="2.5" ry="2.5" style="stroke:#181818;stroke-width:0.5;" width="225" x="386" y="207.6211"/><text fill="#000000" font-family="sans-serif" font-size="14" lengthAdjust="spacing" textLength="82" x="457.5" y="227.7285">PlansService</text><line style="stroke:#181818;stroke-width:0.5;" x1="387" x2="610" y1="236.2422" y2="236.2422"/><line style="stroke:#181818;stroke-width:0.5;" x1="387" x2="610" y1="244.2422" y2="244.2422"/><ellipse cx="397" cy="259.0527" fill="#84BE84" rx="3" ry="3" style="stroke:#038048;stroke-width:1.0;"/><text fill="#000000" font-family="sans-serif" font-size="14" lengthAdjust="spacing" textLength="148" x="406" y="263.3496">findActive():List&lt;Plans&gt;</text><ellipse cx="397" cy="277.6738" fill="#84BE84" rx="3" ry="3" style="stroke:#038048;stroke-width:1.0;"/><text fill="#000000" font-family="sans-serif" font-size="14" lengthAdjust="spacing" textLength="199" x="406" y="281.9707">findActiveExternal():List&lt;Plans&gt;</text></g><!--class PlansRepository--><g id="elem_PlansRepository"><rect codeLine="34" fill="#F1F1F1" height="81.8633" id="PlansRepository" rx="2.5" ry="2.5" style="stroke:#181818;stroke-width:0.5;" width="229" x="384" y="368.6211"/><text fill="#000000" font-family="sans-serif" font-size="14" lengthAdjust="spacing" textLength="103" x="447" y="388.7285">PlansRepository</text><line style="stroke:#181818;stroke-width:0.5;" x1="385" x2="612" y1="397.2422" y2="397.2422"/><line style="stroke:#181818;stroke-width:0.5;" x1="385" x2="612" y1="405.2422" y2="405.2422"/><ellipse cx="395" cy="420.0527" fill="#84BE84" rx="3" ry="3" style="stroke:#038048;stroke-width:1.0;"/><text fill="#000000" font-family="sans-serif" font-size="14" lengthAdjust="spacing" textLength="191" x="404" y="424.3496">findByActiveBD() : List&lt;Plans&gt;</text><ellipse cx="395" cy="438.6738" fill="#84BE84" rx="3" ry="3" style="stroke:#038048;stroke-width:1.0;"/><text fill="#000000" font-family="sans-serif" font-size="14" lengthAdjust="spacing" textLength="203" x="404" y="442.9707">getAllActivePlans() : List&lt;Plans&gt;</text></g><!--class PlansRepositoryExternal--><g id="elem_PlansRepositoryExternal"><rect codeLine="44" fill="#F1F1F1" height="63.2422" id="PlansRepositoryExternal" rx="2.5" ry="2.5" style="stroke:#181818;stroke-width:0.5;" width="252" x="510.5" y="537.6211"/><text fill="#000000" font-family="sans-serif" font-size="14" lengthAdjust="spacing" textLength="154" x="559.5" y="557.7285">PlansRepositoryExternal</text><line style="stroke:#181818;stroke-width:0.5;" x1="511.5" x2="761.5" y1="566.2422" y2="566.2422"/><line style="stroke:#181818;stroke-width:0.5;" x1="511.5" x2="761.5" y1="574.2422" y2="574.2422"/><ellipse cx="521.5" cy="589.0527" fill="#84BE84" rx="3" ry="3" style="stroke:#038048;stroke-width:1.0;"/><text fill="#000000" font-family="sans-serif" font-size="14" lengthAdjust="spacing" textLength="226" x="530.5" y="593.3496">httpGetAllActivePlans(): List&lt;Plans&gt;</text></g><!--link PlansController to PlansService--><g id="link_PlansController_PlansService"><path codeLine="49" d="M295.88,128.7411 C336.97,152.8511 383.8848,180.375 424.9648,204.475 " fill="none" id="PlansController-to-PlansService" style="stroke:#181818;stroke-width:1.0;stroke-dasharray:7.0,7.0;"/><polygon fill="#181818" points="430.14,207.5111,424.4013,199.5069,425.8274,204.981,420.3532,206.4071,430.14,207.5111" style="stroke:#181818;stroke-width:1.0;"/><polygon fill="#000000" points="380.8126,170.7968,374.4983,163.6848,371.5239,168.7545,380.8126,170.7968" style="stroke:#000000;stroke-width:1.0;"/><text fill="#000000" font-family="sans-serif" font-size="13" lengthAdjust="spacing" textLength="28" x="385.5" y="173.6494">uses</text></g><!--link PlansService to PlansRepository--><g id="link_PlansService_PlansRepository"><path codeLine="50" d="M498.5,289.7411 C498.5,313.8511 498.5,338.4111 498.5,362.5111 " fill="none" id="PlansService-to-PlansRepository" style="stroke:#181818;stroke-width:1.0;stroke-dasharray:7.0,7.0;"/><polygon fill="#181818" points="498.5,368.5111,502.5,359.5111,498.5,363.5111,494.5,359.5111,498.5,368.5111" style="stroke:#181818;stroke-width:1.0;"/><polygon fill="#000000" points="503.5,334.2666,506.4389,325.2215,500.5611,325.2215,503.5,334.2666" style="stroke:#000000;stroke-width:1.0;"/><text fill="#000000" font-family="sans-serif" font-size="13" lengthAdjust="spacing" textLength="28" x="512.5" y="334.6494">uses</text></g><!--link PlansRepository to PlansRepositoryBD--><g id="link_PlansRepository_PlansRepositoryBD"><path codeLine="51" d="M463.32,450.7711 C442.16,474.9211 419.3149,500.999 398.3749,524.889 " fill="none" id="PlansRepository-to-PlansRepositoryBD" style="stroke:#181818;stroke-width:1.0;stroke-dasharray:7.0,7.0;"/><polygon fill="#181818" points="394.42,529.4011,403.3604,525.2696,397.7158,525.641,397.3443,519.9964,394.42,529.4011" style="stroke:#181818;stroke-width:1.0;"/><polygon fill="#000000" points="436.2048,494.0272,444.3763,489.1611,439.9554,485.2874,436.2048,494.0272" style="stroke:#000000;stroke-width:1.0;"/><text fill="#000000" font-family="sans-serif" font-size="13" lengthAdjust="spacing" textLength="28" x="448.5" y="495.6494">uses</text></g><!--link PlansRepository to PlansRepositoryExternal--><g id="link_PlansRepository_PlansRepositoryExternal"><path codeLine="52" d="M533.68,450.7711 C557.32,477.7511 584.0366,508.2377 605.7066,532.9777 " fill="none" id="PlansRepository-to-PlansRepositoryExternal" style="stroke:#181818;stroke-width:1.0;stroke-dasharray:7.0,7.0;"/><polygon fill="#181818" points="609.66,537.4911,606.7389,528.0854,606.3655,533.7299,600.721,533.3565,609.66,537.4911" style="stroke:#181818;stroke-width:1.0;"/><polygon fill="#000000" points="583.795,494.0273,580.0448,485.2874,575.6238,489.1609,583.795,494.0273" style="stroke:#000000;stroke-width:1.0;"/><text fill="#000000" font-family="sans-serif" font-size="13" lengthAdjust="spacing" textLength="28" x="589.5" y="495.6494">uses</text></g><!--link PlansRepositoryBD to Plans--><g id="link_PlansRepositoryBD_Plans"><path codeLine="53" d="M360.5,608.6911 C360.5,630.5311 360.5,653.1111 360.5,681.5711 " fill="none" id="PlansRepositoryBD-to-Plans" style="stroke:#181818;stroke-width:1.0;stroke-dasharray:7.0,7.0;"/><polygon fill="#181818" points="360.5,687.5711,364.5,678.5711,360.5,682.5711,356.5,678.5711,360.5,687.5711" style="stroke:#181818;stroke-width:1.0;"/><polygon fill="#000000" points="365.5,643.2666,362.5611,652.3117,368.4389,652.3117,365.5,643.2666" style="stroke:#000000;stroke-width:1.0;"/><text fill="#000000" font-family="sans-serif" font-size="13" lengthAdjust="spacing" textLength="36" x="374.5" y="653.6494">record</text></g><!--link PlansController to PlansViewMapper--><g id="link_PlansController_PlansViewMapper"><path codeLine="54" d="M217.15,128.7411 C210.08,156.1611 202.3587,186.1213 195.8787,211.2413 " fill="none" id="PlansController-to-PlansViewMapper" style="stroke:#181818;stroke-width:1.0;stroke-dasharray:7.0,7.0;"/><polygon fill="#181818" points="194.38,217.0511,200.5013,209.3355,195.6289,212.2096,192.7549,207.3372,194.38,217.0511" style="stroke:#181818;stroke-width:1.0;"/><polygon fill="#000000" points="212.2517,173.1083,217.3558,165.0834,211.6641,163.6159,212.2517,173.1083" style="stroke:#000000;stroke-width:1.0;"/><text fill="#000000" font-family="sans-serif" font-size="13" lengthAdjust="spacing" textLength="28" x="222.5" y="173.6494">uses</text></g><!--SRC=[bLJBRjim4BppA_OM6uxjks08y2CD2ZHj4AEv1Worbedm8P2hE4QGVo_rbYpt45qapixEpYv9tHo9CXyjbvdYXdAj5iBgfL3S-taYUUguPaUP80ZfX49MHk0naFqJPjPBikwysS5g9GsXEt21SSmOIL88svAygsHW2MiFVpswM_W9fr0Do8AIde0h1M_6dambpCBJg_F983npmpLMNv2W5qvc9Asf4PFhLtH_3W_Iv8I-GZN_a3hNl-jOKRg9v5wAhLKAHIjIe_iyJT7tK6vCpjKFn8Pb3HtLkGDuq7Xl5fcpsX8cxAlVmhF4qmFFCdHLCpEoBJxv5KQmAfSn5BlWfr475OnuABOD1bpXlHQ3MOAb1quuEKZ35Up9IPD2CR9fz8G-iyRZdGcxSkxBNcRVVOGj3FdVLnaOtADxbmA3kraGIjRbV2Rzhk91g2qxf8Ikhn-tUeQ5mEPSIMnsaob4CAXGS5AajL8LfyH7j52aFRdZSyq-sQ3EI_KQILprsVHL-orksltOpqYBNUmoB1RnOB0Hv1uznAmFTgpEm93OuTUuczrts4rh_yi9VuGsAu8LE1JM9TSwkxWVZU0_]--></g></svg>