<?xml version="1.0" encoding="us-ascii" standalone="no"?><svg xmlns="http://www.w3.org/2000/svg" xmlns:xlink="http://www.w3.org/1999/xlink" contentStyleType="text/css" height="444px" preserveAspectRatio="none" style="width:524px;height:444px;background:#FFFFFF;" version="1.1" viewBox="0 0 524 444" width="524px" zoomAndPan="magnify"><defs/><g><text fill="#000000" font-family="sans-serif" font-size="14" font-weight="bold" lengthAdjust="spacing" textLength="340" x="89" y="30.1074">Software Design Document - List all known Plans</text><rect fill="#ADD8E6" height="392.9883" style="stroke:#181818;stroke-width:0.5;" width="279" x="239" y="45.6211"/><text fill="#000000" font-family="sans-serif" font-size="13" font-weight="bold" lengthAdjust="spacing" textLength="46" x="355.5" y="59.6494">System</text><line style="stroke:#181818;stroke-width:0.5;stroke-dasharray:5.0,5.0;" x1="66" x2="66" y1="123.2422" y2="356.9883"/><line style="stroke:#181818;stroke-width:0.5;stroke-dasharray:5.0,5.0;" x1="271" x2="271" y1="123.2422" y2="356.9883"/><line style="stroke:#181818;stroke-width:0.5;stroke-dasharray:5.0,5.0;" x1="486" x2="486" y1="123.2422" y2="356.9883"/><text fill="#000000" font-family="sans-serif" font-size="14" lengthAdjust="spacing" textLength="116" x="5" y="119.7285">Marketing Director</text><ellipse cx="66" cy="53.1211" fill="#E2E2F0" rx="8" ry="8" style="stroke:#181818;stroke-width:0.5;"/><path d="M66,61.1211 L66,88.1211 M53,69.1211 L79,69.1211 M66,88.1211 L53,103.1211 M66,88.1211 L79,103.1211 " fill="none" style="stroke:#181818;stroke-width:0.5;"/><text fill="#000000" font-family="sans-serif" font-size="14" lengthAdjust="spacing" textLength="116" x="5" y="371.0957">Marketing Director</text><ellipse cx="66" cy="383.1094" fill="#E2E2F0" rx="8" ry="8" style="stroke:#181818;stroke-width:0.5;"/><path d="M66,391.1094 L66,418.1094 M53,399.1094 L79,399.1094 M66,418.1094 L53,433.1094 M66,418.1094 L79,433.1094 " fill="none" style="stroke:#181818;stroke-width:0.5;"/><rect fill="#E2E2F0" height="32.6211" rx="2.5" ry="2.5" style="stroke:#181818;stroke-width:0.5;" width="56" x="243" y="89.6211"/><text fill="#000000" font-family="sans-serif" font-size="14" lengthAdjust="spacing" textLength="42" x="250" y="111.7285">plans1</text><rect fill="#E2E2F0" height="32.6211" rx="2.5" ry="2.5" style="stroke:#181818;stroke-width:0.5;" width="56" x="243" y="355.9883"/><text fill="#000000" font-family="sans-serif" font-size="14" lengthAdjust="spacing" textLength="42" x="250" y="378.0957">plans1</text><rect fill="#E2E2F0" height="32.6211" rx="2.5" ry="2.5" style="stroke:#181818;stroke-width:0.5;" width="56" x="458" y="89.6211"/><text fill="#000000" font-family="sans-serif" font-size="14" lengthAdjust="spacing" textLength="42" x="465" y="111.7285">plans2</text><rect fill="#E2E2F0" height="32.6211" rx="2.5" ry="2.5" style="stroke:#181818;stroke-width:0.5;" width="56" x="458" y="355.9883"/><text fill="#000000" font-family="sans-serif" font-size="14" lengthAdjust="spacing" textLength="42" x="465" y="378.0957">plans2</text><polygon fill="#181818" points="259,152.5332,269,156.5332,259,160.5332,263,156.5332" style="stroke:#181818;stroke-width:1.0;"/><line style="stroke:#181818;stroke-width:1.0;" x1="66" x2="265" y1="156.5332" y2="156.5332"/><text fill="#000000" font-family="sans-serif" font-size="13" font-weight="bold" lengthAdjust="spacing" textLength="7" x="73" y="151.2705">1</text><text fill="#000000" font-family="sans-serif" font-size="13" lengthAdjust="spacing" textLength="65" x="84" y="151.2705">GET /plans</text><line style="stroke:#181818;stroke-width:1.0;" x1="271" x2="313" y1="187.8242" y2="187.8242"/><line style="stroke:#181818;stroke-width:1.0;" x1="313" x2="313" y1="187.8242" y2="200.8242"/><line style="stroke:#181818;stroke-width:1.0;" x1="272" x2="313" y1="200.8242" y2="200.8242"/><polygon fill="#181818" points="282,196.8242,272,200.8242,282,204.8242,278,200.8242" style="stroke:#181818;stroke-width:1.0;"/><text fill="#000000" font-family="sans-serif" font-size="13" font-weight="bold" lengthAdjust="spacing" textLength="7" x="278" y="182.5615">2</text><text fill="#000000" font-family="sans-serif" font-size="13" lengthAdjust="spacing" textLength="45" x="289" y="182.5615">planList</text><polygon fill="#181818" points="474,228.1152,484,232.1152,474,236.1152,478,232.1152" style="stroke:#181818;stroke-width:1.0;"/><line style="stroke:#181818;stroke-width:1.0;" x1="271" x2="480" y1="232.1152" y2="232.1152"/><text fill="#000000" font-family="sans-serif" font-size="13" font-weight="bold" lengthAdjust="spacing" textLength="7" x="278" y="226.8525">3</text><text fill="#000000" font-family="sans-serif" font-size="13" lengthAdjust="spacing" textLength="115" x="289" y="226.8525">GET /plans/external</text><polygon fill="#181818" points="282,259.4063,272,263.4063,282,267.4063,278,263.4063" style="stroke:#181818;stroke-width:1.0;"/><line style="stroke:#181818;stroke-width:1.0;stroke-dasharray:2.0,2.0;" x1="276" x2="485" y1="263.4063" y2="263.4063"/><text fill="#000000" font-family="sans-serif" font-size="13" font-weight="bold" lengthAdjust="spacing" textLength="7" x="288" y="258.1436">4</text><text fill="#000000" font-family="sans-serif" font-size="13" lengthAdjust="spacing" textLength="93" x="299" y="258.1436">planListExternal</text><line style="stroke:#181818;stroke-width:1.0;" x1="271" x2="313" y1="294.6973" y2="294.6973"/><line style="stroke:#181818;stroke-width:1.0;" x1="313" x2="313" y1="294.6973" y2="307.6973"/><line style="stroke:#181818;stroke-width:1.0;" x1="272" x2="313" y1="307.6973" y2="307.6973"/><polygon fill="#181818" points="282,303.6973,272,307.6973,282,311.6973,278,307.6973" style="stroke:#181818;stroke-width:1.0;"/><text fill="#000000" font-family="sans-serif" font-size="13" font-weight="bold" lengthAdjust="spacing" textLength="7" x="278" y="289.4346">5</text><text fill="#000000" font-family="sans-serif" font-size="13" lengthAdjust="spacing" textLength="190" x="289" y="289.4346">addAll(planList, planListExternal)</text><polygon fill="#181818" points="77,334.9883,67,338.9883,77,342.9883,73,338.9883" style="stroke:#181818;stroke-width:1.0;"/><line style="stroke:#181818;stroke-width:1.0;stroke-dasharray:2.0,2.0;" x1="71" x2="270" y1="338.9883" y2="338.9883"/><text fill="#000000" font-family="sans-serif" font-size="13" font-weight="bold" lengthAdjust="spacing" textLength="7" x="83" y="333.7256">6</text><text fill="#000000" font-family="sans-serif" font-size="13" lengthAdjust="spacing" textLength="170" x="94" y="333.7256">informs operation (in)success</text><!--SRC=[RP11QiCm44NtSuh1NJI1cb0lioWO7BffeP1UO2nFN15fPAGnIMzVoILjIhhK- -z_1jtJhC44FpbMnY1GtZBxdYE0MdMC-t3G4qN6ZfCT1RjWPi-YMEEBJOha71ubd0JV74a28ACXOlLAySXgPSJEHYwiGahO6kZ36QlzPrBs5TuvEtvexsQ6YQ9QOoVAuzLKnXwNIbR_oPfBrW3BW7aKe3LOFnM6MtpUlUDcCQ607rvGEVoADd_q3P-Lev239Qflchkh_7UNXg5rRdMH7cxqDNmNSYFVkKKhXn1zmZ1n9BL1S6LbdMPZEELlX2y0]--></g></svg>