<?xml version="1.0" encoding="us-ascii" standalone="no"?><svg xmlns="http://www.w3.org/2000/svg" xmlns:xlink="http://www.w3.org/1999/xlink" contentStyleType="text/css" height="917px" preserveAspectRatio="none" style="width:747px;height:917px;background:#FFFFFF;" version="1.1" viewBox="0 0 747 917" width="747px" zoomAndPan="magnify"><defs/><g><text fill="#000000" font-family="sans-serif" font-size="14" font-weight="bold" lengthAdjust="spacing" textLength="373" x="180" y="25.1074">Class Diagram / As User, I want to register an account</text><!--class UserRepositoryBD--><g id="elem_UserRepositoryBD"><rect codeLine="33" fill="#F1F1F1" height="97.8242" id="UserRepositoryBD" rx="2.5" ry="2.5" style="stroke:#181818;stroke-width:0.5;" width="347" x="69" y="491.6211"/><text fill="#000000" font-family="sans-serif" font-size="12" font-style="italic" lengthAdjust="spacing" textLength="61" x="212" y="509.5703">&#171;interface&#187;</text><text fill="#000000" font-family="sans-serif" font-size="14" font-style="italic" lengthAdjust="spacing" textLength="117" x="184" y="527.6895">UserRepositoryBD</text><line style="stroke:#181818;stroke-width:0.5;" x1="70" x2="415" y1="536.2031" y2="536.2031"/><line style="stroke:#181818;stroke-width:0.5;" x1="70" x2="415" y1="544.2031" y2="544.2031"/><ellipse cx="80" cy="559.0137" fill="#84BE84" rx="3" ry="3" style="stroke:#038048;stroke-width:1.0;"/><text fill="#000000" font-family="sans-serif" font-size="14" lengthAdjust="spacing" textLength="321" x="89" y="563.3105">findByUsername(String userName): optional&lt;User&gt;</text><ellipse cx="80" cy="577.6348" fill="#84BE84" rx="3" ry="3" style="stroke:#038048;stroke-width:1.0;"/><text fill="#000000" font-family="sans-serif" font-size="14" lengthAdjust="spacing" textLength="210" x="89" y="581.9316">save(S entity) : &lt;S extends User&gt;</text></g><!--class User--><g id="elem_User"><rect codeLine="9" fill="#F1F1F1" height="100.4844" id="User" rx="2.5" ry="2.5" style="stroke:#181818;stroke-width:0.5;" width="89" x="198" y="668.6211"/><text fill="#000000" font-family="sans-serif" font-size="14" lengthAdjust="spacing" textLength="29" x="228" y="688.7285">User</text><line style="stroke:#181818;stroke-width:0.5;" x1="199" x2="286" y1="697.2422" y2="697.2422"/><rect fill="none" height="6" style="stroke:#C82930;stroke-width:1.0;" width="6" x="206" y="709.0527"/><text fill="#000000" font-family="sans-serif" font-size="14" lengthAdjust="spacing" textLength="63" x="218" y="716.3496">username</text><rect fill="none" height="6" style="stroke:#C82930;stroke-width:1.0;" width="6" x="206" y="727.6738"/><text fill="#000000" font-family="sans-serif" font-size="14" lengthAdjust="spacing" textLength="60" x="218" y="734.9707">password</text><rect fill="none" height="6" style="stroke:#C82930;stroke-width:1.0;" width="6" x="206" y="746.2949"/><text fill="#000000" font-family="sans-serif" font-size="14" lengthAdjust="spacing" textLength="24" x="218" y="753.5918">role</text><line style="stroke:#181818;stroke-width:0.5;" x1="199" x2="286" y1="761.1055" y2="761.1055"/></g><!--class Role--><g id="elem_Role"><rect codeLine="15" fill="#F1F1F1" height="63.2422" id="Role" rx="2.5" ry="2.5" style="stroke:#181818;stroke-width:0.5;" width="50" x="217.5" y="847.6211"/><text fill="#000000" font-family="sans-serif" font-size="14" lengthAdjust="spacing" textLength="29" x="228" y="867.7285">Role</text><line style="stroke:#181818;stroke-width:0.5;" x1="218.5" x2="266.5" y1="876.2422" y2="876.2422"/><rect fill="none" height="6" style="stroke:#C82930;stroke-width:1.0;" width="6" x="225.5" y="888.0527"/><text fill="#000000" font-family="sans-serif" font-size="14" lengthAdjust="spacing" textLength="24" x="237.5" y="895.3496">role</text><line style="stroke:#181818;stroke-width:0.5;" x1="218.5" x2="266.5" y1="902.8633" y2="902.8633"/></g><!--class UserViewMapper--><g id="elem_UserViewMapper"><rect codeLine="18" fill="#F1F1F1" height="63.2422" id="UserViewMapper" rx="2.5" ry="2.5" style="stroke:#181818;stroke-width:0.5;" width="229" x="7" y="188.6211"/><text fill="#000000" font-family="sans-serif" font-size="14" lengthAdjust="spacing" textLength="106" x="68.5" y="208.7285">UserViewMapper</text><line style="stroke:#181818;stroke-width:0.5;" x1="8" x2="235" y1="217.2422" y2="217.2422"/><line style="stroke:#181818;stroke-width:0.5;" x1="8" x2="235" y1="225.2422" y2="225.2422"/><ellipse cx="18" cy="240.0527" fill="#84BE84" rx="3" ry="3" style="stroke:#038048;stroke-width:1.0;"/><text fill="#000000" font-family="sans-serif" font-size="14" lengthAdjust="spacing" textLength="203" x="27" y="244.3496">toUserView(User user):UserView</text></g><!--class UserController--><g id="elem_UserController"><rect codeLine="21" fill="#F1F1F1" height="63.2422" id="UserController" rx="2.5" ry="2.5" style="stroke:#181818;stroke-width:0.5;" width="291" x="17" y="46.6211"/><text fill="#000000" font-family="sans-serif" font-size="14" lengthAdjust="spacing" textLength="91" x="117" y="66.7285">UserController</text><line style="stroke:#181818;stroke-width:0.5;" x1="18" x2="307" y1="75.2422" y2="75.2422"/><line style="stroke:#181818;stroke-width:0.5;" x1="18" x2="307" y1="83.2422" y2="83.2422"/><ellipse cx="28" cy="98.0527" fill="#84BE84" rx="3" ry="3" style="stroke:#038048;stroke-width:1.0;"/><text fill="#000000" font-family="sans-serif" font-size="14" lengthAdjust="spacing" textLength="265" x="37" y="102.3496">register(final CreateUserRequest request)</text></g><!--class UserService--><g id="elem_UserService"><rect codeLine="24" fill="#F1F1F1" height="63.2422" id="UserService" rx="2.5" ry="2.5" style="stroke:#181818;stroke-width:0.5;" width="294" x="271.5" y="188.6211"/><text fill="#000000" font-family="sans-serif" font-size="14" lengthAdjust="spacing" textLength="76" x="380.5" y="208.7285">UserService</text><line style="stroke:#181818;stroke-width:0.5;" x1="272.5" x2="564.5" y1="217.2422" y2="217.2422"/><line style="stroke:#181818;stroke-width:0.5;" x1="272.5" x2="564.5" y1="225.2422" y2="225.2422"/><ellipse cx="282.5" cy="240.0527" fill="#84BE84" rx="3" ry="3" style="stroke:#038048;stroke-width:1.0;"/><text fill="#000000" font-family="sans-serif" font-size="14" lengthAdjust="spacing" textLength="268" x="291.5" y="244.3496">register(CreateUserRequest request):User</text></g><!--class UserRepository--><g id="elem_UserRepository"><rect codeLine="28" fill="#F1F1F1" height="81.8633" id="UserRepository" rx="2.5" ry="2.5" style="stroke:#181818;stroke-width:0.5;" width="295" x="271" y="330.6211"/><text fill="#000000" font-family="sans-serif" font-size="14" lengthAdjust="spacing" textLength="97" x="370" y="350.7285">UserRepository</text><line style="stroke:#181818;stroke-width:0.5;" x1="272" x2="565" y1="359.2422" y2="359.2422"/><line style="stroke:#181818;stroke-width:0.5;" x1="272" x2="565" y1="367.2422" y2="367.2422"/><ellipse cx="282" cy="382.0527" fill="#84BE84" rx="3" ry="3" style="stroke:#038048;stroke-width:1.0;"/><text fill="#000000" font-family="sans-serif" font-size="14" lengthAdjust="spacing" textLength="269" x="291" y="386.3496">findIfUserExists(String userName): boolean</text><ellipse cx="282" cy="400.6738" fill="#84BE84" rx="3" ry="3" style="stroke:#038048;stroke-width:1.0;"/><text fill="#000000" font-family="sans-serif" font-size="14" lengthAdjust="spacing" textLength="161" x="291" y="404.9707">saveBD(User user) : User</text></g><!--class UserRepositoryExternal--><g id="elem_UserRepositoryExternal"><rect codeLine="39" fill="#F1F1F1" height="63.2422" id="UserRepositoryExternal" rx="2.5" ry="2.5" style="stroke:#181818;stroke-width:0.5;" width="289" x="451" y="509.1211"/><text fill="#000000" font-family="sans-serif" font-size="14" lengthAdjust="spacing" textLength="148" x="521.5" y="529.2285">UserRepositoryExternal</text><line style="stroke:#181818;stroke-width:0.5;" x1="452" x2="739" y1="537.7422" y2="537.7422"/><line style="stroke:#181818;stroke-width:0.5;" x1="452" x2="739" y1="545.7422" y2="545.7422"/><ellipse cx="462" cy="560.5527" fill="#84BE84" rx="3" ry="3" style="stroke:#038048;stroke-width:1.0;"/><text fill="#000000" font-family="sans-serif" font-size="14" lengthAdjust="spacing" textLength="263" x="471" y="564.8496">httpExistsUser(String userName): boolean</text></g><!--link UserController to UserService--><g id="link_UserController_UserService"><path codeLine="44" d="M218.36,109.6711 C261.03,133.0011 314.3056,162.1425 357.0456,185.5125 " fill="none" id="UserController-to-UserService" style="stroke:#181818;stroke-width:1.0;stroke-dasharray:7.0,7.0;"/><polygon fill="#181818" points="362.31,188.3911,356.3324,180.5637,357.923,185.9923,352.4944,187.5829,362.31,188.3911" style="stroke:#181818;stroke-width:1.0;"/><polygon fill="#000000" points="314.8869,151.6656,308.361,144.7472,305.5408,149.9043,314.8869,151.6656" style="stroke:#000000;stroke-width:1.0;"/><text fill="#000000" font-family="sans-serif" font-size="13" lengthAdjust="spacing" textLength="28" x="319.5" y="154.6494">uses</text></g><!--link UserService to UserRepository--><g id="link_UserService_UserRepository"><path codeLine="45" d="M418.5,251.7311 C418.5,274.4611 418.5,299.6611 418.5,324.4011 " fill="none" id="UserService-to-UserRepository" style="stroke:#181818;stroke-width:1.0;stroke-dasharray:7.0,7.0;"/><polygon fill="#181818" points="418.5,330.4011,422.5,321.4011,418.5,325.4011,414.5,321.4011,418.5,330.4011" style="stroke:#181818;stroke-width:1.0;"/><polygon fill="#000000" points="423.5,296.2666,426.4389,287.2215,420.5611,287.2215,423.5,296.2666" style="stroke:#000000;stroke-width:1.0;"/><text fill="#000000" font-family="sans-serif" font-size="13" lengthAdjust="spacing" textLength="28" x="432.5" y="296.6494">uses</text></g><!--link UserRepository to UserRepositoryBD--><g id="link_UserRepository_UserRepositoryBD"><path codeLine="46" d="M376.34,412.6211 C351.43,436.2611 324.0621,462.2308 297.7621,487.1908 " fill="none" id="UserRepository-to-UserRepositoryBD" style="stroke:#181818;stroke-width:1.0;stroke-dasharray:7.0,7.0;"/><polygon fill="#181818" points="293.41,491.3211,302.6916,488.027,297.0367,487.8792,297.1845,482.2242,293.41,491.3211" style="stroke:#181818;stroke-width:1.0;"/><polygon fill="#000000" points="341.8732,455.7084,350.4572,451.6139,346.4111,447.3503,341.8732,455.7084" style="stroke:#000000;stroke-width:1.0;"/><text fill="#000000" font-family="sans-serif" font-size="13" lengthAdjust="spacing" textLength="28" x="354.5" y="457.6494">uses</text></g><!--link UserRepository to UserRepositoryExternal--><g id="link_UserRepository_UserRepositoryExternal"><path codeLine="47" d="M460.9,412.6211 C492.29,442.2411 530.066,477.8834 558.776,504.9734 " fill="none" id="UserRepository-to-UserRepositoryExternal" style="stroke:#181818;stroke-width:1.0;stroke-dasharray:7.0,7.0;"/><polygon fill="#181818" points="563.14,509.0911,559.3392,500.0052,559.5034,505.6597,553.8489,505.8238,563.14,509.0911" style="stroke:#181818;stroke-width:1.0;"/><polygon fill="#000000" points="520.1367,455.698,515.5748,447.3529,511.5409,451.6281,520.1367,455.698" style="stroke:#000000;stroke-width:1.0;"/><text fill="#000000" font-family="sans-serif" font-size="13" lengthAdjust="spacing" textLength="28" x="525.5" y="457.6494">uses</text></g><!--link UserRepositoryBD to User--><g id="link_UserRepositoryBD_User"><path codeLine="48" d="M242.5,589.7111 C242.5,614.1411 242.5,637.7711 242.5,662.3611 " fill="none" id="UserRepositoryBD-to-User" style="stroke:#181818;stroke-width:1.0;stroke-dasharray:7.0,7.0;"/><polygon fill="#181818" points="242.5,668.3611,246.5,659.3611,242.5,663.3611,238.5,659.3611,242.5,668.3611" style="stroke:#181818;stroke-width:1.0;"/><polygon fill="#000000" points="247.5,624.2666,244.5611,633.3117,250.4389,633.3117,247.5,624.2666" style="stroke:#000000;stroke-width:1.0;"/><text fill="#000000" font-family="sans-serif" font-size="13" lengthAdjust="spacing" textLength="36" x="256.5" y="634.6494">record</text></g><!--link UserController to UserViewMapper--><g id="link_UserController_UserViewMapper"><path codeLine="49" d="M153.5,109.8411 C146.67,133.1911 138.9958,159.3828 132.1658,182.7128 " fill="none" id="UserController-to-UserViewMapper" style="stroke:#181818;stroke-width:1.0;stroke-dasharray:7.0,7.0;"/><polygon fill="#181818" points="130.48,188.4711,136.8475,180.9575,131.8848,183.6725,129.1698,178.7098,130.48,188.4711" style="stroke:#181818;stroke-width:1.0;"/><polygon fill="#000000" points="148.0951,154.0652,153.4571,146.2102,147.816,144.5587,148.0951,154.0652" style="stroke:#000000;stroke-width:1.0;"/><text fill="#000000" font-family="sans-serif" font-size="13" lengthAdjust="spacing" textLength="28" x="158.5" y="154.6494">uses</text></g><!--link User to Role--><g id="link_User_Role"><path codeLine="50" d="M242.5,768.9011 C242.5,794.5311 242.5,819.0611 242.5,841.3211 " fill="none" id="User-to-Role" style="stroke:#181818;stroke-width:1.0;stroke-dasharray:7.0,7.0;"/><polygon fill="#181818" points="242.5,847.3211,246.5,838.3211,242.5,842.3211,238.5,838.3211,242.5,847.3211" style="stroke:#181818;stroke-width:1.0;"/><text fill="#000000" font-family="sans-serif" font-size="13" lengthAdjust="spacing" textLength="21" x="243.5" y="813.6494">has</text></g><!--SRC=[ZLCzRuCm4DtzAsuhKPkm8uHKGeOCxP0etLrpIIo1JMsJ3qNzxpr32A0qLRs0xNVltRixF-sTgsmKXbN1bQlBOYPq6Og2MplD9TyPNhAzp164DA90rjp0ng9POQMjTDgSqmpYM2g7Pii59WbZJhe2OTvWivO5GdXj0rzW2KSI0wV1u4vQ2WIkW0kXQ-KOhLxbme3MjAPVnKjiTnNT7hN9svtHbDTt5xIY7Ln6DptRXyJZ6w-gZlVPwUuuy3_WTIPHTpQAdMlbYB2unNQv1rkfU05pWznXMvcl6gqZSyrtqi27L6iq1ocGU7gIn-5DEht1SUslkL0A-NBhhnOduhF1sXcfTesVTwhR989FJTNWgiLRVi0q6tY623gPMoVlsim6QkbvS-t9BrgwSb9JKMAFINh9O0seQ3ZENY-cpScXobjFoIEB2mAHK74LzmFRclImFumI7Hit3cQpPDY0o8TPIDZWx8Rf4nZ1-kDVa6dsVsndwq44FQekXaf5mo3ymD_x6O_rYAmXQDv317jkVm00]--></g></svg>