<?xml version="1.0" encoding="us-ascii" standalone="no"?><svg xmlns="http://www.w3.org/2000/svg" xmlns:xlink="http://www.w3.org/1999/xlink" contentStyleType="text/css" height="1027px" preserveAspectRatio="none" style="width:1247px;height:1027px;background:#FFFFFF;" version="1.1" viewBox="0 0 1247 1027" width="1247px" zoomAndPan="magnify"><defs/><g><text fill="#000000" font-family="sans-serif" font-size="14" font-weight="bold" lengthAdjust="spacing" textLength="407" x="421" y="30.1074">Sequence Diagram - As User, I want to register an account</text><rect fill="none" height="317.8809" style="stroke:#000000;stroke-width:1.5;" width="795" x="344.5" y="265.4063"/><rect fill="none" height="98.5039" style="stroke:#000000;stroke-width:1.5;" width="314.5" x="354.5" y="477.7832"/><rect fill="none" height="286.25" style="stroke:#000000;stroke-width:1.5;" width="1230" x="10" y="641.5781"/><line style="stroke:#181818;stroke-width:0.5;stroke-dasharray:5.0,5.0;" x1="37" x2="37" y1="123.2422" y2="944.8281"/><line style="stroke:#181818;stroke-width:0.5;stroke-dasharray:5.0,5.0;" x1="158" x2="158" y1="123.2422" y2="944.8281"/><line style="stroke:#181818;stroke-width:0.5;stroke-dasharray:5.0,5.0;" x1="411.5" x2="411.5" y1="123.2422" y2="944.8281"/><line style="stroke:#181818;stroke-width:0.5;stroke-dasharray:5.0,5.0;" x1="601" x2="601" y1="123.2422" y2="944.8281"/><line style="stroke:#181818;stroke-width:0.5;stroke-dasharray:5.0,5.0;" x1="796.5" x2="796.5" y1="123.2422" y2="944.8281"/><line style="stroke:#181818;stroke-width:0.5;stroke-dasharray:5.0,5.0;" x1="956.5" x2="956.5" y1="123.2422" y2="944.8281"/><line style="stroke:#181818;stroke-width:0.5;stroke-dasharray:5.0,5.0;" x1="1134" x2="1134" y1="123.2422" y2="944.8281"/><line style="stroke:#181818;stroke-width:0.5;stroke-dasharray:5.0,5.0;" x1="1199" x2="1199" y1="123.2422" y2="944.8281"/><text fill="#000000" font-family="sans-serif" font-size="14" lengthAdjust="spacing" textLength="29" x="20" y="119.7285">User</text><ellipse cx="37.5" cy="53.1211" fill="#E2E2F0" rx="8" ry="8" style="stroke:#181818;stroke-width:0.5;"/><path d="M37.5,61.1211 L37.5,88.1211 M24.5,69.1211 L50.5,69.1211 M37.5,88.1211 L24.5,103.1211 M37.5,88.1211 L50.5,103.1211 " fill="none" style="stroke:#181818;stroke-width:0.5;"/><text fill="#000000" font-family="sans-serif" font-size="14" lengthAdjust="spacing" textLength="29" x="20" y="958.9355">User</text><ellipse cx="37.5" cy="970.9492" fill="#E2E2F0" rx="8" ry="8" style="stroke:#181818;stroke-width:0.5;"/><path d="M37.5,978.9492 L37.5,1005.9492 M24.5,986.9492 L50.5,986.9492 M37.5,1005.9492 L24.5,1020.9492 M37.5,1005.9492 L50.5,1020.9492 " fill="none" style="stroke:#181818;stroke-width:0.5;"/><rect fill="#E2E2F0" height="32.6211" rx="2.5" ry="2.5" style="stroke:#181818;stroke-width:0.5;" width="109" x="104" y="89.6211"/><text fill="#000000" font-family="sans-serif" font-size="14" lengthAdjust="spacing" textLength="95" x="111" y="111.7285">:UserController</text><rect fill="#E2E2F0" height="32.6211" rx="2.5" ry="2.5" style="stroke:#181818;stroke-width:0.5;" width="109" x="104" y="943.8281"/><text fill="#000000" font-family="sans-serif" font-size="14" lengthAdjust="spacing" textLength="95" x="111" y="965.9355">:UserController</text><rect fill="#E2E2F0" height="32.6211" rx="2.5" ry="2.5" style="stroke:#181818;stroke-width:0.5;" width="94" x="364.5" y="89.6211"/><text fill="#000000" font-family="sans-serif" font-size="14" lengthAdjust="spacing" textLength="80" x="371.5" y="111.7285">:UserService</text><rect fill="#E2E2F0" height="32.6211" rx="2.5" ry="2.5" style="stroke:#181818;stroke-width:0.5;" width="94" x="364.5" y="943.8281"/><text fill="#000000" font-family="sans-serif" font-size="14" lengthAdjust="spacing" textLength="80" x="371.5" y="965.9355">:UserService</text><rect fill="#E2E2F0" height="32.6211" rx="2.5" ry="2.5" style="stroke:#181818;stroke-width:0.5;" width="115" x="544" y="89.6211"/><text fill="#000000" font-family="sans-serif" font-size="14" lengthAdjust="spacing" textLength="101" x="551" y="111.7285">:UserRepository</text><rect fill="#E2E2F0" height="32.6211" rx="2.5" ry="2.5" style="stroke:#181818;stroke-width:0.5;" width="115" x="544" y="943.8281"/><text fill="#000000" font-family="sans-serif" font-size="14" lengthAdjust="spacing" textLength="101" x="551" y="965.9355">:UserRepository</text><rect fill="#E2E2F0" height="32.6211" rx="2.5" ry="2.5" style="stroke:#181818;stroke-width:0.5;" width="134" x="729.5" y="89.6211"/><text fill="#000000" font-family="sans-serif" font-size="14" lengthAdjust="spacing" textLength="120" x="736.5" y="111.7285">:UserRepositoryBD</text><rect fill="#E2E2F0" height="32.6211" rx="2.5" ry="2.5" style="stroke:#181818;stroke-width:0.5;" width="134" x="729.5" y="943.8281"/><text fill="#000000" font-family="sans-serif" font-size="14" lengthAdjust="spacing" textLength="120" x="736.5" y="965.9355">:UserRepositoryBD</text><rect fill="#E2E2F0" height="32.6211" rx="2.5" ry="2.5" style="stroke:#181818;stroke-width:0.5;" width="166" x="873.5" y="89.6211"/><text fill="#000000" font-family="sans-serif" font-size="14" lengthAdjust="spacing" textLength="152" x="880.5" y="111.7285">:UserRepositoryExternal</text><rect fill="#E2E2F0" height="32.6211" rx="2.5" ry="2.5" style="stroke:#181818;stroke-width:0.5;" width="166" x="873.5" y="943.8281"/><text fill="#000000" font-family="sans-serif" font-size="14" lengthAdjust="spacing" textLength="152" x="880.5" y="965.9355">:UserRepositoryExternal</text><rect fill="#E2E2F0" height="32.6211" rx="2.5" ry="2.5" style="stroke:#181818;stroke-width:0.5;" width="47" x="1111" y="89.6211"/><text fill="#000000" font-family="sans-serif" font-size="14" lengthAdjust="spacing" textLength="33" x="1118" y="111.7285">:User</text><rect fill="#E2E2F0" height="32.6211" rx="2.5" ry="2.5" style="stroke:#181818;stroke-width:0.5;" width="47" x="1111" y="943.8281"/><text fill="#000000" font-family="sans-serif" font-size="14" lengthAdjust="spacing" textLength="33" x="1118" y="965.9355">:User</text><rect fill="#E2E2F0" height="32.6211" rx="2.5" ry="2.5" style="stroke:#181818;stroke-width:0.5;" width="62" x="1168" y="89.6211"/><text fill="#000000" font-family="sans-serif" font-size="14" lengthAdjust="spacing" textLength="48" x="1175" y="111.7285">Mapper</text><rect fill="#E2E2F0" height="32.6211" rx="2.5" ry="2.5" style="stroke:#181818;stroke-width:0.5;" width="62" x="1168" y="943.8281"/><text fill="#000000" font-family="sans-serif" font-size="14" lengthAdjust="spacing" textLength="48" x="1175" y="965.9355">Mapper</text><polygon fill="#181818" points="146.5,152.5332,156.5,156.5332,146.5,160.5332,150.5,156.5332" style="stroke:#181818;stroke-width:1.0;"/><line style="stroke:#181818;stroke-width:1.0;" x1="37.5" x2="152.5" y1="156.5332" y2="156.5332"/><text fill="#000000" font-family="sans-serif" font-size="13" font-weight="bold" lengthAdjust="spacing" textLength="7" x="44.5" y="151.2705">1</text><text fill="#000000" font-family="sans-serif" font-size="13" lengthAdjust="spacing" textLength="86" x="55.5" y="151.2705">POST /register</text><polygon fill="#181818" points="399.5,183.8242,409.5,187.8242,399.5,191.8242,403.5,187.8242" style="stroke:#181818;stroke-width:1.0;"/><line style="stroke:#181818;stroke-width:1.0;" x1="158.5" x2="405.5" y1="187.8242" y2="187.8242"/><text fill="#000000" font-family="sans-serif" font-size="13" font-weight="bold" lengthAdjust="spacing" textLength="7" x="165.5" y="182.5615">2</text><text fill="#000000" font-family="sans-serif" font-size="13" lengthAdjust="spacing" textLength="218" x="176.5" y="182.5615">register(CreateUserRequest resource)</text><polygon fill="#181818" points="589.5,215.1152,599.5,219.1152,589.5,223.1152,593.5,219.1152" style="stroke:#181818;stroke-width:1.0;"/><line style="stroke:#181818;stroke-width:1.0;" x1="411.5" x2="595.5" y1="219.1152" y2="219.1152"/><text fill="#000000" font-family="sans-serif" font-size="13" font-weight="bold" lengthAdjust="spacing" textLength="7" x="418.5" y="213.8525">3</text><text fill="#000000" font-family="sans-serif" font-size="13" lengthAdjust="spacing" textLength="155" x="429.5" y="213.8525">findIfUserExists(username)</text><polygon fill="#181818" points="784.5,246.4063,794.5,250.4063,784.5,254.4063,788.5,250.4063" style="stroke:#181818;stroke-width:1.0;"/><line style="stroke:#181818;stroke-width:1.0;" x1="601.5" x2="790.5" y1="250.4063" y2="250.4063"/><text fill="#000000" font-family="sans-serif" font-size="13" font-weight="bold" lengthAdjust="spacing" textLength="7" x="608.5" y="245.1436">4</text><text fill="#000000" font-family="sans-serif" font-size="13" lengthAdjust="spacing" textLength="160" x="619.5" y="245.1436">findByUsername(username)</text><path d="M344.5,265.4063 L405.5,265.4063 L405.5,274.6973 L395.5,284.6973 L344.5,284.6973 L344.5,265.4063 " fill="#EEEEEE" style="stroke:#000000;stroke-width:1.5;"/><rect fill="none" height="317.8809" style="stroke:#000000;stroke-width:1.5;" width="795" x="344.5" y="265.4063"/><text fill="#000000" font-family="sans-serif" font-size="13" font-weight="bold" lengthAdjust="spacing" textLength="16" x="359.5" y="280.4346">alt</text><text fill="#000000" font-family="sans-serif" font-size="11" font-weight="bold" lengthAdjust="spacing" textLength="146" x="420.5" y="279.2764">[Name found in local Repo]</text><polygon fill="#181818" points="612.5,303.9883,602.5,307.9883,612.5,311.9883,608.5,307.9883" style="stroke:#181818;stroke-width:1.0;"/><line style="stroke:#181818;stroke-width:1.0;stroke-dasharray:2.0,2.0;" x1="606.5" x2="795.5" y1="307.9883" y2="307.9883"/><text fill="#000000" font-family="sans-serif" font-size="13" font-weight="bold" lengthAdjust="spacing" textLength="7" x="618.5" y="302.7256">5</text><text fill="#000000" font-family="sans-serif" font-size="13" lengthAdjust="spacing" textLength="114" x="629.5" y="302.7256">Name exists locally</text><polygon fill="#181818" points="422.5,335.2793,412.5,339.2793,422.5,343.2793,418.5,339.2793" style="stroke:#181818;stroke-width:1.0;"/><line style="stroke:#181818;stroke-width:1.0;stroke-dasharray:2.0,2.0;" x1="416.5" x2="600.5" y1="339.2793" y2="339.2793"/><text fill="#000000" font-family="sans-serif" font-size="13" font-weight="bold" lengthAdjust="spacing" textLength="7" x="428.5" y="334.0166">6</text><text fill="#000000" font-family="sans-serif" font-size="13" lengthAdjust="spacing" textLength="22" x="439.5" y="334.0166">true</text><line style="stroke:#000000;stroke-width:1.0;stroke-dasharray:2.0,2.0;" x1="344.5" x2="1139.5" y1="348.2793" y2="348.2793"/><text fill="#000000" font-family="sans-serif" font-size="11" font-weight="bold" lengthAdjust="spacing" textLength="167" x="349.5" y="360.1494">[Name not found in local Repo]</text><polygon fill="#181818" points="944.5,383.2012,954.5,387.2012,944.5,391.2012,948.5,387.2012" style="stroke:#181818;stroke-width:1.0;"/><line style="stroke:#181818;stroke-width:1.0;" x1="601.5" x2="950.5" y1="387.2012" y2="387.2012"/><text fill="#000000" font-family="sans-serif" font-size="13" font-weight="bold" lengthAdjust="spacing" textLength="7" x="608.5" y="381.9385">7</text><text fill="#000000" font-family="sans-serif" font-size="13" lengthAdjust="spacing" textLength="151" x="619.5" y="381.9385">httpExistsUser(username)</text><line style="stroke:#181818;stroke-width:1.0;" x1="956.5" x2="998.5" y1="418.4922" y2="418.4922"/><line style="stroke:#181818;stroke-width:1.0;" x1="998.5" x2="998.5" y1="418.4922" y2="431.4922"/><line style="stroke:#181818;stroke-width:1.0;" x1="957.5" x2="998.5" y1="431.4922" y2="431.4922"/><polygon fill="#181818" points="967.5,427.4922,957.5,431.4922,967.5,435.4922,963.5,431.4922" style="stroke:#181818;stroke-width:1.0;"/><text fill="#000000" font-family="sans-serif" font-size="13" font-weight="bold" lengthAdjust="spacing" textLength="7" x="963.5" y="413.2295">8</text><text fill="#000000" font-family="sans-serif" font-size="13" lengthAdjust="spacing" textLength="153" x="974.5" y="413.2295">GET /user/external/{name}</text><polygon fill="#181818" points="612.5,458.7832,602.5,462.7832,612.5,466.7832,608.5,462.7832" style="stroke:#181818;stroke-width:1.0;"/><line style="stroke:#181818;stroke-width:1.0;stroke-dasharray:2.0,2.0;" x1="606.5" x2="955.5" y1="462.7832" y2="462.7832"/><text fill="#000000" font-family="sans-serif" font-size="13" font-weight="bold" lengthAdjust="spacing" textLength="7" x="618.5" y="457.5205">9</text><text fill="#000000" font-family="sans-serif" font-size="13" lengthAdjust="spacing" textLength="184" x="629.5" y="457.5205">Response from external system</text><path d="M354.5,477.7832 L415.5,477.7832 L415.5,487.0742 L405.5,497.0742 L354.5,497.0742 L354.5,477.7832 " fill="#EEEEEE" style="stroke:#000000;stroke-width:1.5;"/><rect fill="none" height="98.5039" style="stroke:#000000;stroke-width:1.5;" width="314.5" x="354.5" y="477.7832"/><text fill="#000000" font-family="sans-serif" font-size="13" font-weight="bold" lengthAdjust="spacing" textLength="16" x="369.5" y="492.8115">alt</text><text fill="#000000" font-family="sans-serif" font-size="11" font-weight="bold" lengthAdjust="spacing" textLength="166" x="430.5" y="491.6533">[Name found in external Repo]</text><polygon fill="#181818" points="422.5,516.3652,412.5,520.3652,422.5,524.3652,418.5,520.3652" style="stroke:#181818;stroke-width:1.0;"/><line style="stroke:#181818;stroke-width:1.0;stroke-dasharray:2.0,2.0;" x1="416.5" x2="600.5" y1="520.3652" y2="520.3652"/><text fill="#000000" font-family="sans-serif" font-size="13" font-weight="bold" lengthAdjust="spacing" textLength="14" x="428.5" y="515.1025">10</text><text fill="#000000" font-family="sans-serif" font-size="13" lengthAdjust="spacing" textLength="22" x="446.5" y="515.1025">true</text><line style="stroke:#000000;stroke-width:1.0;stroke-dasharray:2.0,2.0;" x1="354.5" x2="669" y1="529.3652" y2="529.3652"/><text fill="#000000" font-family="sans-serif" font-size="11" font-weight="bold" lengthAdjust="spacing" textLength="187" x="359.5" y="541.2354">[Name not found in external Repo]</text><polygon fill="#181818" points="422.5,564.2871,412.5,568.2871,422.5,572.2871,418.5,568.2871" style="stroke:#181818;stroke-width:1.0;"/><line style="stroke:#181818;stroke-width:1.0;stroke-dasharray:2.0,2.0;" x1="416.5" x2="600.5" y1="568.2871" y2="568.2871"/><text fill="#000000" font-family="sans-serif" font-size="13" font-weight="bold" lengthAdjust="spacing" textLength="14" x="428.5" y="563.0244">11</text><text fill="#000000" font-family="sans-serif" font-size="13" lengthAdjust="spacing" textLength="27" x="446.5" y="563.0244">false</text><line style="stroke:#181818;stroke-width:1.0;stroke-dasharray:2.0,2.0;" x1="411.5" x2="453.5" y1="613.5781" y2="613.5781"/><line style="stroke:#181818;stroke-width:1.0;stroke-dasharray:2.0,2.0;" x1="453.5" x2="453.5" y1="613.5781" y2="626.5781"/><line style="stroke:#181818;stroke-width:1.0;stroke-dasharray:2.0,2.0;" x1="412.5" x2="453.5" y1="626.5781" y2="626.5781"/><polygon fill="#181818" points="422.5,622.5781,412.5,626.5781,422.5,630.5781,418.5,626.5781" style="stroke:#181818;stroke-width:1.0;"/><text fill="#000000" font-family="sans-serif" font-size="13" font-weight="bold" lengthAdjust="spacing" textLength="14" x="418.5" y="608.3154">12</text><text fill="#000000" font-family="sans-serif" font-size="13" lengthAdjust="spacing" textLength="68" x="436.5" y="608.3154">true or false</text><path d="M10,641.5781 L71,641.5781 L71,650.8691 L61,660.8691 L10,660.8691 L10,641.5781 " fill="#EEEEEE" style="stroke:#000000;stroke-width:1.5;"/><rect fill="none" height="286.25" style="stroke:#000000;stroke-width:1.5;" width="1230" x="10" y="641.5781"/><text fill="#000000" font-family="sans-serif" font-size="13" font-weight="bold" lengthAdjust="spacing" textLength="16" x="25" y="656.6064">alt</text><text fill="#000000" font-family="sans-serif" font-size="11" font-weight="bold" lengthAdjust="spacing" textLength="105" x="86" y="655.4482">[nameExists - true]</text><polygon fill="#181818" points="169.5,680.1602,159.5,684.1602,169.5,688.1602,165.5,684.1602" style="stroke:#181818;stroke-width:1.0;"/><line style="stroke:#181818;stroke-width:1.0;" x1="163.5" x2="410.5" y1="684.1602" y2="684.1602"/><text fill="#000000" font-family="sans-serif" font-size="13" font-weight="bold" lengthAdjust="spacing" textLength="14" x="175.5" y="678.8975">13</text><text fill="#000000" font-family="sans-serif" font-size="13" lengthAdjust="spacing" textLength="182" x="193.5" y="678.8975">throw IllegalArgumentException</text><line style="stroke:#000000;stroke-width:1.0;stroke-dasharray:2.0,2.0;" x1="10" x2="1240" y1="693.1602" y2="693.1602"/><text fill="#000000" font-family="sans-serif" font-size="11" font-weight="bold" lengthAdjust="spacing" textLength="127" x="15" y="705.0303">[nameNotExists - false]</text><polygon fill="#181818" points="1122.5,728.082,1132.5,732.082,1122.5,736.082,1126.5,732.082" style="stroke:#181818;stroke-width:1.0;"/><line style="stroke:#181818;stroke-width:1.0;" x1="411.5" x2="1128.5" y1="732.082" y2="732.082"/><text fill="#000000" font-family="sans-serif" font-size="13" font-weight="bold" lengthAdjust="spacing" textLength="14" x="418.5" y="726.8193">14</text><text fill="#000000" font-family="sans-serif" font-size="13" lengthAdjust="spacing" textLength="248" x="436.5" y="726.8193">newUser(username, password, Subscriber)</text><polygon fill="#181818" points="422.5,759.373,412.5,763.373,422.5,767.373,418.5,763.373" style="stroke:#181818;stroke-width:1.0;"/><line style="stroke:#181818;stroke-width:1.0;stroke-dasharray:2.0,2.0;" x1="416.5" x2="1198" y1="763.373" y2="763.373"/><text fill="#000000" font-family="sans-serif" font-size="13" font-weight="bold" lengthAdjust="spacing" textLength="14" x="428.5" y="758.1104">15</text><text fill="#000000" font-family="sans-serif" font-size="13" lengthAdjust="spacing" textLength="17" x="446.5" y="758.1104">obj</text><polygon fill="#181818" points="589.5,790.6641,599.5,794.6641,589.5,798.6641,593.5,794.6641" style="stroke:#181818;stroke-width:1.0;"/><line style="stroke:#181818;stroke-width:1.0;" x1="411.5" x2="595.5" y1="794.6641" y2="794.6641"/><text fill="#000000" font-family="sans-serif" font-size="13" font-weight="bold" lengthAdjust="spacing" textLength="14" x="418.5" y="789.4014">16</text><text fill="#000000" font-family="sans-serif" font-size="13" lengthAdjust="spacing" textLength="69" x="436.5" y="789.4014">saveBD(obj)</text><polygon fill="#181818" points="784.5,821.9551,794.5,825.9551,784.5,829.9551,788.5,825.9551" style="stroke:#181818;stroke-width:1.0;"/><line style="stroke:#181818;stroke-width:1.0;" x1="601.5" x2="790.5" y1="825.9551" y2="825.9551"/><text fill="#000000" font-family="sans-serif" font-size="13" font-weight="bold" lengthAdjust="spacing" textLength="14" x="608.5" y="820.6924">17</text><text fill="#000000" font-family="sans-serif" font-size="13" lengthAdjust="spacing" textLength="51" x="626.5" y="820.6924">save(obj)</text><polygon fill="#181818" points="422.5,853.2461,412.5,857.2461,422.5,861.2461,418.5,857.2461" style="stroke:#181818;stroke-width:1.0;"/><line style="stroke:#181818;stroke-width:1.0;stroke-dasharray:2.0,2.0;" x1="416.5" x2="795.5" y1="857.2461" y2="857.2461"/><text fill="#000000" font-family="sans-serif" font-size="13" font-weight="bold" lengthAdjust="spacing" textLength="14" x="428.5" y="851.9834">18</text><text fill="#000000" font-family="sans-serif" font-size="13" lengthAdjust="spacing" textLength="17" x="446.5" y="851.9834">obj</text><polygon fill="#181818" points="169.5,884.5371,159.5,888.5371,169.5,892.5371,165.5,888.5371" style="stroke:#181818;stroke-width:1.0;"/><line style="stroke:#181818;stroke-width:1.0;stroke-dasharray:2.0,2.0;" x1="163.5" x2="410.5" y1="888.5371" y2="888.5371"/><text fill="#000000" font-family="sans-serif" font-size="13" font-weight="bold" lengthAdjust="spacing" textLength="14" x="175.5" y="883.2744">19</text><text fill="#000000" font-family="sans-serif" font-size="13" lengthAdjust="spacing" textLength="25" x="193.5" y="883.2744">user</text><polygon fill="#181818" points="48.5,915.8281,38.5,919.8281,48.5,923.8281,44.5,919.8281" style="stroke:#181818;stroke-width:1.0;"/><line style="stroke:#181818;stroke-width:1.0;" x1="42.5" x2="157.5" y1="919.8281" y2="919.8281"/><text fill="#000000" font-family="sans-serif" font-size="13" font-weight="bold" lengthAdjust="spacing" textLength="14" x="54.5" y="914.5654">20</text><text fill="#000000" font-family="sans-serif" font-size="13" lengthAdjust="spacing" textLength="25" x="72.5" y="914.5654">user</text><!--SRC=[ZPJDRXen4CVlVeeHbn89n7qFbVXInA5f5Se363CGHrvxQyy6KDLtxzXUBw4Xg4X8kpE__tpPirzaIqwvkZ582CwA-6xRUejU2D9a4DRugqMh41PQ7hoiOGpJ09k0VWGhE4fBG0uy7dGWz20jIALSQqa8gSXv64Hs03B0L8b6Uj9ADr4sgA9dxYnvPqp7pCcR6zGQ_PjMc93uV0DvniO5pHdFYOglTwdPekTcYxlayiITMMbwlXXkg1Ap4MAgOFmrTGCL_FY-_WcJCYEHhEoDZR2ts8TpZv8mv-QX1s9NSArN-20IovgOleAzjhlLFfBB4sl3i0sne9h121HmjiZexBpf_Ez0QGYU-0dsV5exq1QCKzBamG7_SWGOzraJZIbXPisv1nCMYwo0V8i2JS0ii8xkfYZ5bg5My4BKvBvYsUzABfA2_YlbOJukUT9HCS7EEFaTnNzkYFl6dZ4qpdB1U-zgA488PpwMEWa_3gkd-cO-6qMqVpAE_mgobopEKUnEn7zt6wxI0AzQ9cEjiUKyGjxNlefoYRfhII_U7M75ktUGPkeFROsMbYU53Md-5gIQOw0dHtsiIp4bs8OZMJnU7TK86Xd2qVdT2DRjDYYl-PEI3_2RR1h-K8ml2-2shrSHK_yL1Fc6iyMGlGyVBWlVomnSkxlhUZFkfUzOPNAKHUHbxQnnkdy1]--></g></svg>