<?xml version="1.0" encoding="us-ascii" standalone="no"?><svg xmlns="http://www.w3.org/2000/svg" xmlns:xlink="http://www.w3.org/1999/xlink" contentStyleType="text/css" height="538px" preserveAspectRatio="none" style="width:493px;height:538px;background:#FFFFFF;" version="1.1" viewBox="0 0 493 538" width="493px" zoomAndPan="magnify"><defs/><g><text fill="#000000" font-family="sans-serif" font-size="14" font-weight="bold" lengthAdjust="spacing" textLength="465" x="10" y="30.1074">Software Design Document - As User, I want to register an account</text><rect fill="#ADD8E6" height="487.2012" style="stroke:#181818;stroke-width:0.5;" width="246" x="226.25" y="45.6211"/><text fill="#000000" font-family="sans-serif" font-size="13" font-weight="bold" lengthAdjust="spacing" textLength="46" x="326.25" y="59.6494">System</text><rect fill="none" height="155.7949" style="stroke:#000000;stroke-width:1.5;" width="424.5" x="22.75" y="278.4063"/><line style="stroke:#181818;stroke-width:0.5;stroke-dasharray:5.0,5.0;" x1="49.75" x2="49.75" y1="123.2422" y2="451.2012"/><line style="stroke:#181818;stroke-width:0.5;stroke-dasharray:5.0,5.0;" x1="255.25" x2="255.25" y1="123.2422" y2="451.2012"/><line style="stroke:#181818;stroke-width:0.5;stroke-dasharray:5.0,5.0;" x1="443.25" x2="443.25" y1="123.2422" y2="451.2012"/><text fill="#000000" font-family="sans-serif" font-size="14" lengthAdjust="spacing" textLength="29" x="32.75" y="119.7285">User</text><ellipse cx="50.25" cy="53.1211" fill="#E2E2F0" rx="8" ry="8" style="stroke:#181818;stroke-width:0.5;"/><path d="M50.25,61.1211 L50.25,88.1211 M37.25,69.1211 L63.25,69.1211 M50.25,88.1211 L37.25,103.1211 M50.25,88.1211 L63.25,103.1211 " fill="none" style="stroke:#181818;stroke-width:0.5;"/><text fill="#000000" font-family="sans-serif" font-size="14" lengthAdjust="spacing" textLength="29" x="32.75" y="465.3086">User</text><ellipse cx="50.25" cy="477.3223" fill="#E2E2F0" rx="8" ry="8" style="stroke:#181818;stroke-width:0.5;"/><path d="M50.25,485.3223 L50.25,512.3223 M37.25,493.3223 L63.25,493.3223 M50.25,512.3223 L37.25,527.3223 M50.25,512.3223 L63.25,527.3223 " fill="none" style="stroke:#181818;stroke-width:0.5;"/><rect fill="#E2E2F0" height="32.6211" rx="2.5" ry="2.5" style="stroke:#181818;stroke-width:0.5;" width="50" x="230.25" y="89.6211"/><text fill="#000000" font-family="sans-serif" font-size="14" lengthAdjust="spacing" textLength="36" x="237.25" y="111.7285">user1</text><rect fill="#E2E2F0" height="32.6211" rx="2.5" ry="2.5" style="stroke:#181818;stroke-width:0.5;" width="50" x="230.25" y="450.2012"/><text fill="#000000" font-family="sans-serif" font-size="14" lengthAdjust="spacing" textLength="36" x="237.25" y="472.3086">user1</text><rect fill="#E2E2F0" height="32.6211" rx="2.5" ry="2.5" style="stroke:#181818;stroke-width:0.5;" width="50" x="418.25" y="89.6211"/><text fill="#000000" font-family="sans-serif" font-size="14" lengthAdjust="spacing" textLength="36" x="425.25" y="111.7285">user2</text><rect fill="#E2E2F0" height="32.6211" rx="2.5" ry="2.5" style="stroke:#181818;stroke-width:0.5;" width="50" x="418.25" y="450.2012"/><text fill="#000000" font-family="sans-serif" font-size="14" lengthAdjust="spacing" textLength="36" x="425.25" y="472.3086">user2</text><polygon fill="#181818" points="243.25,152.5332,253.25,156.5332,243.25,160.5332,247.25,156.5332" style="stroke:#181818;stroke-width:1.0;"/><line style="stroke:#181818;stroke-width:1.0;" x1="50.25" x2="249.25" y1="156.5332" y2="156.5332"/><text fill="#000000" font-family="sans-serif" font-size="13" font-weight="bold" lengthAdjust="spacing" textLength="7" x="57.25" y="151.2705">1</text><text fill="#000000" font-family="sans-serif" font-size="13" lengthAdjust="spacing" textLength="86" x="68.25" y="151.2705">POST /register</text><line style="stroke:#181818;stroke-width:1.0;" x1="255.25" x2="297.25" y1="187.8242" y2="187.8242"/><line style="stroke:#181818;stroke-width:1.0;" x1="297.25" x2="297.25" y1="187.8242" y2="200.8242"/><line style="stroke:#181818;stroke-width:1.0;" x1="256.25" x2="297.25" y1="200.8242" y2="200.8242"/><polygon fill="#181818" points="266.25,196.8242,256.25,200.8242,266.25,204.8242,262.25,200.8242" style="stroke:#181818;stroke-width:1.0;"/><text fill="#000000" font-family="sans-serif" font-size="13" font-weight="bold" lengthAdjust="spacing" textLength="7" x="262.25" y="182.5615">2</text><text fill="#000000" font-family="sans-serif" font-size="13" lengthAdjust="spacing" textLength="87" x="273.25" y="182.5615">findUser(name)</text><polygon fill="#181818" points="431.25,228.1152,441.25,232.1152,431.25,236.1152,435.25,232.1152" style="stroke:#181818;stroke-width:1.0;"/><line style="stroke:#181818;stroke-width:1.0;" x1="255.25" x2="437.25" y1="232.1152" y2="232.1152"/><text fill="#000000" font-family="sans-serif" font-size="13" font-weight="bold" lengthAdjust="spacing" textLength="7" x="262.25" y="226.8525">3</text><text fill="#000000" font-family="sans-serif" font-size="13" lengthAdjust="spacing" textLength="153" x="273.25" y="226.8525">GET /user/external/{name}</text><polygon fill="#181818" points="266.25,259.4063,256.25,263.4063,266.25,267.4063,262.25,263.4063" style="stroke:#181818;stroke-width:1.0;"/><line style="stroke:#181818;stroke-width:1.0;stroke-dasharray:2.0,2.0;" x1="260.25" x2="442.25" y1="263.4063" y2="263.4063"/><text fill="#000000" font-family="sans-serif" font-size="13" font-weight="bold" lengthAdjust="spacing" textLength="7" x="272.25" y="258.1436">4</text><text fill="#000000" font-family="sans-serif" font-size="13" lengthAdjust="spacing" textLength="68" x="283.25" y="258.1436">true or false</text><path d="M22.75,278.4063 L83.75,278.4063 L83.75,287.6973 L73.75,297.6973 L22.75,297.6973 L22.75,278.4063 " fill="#EEEEEE" style="stroke:#000000;stroke-width:1.5;"/><rect fill="none" height="155.7949" style="stroke:#000000;stroke-width:1.5;" width="424.5" x="22.75" y="278.4063"/><text fill="#000000" font-family="sans-serif" font-size="13" font-weight="bold" lengthAdjust="spacing" textLength="16" x="37.75" y="293.4346">alt</text><text fill="#000000" font-family="sans-serif" font-size="11" font-weight="bold" lengthAdjust="spacing" textLength="105" x="98.75" y="292.2764">[nameExists - true]</text><line style="stroke:#181818;stroke-width:1.0;stroke-dasharray:2.0,2.0;" x1="255.25" x2="297.25" y1="320.9883" y2="320.9883"/><line style="stroke:#181818;stroke-width:1.0;stroke-dasharray:2.0,2.0;" x1="297.25" x2="297.25" y1="320.9883" y2="333.9883"/><line style="stroke:#181818;stroke-width:1.0;stroke-dasharray:2.0,2.0;" x1="256.25" x2="297.25" y1="333.9883" y2="333.9883"/><polygon fill="#181818" points="266.25,329.9883,256.25,333.9883,266.25,337.9883,262.25,333.9883" style="stroke:#181818;stroke-width:1.0;"/><text fill="#000000" font-family="sans-serif" font-size="13" font-weight="bold" lengthAdjust="spacing" textLength="7" x="262.25" y="315.7256">5</text><text fill="#000000" font-family="sans-serif" font-size="13" lengthAdjust="spacing" textLength="162" x="273.25" y="315.7256">informs operation insuccess</text><line style="stroke:#000000;stroke-width:1.0;stroke-dasharray:2.0,2.0;" x1="22.75" x2="447.25" y1="342.9883" y2="342.9883"/><text fill="#000000" font-family="sans-serif" font-size="11" font-weight="bold" lengthAdjust="spacing" textLength="127" x="27.75" y="354.8584">[nameNotExists - false]</text><line style="stroke:#181818;stroke-width:1.0;" x1="255.25" x2="297.25" y1="381.9102" y2="381.9102"/><line style="stroke:#181818;stroke-width:1.0;" x1="297.25" x2="297.25" y1="381.9102" y2="394.9102"/><line style="stroke:#181818;stroke-width:1.0;" x1="256.25" x2="297.25" y1="394.9102" y2="394.9102"/><polygon fill="#181818" points="266.25,390.9102,256.25,394.9102,266.25,398.9102,262.25,394.9102" style="stroke:#181818;stroke-width:1.0;"/><text fill="#000000" font-family="sans-serif" font-size="13" font-weight="bold" lengthAdjust="spacing" textLength="7" x="262.25" y="376.6475">6</text><text fill="#000000" font-family="sans-serif" font-size="13" lengthAdjust="spacing" textLength="139" x="273.25" y="376.6475">create(name, password)</text><polygon fill="#181818" points="61.25,422.2012,51.25,426.2012,61.25,430.2012,57.25,426.2012" style="stroke:#181818;stroke-width:1.0;"/><line style="stroke:#181818;stroke-width:1.0;stroke-dasharray:2.0,2.0;" x1="55.25" x2="254.25" y1="426.2012" y2="426.2012"/><text fill="#000000" font-family="sans-serif" font-size="13" font-weight="bold" lengthAdjust="spacing" textLength="7" x="67.25" y="420.9385">7</text><text fill="#000000" font-family="sans-serif" font-size="13" lengthAdjust="spacing" textLength="170" x="78.25" y="420.9385">informs operation (in)success</text><!--SRC=[RP11ImCn48Nlyok6zM0BBSKUFGY55l6YGlK7JBEpDP2TBCc4LiJ_xcIbYwAvPTvxtvlacef65_iXi396WNgNqXyu0QZNmBYFdPueCMuv-wFWDhhIioWkSPFnDNDQu0EUo2OQCV7HP-M494ZEnI8AG4vZmgPw6wIC6mU7UCPc_sxMli6hu8zlUWY5OQ2atlcXuffYWPinOSw_qleYhO6bHKC2R1mkx-eCR_7vQV-2gyj607KwYPsNjYuq4-fv_aDRctY_is2jMF7Pea9XzL5zdp0QbXD5Kx5lIzXHo6mF3OhLjpjRfG577T3Eo9zYNhgO-ennu4JgezWa5-SuPs0ZZP37g1Fdcp-1BXoNc9J79onme9nFCRNpNuNs8V_rpRpCfqPf0U0B]--></g></svg>