<?xml version="1.0" encoding="us-ascii" standalone="no"?><svg xmlns="http://www.w3.org/2000/svg" xmlns:xlink="http://www.w3.org/1999/xlink" contentStyleType="text/css" height="941px" preserveAspectRatio="none" style="width:691px;height:941px;background:#FFFFFF;" version="1.1" viewBox="0 0 691 941" width="691px" zoomAndPan="magnify"><defs/><g><text fill="#000000" font-family="sans-serif" font-size="14" font-weight="bold" lengthAdjust="spacing" textLength="374" x="159.5" y="30.1074">Software Design Document - To create a Subscription</text><rect fill="none" height="607.209" style="stroke:#000000;stroke-width:1.5;" width="674" x="10" y="234.1152"/><rect fill="none" height="280.959" style="stroke:#000000;stroke-width:1.5;" width="654" x="20" y="433.4922"/><line style="stroke:#181818;stroke-width:0.5;stroke-dasharray:5.0,5.0;" x1="63" x2="63" y1="123.2422" y2="858.3242"/><line style="stroke:#181818;stroke-width:0.5;stroke-dasharray:5.0,5.0;" x1="310" x2="310" y1="123.2422" y2="858.3242"/><line style="stroke:#181818;stroke-width:0.5;stroke-dasharray:5.0,5.0;" x1="451" x2="451" y1="123.2422" y2="858.3242"/><line style="stroke:#181818;stroke-width:0.5;stroke-dasharray:5.0,5.0;" x1="518" x2="518" y1="123.2422" y2="858.3242"/><line style="stroke:#181818;stroke-width:0.5;stroke-dasharray:5.0,5.0;" x1="610" x2="610" y1="123.2422" y2="858.3242"/><text fill="#000000" font-family="sans-serif" font-size="14" lengthAdjust="spacing" textLength="61" x="30" y="119.7285">Costumer</text><ellipse cx="63.5" cy="53.1211" fill="#E2E2F0" rx="8" ry="8" style="stroke:#181818;stroke-width:0.5;"/><path d="M63.5,61.1211 L63.5,88.1211 M50.5,69.1211 L76.5,69.1211 M63.5,88.1211 L50.5,103.1211 M63.5,88.1211 L76.5,103.1211 " fill="none" style="stroke:#181818;stroke-width:0.5;"/><text fill="#000000" font-family="sans-serif" font-size="14" lengthAdjust="spacing" textLength="61" x="30" y="872.4316">Costumer</text><ellipse cx="63.5" cy="884.4453" fill="#E2E2F0" rx="8" ry="8" style="stroke:#181818;stroke-width:0.5;"/><path d="M63.5,892.4453 L63.5,919.4453 M50.5,900.4453 L76.5,900.4453 M63.5,919.4453 L50.5,934.4453 M63.5,919.4453 L76.5,934.4453 " fill="none" style="stroke:#181818;stroke-width:0.5;"/><rect fill="#E2E2F0" height="32.6211" rx="2.5" ry="2.5" style="stroke:#181818;stroke-width:0.5;" width="107" x="257" y="89.6211"/><text fill="#000000" font-family="sans-serif" font-size="14" lengthAdjust="spacing" textLength="93" x="264" y="111.7285">Subscriptions1</text><rect fill="#E2E2F0" height="32.6211" rx="2.5" ry="2.5" style="stroke:#181818;stroke-width:0.5;" width="107" x="257" y="857.3242"/><text fill="#000000" font-family="sans-serif" font-size="14" lengthAdjust="spacing" textLength="93" x="264" y="879.4316">Subscriptions1</text><rect fill="#E2E2F0" height="32.6211" rx="2.5" ry="2.5" style="stroke:#181818;stroke-width:0.5;" width="57" x="423" y="89.6211"/><text fill="#000000" font-family="sans-serif" font-size="14" lengthAdjust="spacing" textLength="43" x="430" y="111.7285">Plans1</text><rect fill="#E2E2F0" height="32.6211" rx="2.5" ry="2.5" style="stroke:#181818;stroke-width:0.5;" width="57" x="423" y="857.3242"/><text fill="#000000" font-family="sans-serif" font-size="14" lengthAdjust="spacing" textLength="43" x="430" y="879.4316">Plans1</text><rect fill="#E2E2F0" height="32.6211" rx="2.5" ry="2.5" style="stroke:#181818;stroke-width:0.5;" width="57" x="490" y="89.6211"/><text fill="#000000" font-family="sans-serif" font-size="14" lengthAdjust="spacing" textLength="43" x="497" y="111.7285">Plans2</text><rect fill="#E2E2F0" height="32.6211" rx="2.5" ry="2.5" style="stroke:#181818;stroke-width:0.5;" width="57" x="490" y="857.3242"/><text fill="#000000" font-family="sans-serif" font-size="14" lengthAdjust="spacing" textLength="43" x="497" y="879.4316">Plans2</text><rect fill="#E2E2F0" height="32.6211" rx="2.5" ry="2.5" style="stroke:#181818;stroke-width:0.5;" width="107" x="557" y="89.6211"/><text fill="#000000" font-family="sans-serif" font-size="14" lengthAdjust="spacing" textLength="93" x="564" y="111.7285">Subscriptions2</text><rect fill="#E2E2F0" height="32.6211" rx="2.5" ry="2.5" style="stroke:#181818;stroke-width:0.5;" width="107" x="557" y="857.3242"/><text fill="#000000" font-family="sans-serif" font-size="14" lengthAdjust="spacing" textLength="93" x="564" y="879.4316">Subscriptions2</text><polygon fill="#181818" points="298.5,152.5332,308.5,156.5332,298.5,160.5332,302.5,156.5332" style="stroke:#181818;stroke-width:1.0;"/><line style="stroke:#181818;stroke-width:1.0;" x1="63.5" x2="304.5" y1="156.5332" y2="156.5332"/><text fill="#000000" font-family="sans-serif" font-size="13" font-weight="bold" lengthAdjust="spacing" textLength="7" x="70.5" y="151.2705">1</text><text fill="#000000" font-family="sans-serif" font-size="13" lengthAdjust="spacing" textLength="160" x="81.5" y="151.2705">POST /subscriptions/create</text><polygon fill="#181818" points="439.5,183.8242,449.5,187.8242,439.5,191.8242,443.5,187.8242" style="stroke:#181818;stroke-width:1.0;"/><line style="stroke:#181818;stroke-width:1.0;" x1="310.5" x2="445.5" y1="187.8242" y2="187.8242"/><text fill="#000000" font-family="sans-serif" font-size="13" font-weight="bold" lengthAdjust="spacing" textLength="7" x="317.5" y="182.5615">2</text><text fill="#000000" font-family="sans-serif" font-size="13" lengthAdjust="spacing" textLength="106" x="328.5" y="182.5615">GET /plans/active/</text><polygon fill="#181818" points="506.5,215.1152,516.5,219.1152,506.5,223.1152,510.5,219.1152" style="stroke:#181818;stroke-width:1.0;"/><line style="stroke:#181818;stroke-width:1.0;" x1="310.5" x2="512.5" y1="219.1152" y2="219.1152"/><text fill="#000000" font-family="sans-serif" font-size="13" font-weight="bold" lengthAdjust="spacing" textLength="7" x="317.5" y="213.8525">3</text><text fill="#000000" font-family="sans-serif" font-size="13" lengthAdjust="spacing" textLength="106" x="328.5" y="213.8525">GET /plans/active/</text><path d="M10,234.1152 L71,234.1152 L71,243.4063 L61,253.4063 L10,253.4063 L10,234.1152 " fill="#EEEEEE" style="stroke:#000000;stroke-width:1.5;"/><rect fill="none" height="607.209" style="stroke:#000000;stroke-width:1.5;" width="674" x="10" y="234.1152"/><text fill="#000000" font-family="sans-serif" font-size="13" font-weight="bold" lengthAdjust="spacing" textLength="16" x="25" y="249.1436">alt</text><text fill="#000000" font-family="sans-serif" font-size="11" font-weight="bold" lengthAdjust="spacing" textLength="87" x="86" y="247.9854">[plan not found]</text><polygon fill="#181818" points="321.5,272.6973,311.5,276.6973,321.5,280.6973,317.5,276.6973" style="stroke:#181818;stroke-width:1.0;"/><line style="stroke:#181818;stroke-width:1.0;" x1="315.5" x2="450.5" y1="276.6973" y2="276.6973"/><text fill="#000000" font-family="sans-serif" font-size="13" font-weight="bold" lengthAdjust="spacing" textLength="7" x="327.5" y="271.4346">4</text><text fill="#000000" font-family="sans-serif" font-size="13" lengthAdjust="spacing" textLength="103" x="338.5" y="271.4346">statusCode = 404</text><polygon fill="#181818" points="321.5,303.9883,311.5,307.9883,321.5,311.9883,317.5,307.9883" style="stroke:#181818;stroke-width:1.0;"/><line style="stroke:#181818;stroke-width:1.0;" x1="315.5" x2="517.5" y1="307.9883" y2="307.9883"/><text fill="#000000" font-family="sans-serif" font-size="13" font-weight="bold" lengthAdjust="spacing" textLength="7" x="327.5" y="302.7256">5</text><text fill="#000000" font-family="sans-serif" font-size="13" lengthAdjust="spacing" textLength="103" x="338.5" y="302.7256">statusCode = 404</text><polygon fill="#181818" points="74.5,335.2793,64.5,339.2793,74.5,343.2793,70.5,339.2793" style="stroke:#181818;stroke-width:1.0;"/><line style="stroke:#181818;stroke-width:1.0;stroke-dasharray:2.0,2.0;" x1="68.5" x2="309.5" y1="339.2793" y2="339.2793"/><text fill="#000000" font-family="sans-serif" font-size="13" font-weight="bold" lengthAdjust="spacing" textLength="7" x="80.5" y="334.0166">6</text><text fill="#000000" font-family="sans-serif" font-size="13" lengthAdjust="spacing" textLength="205" x="91.5" y="334.0166">informs operation wasn't successful</text><line style="stroke:#000000;stroke-width:1.0;stroke-dasharray:2.0,2.0;" x1="10" x2="684" y1="348.2793" y2="348.2793"/><text fill="#000000" font-family="sans-serif" font-size="11" font-weight="bold" lengthAdjust="spacing" textLength="66" x="15" y="360.1494">[plan found]</text><polygon fill="#181818" points="321.5,383.2012,311.5,387.2012,321.5,391.2012,317.5,387.2012" style="stroke:#181818;stroke-width:1.0;"/><line style="stroke:#181818;stroke-width:1.0;" x1="315.5" x2="450.5" y1="387.2012" y2="387.2012"/><text fill="#000000" font-family="sans-serif" font-size="13" font-weight="bold" lengthAdjust="spacing" textLength="7" x="327.5" y="381.9385">7</text><text fill="#000000" font-family="sans-serif" font-size="13" lengthAdjust="spacing" textLength="103" x="338.5" y="381.9385">statusCode = 200</text><polygon fill="#181818" points="321.5,414.4922,311.5,418.4922,321.5,422.4922,317.5,418.4922" style="stroke:#181818;stroke-width:1.0;"/><line style="stroke:#181818;stroke-width:1.0;" x1="315.5" x2="517.5" y1="418.4922" y2="418.4922"/><text fill="#000000" font-family="sans-serif" font-size="13" font-weight="bold" lengthAdjust="spacing" textLength="7" x="327.5" y="413.2295">8</text><text fill="#000000" font-family="sans-serif" font-size="13" lengthAdjust="spacing" textLength="103" x="338.5" y="413.2295">statusCode = 404</text><path d="M20,433.4922 L81,433.4922 L81,442.7832 L71,452.7832 L20,452.7832 L20,433.4922 " fill="#EEEEEE" style="stroke:#000000;stroke-width:1.5;"/><rect fill="none" height="280.959" style="stroke:#000000;stroke-width:1.5;" width="654" x="20" y="433.4922"/><text fill="#000000" font-family="sans-serif" font-size="13" font-weight="bold" lengthAdjust="spacing" textLength="16" x="35" y="448.5205">alt</text><text fill="#000000" font-family="sans-serif" font-size="11" font-weight="bold" lengthAdjust="spacing" textLength="113" x="96" y="447.3623">[subscription found]</text><line style="stroke:#181818;stroke-width:1.0;" x1="310.5" x2="352.5" y1="476.0742" y2="476.0742"/><line style="stroke:#181818;stroke-width:1.0;" x1="352.5" x2="352.5" y1="476.0742" y2="489.0742"/><line style="stroke:#181818;stroke-width:1.0;" x1="311.5" x2="352.5" y1="489.0742" y2="489.0742"/><polygon fill="#181818" points="321.5,485.0742,311.5,489.0742,321.5,493.0742,317.5,489.0742" style="stroke:#181818;stroke-width:1.0;"/><text fill="#000000" font-family="sans-serif" font-size="13" font-weight="bold" lengthAdjust="spacing" textLength="7" x="317.5" y="470.8115">9</text><text fill="#000000" font-family="sans-serif" font-size="13" lengthAdjust="spacing" textLength="92" x="328.5" y="470.8115">findSubscription</text><polygon fill="#181818" points="598.5,516.3652,608.5,520.3652,598.5,524.3652,602.5,520.3652" style="stroke:#181818;stroke-width:1.0;"/><line style="stroke:#181818;stroke-width:1.0;" x1="310.5" x2="604.5" y1="520.3652" y2="520.3652"/><text fill="#000000" font-family="sans-serif" font-size="13" font-weight="bold" lengthAdjust="spacing" textLength="14" x="317.5" y="515.1025">10</text><text fill="#000000" font-family="sans-serif" font-size="13" lengthAdjust="spacing" textLength="106" x="335.5" y="515.1025">GET /plans/active/</text><polygon fill="#181818" points="321.5,547.6563,311.5,551.6563,321.5,555.6563,317.5,551.6563" style="stroke:#181818;stroke-width:1.0;"/><line style="stroke:#181818;stroke-width:1.0;" x1="315.5" x2="609.5" y1="551.6563" y2="551.6563"/><text fill="#000000" font-family="sans-serif" font-size="13" font-weight="bold" lengthAdjust="spacing" textLength="14" x="327.5" y="546.3936">11</text><text fill="#000000" font-family="sans-serif" font-size="13" lengthAdjust="spacing" textLength="103" x="345.5" y="546.3936">statusCode = 200</text><polygon fill="#181818" points="74.5,578.9473,64.5,582.9473,74.5,586.9473,70.5,582.9473" style="stroke:#181818;stroke-width:1.0;"/><line style="stroke:#181818;stroke-width:1.0;stroke-dasharray:2.0,2.0;" x1="68.5" x2="309.5" y1="582.9473" y2="582.9473"/><text fill="#000000" font-family="sans-serif" font-size="13" font-weight="bold" lengthAdjust="spacing" textLength="14" x="80.5" y="577.6846">12</text><text fill="#000000" font-family="sans-serif" font-size="13" lengthAdjust="spacing" textLength="205" x="98.5" y="577.6846">informs operation wasn't successful</text><line style="stroke:#000000;stroke-width:1.0;stroke-dasharray:2.0,2.0;" x1="20" x2="674" y1="591.9473" y2="591.9473"/><text fill="#000000" font-family="sans-serif" font-size="11" font-weight="bold" lengthAdjust="spacing" textLength="134" x="25" y="603.8174">[subscription not found]</text><line style="stroke:#181818;stroke-width:1.0;" x1="310.5" x2="352.5" y1="630.8691" y2="630.8691"/><line style="stroke:#181818;stroke-width:1.0;" x1="352.5" x2="352.5" y1="630.8691" y2="643.8691"/><line style="stroke:#181818;stroke-width:1.0;" x1="311.5" x2="352.5" y1="643.8691" y2="643.8691"/><polygon fill="#181818" points="321.5,639.8691,311.5,643.8691,321.5,647.8691,317.5,643.8691" style="stroke:#181818;stroke-width:1.0;"/><text fill="#000000" font-family="sans-serif" font-size="13" font-weight="bold" lengthAdjust="spacing" textLength="14" x="317.5" y="625.6064">13</text><text fill="#000000" font-family="sans-serif" font-size="13" lengthAdjust="spacing" textLength="92" x="335.5" y="625.6064">findSubscription</text><polygon fill="#181818" points="598.5,671.1602,608.5,675.1602,598.5,679.1602,602.5,675.1602" style="stroke:#181818;stroke-width:1.0;"/><line style="stroke:#181818;stroke-width:1.0;" x1="310.5" x2="604.5" y1="675.1602" y2="675.1602"/><text fill="#000000" font-family="sans-serif" font-size="13" font-weight="bold" lengthAdjust="spacing" textLength="14" x="317.5" y="669.8975">14</text><text fill="#000000" font-family="sans-serif" font-size="13" lengthAdjust="spacing" textLength="106" x="335.5" y="669.8975">GET /plans/active/</text><polygon fill="#181818" points="321.5,702.4512,311.5,706.4512,321.5,710.4512,317.5,706.4512" style="stroke:#181818;stroke-width:1.0;"/><line style="stroke:#181818;stroke-width:1.0;" x1="315.5" x2="609.5" y1="706.4512" y2="706.4512"/><text fill="#000000" font-family="sans-serif" font-size="13" font-weight="bold" lengthAdjust="spacing" textLength="14" x="327.5" y="701.1885">15</text><text fill="#000000" font-family="sans-serif" font-size="13" lengthAdjust="spacing" textLength="103" x="345.5" y="701.1885">statusCode = 404</text><line style="stroke:#181818;stroke-width:1.0;" x1="310.5" x2="352.5" y1="744.7422" y2="744.7422"/><line style="stroke:#181818;stroke-width:1.0;" x1="352.5" x2="352.5" y1="744.7422" y2="757.7422"/><line style="stroke:#181818;stroke-width:1.0;" x1="311.5" x2="352.5" y1="757.7422" y2="757.7422"/><polygon fill="#181818" points="321.5,753.7422,311.5,757.7422,321.5,761.7422,317.5,757.7422" style="stroke:#181818;stroke-width:1.0;"/><text fill="#000000" font-family="sans-serif" font-size="13" font-weight="bold" lengthAdjust="spacing" textLength="14" x="317.5" y="739.4795">16</text><text fill="#000000" font-family="sans-serif" font-size="13" lengthAdjust="spacing" textLength="36" x="335.5" y="739.4795">create</text><line style="stroke:#181818;stroke-width:1.0;" x1="310.5" x2="352.5" y1="789.0332" y2="789.0332"/><line style="stroke:#181818;stroke-width:1.0;" x1="352.5" x2="352.5" y1="789.0332" y2="802.0332"/><line style="stroke:#181818;stroke-width:1.0;" x1="311.5" x2="352.5" y1="802.0332" y2="802.0332"/><polygon fill="#181818" points="321.5,798.0332,311.5,802.0332,321.5,806.0332,317.5,802.0332" style="stroke:#181818;stroke-width:1.0;"/><text fill="#000000" font-family="sans-serif" font-size="13" font-weight="bold" lengthAdjust="spacing" textLength="14" x="317.5" y="783.7705">17</text><text fill="#000000" font-family="sans-serif" font-size="13" lengthAdjust="spacing" textLength="26" x="335.5" y="783.7705">save</text><polygon fill="#181818" points="74.5,829.3242,64.5,833.3242,74.5,837.3242,70.5,833.3242" style="stroke:#181818;stroke-width:1.0;"/><line style="stroke:#181818;stroke-width:1.0;stroke-dasharray:2.0,2.0;" x1="68.5" x2="309.5" y1="833.3242" y2="833.3242"/><text fill="#000000" font-family="sans-serif" font-size="13" font-weight="bold" lengthAdjust="spacing" textLength="14" x="80.5" y="828.0615">18</text><text fill="#000000" font-family="sans-serif" font-size="13" lengthAdjust="spacing" textLength="152" x="98.5" y="828.0615">informs operation success</text><!--SRC=[jP9DQiCm48NtEiMGJLR1gSWgq49eIfSDE1UOAECYi2MZ6INqzfLifzZzIKEXMbcQRvxU6skEKRpnJLkJ47Ydyjx5va11AR5I4vI-aZC6WYsnVNMmzIOsv0GMiFTW0c7gH2ZZWKsmhTYaej283p1xz2m93ZD0XerHBGQnnhQOscVZ3hxhaFADfyoknaijVtvJr1z5VKLUN-IrKcfZOF6GDx26tKkvXuB7RD5dKYeJ2SpQaD3dfqIs-SuYnRCdAYQ8_W71MY0VWVC2bO_kg5GdENX8RImeaH_zaU0ULijL3-YhH7Tp0bAODLXN-T0m-9O2vX1mHdPp0Ox647CLQvKNrKozcHkCwENo1XyvtdXyW_8mc7x8bNN7wViOrVMLsUfhtlumWYx_nEtef_opvMvQzEMYJu-jFsGyqQ_vXc23wB3U0G00]--></g></svg>